<svg xmlns="http://www.w3.org/2000/svg" xmlns:xlink="http://www.w3.org/1999/xlink" width="47" height="32" viewBox="0 0 47 32"><defs><clipPath id="a"><rect width="47" height="32" transform="translate(-0.455 0.39)" fill="#fff"/></clipPath></defs><g transform="translate(0.455 -0.39)"><g transform="translate(0 0)" clip-path="url(#a)"><path d="M24.657,30.2H23.2a2.917,2.917,0,0,1,2.914-2.914h8.014a1.457,1.457,0,0,0,0-2.914H27.443l-8.014-2.914H13V20h6.685L27.7,22.914h6.429a2.914,2.914,0,0,1,0,5.828H26.114A1.459,1.459,0,0,0,24.657,30.2" transform="translate(-3.529 -5.131)" fill="#fff"/><path d="M30.663,38.571H28.9L16.518,34.2H13V32.742h3.768l12.385,4.371h1.154l17.944-9.331a1.707,1.707,0,0,0,.447-.868,1.458,1.458,0,0,0-1.357-1.453L35.8,29.067l-.435-1.392L47.241,24a2.917,2.917,0,0,1,2.914,2.914,3.209,3.209,0,0,1-.941,1.971l-.179.132Z" transform="translate(-3.529 -6.217)" fill="#fff"/><rect height="1" transform="translate(6.545 25.39)" fill="#fff"/><rect width="2" height="1" transform="translate(2.545 25.39)" fill="#fff"/><path d="M8.742,34.028H0V32.571H8.742V19.457H0V18H8.742A1.459,1.459,0,0,1,10.2,19.457V32.571a1.459,1.459,0,0,1-1.457,1.457" transform="translate(0 -4.588)" fill="#fff"/><path d="M50.241,7.285H16.728a.729.729,0,0,1-.652-1.054L18.991.4a.729.729,0,0,1,.652-.4H31.3a.734.734,0,0,1,.138.013L50.379,3.656a.728.728,0,0,1,.591.715V6.557a.729.729,0,0,1-.729.729M17.907,5.828H49.513V4.973L31.23,1.457H20.093Z" transform="translate(-4.343 0.298)" fill="#fff"/><path d="M14.991,6.883,12.076,1.054A.729.729,0,0,1,12.728,0h3.643V1.457H13.907L16.294,6.23Z" transform="translate(-3.257 0.298)" fill="#fff"/><path d="M30.485,13.834H23.2a.728.728,0,0,1-.691-.5L21.051,8.964l1.383-.46,1.291,3.873H30.41L51.465,8.02l.3,1.427L30.633,13.818a.723.723,0,0,1-.148.015" transform="translate(-5.715 -1.879)" fill="#fff"/><rect width="7" height="1" transform="translate(-0.455 0.39)" fill="#fff"/><rect width="5" height="1" transform="translate(2.545 3.39)" fill="#fff"/><rect width="2" height="1" transform="translate(6.545 6.39)" fill="#fff"/><rect width="5" height="1" transform="translate(-0.455 6.39)" fill="#fff"/></g></g></svg>