<svg xmlns="http://www.w3.org/2000/svg" xmlns:xlink="http://www.w3.org/1999/xlink" width="47" height="47" viewBox="0 0 47 47"><defs><clipPath id="a"><rect width="47" height="47" transform="translate(-0.455 0.346)" fill="#fff"/></clipPath></defs><g transform="translate(0.455 -0.346)"><g transform="translate(0 0)" clip-path="url(#a)"><path d="M27.685,48.8H1.457A1.459,1.459,0,0,1,0,47.341V9.457A1.459,1.459,0,0,1,1.457,8H27.685a1.459,1.459,0,0,1,1.457,1.457V47.341A1.459,1.459,0,0,1,27.685,48.8M1.457,9.457V47.341H27.685V9.457Z" transform="translate(-0.291 -2.021)" fill="#fff"/><path d="M16.2,36.4A10.2,10.2,0,1,1,26.4,26.2,10.211,10.211,0,0,1,16.2,36.4m0-18.942A8.742,8.742,0,1,0,24.942,26.2,8.752,8.752,0,0,0,16.2,17.457" transform="translate(-1.92 -4.192)" fill="#fff"/><rect width="17" height="2" transform="translate(5.545 19.346)" fill="#fff"/><rect width="17" height="1" transform="translate(5.545 24.346)" fill="#fff"/><rect width="1" height="19" transform="translate(13.545 12.346)" fill="#fff"/><path d="M17.828,36.4C14.56,36.4,12,31.919,12,26.2S14.56,16,17.828,16s5.828,4.48,5.828,10.2S21.1,36.4,17.828,36.4m0-18.942c-2.369,0-4.371,4-4.371,8.742s2,8.742,4.371,8.742,4.371-4,4.371-8.742-2-8.742-4.371-8.742" transform="translate(-3.549 -4.192)" fill="#fff"/><rect width="20" height="1" transform="translate(4.545 35.346)" fill="#fff"/><rect width="20" height="1" transform="translate(4.545 38.346)" fill="#fff"/><rect width="2" height="1" transform="translate(37.545 29.346)" fill="#fff"/><rect width="1" height="1" transform="translate(40.545 29.346)" fill="#fff"/><rect width="1" height="1" transform="translate(34.545 29.346)" fill="#fff"/><rect width="2" height="1" transform="translate(31.545 29.346)" fill="#fff"/><rect width="2" height="8" transform="translate(35.545 34.346)" fill="#fff"/><rect width="1" height="8" transform="translate(33.545 34.346)" fill="#fff"/><rect width="2" height="11" transform="translate(35.545 15.346)" fill="#fff"/><rect width="1" height="11" transform="translate(33.545 15.346)" fill="#fff"/><rect width="1" height="8" transform="translate(34.545 4.346)" fill="#fff"/><path d="M49.207,16.7l-.942-.942-.942.942-1.03-1.03,1.457-1.457a.728.728,0,0,1,1.03,0l1.457,1.457Z" transform="translate(-12.858 -3.65)" fill="#fff"/><path d="M50.121,12.158l-2.4-2.4-2.4,2.4-1.03-1.03,2.914-2.914a.728.728,0,0,1,1.03,0l2.914,2.914Z" transform="translate(-12.315 -2.021)" fill="#fff"/><rect width="1" height="14" transform="translate(40.545 32.346)" fill="#fff"/><rect width="1" height="27" transform="translate(40.545 1.346)" fill="#fff"/><rect width="1" height="3" transform="translate(27.545 1.346)" fill="#fff"/><path d="M51.313,46.627H38.2V45.169H51.313a1.459,1.459,0,0,0,1.457-1.457V32.056A1.459,1.459,0,0,0,51.313,30.6V29.142a1.459,1.459,0,0,0,1.457-1.457V2.914a1.459,1.459,0,0,0-1.457-1.457h-20.4a1.459,1.459,0,0,0-1.457,1.457V4.371H28V2.914A2.917,2.917,0,0,1,30.914,0h20.4a2.917,2.917,0,0,1,2.914,2.914v24.77a2.907,2.907,0,0,1-.989,2.186,2.907,2.907,0,0,1,.989,2.186V43.712a2.917,2.917,0,0,1-2.914,2.914" transform="translate(-7.892 0.151)" fill="#fff"/></g></g></svg>