<svg xmlns="http://www.w3.org/2000/svg" xmlns:xlink="http://www.w3.org/1999/xlink" width="47" height="42" viewBox="0 0 47 42"><defs><clipPath id="a"><rect width="47" height="42" transform="translate(-0.455 -0.481)" fill="#fff"/></clipPath></defs><g transform="translate(0.455 0.481)"><rect width="1" height="33" transform="translate(39.545 0.519)" fill="#fff"/><rect width="1" height="33" transform="translate(5.545 0.519)" fill="#fff"/><g transform="translate(0 0)"><g clip-path="url(#a)"><path d="M42.255,33.513H4.371A4.376,4.376,0,0,1,0,29.142V4.371A4.376,4.376,0,0,1,4.371,0H42.255a4.376,4.376,0,0,1,4.371,4.371v24.77a4.376,4.376,0,0,1-4.371,4.371M4.371,1.457A2.917,2.917,0,0,0,1.457,4.371v24.77a2.917,2.917,0,0,0,2.914,2.914H42.255a2.917,2.917,0,0,0,2.914-2.914V4.371a2.917,2.917,0,0,0-2.914-2.914Z" transform="translate(-0.146 0.004)" fill="#fff"/><rect width="2" height="3" transform="translate(41.545 15.519)" fill="#fff"/><rect width="2" height="7" transform="translate(2.545 13.519)" fill="#fff"/><path d="M46.786,53.828H3.5L.586,50.914,3.5,48H46.786ZM4.1,52.371H45.329V49.457H4.1L2.646,50.914Z" transform="translate(-0.305 -13.026)" fill="#fff"/><rect width="1" height="1" transform="translate(-0.455 37.519)" fill="#fff"/><rect width="1" height="5" transform="translate(39.545 35.519)" fill="#fff"/><rect width="1" height="5" transform="translate(5.545 35.519)" fill="#fff"/><rect width="1" height="5" transform="translate(17.545 35.519)" fill="#fff"/><rect width="1" height="1" transform="translate(8.545 37.519)" fill="#fff"/><rect width="2" height="1" transform="translate(11.545 37.519)" fill="#fff"/><rect width="2" height="1" transform="translate(13.545 37.519)" fill="#fff"/><path d="M16.994,14.451a.727.727,0,0,1-.515-.213l-2.186-2.186,1.03-1.03,1.671,1.671,2.4-2.4,1.03,1.03-2.914,2.914a.727.727,0,0,1-.515.213" transform="translate(-4.026 -2.79)" fill="#fff"/><rect width="6" height="2" transform="translate(18.545 6.519)" fill="#fff"/><rect width="12" height="1" transform="translate(18.545 10.519)" fill="#fff"/><path d="M16.994,24.451a.727.727,0,0,1-.515-.213l-2.186-2.186,1.03-1.03,1.671,1.671,2.4-2.4,1.03,1.03-2.914,2.914a.727.727,0,0,1-.515.213" transform="translate(-4.026 -5.505)" fill="#fff"/><rect width="17" height="1" transform="translate(18.545 14.519)" fill="#fff"/><rect width="4" height="2" transform="translate(18.545 17.519)" fill="#fff"/><rect width="10" height="2" transform="translate(18.545 21.519)" fill="#fff"/><rect width="5" height="2" transform="translate(30.545 21.519)" fill="#fff"/><rect width="17" height="2" transform="translate(18.545 24.519)" fill="#fff"/><path d="M16.994,34.451a.727.727,0,0,1-.515-.213l-2.186-2.186,1.03-1.03,1.671,1.671,2.4-2.4,1.03,1.03-2.914,2.914a.727.727,0,0,1-.515.213" transform="translate(-4.026 -8.219)" fill="#fff"/><rect width="2" height="2" transform="translate(24.545 17.519)" fill="#fff"/><rect width="6" height="2" transform="translate(27.545 17.519)" fill="#fff"/><rect width="9" height="2" transform="translate(26.545 6.519)" fill="#fff"/></g></g></g></svg>