<svg xmlns="http://www.w3.org/2000/svg" xmlns:xlink="http://www.w3.org/1999/xlink" width="47" height="48" viewBox="0 0 47 48"><defs><clipPath id="a"><rect width="47" height="48" transform="translate(-0.455 -0.314)" fill="#fff"/></clipPath></defs><g transform="translate(0.455 0.314)"><g transform="translate(0 0)" clip-path="url(#a)"><path d="M48.742,55.856a.725.725,0,0,1-.461-.165C47.943,55.415,40,48.845,40,42.742a8.742,8.742,0,1,1,17.485,0c0,6.1-7.943,12.672-8.281,12.949a.724.724,0,0,1-.461.165m0-20.4a7.294,7.294,0,0,0-7.285,7.285c0,4.632,5.617,9.947,7.285,11.424,1.668-1.476,7.285-6.791,7.285-11.424a7.294,7.294,0,0,0-7.285-7.285" transform="translate(-11.004 -8.934)" fill="#fff"/><path d="M50.371,48.742a4.371,4.371,0,1,1,4.371-4.371,4.376,4.376,0,0,1-4.371,4.371m0-7.285a2.914,2.914,0,1,0,2.914,2.914,2.917,2.917,0,0,0-2.914-2.914" transform="translate(-12.633 -10.563)" fill="#fff"/><path d="M8.742,21.856a.724.724,0,0,1-.461-.165C7.943,21.415,0,14.845,0,8.742a8.742,8.742,0,1,1,17.485,0c0,6.1-7.943,12.672-8.281,12.949a.724.724,0,0,1-.461.165m0-20.4A7.294,7.294,0,0,0,1.457,8.742c0,4.632,5.617,9.947,7.285,11.424,1.668-1.476,7.285-6.791,7.285-11.424A7.294,7.294,0,0,0,8.742,1.457" transform="translate(-0.146 0.295)" fill="#fff"/><path d="M10.371,14.742a4.371,4.371,0,1,1,4.371-4.371,4.376,4.376,0,0,1-4.371,4.371m0-7.285a2.914,2.914,0,1,0,2.914,2.914,2.917,2.917,0,0,0-2.914-2.914" transform="translate(-1.775 -1.334)" fill="#fff"/><path d="M50.722,30.451a.727.727,0,0,1-.515-.213l-2.914-2.914,1.03-1.03,2.4,2.4,2.4-2.4,1.03,1.03-2.914,2.914a.727.727,0,0,1-.515.213" transform="translate(-12.984 -6.842)" fill="#fff"/><path d="M45.671,25.571H44.214V16.828a4.376,4.376,0,0,0-4.371-4.371H26V11H39.842a5.835,5.835,0,0,1,5.828,5.828Z" transform="translate(-7.204 -2.691)" fill="#fff"/><path d="M13.121,36.158l-2.4-2.4-2.4,2.4-1.03-1.03,2.914-2.914a.728.728,0,0,1,1.03,0l2.914,2.914Z" transform="translate(-2.126 -8.392)" fill="#fff"/><path d="M30.671,47.571H16.828A5.835,5.835,0,0,1,11,41.742V33h1.457v8.742a4.376,4.376,0,0,0,4.371,4.371H30.671Z" transform="translate(-3.132 -8.663)" fill="#fff"/><rect width="1" height="2" transform="translate(19.545 22.686)" fill="#fff"/><rect width="1" height="2" transform="translate(22.545 22.686)" fill="#fff"/><rect width="2" height="2" transform="translate(25.545 22.686)" fill="#fff"/></g></g></svg>