<svg xmlns="http://www.w3.org/2000/svg" xmlns:xlink="http://www.w3.org/1999/xlink" width="47" height="47" viewBox="0 0 47 47"><defs><clipPath id="a"><rect width="47" height="47" transform="translate(-0.455 -0.142)" fill="#fff"/></clipPath></defs><g transform="translate(0.455 0.142)"><g transform="translate(0 0)" clip-path="url(#a)"><path d="M44.441,46.427H2.186A2.188,2.188,0,0,1,0,44.241V12.186A2.188,2.188,0,0,1,2.186,10H44.441a2.188,2.188,0,0,1,2.186,2.186V44.241a2.188,2.188,0,0,1-2.186,2.186M2.186,11.457a.729.729,0,0,0-.729.729V44.241a.729.729,0,0,0,.729.729H44.441a.729.729,0,0,0,.729-.729V12.186a.729.729,0,0,0-.729-.729Z" transform="translate(-0.146 -2.42)" fill="#fff"/><rect width="2" height="31" transform="translate(37.545 12.858)" fill="#fff"/><rect width="2" height="31" transform="translate(6.545 12.858)" fill="#fff"/><path d="M37.942,8.014H36.485V2.186a.667.667,0,0,0-.729-.729H21.186a.669.669,0,0,0-.729.737v5.82H19V2.186A2.124,2.124,0,0,1,21.186,0H35.756a2.125,2.125,0,0,1,2.186,2.185Z" transform="translate(-5.304 0.294)" fill="#fff"/><rect width="18" height="1" transform="translate(13.545 3.858)" fill="#fff"/><rect width="1" height="2" transform="translate(41.545 38.858)" fill="#fff"/><rect width="2" height="2" transform="translate(3.545 38.858)" fill="#fff"/><path d="M13.014,62.371H5.729A.728.728,0,0,1,5,61.643V58.729A.728.728,0,0,1,5.729,58h7.285a.728.728,0,0,1,.729.729v2.914a.728.728,0,0,1-.729.729M6.457,60.914h5.828V59.457H6.457Z" transform="translate(-1.503 -15.451)" fill="#fff"/><path d="M55.014,62.371H47.729A.728.728,0,0,1,47,61.643V58.729A.728.728,0,0,1,47.729,58h7.285a.728.728,0,0,1,.729.729v2.914a.728.728,0,0,1-.729.729m-6.557-1.457h5.828V59.457H48.457Z" transform="translate(-12.905 -15.451)" fill="#fff"/><rect width="47" height="1" transform="translate(-0.455 45.858)" fill="#fff"/><path d="M13.014,14.371H5.729A.728.728,0,0,1,5,13.643V10.729A.728.728,0,0,1,5.729,10h7.285a.728.728,0,0,1,.729.729v2.914a.728.728,0,0,1-.729.729M6.457,12.914h5.828V11.457H6.457Z" transform="translate(-1.503 -2.42)" fill="#fff"/><path d="M55.014,14.371H47.729A.728.728,0,0,1,47,13.643V10.729A.728.728,0,0,1,47.729,10h7.285a.728.728,0,0,1,.729.729v2.914a.728.728,0,0,1-.729.729m-6.557-1.457h5.828V11.457H48.457Z" transform="translate(-12.905 -2.42)" fill="#fff"/><rect width="19" height="1" transform="translate(13.545 10.858)" fill="#fff"/><rect width="26" height="2" transform="translate(9.545 38.858)" fill="#fff"/><rect width="2" height="4" transform="translate(10.545 12.858)" fill="#fff"/><rect width="1" height="4" transform="translate(13.545 12.858)" fill="#fff"/><rect width="2" height="4" transform="translate(16.545 12.858)" fill="#fff"/><rect width="1" height="4" transform="translate(19.545 12.858)" fill="#fff"/><rect width="1" height="4" transform="translate(22.545 12.858)" fill="#fff"/><rect width="2" height="4" transform="translate(25.545 12.858)" fill="#fff"/><rect width="2" height="4" transform="translate(27.545 12.858)" fill="#fff"/><rect width="1" height="4" transform="translate(31.545 12.858)" fill="#fff"/><rect width="1" height="4" transform="translate(34.545 12.858)" fill="#fff"/></g></g></svg>