<svg xmlns="http://www.w3.org/2000/svg" xmlns:xlink="http://www.w3.org/1999/xlink" width="47" height="47" viewBox="0 0 47 47"><defs><clipPath id="a"><rect width="47" height="47" transform="translate(-0.455 -0.095)" fill="#fff"/></clipPath></defs><g transform="translate(0.455 0.095)"><g transform="translate(0 0)" clip-path="url(#a)"><path d="M40.884,32.928H31.413V31.471h9.471a10.325,10.325,0,0,0,5.1-1.838v-.7a10.325,10.325,0,0,0-5.1-1.838H9.557a.725.725,0,0,1-.515-.213L5.612,23.457H4.644l1.85,8.014h8.163v1.457H5.914a.729.729,0,0,1-.71-.565L3.018,22.892A.729.729,0,0,1,3.728,22H5.914a.727.727,0,0,1,.515.213l3.429,3.429H40.884c3.121,0,6.139,2.236,6.265,2.331a.728.728,0,0,1,.291.583v1.457a.728.728,0,0,1-.291.583c-.127.1-3.144,2.331-6.265,2.331" transform="translate(-0.815 -5.679)" fill="#fff"/><path d="M35.671,25.742H24.014a.725.725,0,0,1-.515-.213l-7.285-7.285A.728.728,0,0,1,16.728,17h5.828a.73.73,0,0,1,.353.092l13.114,7.285a.728.728,0,0,1-.353,1.365M24.316,24.285h8.544L22.368,18.457H18.487Z" transform="translate(-4.344 -4.321)" fill="#fff"/><path d="M22.557,39.742H16.728a.728.728,0,0,1-.515-1.244L23.5,31.213A.725.725,0,0,1,24.014,31H35.671a.728.728,0,0,1,.353,1.365L22.91,39.651a.73.73,0,0,1-.353.092m-4.07-1.457h3.881l10.491-5.828H24.316Z" transform="translate(-4.344 -8.122)" fill="#fff"/><rect width="1" height="2" transform="translate(36.545 22.905)" fill="#fff"/><rect width="1" height="2" transform="translate(33.545 22.905)" fill="#fff"/><rect width="1" height="2" transform="translate(14.545 22.905)" fill="#fff"/><rect width="2" height="2" transform="translate(11.545 22.905)" fill="#fff"/><rect width="2" height="2" transform="translate(8.545 22.905)" fill="#fff"/><rect width="6" height="1" transform="translate(4.545 30.905)" fill="#fff"/><rect width="3" height="1" transform="translate(-0.455 30.905)" fill="#fff"/><rect width="4" height="1" transform="translate(6.545 12.905)" fill="#fff"/><rect width="7" height="1" transform="translate(-0.455 12.905)" fill="#fff"/><path d="M45.87,16.756H44.413v-.729A5.835,5.835,0,0,0,38.585,10.2H36.4l.876-1.166a2.882,2.882,0,0,0,.583-1.748,2.917,2.917,0,0,0-2.914-2.914,2.884,2.884,0,0,0-1.748.582l-.568.428-.441-.558a8.254,8.254,0,0,0-6.714-3.366,8.023,8.023,0,0,0-8.014,8.014H16A9.481,9.481,0,0,1,25.471,0a9.676,9.676,0,0,1,7.435,3.415A4.375,4.375,0,0,1,39.06,8.758a7.3,7.3,0,0,1,6.81,7.27Z" transform="translate(-4.344 0.293)" fill="#fff"/><path d="M32.429,46.347l-1.37-.494C31.584,44.394,33.413,41,39.03,41a10.844,10.844,0,0,1,7.8,3.28L45.794,45.3a9.4,9.4,0,0,0-6.764-2.842c-4.524,0-6.077,2.437-6.6,3.89" transform="translate(-8.432 -10.837)" fill="#fff"/><path d="M18.457,57.285H17a7.286,7.286,0,0,1,12.144-5.429l-.972,1.086a5.829,5.829,0,0,0-9.715,4.344" transform="translate(-4.615 -13.28)" fill="#fff"/><path d="M53.828,55.657V54.2a4.371,4.371,0,1,0-4.371-4.371H48a5.828,5.828,0,1,1,5.828,5.828" transform="translate(-13.03 -11.651)" fill="#fff"/><rect width="11" height="1" transform="translate(30.545 42.905)" fill="#fff"/><rect width="2" height="1" transform="translate(26.545 42.905)" fill="#fff"/><rect width="2" height="1" transform="translate(4.545 45.905)" fill="#fff"/><path d="M4.371,59.385a4.371,4.371,0,0,1-.512-8.713C4.847,48.394,7.228,47,10.2,47c3.229,0,5.828,2.391,5.828,4.371H14.571c0-1.024-1.8-2.914-4.371-2.914-2.522,0-4.491,1.205-5.138,3.144l-.165.5H4.371a2.914,2.914,0,0,0,0,5.828Z" transform="translate(0 -12.465)" fill="#fff"/></g></g></svg>