<svg xmlns="http://www.w3.org/2000/svg" xmlns:xlink="http://www.w3.org/1999/xlink" width="47" height="46" viewBox="0 0 47 46"><defs><clipPath id="a"><rect width="47" height="46" transform="translate(-0.455 0.078)" fill="#fff"/></clipPath></defs><g transform="translate(0.455 -0.078)"><rect width="1" height="29" transform="translate(22.545 17.078)" fill="#fff"/><g transform="translate(0 0)"><g transform="translate(0 0)" clip-path="url(#a)"><path d="M41.327,17.485h-30.6A.728.728,0,0,1,10,16.756V.729A.728.728,0,0,1,10.729,0h30.6a.728.728,0,0,1,.729.729V16.756a.728.728,0,0,1-.729.729m-29.87-1.457H40.6V1.457H11.457Z" transform="translate(-2.715 -0.29)" fill="#fff"/><rect width="1" height="2" transform="translate(13.545 8.078)" fill="#fff"/><rect width="2" height="2" transform="translate(15.545 8.078)" fill="#fff"/><rect width="1" height="2" transform="translate(32.545 8.078)" fill="#fff"/><rect width="2" height="2" transform="translate(28.545 8.078)" fill="#fff"/><path d="M43.828,18.1H38V16.643h5.527l1.759-1.759V13h1.457v2.186a.725.725,0,0,1-.213.515l-2.186,2.186a.727.727,0,0,1-.515.213" transform="translate(-10.316 -3.819)" fill="#fff"/><path d="M22.742,18.1H16.914a.727.727,0,0,1-.515-.213L14.213,15.7A.725.725,0,0,1,14,15.186V13h1.457v1.884l1.759,1.759h5.527Z" transform="translate(-3.801 -3.819)" fill="#fff"/><path d="M15.457,9.1H14V6.914a.725.725,0,0,1,.213-.515L16.4,4.213A.727.727,0,0,1,16.914,4h5.828V5.457H17.216L15.457,7.216Z" transform="translate(-3.801 -1.376)" fill="#fff"/><path d="M46.742,9.1H45.285V7.216L43.527,5.457H38V4h5.828a.727.727,0,0,1,.515.213L46.529,6.4a.725.725,0,0,1,.213.515Z" transform="translate(-10.316 -1.376)" fill="#fff"/><path d="M30.371,14.742a4.371,4.371,0,1,1,4.371-4.371,4.376,4.376,0,0,1-4.371,4.371m0-7.285a2.914,2.914,0,1,0,2.914,2.914,2.917,2.917,0,0,0-2.914-2.914" transform="translate(-7.058 -1.919)" fill="#fff"/><path d="M17.485,47.685H8.014V45.5A3.833,3.833,0,0,0,6.77,43.1L1.671,38A5.24,5.24,0,0,1,0,34.571V22.914a2.914,2.914,0,0,1,5.828,0v5.828H4.371V22.914a1.457,1.457,0,0,0-2.914,0V34.571A3.833,3.833,0,0,0,2.7,36.97l5.1,5.1A5.24,5.24,0,0,1,9.471,45.5v.729h6.557v-5.1A4.987,4.987,0,0,0,14.784,38L7.712,30.928H7.285a1.459,1.459,0,0,0-1.457,1.457v.427L10.715,37.7l-1.03,1.03L4.371,33.415v-1.03a2.917,2.917,0,0,1,2.914-2.914h1.03l7.5,7.5a6.407,6.407,0,0,1,1.671,4.158Z" transform="translate(0 -5.72)" fill="#fff"/><path d="M49.471,47.685H40V41.128a6.407,6.407,0,0,1,1.671-4.158l7.5-7.5H50.2a2.917,2.917,0,0,1,2.914,2.914v1.03L47.8,38.729,46.77,37.7l4.886-4.886v-.427A1.459,1.459,0,0,0,50.2,30.928h-.427L42.7,38a4.93,4.93,0,0,0-1.244,3.128v5.1h6.557V45.5a5.24,5.24,0,0,1,1.671-3.429l5.1-5.1a3.826,3.826,0,0,0,1.244-2.407V22.914a1.457,1.457,0,1,0-2.914,0v5.828H51.657V22.914a2.914,2.914,0,0,1,5.828,0V34.571A5.24,5.24,0,0,1,55.814,38l-5.1,5.1a3.826,3.826,0,0,0-1.244,2.407Z" transform="translate(-10.859 -5.72)" fill="#fff"/><path d="M40.828,31.828h-5.1A.728.728,0,0,1,35,31.1V28.914A2.917,2.917,0,0,1,37.914,26h5.1a.728.728,0,0,1,.729.729v2.186a2.917,2.917,0,0,1-2.914,2.914m-4.371-1.457h4.371a1.459,1.459,0,0,0,1.457-1.457V27.457H37.914a1.459,1.459,0,0,0-1.457,1.457Z" transform="translate(-9.501 -7.348)" fill="#fff"/><path d="M25.014,35.828h-5.1A2.917,2.917,0,0,1,17,32.914V30.729A.728.728,0,0,1,17.729,30h5.1a2.917,2.917,0,0,1,2.914,2.914V35.1a.728.728,0,0,1-.729.729m-6.557-4.371v1.457a1.459,1.459,0,0,0,1.457,1.457h4.371V32.914a1.459,1.459,0,0,0-1.457-1.457Z" transform="translate(-4.615 -8.434)" fill="#fff"/><path d="M50.385,61.828H48.928V57.457H39.457v4.371H38V57.457A1.459,1.459,0,0,1,39.457,56h9.471a1.459,1.459,0,0,1,1.457,1.457Z" transform="translate(-10.316 -15.492)" fill="#fff"/><path d="M21.385,61.828H19.928V57.457H10.457v4.371H9V57.457A1.459,1.459,0,0,1,10.457,56h9.471a1.459,1.459,0,0,1,1.457,1.457Z" transform="translate(-2.443 -15.492)" fill="#fff"/></g></g></g></svg>