<svg id="Layer_1" data-name="Layer 1" xmlns="http://www.w3.org/2000/svg" viewBox="0 0 1100 700"><defs><style>.cls-1{fill:#36a9e1;}.cls-2{fill:#2e87b1;}.cls-3{fill:#311e69;}.cls-4{fill:#e6007e;}.cls-5{fill:#be0c69;}.cls-6{fill:#0e2050;}.cls-7{fill:#e0e0e0;}.cls-8{fill:#1e1240;}.cls-9{fill:#ff6161;}.cls-10{fill:#fff;}.cls-11{fill:#f9b233;}.cls-12{fill:#662483;}.cls-13{fill:#561e6d;}.cls-14{fill:#ededed;}.cls-15{fill:#ad263d;}</style></defs><title>2789 Website–Key Features–V1B</title><g id="Group_9649" data-name="Group 9649"><g id="Group_7524" data-name="Group 7524"><path id="Path_38187" data-name="Path 38187" class="cls-1" d="M426.25,311.62c67.56-81.47,54.31,107.64,92.38,101.16s-5.79-278,65.81-273.16S579.69,347,620.57,347.31,662.83,2.94,740,21.22a26.32,26.32,0,0,1,10,4.69c54.34,41.45-63.33,299-43.82,280.76,20.53-19.23,105.66-168.41,137.06-112.16S670.77,428.85,720.12,435.59s166.3-143.85,160.52-69c-14.2,183.76-273.57,314.59-364.33,288.78C457.69,638.71,363.73,387,426.25,311.62Z"/><path id="Path_38188" data-name="Path 38188" class="cls-2" d="M523.9,657.08c96.77,17.1,342.92-111.6,356.74-290.49,5.78-74.85-111.16,75.74-160.52,69s154.52-184.84,123.1-241.08S726.69,287.44,706.16,306.67C686.65,325,804.31,67.36,750,25.91a26.32,26.32,0,0,0-10-4.69,24.78,24.78,0,0,0-5.82-.64c-6.32,18.83-13.44,47.81-12.4,80.85,1.84,58-1.27,79.53-21,127.08S656.61,319.77,627,430.76,568.67,566,542.49,610.68C534.75,623.88,528.66,640.38,523.9,657.08Z"/></g><g id="Group_7536" data-name="Group 7536"><path id="Path_38189" data-name="Path 38189" class="cls-3" d="M471.79,87.67s-16.94,39.8-7.2,53.52,46.71-6.71,47.29-13.52-12.06-22.48-12.06-22.48Z"/><path id="Path_38190" data-name="Path 38190" class="cls-4" d="M467.62,127.58l-78.93,51.49s-48.19-86.78-64.84-78.29c-48.75,24.84,3.13,131.6,55,139.33s86.31-51.21,86.31-51.21Z"/><path id="Path_38191" data-name="Path 38191" class="cls-5" d="M465.17,188.9l.47-11.65c-24.52,8.59-58.51,35.14-72,29.1-17-7.61-19.68,2.68-38,1.34S335.48,161.62,326,137.92c-5.37-13.39-13.06-17.36-18.73-18.28-14.5,39.39,28.56,114.05,71.63,120.47C430.73,247.85,465.17,188.9,465.17,188.9Z"/><path id="Path_38192" data-name="Path 38192" class="cls-6" d="M599.75,437.67c-28.13-15.51-18-87.3-30.75-128.48-1.4-4.52-13.45-23.24-14.52-27.32-17.13,1.58-60.18-3.28-103.47-11.34-5.31,12.88-12.35,23.67-16,37-23.47,85.65,21.66,264.29,21.67,264.31s2.61,71.05,24.88,70c15-.73,38.45-51.94,36.83-96.23-1.34-36.67-20.26-72.1-24.13-85.57-6.62-23,4.92-97.91,4.92-97.91,5.93,22.41,17.77,67.49,40,98.6C606.48,554.87,635.56,600.12,657,589.17,666.71,584.24,655.61,468.47,599.75,437.67Z"/><path id="Path_38193" data-name="Path 38193" class="cls-7" d="M533.71,312.47c5.9-75.7-24.3-199.32-45.4-194.56-29.42,6.63-53.23,40.68-46.2,70C456.1,246.3,435,290.2,435,307.49,468.53,325,523.5,331.16,533.71,312.47Z"/><path id="Path_38194" data-name="Path 38194" class="cls-8" d="M599.75,437.67c-28.13-15.51-18-87.3-30.75-128.48-1.4-4.52-13.45-23.24-14.52-27.32-7.36.68-19.5.17-34.39-1.27-4.68,15.81-6.13,34.62,2.24,53.1,20.6,45.43,33.44,106.74,48,117.25s19.27-4.09,32.7,31.53,19.4,41.46,28.38,64.23c5.19,13.14,6.91,29.78,11.5,42.29,5.16,2.27,9.77,2.37,14.08.17C666.71,584.24,655.62,468.47,599.75,437.67Z"/><path id="Path_38195" data-name="Path 38195" class="cls-9" d="M492,91.71l2.26,30c-.42,6.59-12.46,11-14.16,5.19-.58-2,.8-7.72,1.7-13.56,1.28-8.31,2.24-16.08,2.24-16.08Z"/><path id="Path_38196" data-name="Path 38196" class="cls-3" d="M489.05,104.19c-.32-3.29-3.11-3.36-5.69-1.67-.39,2.94-.94,6.83-1.55,10.84a.52.52,0,0,0,0,.11C484.59,112.33,489.57,109.52,489.05,104.19Z"/><path id="Path_38197" data-name="Path 38197" class="cls-9" d="M490.08,82.51l1.66,16.2c1.64,5.32-4.38,13.14-14.06,12.93-4.44-.1-9.59-4.65-10-10.63a56,56,0,0,1,2.42-18.9C472.77,73.34,485.27,72.62,490.08,82.51Z"/><path id="Path_38198" data-name="Path 38198" class="cls-10" d="M470.29,98.06s1.13,8.72,9,1.23C479.3,99.29,475.61,98.6,470.29,98.06Z"/><path id="Path_38199" data-name="Path 38199" class="cls-3" d="M456.42,201.3l-10.78-37.74s-18.71,38.73-18.54,64.95C439.88,220.29,449.89,209.54,456.42,201.3Z"/><path id="Path_38200" data-name="Path 38200" class="cls-4" d="M442.11,187.92c12.57,52.46-21.69,134.37-28.74,163a27.82,27.82,0,0,0-.13,13c8.06,34.36,29.16,33,33.92,34.5,22.64-47.26,14.61-188.71,11.42-220.55-2.27-22.72,3.92-41.27,15-54.17C451.55,136.23,436.3,163.68,442.11,187.92Z"/><path id="Path_38201" data-name="Path 38201" class="cls-4" d="M510.88,116.82c-3.82,35.05-16.61,204.1,24.79,287.42,35.59,2.45,40.76-53.05,47-64.41,2.53-32.44-36.06-70.07-38.22-101.81C541.53,195.7,542.93,119.64,510.88,116.82Z"/><path id="Path_38202" data-name="Path 38202" class="cls-9" d="M324.38,112.2s6.15-1.86,8.54-6.06,7.73-6.87,9.16-6.85,1.43-3.2-2-3.77c-2.44-.4-6.41.27-8.08,2.16s-4.6-10.07-9.89-14.93-3,1.49-3,1.49-2.78-6.39-5.92-5.68-.93,10.84-.93,10.84-1.7-5.32-3.14-3.92S312.82,114.4,324.38,112.2Z"/><g id="Group_7525" data-name="Group 7525"><path id="Path_38203" data-name="Path 38203" class="cls-5" d="M544.41,238c-1.88-27.69-1.94-69.79-10.72-96.41-5.27,16.75-12.53,43.35-11.2,59.43,2,24.82,1.76,49.93,10.66,60s25,17.95,14.74,39-7,32-.59,45.07c4.19,8.5,16.32,17.42,23.37,30.93,6.15-14.67,8.94-30.65,12-36.18C585.16,307.39,546.57,269.76,544.41,238Z"/></g><path id="Path_38204" data-name="Path 38204" class="cls-3" d="M543.43,220.29c-.65-13.37-1.35-28.19-2.84-42.37l-11.76-7.42S525.08,204.84,543.43,220.29Z"/><path id="Path_38205" data-name="Path 38205" class="cls-4" d="M517,123.18s81.27,34.72,114.07,77.65,74.53,102,66.19,128.2-40,7.39-53.67-8.11-82.88-104.59-89.44-111.74S512.08,164.19,517,123.18Z"/><path id="Path_38206" data-name="Path 38206" class="cls-9" d="M693.08,347.31c2,2.44,7.71,6.78,12.61.85s-9.55-10-10.69-9S686.31,339.09,693.08,347.31Z"/><g id="Group_7526" data-name="Group 7526"><path id="Path_38207" data-name="Path 38207" class="cls-11" d="M713.16,430.75l4.89-1.84-27.22-72c-.36-1,1.12-3.19,4.18-4.35l34.6-13.08c3.06-1.17,5.64-.47,6,.49l27.21,72,4.89-1.85L740.5,338.17c-1.55-4.1-7.14-5.65-12.74-3.53l-34.59,13.09c-5.6,2.11-8.77,7-7.22,11.08Z"/></g><path id="Path_38208" data-name="Path 38208" class="cls-9" d="M687.79,326.41c6.55-2.4,24.48.92,28.17,5.83s4.93,7.5,2.65,10.6-13.11,12.19-15.78,7.7c-1-1.69-6.53-7-6.53-7l-4.45,1.68s-10-5.55-9.66-10S685.34,327.31,687.79,326.41Z"/><g id="Group_7532" data-name="Group 7532"><g id="Group_7528" data-name="Group 7528"><path id="Path_38209" data-name="Path 38209" class="cls-3" d="M783.41,625.92l-12.68-33.53-8.91,3.37L776.66,635S788.22,634.6,783.41,625.92Z"/><g id="Group_7527" data-name="Group 7527"><path id="Path_38210" data-name="Path 38210" class="cls-3" d="M781.18,633.3a19.28,19.28,0,0,1-1.29-8.13L778,620.24l6.06-2.29c4.2-1.6,9.72,2.7,12.33,9.59s1.31,13.76-2.9,15.36l-6,2.28-1.87-4.93A19.38,19.38,0,0,1,781.18,633.3Z"/><path id="Path_38211" data-name="Path 38211" class="cls-6" d="M775.12,635.59c2.61,6.89,8.13,11.19,12.34,9.6s5.5-8.47,2.89-15.36-8.13-11.18-12.33-9.59S772.52,628.7,775.12,635.59Z"/></g></g><g id="Group_7530" data-name="Group 7530"><path id="Path_38212" data-name="Path 38212" class="cls-3" d="M867.12,591.41l-12.69-33.53-8.91,3.37,14.85,39.25S871.92,600.09,867.12,591.41Z"/><g id="Group_7529" data-name="Group 7529"><path id="Path_38213" data-name="Path 38213" class="cls-3" d="M864.88,598.79a19.3,19.3,0,0,1-1.29-8.13l-1.87-4.94,6.06-2.29c4.2-1.59,9.72,2.71,12.33,9.6s1.31,13.76-2.9,15.35l-6.05,2.29-1.86-4.93A19.27,19.27,0,0,1,864.88,598.79Z"/><path id="Path_38214" data-name="Path 38214" class="cls-6" d="M858.83,601.08c2.61,6.89,8.12,11.18,12.33,9.59s5.5-8.46,2.9-15.35-8.13-11.18-12.33-9.6S856.22,594.19,858.83,601.08Z"/></g></g><g id="Group_7531" data-name="Group 7531"><path id="Path_38215" data-name="Path 38215" class="cls-12" d="M674.41,420.24a20,20,0,0,1,10.35-8.9L783.43,374a33.1,33.1,0,0,1,31.14,4.16l-93.81,35.48a25.57,25.57,0,0,0-16.31,20.64h0a25.56,25.56,0,0,0,1.45,12.31l66.54,175.92-16.35-4.64a33.77,33.77,0,0,1-22.32-20.52L673.14,437.09A20,20,0,0,1,674.41,420.24Z"/><path id="Path_38216" data-name="Path 38216" class="cls-13" d="M704.45,434.3h0a25.56,25.56,0,0,1,16.31-20.63l93.81-35.48a33,33,0,0,1,4.54,4l2.67,2.8a94.09,94.09,0,0,1,19.84,31.57l55.81,147.56A19.59,19.59,0,0,1,886,589.35h0l-88.41,33.44a33.72,33.72,0,0,1-21.17.89l-4-1.14L705.89,446.62A25.73,25.73,0,0,1,704.45,434.3Z"/></g><path id="Path_38217" data-name="Path 38217" class="cls-3" d="M774.92,453.64c1.32,3.51,9.35,3.73,17.93.48s14.46-8.72,13.14-12.23-9.36-3.72-17.94-.48S773.59,450.13,774.92,453.64Z"/><path id="Path_38218" data-name="Path 38218" class="cls-14" d="M836.38,461.88s-35,26.87-74.56,23.29C761.82,485.17,816.13,505.94,836.38,461.88Z"/><path id="Path_38219" data-name="Path 38219" class="cls-14" d="M841.51,489.82S815.73,512,785.17,510.87C785.17,510.87,827.81,524.55,841.51,489.82Z"/><path id="Path_38220" data-name="Path 38220" class="cls-14" d="M847.48,515.63s-20.77,17.82-45.38,17C802.1,532.58,836.44,543.6,847.48,515.63Z"/></g><g id="Group_7533" data-name="Group 7533"><path id="Path_38221" data-name="Path 38221" class="cls-5" d="M631.09,200.83c-15.78-20.65-42.77-39.4-66.54-53.31,7.75,15.34,25.88,48.53,40.9,55.7,19.68,9.39,25.93,23.7,29.06,39.8s26.39,43.38,26.84,60.82c.25,9.61-4.12,19.3-8.1,26.08,15.41,12.09,37.29,20.29,44-.89C705.62,302.8,663.88,243.76,631.09,200.83Z"/></g><g id="Group_7534" data-name="Group 7534"><path id="Path_38222" data-name="Path 38222" class="cls-15" d="M475,107.45a9.34,9.34,0,0,1-6.95-4.33c1.28,4.91,5.72,8.43,9.63,8.52,9.36.2,15.28-7.1,14.17-12.38C488.36,104.2,481.39,108,475,107.45Z"/></g><path id="Path_38223" data-name="Path 38223" class="cls-6" d="M668.15,592.21a42.61,42.61,0,0,1-4.92-6.43,17.7,17.7,0,0,0-10.67-8.14c-6.85-1.8-16-3.33-17.78.67-2,4.42,6.91,14.19,5.67,19.65-.54,2.38-19.28,24.21-18.68,27,1,4.64,47-11.64,53.08-18.63C678.06,602.67,672.8,597.41,668.15,592.21Z"/><path id="Path_38224" data-name="Path 38224" class="cls-3" d="M488.77,85.58s10.85,39.51,10,56.3S497.37,201,506.13,201c30,.05,24.24-69.48,16.5-86s-20.58-18.69-23.2-24.38S488.77,85.58,488.77,85.58Z"/><path id="Path_38225" data-name="Path 38225" class="cls-3" d="M504.92,75.5c-1.84-3.57-1.22-7.07-5-12s-8.82-1.11-16.94.71-10.64,10.35-10.64,10.35L470,79.05a1.36,1.36,0,0,0,.56,1.84,1.66,1.66,0,0,0,.31.12c5.45,1.36,22.52,6,28.29,11.92a1.36,1.36,0,0,0,1.94,0,1.25,1.25,0,0,0,.28-.41l3.58-8S506.75,79.08,504.92,75.5Z"/><g id="Group_7535" data-name="Group 7535"><path id="Path_38226" data-name="Path 38226" class="cls-8" d="M478.11,398.4c-6.42,32.7-17.16,50.16-4.49,81.14s14.83,48.63,11.12,78.33c-2.18,17.45-13.55,35.86-24.1,48.59,3.41,17.87,9.64,35.86,20.93,35.31,15-.73,38.45-51.94,36.83-96.23-1.34-36.67-20.26-72.1-24.13-85.57-6.62-23,4.92-97.91,4.92-97.91S484.54,365.7,478.11,398.4Z"/></g><path id="Path_38227" data-name="Path 38227" class="cls-6" d="M496.86,650.42a41.16,41.16,0,0,1-1.75-7.9,17.74,17.74,0,0,0-6.25-11.88c-5.46-4.51-13.1-9.75-16.41-6.88-3.65,3.17.29,15.78-3.14,20.21-1.49,1.93-27.68,13.84-28.31,16.62-1,4.63,47.49,9.22,56,5.46C501.44,664.08,498.89,657.1,496.86,650.42Z"/></g></g></svg>