<svg id="Layer_1" data-name="Layer 1" xmlns="http://www.w3.org/2000/svg" xmlns:xlink="http://www.w3.org/1999/xlink" viewBox="0 0 1100 700"><defs><style>.cls-1{fill:url(#radial-gradient);}.cls-2{fill:#dbdee5;}.cls-3{fill:#d60b52;}.cls-4{fill:#0e2050;}.cls-5{fill:#f9b233;}.cls-6{fill:#ffcc5a;}.cls-7{fill:#ffe888;}.cls-8{fill:#36a9e1;}.cls-9{fill:#e6007e;}.cls-10{fill:#878787;}.cls-11{fill:#ff6161;}.cls-12{fill:#311e69;}.cls-13{fill:#ad263d;}.cls-14{fill:#e6f2f5;}</style><radialGradient id="radial-gradient" cx="423.28" cy="12322.37" r="236.43" gradientTransform="translate(271.69 -922.6) scale(0.91 0.13)" gradientUnits="userSpaceOnUse"><stop offset="0" stop-color="#b2b2b2"/><stop offset="1" stop-color="#fff" stop-opacity="0"/></radialGradient></defs><title>2789 Website–Key Features–V1B</title><ellipse class="cls-1" cx="654.83" cy="648.2" rx="214.01" ry="30.14"/><path class="cls-2" d="M740.71,218c-64.07-69.47-253.16-129-360-4.57s-75.42,345.5,204.92,345.5C797.28,558.92,804.79,287.46,740.71,218Z"/><path class="cls-3" d="M626.77,208.5s-46.28,12.4-62.65,10.32-49.44-37.09-58.51-29.5,10.14,47.79,46.39,55.5c23.11,4.91,70.76-6.33,72.06-15.29S626.77,208.5,626.77,208.5Z"/><path class="cls-4" d="M614.09,237l-3.8-19.49s-27.95,10-29.81,27.55C593,243.56,605.66,240.49,614.09,237Z"/><path class="cls-5" d="M533.48,142.18c0-33.23-15.45-62.41-38.74-79.11V48.25H477.48c-46.4,0-84,42.05-84,93.93s37.61,93.93,84,93.93h17.26V221.29C518,204.59,533.48,175.41,533.48,142.18Z"/><ellipse class="cls-6" cx="494.95" cy="142.18" rx="84.01" ry="93.93"/><path class="cls-5" d="M483.29,80.49q3.66-.92,6.17,2.81c.82,3.3,2.41,5.11,4.72,5.53A28.77,28.77,0,0,1,510,93.61q6.91,4.9,7.61,7.7l.34,1.37c.72,2.94-.54,5.53-3.82,7.64a6.71,6.71,0,0,1-1.53.6l-.36.09c-2.51.62-5-.35-7.55-2.85a4.93,4.93,0,0,0-3.83-.73c-3.11,1.3-4.37,3.28-3.68,6.08l3.67,14.85q1.06,4.3,7.14,3.94A30.91,30.91,0,0,1,528.28,144a32.06,32.06,0,0,1,5,10.78c2.43,9.83,0,19-7.4,27.63a49.19,49.19,0,0,1-8,6c-1.31,1.47-1.64,3.53-1,6.11a5.69,5.69,0,0,1-4.42,4.9c-2.51.62-4.64-.61-6.3-3.62-.73-2.94-3.18-4.24-7.28-3.91-8.29-1.22-14.9-4.84-19.79-10.79a15.63,15.63,0,0,1-1.1-2.62c-.8-3.23.52-5.91,3.86-8.1l1.52-.61c3-.74,5.73.41,8.14,3.39a5.16,5.16,0,0,0,3.55.8l1.15-.28c1.79-.45,2.87-1.93,3.22-4.53a6.49,6.49,0,0,0-.16-1.25l-4-16.28c-.55-2.23-2.16-3.5-4.76-3.85-7.9-.87-14.5-4.49-19.95-10.83a31.59,31.59,0,0,1-5.68-11.61c-2.11-8.53-.42-16.79,5.09-24.69a35.92,35.92,0,0,1,8.6-8c1.21-1,1.36-3.15.56-6.37C479.36,83.05,480.71,81.12,483.29,80.49Zm-4.36,40.57.39,1.58c1.15,4.66,4.35,8,9.63,10l.79-.19c.35-.09.45-.65.43-1.63l-4.76-19.3c-.62-2.51-1.43-3.6-2.36-3.37-1.65.41-3.11,3.13-4.29,8.21A13.41,13.41,0,0,0,478.93,121.06Zm35.54,47.15,1.18-.14c2.66-.65,4-2.73,4-6.15a25,25,0,0,0-.4-3.78c-.92-3.73-2.65-6.12-5.25-7.08a5.65,5.65,0,0,0-2.34.05c-3.13,1.23-4.39,3.21-3.71,5.94l1.75,7.1A5.18,5.18,0,0,0,514.47,168.21Z"/><path class="cls-5" d="M495,224.91c-40.14,0-72.8-37.11-72.8-82.73S454.81,59.45,495,59.45s72.81,37.11,72.81,82.73S535.1,224.91,495,224.91Zm0-160.29c-37.29,0-67.63,34.79-67.63,77.56s30.34,77.56,67.63,77.56,67.64-34.79,67.64-77.56S532.25,64.62,495,64.62Z"/><path class="cls-6" d="M485.94,94.51s-7.18-.09-11.34,4.92c-3.76,4.52-6.52,11.1-4.45,12.12,3.73,1.85,5.89-7.21,8.49-9.43C483.69,97.8,487.63,94.48,485.94,94.51Z"/><path class="cls-7" d="M481,70.17s-23.32,6.68-35.17,26.28-17.45,46.52-13.35,62.9,11.2-36.41,25.84-53.64c10.3-12.11,38.6-20.68,38.6-31C496.93,66,486,68.35,481,70.17Z"/><path class="cls-7" d="M430,97.22a1.48,1.48,0,0,1-2.57-1.4c2.79-8,8.08-19.73,16-23.71,12.32-6.22,9.21-.24,4.42,3.83C444.63,78.64,435.66,89.93,430,97.22Z"/><path class="cls-7" d="M493.31,194.67s27.78-4.92,40.17-13.53,12.68-2.84,6.93,6.76-12.92,19.95-32.74,24.54-41.36-8.9-34.75-13.78S493.31,194.67,493.31,194.67Z"/><path class="cls-4" d="M626.45,170.64s1.26-2.07,2.76-4.74,9.08-6.75,16.59-2.81c11.12,5.85,3.39,14.21,7,17.61s8.67,2.08,8.67,2.08-2,7.35-4.57,8.11c0,0,17.19,8.54,5,22.16s-39.52,4.44-46-4.44S607.27,174.78,626.45,170.64Z"/><path class="cls-8" d="M685.22,476.86c-3.33-6.19,7.09-103.32,7.67-111.86,1.91-27.86-20.46-55.73-21.8-60.85-1.68-6.36-73.16-15.63-77.2-4.06-4.15,11.88-32.32,59.92-32.1,91.54.54,78.59,18,171,51.45,230,1.63,2.88,19.86-1,20.15-3.1,4.49-32.67-6.29-99.28-22.43-130.95-6.45-12.65,8.26-105.39,10.82-103.73,8.93,5.77,11.28,159.3,61.9,239.6,0,0,12.68,2,16-2.15C709.66,608.61,708.68,520.48,685.22,476.86Z"/><path class="cls-4" d="M692.89,365c1.91-27.86-20.46-55.73-21.8-60.85-.53-2-8.11-4.33-18.33-6.18-1,25.14-.91,59,5.4,75.08,10.72,27.29,19,39.73,11.91,65.19s-13.62,47.36-1.19,77.56,10.69,82,22.7,108.08h0c3.25-.12,6.61-.74,8.09-2.62,10-12.65,9-100.78-14.45-144.4C681.89,470.67,692.31,373.54,692.89,365Z"/><path class="cls-9" d="M594.1,258.75c-.27-12.46,0-24,9.41-35.18,6.25-7.38,22.07-16.2,30.49-16.88h0a7.75,7.75,0,0,1,3.51.38,159.52,159.52,0,0,1,16.35,2.67c6.68,1.7,15,5.34,18.74,13.09,6.78,14,4.93,28.08,10.77,56.63,5.06,24.71,24.74,49.83,10.53,68-2.59,3.31-21.38,7.44-33.31,8.44-27.29,2.27-86.62-1.58-88.81-15.1C568.64,321.41,594.37,271.21,594.1,258.75Z"/><path class="cls-4" d="M621.57,383.87c-2.59.78-30.41,10-32.35,47.85-2,39.67,9.21,49.74,7.43,64.54-1.2,10,13.89,79.64,26.15,125.83,5.14-.83,10.44-2.47,10.59-3.6,4.49-32.67-6.29-99.28-22.43-130.95C604.67,475.2,618.5,386.69,621.57,383.87Z"/><path class="cls-3" d="M672.6,222.83c-3.75-7.75-12.06-11.39-18.74-13.09-3.12-.8-8.26-1.61-12.64-2.2-1.52,10.06,4,25.83,2.92,36.67-1.57,16.16,14.66,37.74,16.43,61.35s3.11,30.12-16.55,33.32C630.7,341,622.45,350,618.51,355.52a279,279,0,0,0,42.08.42c11.93-1,30.72-5.13,33.31-8.44,14.21-18.21-5.47-43.33-10.53-68C677.53,250.91,679.38,236.82,672.6,222.83Z"/><path class="cls-5" d="M678.43,614.85s6.52,14.79,4.17,18.95a7.75,7.75,0,0,0,6,2.77,82.63,82.63,0,0,0,16.15-1.44c-1.47-6.18-.58-19.75-.73-23.23Z"/><path class="cls-10" d="M687,647.13a187.29,187.29,0,0,1-28.51-1.53,10.7,10.7,0,0,0-.33,2.14c-.19,3.83,38.71,5.59,45.43,2.23,1.8-.91,2.71-2.9,2.9-5.34A122.77,122.77,0,0,1,687,647.13Z"/><path class="cls-4" d="M687,647.13a122.77,122.77,0,0,0,19.49-2.5,18.36,18.36,0,0,0-1.22-7.59,19.46,19.46,0,0,1-.55-1.91,82.63,82.63,0,0,1-16.15,1.44,7.75,7.75,0,0,1-6-2.77l-.16.27c-1.13,1.61-4.26,2.71-8.57,4.28-6.23,2.82-13.74.87-15.38,7.25A187.29,187.29,0,0,0,687,647.13Z"/><path class="cls-5" d="M609.16,614.85s6.52,14.79,4.17,18.95a7.73,7.73,0,0,0,6,2.77,82.69,82.69,0,0,0,16.15-1.44c-1.48-6.18-.59-19.75-.73-23.23Z"/><path class="cls-10" d="M617.73,647.13a187.21,187.21,0,0,1-28.51-1.53,10,10,0,0,0-.33,2.14c-.19,3.83,38.7,5.59,45.42,2.23,1.81-.91,2.72-2.9,2.91-5.34A122.77,122.77,0,0,1,617.73,647.13Z"/><path class="cls-4" d="M617.73,647.13a122.77,122.77,0,0,0,19.49-2.5A18.53,18.53,0,0,0,636,637a15.16,15.16,0,0,1-.55-1.91,82.69,82.69,0,0,1-16.15,1.44,7.73,7.73,0,0,1-6-2.77c-.06.09-.11.19-.17.27-1.13,1.61-4.25,2.71-8.56,4.28-6.23,2.82-13.74.87-15.38,7.25A187.21,187.21,0,0,0,617.73,647.13Z"/><path class="cls-11" d="M643.2,190.86l1.61,18.68c.25,3.08-6.75,11.55-11.89,8-1.51-1,.05-5.41,1.15-8.7l2.49-16.34Z"/><path class="cls-12" d="M635.08,202.22a10.81,10.81,0,0,0,7.41-8.22l-6.29.84Z"/><path class="cls-11" d="M642.08,179.64l1.65,7.1a10.77,10.77,0,0,1-7.52,13c-5.16,1.32-10.44-1.33-11.7-7.89-1.12-5.83,2.68-11.21,4-14C631.5,171.51,639.58,171.62,642.08,179.64Z"/><path class="cls-13" d="M635.41,197.41c-2.15.23-6-.34-7.71-1.54-1.48-1.06-2.93-3.77-3.24-4.38,0,.11,0,.22,0,.32,1.26,6.56,6.54,9.21,11.7,7.89a10.35,10.35,0,0,0,7.14-6.63A13.36,13.36,0,0,1,635.41,197.41Z"/><path class="cls-14" d="M628.65,189.22s2,.65,7.77.51a5.63,5.63,0,0,1-4.86,2.45C628,191.89,628.65,189.22,628.65,189.22Z"/><path class="cls-11" d="M642.49,183.94s.72-3.23,2.64-2.67c3,.89,0,8.88-2.15,7.33S642.49,183.94,642.49,183.94Z"/><path class="cls-9" d="M669.71,224.54c13.07,21.89-69.41,89.18-125.07,55.48-42.31-25.62-67.46-97.31-47.48-95,9.1,1.05,60.32,62.31,73.49,67.42C594.6,261.71,661.86,211.38,669.71,224.54Z"/><path class="cls-4" d="M624.06,285.51c33.21-11.55,44.45-46.24,44.45-46.24-35.67,26.77-63.6,36.64-80.15,40.26-1.92,5.31-4.13,11.15-6.3,17.12A259.91,259.91,0,0,0,624.06,285.51Z"/><path class="cls-11" d="M500.45,181.54c-2.14-4.72-7.54-6.77-12.38-13.41-1.85-2.55-3.5-.89-.83,5.15.72,1.62,2.24,3.12,1.58,3.79-1.23,1.24-3.68-.06-13.07-7.41-2.55-2-3.83,1.24-4.31,3a8,8,0,0,0,1.06,6.53c3.55,5.81,16.28,16.06,22.31,14.53a8.69,8.69,0,0,0,3.67-1.93A8.81,8.81,0,0,0,500.45,181.54Z"/><path class="cls-3" d="M544.64,280c54.49,33,134.66-30.8,125.76-54-7,6.27-16.79,17.5-27.91,22.95-16.91,8.29-16,13.92-31.2,21.91s-39.53,8.88-55.22,6.22S533.28,262,525,246.58s-25.76-28.13-27.24-39.93c-1.3-10.38-1.92-15.8-6.87-17.4C485.82,204.82,509.21,258.57,544.64,280Z"/></svg>