<svg id="Layer_1" data-name="Layer 1" xmlns="http://www.w3.org/2000/svg" xmlns:xlink="http://www.w3.org/1999/xlink" viewBox="0 0 1100 700"><defs><style>.cls-1{fill:url(#radial-gradient);}.cls-2{fill:#fef3e0;}.cls-3{fill:#e6332a;}.cls-4{fill:#f9b233;}.cls-5{fill:#0e2050;}.cls-6{fill:#662483;}.cls-7{fill:#75203f;}.cls-8{fill:#36a9e1;}.cls-9{fill:#1e1240;}.cls-10{fill:#fff;}.cls-11{fill:#e6007e;}.cls-12{fill:#ff6161;}.cls-13{fill:#311e69;}.cls-14{fill:#b2b2b2;}.cls-15{fill:#2c8796;}.cls-16{fill:#ad263d;}</style><radialGradient id="radial-gradient" cx="-83.64" cy="12049.38" r="236.43" gradientTransform="translate(820.84 -922.6) scale(0.98 0.13)" gradientUnits="userSpaceOnUse"><stop offset="0" stop-color="#b2b2b2"/><stop offset="1" stop-color="#fff" stop-opacity="0"/></radialGradient></defs><title>2789 Website–Key Features–V1B</title><ellipse class="cls-1" cx="738.8" cy="613.4" rx="231.89" ry="30.14"/><path class="cls-2" d="M418,159.29c-69.47,64.07-129,253.16-4.57,360.05s345.5,75.42,345.5-204.92C758.92,102.72,487.46,95.21,418,159.29Z"/><path class="cls-3" d="M560.74,540.57H320.38a15.44,15.44,0,0,1-15.31-14.79L268.72,168.92A14.18,14.18,0,0,1,283,154.13H523.36a15.44,15.44,0,0,1,15.31,14.79L575,525.78A14.18,14.18,0,0,1,560.74,540.57Z"/><path class="cls-4" d="M580.09,540.57H339.73a15.43,15.43,0,0,1-15.31-14.79L288.06,168.92a14.19,14.19,0,0,1,14.28-14.79H542.7A15.43,15.43,0,0,1,558,168.92l36.35,356.86A14.18,14.18,0,0,1,580.09,540.57Z"/><path class="cls-5" d="M366.66,320.64H333.53a2.13,2.13,0,0,1-2.11-2L327.54,280c0-1.13,1.63-3.63,2.76-3.63L362.64,278a2.12,2.12,0,0,1,2.11,2l5.59,37.71C370.38,318.84,367.79,320.64,366.66,320.64Z"/><path class="cls-6" d="M368.71,318.59H335.58a2.12,2.12,0,0,1-2.11-2L329.59,278a2,2,0,0,1,2-2h33.13a2.12,2.12,0,0,1,2.11,2l3.88,38.6A2,2,0,0,1,368.71,318.59Z"/><path class="cls-5" d="M424.4,320.86H391.27a2.12,2.12,0,0,1-2.11-2l-3.88-38.59c0-1.13,1.63-3.63,2.76-3.63l32.34,1.59a2.12,2.12,0,0,1,2.11,2l5.59,37.71C428.12,319.07,425.52,320.86,424.4,320.86Z"/><path class="cls-6" d="M426.45,318.82H393.31a2.13,2.13,0,0,1-2.11-2l-3.87-38.6a2,2,0,0,1,2-2h33.13a2.13,2.13,0,0,1,2.11,2l3.87,38.6A2,2,0,0,1,426.45,318.82Z"/><path class="cls-5" d="M482.13,321.09H449a2.13,2.13,0,0,1-2.11-2L443,280.45c0-1.12,1.63-3.62,2.75-3.62l32.35,1.58a2.14,2.14,0,0,1,2.11,2l5.59,37.72C485.86,319.29,483.26,321.09,482.13,321.09Z"/><path class="cls-6" d="M484.18,319.05H451.05a2.13,2.13,0,0,1-2.11-2l-3.87-38.6a2,2,0,0,1,2-2h33.14a2.13,2.13,0,0,1,2.11,2l3.87,38.6A2,2,0,0,1,484.18,319.05Z"/><path class="cls-5" d="M546.61,383.29H513.48a2.13,2.13,0,0,1-2.11-2L500.75,280.68c0-1.13,1.63-3.63,2.76-3.63l32.34,1.59a2.12,2.12,0,0,1,2.11,2l12.34,99.69C550.33,381.49,547.74,383.29,546.61,383.29Z"/><path class="cls-6" d="M548.66,381.25H515.53a2.12,2.12,0,0,1-2.11-2L502.8,278.64a2,2,0,0,1,2-2H537.9a2.12,2.12,0,0,1,2.11,2l10.62,100.57A2,2,0,0,1,548.66,381.25Z"/><path class="cls-5" d="M372.57,381H339.43a2.13,2.13,0,0,1-2.11-2l-3.87-38.59c0-1.13,1.63-3.63,2.76-3.63l32.34,1.59a2.12,2.12,0,0,1,2.11,2l5.59,37.71C376.29,379.23,373.69,381,372.57,381Z"/><path class="cls-6" d="M374.61,379H341.48a2.13,2.13,0,0,1-2.11-2l-3.87-38.6a2,2,0,0,1,2-2H370.6a2.14,2.14,0,0,1,2.11,2l3.87,38.6A2,2,0,0,1,374.61,379Z"/><path class="cls-5" d="M430.3,381.25H397.17a2.13,2.13,0,0,1-2.11-2l-3.87-38.6c0-1.12,1.63-3.62,2.75-3.62l32.35,1.58a2.14,2.14,0,0,1,2.11,2L434,378.33C434,379.45,431.43,381.25,430.3,381.25Z"/><path class="cls-6" d="M432.35,379.21H399.22a2.12,2.12,0,0,1-2.11-2l-3.87-38.6a2,2,0,0,1,2-2h33.14a2.13,2.13,0,0,1,2.11,2l3.87,38.6A2,2,0,0,1,432.35,379.21Z"/><path class="cls-5" d="M488,381.48H454.91a2.12,2.12,0,0,1-2.11-2l-3.88-38.6c0-1.13,1.63-3.63,2.76-3.63L484,338.8a2.12,2.12,0,0,1,2.11,2l5.59,37.71C491.76,379.68,489.17,381.48,488,381.48Z"/><path class="cls-6" d="M490.09,379.44H457a2.13,2.13,0,0,1-2.11-2L451,338.8a2,2,0,0,1,2-2h33.13a2.12,2.12,0,0,1,2.11,2l3.88,38.6A2,2,0,0,1,490.09,379.44Z"/><path class="cls-5" d="M378.47,441.41H345.34a2.12,2.12,0,0,1-2.11-2l-3.87-38.6c0-1.12,1.63-3.62,2.75-3.62l32.34,1.58a2.14,2.14,0,0,1,2.12,2l5.58,37.72C382.19,439.61,379.6,441.41,378.47,441.41Z"/><path class="cls-6" d="M380.52,439.37H347.39a2.12,2.12,0,0,1-2.11-2l-3.87-38.6a2,2,0,0,1,2-2H376.5a2.12,2.12,0,0,1,2.11,2l3.88,38.6A2,2,0,0,1,380.52,439.37Z"/><path class="cls-7" d="M427.66,501.44h-75.1a2.13,2.13,0,0,1-2.11-2l-3.88-38.6c0-1.13,1.63-3.63,2.76-3.63l74.31,1.59a2.12,2.12,0,0,1,2.11,2l5.59,37.71C431.38,499.64,428.79,501.44,427.66,501.44Z"/><path class="cls-3" d="M429.71,499.4h-75.1a2.13,2.13,0,0,1-2.11-2l-3.88-38.6a2,2,0,0,1,2-2h75.1a2.12,2.12,0,0,1,2.11,2l3.88,38.6A2,2,0,0,1,429.71,499.4Z"/><path class="cls-5" d="M436.21,441.64H403.08a2.12,2.12,0,0,1-2.11-2L397.09,401c0-1.13,1.63-3.63,2.76-3.63L432.19,399a2.12,2.12,0,0,1,2.11,2l5.59,37.71C439.93,439.84,437.33,441.64,436.21,441.64Z"/><path class="cls-6" d="M438.26,439.6H405.13a2.13,2.13,0,0,1-2.11-2L399.14,399a2,2,0,0,1,2-2h33.13a2.12,2.12,0,0,1,2.11,2l3.88,38.6A2,2,0,0,1,438.26,439.6Z"/><path class="cls-5" d="M494,441.87H460.81a2.14,2.14,0,0,1-2.11-2l-3.87-38.6c0-1.13,1.63-3.63,2.76-3.63l32.34,1.59a2.13,2.13,0,0,1,2.11,2l5.59,37.71C497.67,440.07,495.07,441.87,494,441.87Z"/><path class="cls-6" d="M496,439.82H462.86a2.13,2.13,0,0,1-2.11-2l-3.87-38.6a2,2,0,0,1,2-2H492a2.13,2.13,0,0,1,2.11,2l3.87,38.6A2,2,0,0,1,496,439.82Z"/><path class="cls-5" d="M499,500.42h-57a2.13,2.13,0,0,1-2.11-2L436,459.78c0-1.13,1.62-3.63,2.75-3.63l56.24,1.59a2.12,2.12,0,0,1,2.11,2l5.59,37.71C502.68,498.62,500.08,500.42,499,500.42Z"/><path class="cls-6" d="M501,498.38H444a2.13,2.13,0,0,1-2.11-2L438,457.74a2,2,0,0,1,2-2h57a2.12,2.12,0,0,1,2.11,2l3.88,38.6A2,2,0,0,1,501,498.38Z"/><path class="cls-6" d="M531.11,235.21H328.48a5.56,5.56,0,0,1-5.51-5.32l-3.39-33.74a5.1,5.1,0,0,1,5.13-5.32H527.35a5.55,5.55,0,0,1,5.5,5.32l3.39,33.74A5.1,5.1,0,0,1,531.11,235.21Z"/><path class="cls-8" d="M532.85,196.15a5.55,5.55,0,0,0-5.5-5.32h-.72c0,.21.07.41.08.62l3.39,33.75a5.09,5.09,0,0,1-5.13,5.31H323.06a5.53,5.53,0,0,0,5.42,4.7H531.11a5.1,5.1,0,0,0,5.13-5.32Z"/><path class="cls-5" d="M328.45,203.4a5.1,5.1,0,0,1,5.13-5.32H533l-.19-1.93a5.55,5.55,0,0,0-5.5-5.32H324.71a5.1,5.1,0,0,0-5.13,5.32L323,229.89a5.56,5.56,0,0,0,5.51,5.32h3.17Z"/><path class="cls-6" d="M535.24,257.68H459.89a2,2,0,0,1-2-2l-1.26-12.55a1.89,1.89,0,0,1,1.9-2h75.35a2.06,2.06,0,0,1,2,2l1.26,12.55A1.88,1.88,0,0,1,535.24,257.68Z"/><path class="cls-8" d="M535.88,243.16a2.06,2.06,0,0,0-2-2h-.27a2.08,2.08,0,0,1,0,.23L534.86,254a1.9,1.9,0,0,1-1.91,2H457.88a2.05,2.05,0,0,0,2,1.74h75.35a1.88,1.88,0,0,0,1.9-2Z"/><path class="cls-9" d="M459.88,245.86a1.9,1.9,0,0,1,1.91-2H536l-.07-.72a2.06,2.06,0,0,0-2-2H458.49a1.89,1.89,0,0,0-1.9,2l1.26,12.55a2,2,0,0,0,2,2h1.18Z"/><path class="cls-5" d="M546.62,418.34c1.7,11.84-3,22.1-10.45,22.91s-14.9-8.13-16.6-20,3-22.1,10.46-22.91S544.93,406.5,546.62,418.34Z"/><path class="cls-6" d="M549.47,416.71c1.7,11.85-3,22.1-10.45,22.91s-14.9-8.12-16.6-20,3-22.09,10.46-22.91S547.78,404.87,549.47,416.71Z"/><path class="cls-10" d="M398.29,290.48A6.1,6.1,0,0,1,399,287a6.2,6.2,0,0,1,2.72-2.61,9.52,9.52,0,0,1,4.47-1,12.27,12.27,0,0,1,3.9.57,8.91,8.91,0,0,1,2.91,1.58,7.16,7.16,0,0,1,2.61,5,5.4,5.4,0,0,1-.65,3.23,6,6,0,0,1-2.57,2.32,8.84,8.84,0,0,1,2.74,1.6,7.36,7.36,0,0,1,1.76,2.29,8.39,8.39,0,0,1,.78,2.89,7.74,7.74,0,0,1-.76,4.22,6.73,6.73,0,0,1-3,3,10.94,10.94,0,0,1-5,1.07,12.42,12.42,0,0,1-5.33-1.07,8.5,8.5,0,0,1-5-7.14,6.13,6.13,0,0,1,4.1-6.82A6.51,6.51,0,0,1,398.29,290.48Zm14.3,12.22a5.6,5.6,0,0,0-.81-2.51,4.61,4.61,0,0,0-1.81-1.64,5.32,5.32,0,0,0-2.45-.57,3.93,3.93,0,0,0-3,1.25,4.37,4.37,0,0,0-1,3.51,5.61,5.61,0,0,0,.82,2.54,4.88,4.88,0,0,0,1.78,1.69,4.82,4.82,0,0,0,2.36.6,4.25,4.25,0,0,0,2.27-.6,3.77,3.77,0,0,0,1.48-1.72A5.13,5.13,0,0,0,412.59,302.7Zm-6-15.76a3.46,3.46,0,0,0-2.71,1.08,3.52,3.52,0,0,0-.81,2.78,3.84,3.84,0,0,0,1.31,2.61,4.25,4.25,0,0,0,2.9,1,4,4,0,0,0,1.55-.28,3.21,3.21,0,0,0,1.15-.76,3.13,3.13,0,0,0,.69-1.17,3.74,3.74,0,0,0,.14-1.48,4.13,4.13,0,0,0-.66-2,3.91,3.91,0,0,0-1.49-1.36A4.23,4.23,0,0,0,406.6,286.94Z"/><path class="cls-10" d="M360.57,428.88l-1.46-16.79q-4.38,3.6-6,3.6a2.06,2.06,0,0,1-1.43-.62,2.13,2.13,0,0,1-.72-1.43,1.49,1.49,0,0,1,.47-1.39,12.11,12.11,0,0,1,2-1.14,13.54,13.54,0,0,0,3.38-2.22,12.73,12.73,0,0,0,2.14-2.6,20.56,20.56,0,0,1,1.2-1.77,1.5,1.5,0,0,1,1.15-.33,2.1,2.1,0,0,1,1.64.75,3.66,3.66,0,0,1,.77,2.09l1.84,21.13c.22,2.48-.52,3.71-2.2,3.71a2.56,2.56,0,0,1-1.88-.75A3.54,3.54,0,0,1,360.57,428.88Z"/><path class="cls-10" d="M417.19,427.29h9.63a3.71,3.71,0,0,1,2.25.59,2.09,2.09,0,0,1,.89,1.6,2,2,0,0,1-.46,1.54,2.24,2.24,0,0,1-1.76.62H414.15a3.21,3.21,0,0,1-2.23-.76,2.69,2.69,0,0,1-.93-1.8,4.27,4.27,0,0,1,.35-1.76,5.79,5.79,0,0,1,.93-1.73c1.49-1.7,2.84-3.15,4.05-4.37a26.88,26.88,0,0,1,2.62-2.39,14.08,14.08,0,0,0,2.33-2.15,7.74,7.74,0,0,0,1.34-2.21,5,5,0,0,0,.33-2.23,4.33,4.33,0,0,0-.75-2.11,4.52,4.52,0,0,0-1.65-1.45,4.77,4.77,0,0,0-2.16-.51,3.9,3.9,0,0,0-3.62,2.12,8.23,8.23,0,0,0-.49,1.51,5.57,5.57,0,0,1-.81,1.9,1.76,1.76,0,0,1-1.54.67,2.28,2.28,0,0,1-1.58-.61,2.51,2.51,0,0,1-.76-1.66,6.9,6.9,0,0,1,1.83-5.17,7.51,7.51,0,0,1,2.72-1.82,10.65,10.65,0,0,1,4-.69,12.35,12.35,0,0,1,4.89.88,8.39,8.39,0,0,1,4.15,4,7.84,7.84,0,0,1,.79,2.81,7.48,7.48,0,0,1-.77,4.17,11.8,11.8,0,0,1-2.06,2.93q-1.1,1.06-3.67,3.33a25.71,25.71,0,0,0-3.5,3.53A8.05,8.05,0,0,0,417.19,427.29Z"/><path class="cls-10" d="M357.65,370l-.3-3.43h-9.27a4.08,4.08,0,0,1-2.7-.8,3,3,0,0,1-1.06-2.15,2.2,2.2,0,0,1,.06-.72,3.44,3.44,0,0,1,.33-.75c.15-.27.3-.52.47-.77l.6-.9,8.64-13.09a13,13,0,0,1,1.41-1.87,1.92,1.92,0,0,1,1.44-.58q2.81,0,3.08,3.21l1.25,14.28h.8a5.82,5.82,0,0,1,2.31.39,1.85,1.85,0,0,1,1,1.7,1.64,1.64,0,0,1-.57,1.56,3.44,3.44,0,0,1-2.06.49H362l.3,3.43a2.86,2.86,0,0,1-.44,2.12,2,2,0,0,1-1.62.69,2.33,2.33,0,0,1-1.73-.71A3.31,3.31,0,0,1,357.65,370Zm-8.6-7.57H357l-.94-10.72Z"/><path class="cls-10" d="M418.66,348.79h-8.77l-.53,6a9.67,9.67,0,0,1,4.72-1.41,8.77,8.77,0,0,1,3.37.67,9.65,9.65,0,0,1,4.93,4.61,9.45,9.45,0,0,1,1,3.45,9.62,9.62,0,0,1-.77,4.88,7.89,7.89,0,0,1-3.16,3.49,9.71,9.71,0,0,1-5.1,1.29,11,11,0,0,1-5.47-1.22,8.52,8.52,0,0,1-3.16-2.8,6.38,6.38,0,0,1-1.1-2.76,1.83,1.83,0,0,1,.48-1.36,1.79,1.79,0,0,1,1.45-.65,2.76,2.76,0,0,1,2.46,1.79,7.08,7.08,0,0,0,2.22,2.56,5,5,0,0,0,2.88.91,3.94,3.94,0,0,0,2.43-.74,4.16,4.16,0,0,0,1.47-2,6.61,6.61,0,0,0,.33-2.93,7.14,7.14,0,0,0-.89-3,5,5,0,0,0-1.84-1.87,4.88,4.88,0,0,0-2.4-.62,4.63,4.63,0,0,0-2.24.39,19.12,19.12,0,0,0-1.85,1.35,3.49,3.49,0,0,1-2,1,2.52,2.52,0,0,1-1.66-.65,2.23,2.23,0,0,1-.83-1.49c0-.06,0-.48.09-1.25l.78-8.84a3.93,3.93,0,0,1,.76-2.31,2.88,2.88,0,0,1,2.23-.72h9.74c1.92,0,2.95.73,3.07,2.19a1.79,1.79,0,0,1-.56,1.56A3,3,0,0,1,418.66,348.79Z"/><path class="cls-10" d="M342.06,284.87h12.29a4.82,4.82,0,0,1,2.61.56,2.29,2.29,0,0,1,1,1.82,3.61,3.61,0,0,1-.76,2.05c-.54.85-1.17,1.79-1.87,2.82a25.76,25.76,0,0,0-2.12,3.83,28.63,28.63,0,0,0-1.83,5.59,24.41,24.41,0,0,0-.42,2.42c-.07.64-.13,1.47-.19,2.49s-.12,1.8-.18,2.34a5,5,0,0,1-.87,2.62,2.34,2.34,0,0,1-1.83.73,2.53,2.53,0,0,1-1.88-.79,3.71,3.71,0,0,1-.88-2.32,13.6,13.6,0,0,1,.22-3.21,34.63,34.63,0,0,1,1.2-4.86,42.5,42.5,0,0,1,2.3-5.82,43.14,43.14,0,0,1,3.5-5.93h-9.88a4.18,4.18,0,0,1-2.36-.56,2.28,2.28,0,0,1-.92-1.77c-.07-.84.15-1.39.67-1.64A5.47,5.47,0,0,1,342.06,284.87Z"/><path class="cls-10" d="M482.33,417.6a8,8,0,0,0,1.55-1.79,6.94,6.94,0,0,0,.92-4.58,9,9,0,0,0-3.05-6,10.72,10.72,0,0,0-7.31-2.35,8.86,8.86,0,0,0-6.28,2.28c-1.44,1.36-2.11,3.5-2,6.38a2.14,2.14,0,0,0,.66,1.42,2.1,2.1,0,0,0,1.44.6H470a1.67,1.67,0,0,0,1.7-1.69,5.47,5.47,0,0,1,.69-3,3.16,3.16,0,0,1,2.87-1.17,3.68,3.68,0,0,1,2.9,1.12,4.79,4.79,0,0,1,1.27,2.86,3.46,3.46,0,0,1-.39,2.22,2.6,2.6,0,0,1-1.63,1.12,14.57,14.57,0,0,1-3.08.32,1.69,1.69,0,0,0-1.66,1.89l.14,1.27a2.14,2.14,0,0,0,2.09,1.88,8.56,8.56,0,0,1,5.24,1.31A4.49,4.49,0,0,1,482,425a3.76,3.76,0,0,1-.93,3.12,4.45,4.45,0,0,1-3.45,1.24,5.91,5.91,0,0,1-4.2-1.54,6.86,6.86,0,0,1-1.92-3.63,2.15,2.15,0,0,0-2-1.68h-1.55a1.7,1.7,0,0,0-1.33.61,1.77,1.77,0,0,0-.35,1.42,12.25,12.25,0,0,0,3.29,6.73c2,2,4.8,3,8.4,3a11.09,11.09,0,0,0,7.14-2.34c2-1.6,2.84-4,2.51-7.19A8.15,8.15,0,0,0,482.33,417.6Z"/><path class="cls-10" d="M471.8,353.78A8.48,8.48,0,0,0,466,356a13.79,13.79,0,0,1,.84-5.78,3.52,3.52,0,0,1,3.39-2.49,4.23,4.23,0,0,1,3.06,1.32,6.72,6.72,0,0,1,1.55,2.4,2.86,2.86,0,0,0,2.61,1.87h.13a2.2,2.2,0,0,0,1.83-.91,2.3,2.3,0,0,0,.31-2,11.58,11.58,0,0,0-2.69-4.73,9,9,0,0,0-6.85-2.81,8.14,8.14,0,0,0-7.71,4.4c-1.52,2.82-2,6.66-1.54,11.43.53,5,1.89,8.87,4.06,11.47a10.39,10.39,0,0,0,8.24,4,7.55,7.55,0,0,0,6.6-3.18,10.66,10.66,0,0,0,1.71-7.43,10.8,10.8,0,0,0-3.3-7.05A9.3,9.3,0,0,0,471.8,353.78Zm.1,5.25a4.06,4.06,0,0,1,3.07,1.26,6.52,6.52,0,0,1,.68,7.4,3.4,3.4,0,0,1-3.08,1.52,4.6,4.6,0,0,1-4-2.5c-1.79-2.87-.95-6.52,2-7.47A4.22,4.22,0,0,1,471.9,359Z"/><path class="cls-10" d="M472.21,285.4a10.34,10.34,0,0,0-8.23-4,7.56,7.56,0,0,0-6.62,3.17,10.67,10.67,0,0,0-1.71,7.44,11,11,0,0,0,3.24,7,9.22,9.22,0,0,0,6.56,2.71,8.44,8.44,0,0,0,5.75-2.17,13.73,13.73,0,0,1-.83,5.76,3.52,3.52,0,0,1-3.41,2.5,4.22,4.22,0,0,1-3-1.32,6.73,6.73,0,0,1-1.58-2.44,2.88,2.88,0,0,0-2.64-1.83,2.29,2.29,0,0,0-1.89.94,2.34,2.34,0,0,0-.3,2.08,11.6,11.6,0,0,0,2.67,4.65,9,9,0,0,0,6.84,2.8,8.13,8.13,0,0,0,7.72-4.4c1.51-2.82,2-6.66,1.53-11.43C475.73,291.85,474.37,288,472.21,285.4Zm-6.85,11.06a4,4,0,0,1-3.15-1.3,5.94,5.94,0,0,1-1.44-3.47,5.59,5.59,0,0,1,.83-3.9,3.44,3.44,0,0,1,3.06-1.5,4.61,4.61,0,0,1,4,2.48c1.78,2.87.94,6.53-2.05,7.48A4.15,4.15,0,0,1,465.36,296.46Z"/><path class="cls-5" d="M733.85,126.21c-6.15-4.37-26.44,3.92-36.84,19.27S654.76,190.17,641,198c-37.52,21.3-72.24,42.61-82.89,56.47-3.64,4.74,2.9,16,14.21,14.57,21.78-2.73,62-24.6,86.78-35.29C723.62,205.84,754.5,140.88,733.85,126.21Z"/><path class="cls-10" d="M699.38,575.67s1.51,15.63-.85,19.78a7.72,7.72,0,0,0,6,2.78,83.26,83.26,0,0,0,16.14-1.43c-1.47-6.18-1.49-17.17-1.63-20.65Z"/><path class="cls-6" d="M702.92,608.78a186.8,186.8,0,0,1-28.49-1.54,10.59,10.59,0,0,0-.33,2.13c-.19,3.83,38.68,5.61,45.4,2.25,1.8-.9,2.71-2.89,2.9-5.33A122.59,122.59,0,0,1,702.92,608.78Z"/><path class="cls-11" d="M702.92,608.78a122.59,122.59,0,0,0,19.48-2.49,18.47,18.47,0,0,0-1.21-7.58,15.16,15.16,0,0,1-.55-1.91,83.26,83.26,0,0,1-16.14,1.43,7.72,7.72,0,0,1-6-2.78,1.75,1.75,0,0,1-.16.27c-1.13,1.62-4.25,2.71-8.56,4.27-6.23,2.82-13.73.87-15.38,7.25A186.8,186.8,0,0,0,702.92,608.78Z"/><path class="cls-10" d="M806.74,575.67s1.51,15.63-.85,19.78a7.72,7.72,0,0,0,6,2.78A83.11,83.11,0,0,0,828,596.8c-1.46-6.18-1.48-17.17-1.62-20.65Z"/><path class="cls-6" d="M810.28,608.78a186.8,186.8,0,0,1-28.49-1.54,10.59,10.59,0,0,0-.33,2.13c-.19,3.83,38.68,5.61,45.4,2.25,1.8-.9,2.71-2.89,2.9-5.33A122.59,122.59,0,0,1,810.28,608.78Z"/><path class="cls-11" d="M810.28,608.78a122.59,122.59,0,0,0,19.48-2.49,18.47,18.47,0,0,0-1.21-7.58,17,17,0,0,1-.56-1.91,83.11,83.11,0,0,1-16.13,1.43,7.72,7.72,0,0,1-6-2.78c0,.1-.11.19-.16.27-1.13,1.62-4.25,2.71-8.56,4.27-6.23,2.82-13.73.87-15.38,7.25A186.8,186.8,0,0,0,810.28,608.78Z"/><path class="cls-5" d="M806.18,342s7.43-47.77-3.19-63.7c-7.61-11.42-49.94-23.67-67.9-11.25l-39.41,13.2S668.56,351.84,669,417.5c.29,46.17,6.7,168.38,18.16,170.9s27.11,4.19,36.05-3.07c4.28-3.48.14-134.81,1.11-157.15.3-6.83,7-65.11,15.24-90.25,6.83,35.21,44.29,247.38,46.59,248,8.19,2,48.88,5.42,44.88-7.25C829.51,573.88,806.18,342,806.18,342Z"/><path class="cls-8" d="M817.81,139c-7.37-11.25-25-17.66-57.31-20.81-27.49-2.69-39.59,9.28-44.5,16.92-18,28-16.31,87.1-17.39,105.3-2.39,40.32-22.38,54,19.51,58.88,5.28.62,11.66-26.16,17.76-24.9,3.24.67,6,29.23,9.35,30,32.94,7.54,69.66,18.27,73.09,3.68C824.56,281.53,839.68,172.38,817.81,139Z"/><path class="cls-5" d="M795,124.38c1,8.62,8.1,26.71,8.94,40.81,1.15,19.34-2.47,50.72-4.31,77-1.45,20.65-12.82,56.3-17.6,70.57,19.05,3.69,34.15,4.44,36.29-4.66,6.24-26.54,21.36-135.69-.52-169.07C813.68,132.7,806.33,127.92,795,124.38Z"/><path class="cls-10" d="M755.7,122.33c6.28-1,22-2.73,28.65,2.51,11.06,8.69-22.92,81.2-39.51,81-8-.1-5.84-23.45-5.53-41.89C739.64,144.28,742,124.44,755.7,122.33Z"/><path class="cls-4" d="M760.35,193.46c2.18-16.9,4.61-37.26,4.74-41.87a63.61,63.61,0,0,0-1.36-13.91c-4-6.62-18.1,28.35-21.26,37.24a129.32,129.32,0,0,0-3.58,15.65c.34,8.77,1.74,15.22,6,15.27S754.73,200.94,760.35,193.46Z"/><path class="cls-9" d="M748.86,90.45c2.28-2.86,2.59-.54,2.59-.54s2.82-4.44,3.69-3,.45,1.86.45,1.86,3.63-2,4.47-.72a13.84,13.84,0,0,1,1,1.79s2.35-1.84,3.22-.49c.52.8,1.41,2.37,2.06,3.53a14.88,14.88,0,0,1,4.15,4.72c2.15,5.1.51,13.92.51,13.92s-16.19-3.27-18.1-9.34a10.85,10.85,0,0,1-2.68-3.38h0S746.58,93.3,748.86,90.45Z"/><path class="cls-12" d="M768.33,105.94l8.28,17c.34,2.5-12.25,11.15-16.6,8.48-1.28-.78-1.26-3.22-.5-6l4.68-15Z"/><path class="cls-13" d="M763.25,113.52c2.7-.84,6.37-2,6.37-2a12,12,0,0,1-3.11,8.21,11.52,11.52,0,0,1-6.32,3.6Z"/><path class="cls-12" d="M764,100.53l5.11,9.19a6.42,6.42,0,0,1-3,8.42,18,18,0,0,1-7.64,1.79c-2.87.2-4.82-2.22-5.53-5.89a35,35,0,0,1,0-11.89C753.87,96.52,760.24,94.79,764,100.53Z"/><path class="cls-9" d="M769.11,109.72l-4.84-9.87c-.46-.7-1.23-.61-1.75-1.09.53,1.93,1.36,6.17,1,7-1,2.1-1.23.39-4.54.93a20.22,20.22,0,0,0-6.49,2.93,29,29,0,0,0,.48,4.43c.71,3.67,2.66,6.09,5.53,5.89a18,18,0,0,0,7.64-1.79A6.42,6.42,0,0,0,769.11,109.72Z"/><path class="cls-10" d="M759.51,108.81a17.16,17.16,0,0,1-5.56,1.24s.32,2.16,1.76,2.65S759.23,111.5,759.51,108.81Z"/><path class="cls-12" d="M764.5,104.55a9,9,0,0,0-.19-1.94c-.23-1.22-.3-3.08,1.68-2.53,2.87.78,4,6.68,1.13,7.75C765,108.63,764.47,106.19,764.5,104.55Z"/><path class="cls-4" d="M762.66,131.42s-2.52.5-2.45,2.37-.91,4.63,1,5.25,2.25,1.16,3.77,0,2.6-4.81,2.39-5.65S762.66,131.42,762.66,131.42Z"/><path class="cls-14" d="M762.38,126.58l-.79-.82a4,4,0,0,1-.93-3.94l.34-1.08s-5.35,3.85-5.43,7c-.1,4.4,2.42,9.06,2.42,9.06s2.09-4.27,3.91-4.63a9.94,9.94,0,0,1,5.39,5.65s10.65-11.52,10.28-14.46-5-8.56-5-8.56S771.56,125.14,762.38,126.58Z"/><path class="cls-10" d="M762.05,107l-.5.13a3.72,3.72,0,0,1-4.13-1.7l-.9-1.48a2.1,2.1,0,0,1,.15-2.38h0a2.06,2.06,0,0,1,1.12-.73l3.42-.88a2.11,2.11,0,0,1,2.55,1.51l.47,1.86A3,3,0,0,1,762.05,107Zm-4.62-4.83a1.13,1.13,0,0,0-.08,1.28l.89,1.48a2.77,2.77,0,0,0,3.08,1.26l.5-.13a2,2,0,0,0,1.47-2.49l-.47-1.86a1.13,1.13,0,0,0-1.37-.81l-3.42.87a1.11,1.11,0,0,0-.6.4Z"/><path class="cls-10" d="M753.35,109.19l-.5.13a3,3,0,0,1-3.67-2.18l-.47-1.85a2.1,2.1,0,0,1,1.51-2.55l3.42-.87a2.09,2.09,0,0,1,1.33.1h0a2.12,2.12,0,0,1,1.28,2l-.08,1.73A3.72,3.72,0,0,1,753.35,109.19Zm-2.89-5.51a1.12,1.12,0,0,0-.81,1.37l.47,1.85a2,2,0,0,0,2.49,1.48l.5-.12a2.79,2.79,0,0,0,2.1-2.58l.07-1.73a1.12,1.12,0,0,0-.69-1.09,1,1,0,0,0-.72,0Z"/><path class="cls-10" d="M756.53,103.65a.41.41,0,0,0-.3-.07l-1-.26a1.1,1.1,0,0,1,.6-.63,1.33,1.33,0,0,1,1.1.09Z"/><path class="cls-12" d="M740,174.82s-4.54-8-9.08-9.5-7.44-3-7.32-1.15,3.33,3.26,4.63,5.2S736.15,175.69,740,174.82Z"/><polygon class="cls-10" points="744.25 191.42 740.86 194.8 694.47 194.8 656.49 139.02 706.26 139.02 744.25 191.42"/><path class="cls-15" d="M706.26,139s-3.93,50.76-3.06,60.69H651.61s-1.67-44.1,4.88-60.69Z"/><path class="cls-15" d="M665.89,139a5.59,5.59,0,0,0-2-3.4,2.21,2.21,0,0,0-1.85-.17,2.13,2.13,0,0,0-1.47,1.18c-.6,1.4.29,3.66.68,4.41a1,1,0,0,1-.42,1.33,1.06,1.06,0,0,1-.45.11,1,1,0,0,1-.87-.53c-.19-.36-1.81-3.59-.75-6.09a4.06,4.06,0,0,1,2.72-2.29A4.13,4.13,0,0,1,665,134c2.24,1.38,2.87,4.93,2.9,5.07Z"/><path class="cls-15" d="M677.84,139a5.54,5.54,0,0,0-2-3.4,2.21,2.21,0,0,0-1.85-.17,2.13,2.13,0,0,0-1.47,1.18c-.6,1.4.29,3.66.68,4.41a1,1,0,0,1-.42,1.33,1,1,0,0,1-.45.11,1,1,0,0,1-.87-.53c-.19-.36-1.81-3.59-.75-6.09a4.06,4.06,0,0,1,2.72-2.29,4.13,4.13,0,0,1,3.44.38c2.25,1.38,2.88,4.93,2.9,5.07Z"/><path class="cls-15" d="M689.79,139a5.54,5.54,0,0,0-2-3.4,2.21,2.21,0,0,0-1.85-.17,2.13,2.13,0,0,0-1.47,1.18c-.59,1.4.29,3.66.68,4.41a1,1,0,0,1-.42,1.33,1,1,0,0,1-.45.11,1,1,0,0,1-.87-.53c-.19-.36-1.81-3.59-.75-6.09a4.06,4.06,0,0,1,2.72-2.29,4.16,4.16,0,0,1,3.45.38c2.24,1.38,2.87,4.93,2.89,5.07Z"/><path class="cls-15" d="M701.75,139a5.61,5.61,0,0,0-2-3.4,2.21,2.21,0,0,0-1.85-.17,2.15,2.15,0,0,0-1.47,1.18c-.59,1.4.29,3.66.68,4.41a1,1,0,0,1-.41,1.33,1.07,1.07,0,0,1-.46.11,1,1,0,0,1-.87-.53c-.19-.36-1.81-3.59-.75-6.09a4.08,4.08,0,0,1,2.73-2.29,4.14,4.14,0,0,1,3.44.38c2.24,1.38,2.87,4.93,2.9,5.07Z"/><path class="cls-12" d="M740.78,180.34a6,6,0,0,0-1.33-6.86c-2.13-2-5-4.66-5.91-4.66-1.47,0-8.62-.64-12.56-3.12s-3.76,2.66-1.93,5.09-.64,6.37,2.2,10.32,10.91,9.07,15.86,4.31A16.63,16.63,0,0,0,740.78,180.34Z"/><path class="cls-8" d="M726.6,191.6c3.93-8.3,7.65-17,16.58-16.67s41.24,64.52,41.24,64.52-6.64-102.6,19.77-103.87c28.52-1.38,18.87,109.18,12.38,129.84s-29.46,23.25-44.17,15.25S722.68,199.9,726.6,191.6Z"/><path class="cls-5" d="M816,205.84c-2.72,27.88-13.29,55.65-23.25,60.79s-28.2-4.23-35.53-18.72-17.92-40.75-23.64-49.82a43.26,43.26,0,0,0-6.25-8c-.23.49-.46,1-.7,1.48-3.92,8.3,31.1,81.06,45.8,89.07s37.68,5.41,44.17-15.25c5.74-18.27,13.94-106.82-4-126.12C814.44,153.06,818,184.57,816,205.84Z"/><path class="cls-16" d="M564.18,255s-21.39,6.43-24.68,9.21-12.3,9.51-10.69,10.68,10-5.39,10.31-5,2.45,5.09,8,5.24,20-4,21.16-7.54S564.18,255,564.18,255Z"/></svg>