<svg id="Layer_1" data-name="Layer 1" xmlns="http://www.w3.org/2000/svg" xmlns:xlink="http://www.w3.org/1999/xlink" viewBox="0 0 1100 700"><defs><style>.cls-1{fill:#d60b51;}.cls-2{fill:#36a9e1;}.cls-3{fill:#3c3c57;}.cls-4{fill:#0e2050;}.cls-5{fill:url(#linear-gradient);}.cls-6{fill:url(#linear-gradient-2);}.cls-7{fill:#311e69;}.cls-8{fill:#1d93cc;}.cls-9{fill:#ffb5b3;}.cls-10{fill:#ff6161;}.cls-11{fill:#ffbf80;}.cls-12{fill:#e8a35f;}.cls-13{fill:#bf793a;}.cls-14{fill:#fff;}.cls-15{fill:#d60b52;}.cls-16{fill:#1e1240;}.cls-17{fill:#ad263d;}.cls-18{fill:#ff9791;}.cls-19{fill:#d95f76;}</style><linearGradient id="linear-gradient" x1="-859.98" y1="4699.83" x2="-859.98" y2="4701.22" gradientTransform="matrix(31.94, 0, 0, -112.56, 28023.36, 529638.36)" gradientUnits="userSpaceOnUse"><stop offset="0" stop-color="#fff"/><stop offset="0.18" stop-color="#eaeaea"/><stop offset="0.53" stop-color="#c7c7c7"/><stop offset="0.81" stop-color="#b2b2b2"/><stop offset="1" stop-color="#ababab"/></linearGradient><linearGradient id="linear-gradient-2" x1="-853.07" y1="4700.62" x2="-851.08" y2="4700.62" gradientTransform="matrix(48.04, 0, 0, -112.86, 41370.15, 531050.56)" xlink:href="#linear-gradient"/></defs><title>2789 Website–Key Features–V1B</title><g id="Group_9644" data-name="Group 9644"><path id="Path_38113" data-name="Path 38113" class="cls-1" d="M533.24,635.69v-6.93l19.7,1.27-1.89,5.66Z"/><g id="Group_7491" data-name="Group 7491"><path id="Path_38114" data-name="Path 38114" class="cls-1" d="M394,637.68s-5.54,3.13-6.86,6.18,4.1,5,12.3,2.42a25,25,0,0,0,12.38-8.6Z"/><g id="Group_7490" data-name="Group 7490"><path id="Path_38115" data-name="Path 38115" class="cls-2" d="M411.77,637.68s16.88,18.33,9.12,21.72-53.57,5-60.63,1.93S394,637.68,394,637.68s-4.82,5.36-3.53,6.79C394.1,648.56,411.77,637.68,411.77,637.68Z"/><g id="Group_7489" data-name="Group 7489"><path id="Path_38116" data-name="Path 38116" class="cls-3" d="M364.5,654.81c9.94-.7,21.86,6.34,37.92,4.46,11.71-1.37,17.57-3.29,20.35-4.56.44,2.13,0,3.86-1.88,4.69-7.77,3.39-53.57,5-60.63,1.93C358.13,660.4,360.36,657.88,364.5,654.81Z"/></g></g></g><g id="Group_7494" data-name="Group 7494"><path id="Path_38117" data-name="Path 38117" class="cls-1" d="M551.05,635.69s7.76,5.27,9.53,10.53-13.05,3.73-18.87-.85a33.28,33.28,0,0,1-8.47-9.68Z"/><g id="Group_7493" data-name="Group 7493"><path id="Path_38118" data-name="Path 38118" class="cls-2" d="M533.24,635.69s-16.89,18.34-9.12,21.73,53.57,5,60.63,1.92-33.7-23.65-33.7-23.65,4.83,5.36,3.53,6.8C550.9,646.58,533.24,635.69,533.24,635.69Z"/><g id="Group_7492" data-name="Group 7492"><path id="Path_38119" data-name="Path 38119" class="cls-3" d="M580.5,652.83c-9.94-.7-21.86,6.34-37.92,4.46-11.71-1.37-17.58-3.29-20.35-4.56-.44,2.14,0,3.86,1.88,4.69,7.77,3.39,53.57,5,60.63,1.93C586.88,658.42,584.65,655.9,580.5,652.83Z"/></g></g></g><path id="Path_38120" data-name="Path 38120" class="cls-4" d="M563.53,274c-50.11,9-101.34,5.89-121.16,4.13-1.25,4.54-2.65,9.29-4.26,14.32-39.24,122.2-46.93,344.28-46.93,344.28s12.48.48,21.8,0c0,0,59.86-181.69,75.16-228.37,7.31-22.28,15.82-53.95,22.69-78.89l18.68,306.14s13,.4,28.23,0c0,0,39.82-265.37,23-317.35C576,303.6,569.67,288.31,563.53,274Z"/><path id="Path_38121" data-name="Path 38121" class="cls-1" d="M394,637.68l.14-1.55H411.9l-.13,1.55Z"/><g id="Group_7495" data-name="Group 7495"><path id="Path_38122" data-name="Path 38122" class="cls-5" d="M552.47,473.66c-12,.66-25.36-2.57-33.13-4.82l10.18,166.74s13,.4,28.23,0c0,0,19.32-128.76,25.35-224.47C575.75,425.57,578,472.25,552.47,473.66Z"/></g><g id="Group_7496" data-name="Group 7496"><path id="Path_38123" data-name="Path 38123" class="cls-6" d="M413,504.71c-5.49-.36-9.18-3.74-11.63-8.58-8,77.45-10.18,140.57-10.18,140.57s12.48.48,21.81,0c0,0,57.21-173.67,74.07-225C468.72,442.61,429.25,505.75,413,504.71Z"/></g><g id="Group_7504" data-name="Group 7504"><path id="Path_38124" data-name="Path 38124" class="cls-7" d="M466.73,110.22c5.92-6.22,8.1-18.89,3.56-23.23-7.36-7-16.41-4.44-20.4,2.66a45,45,0,0,0-2,7.68s-3,.09-4.55,5.12c-2.11,7,2.19,19.39,7.95,19.61C454.61,122.2,461.52,115.7,466.73,110.22Z"/><path id="Path_38125" data-name="Path 38125" class="cls-2" d="M575.67,287.91c2.85-16.23-9.21-38.65-17.13-64.48-13.21-43-28.7-90.21-45.57-95C465.9,115,400.21,143.79,398.34,177.84c-1.65,30,15.05,44.68,23.41,82.75,7.21,32.8-8.92,73.64,19.32,95.35C454.89,366.56,564.82,349.85,575.67,287.91Z"/><path id="Path_38126" data-name="Path 38126" class="cls-8" d="M575.67,287.91c2.85-16.23-9.21-38.65-17.13-64.48-13.21-43-28.7-90.21-45.57-95a104.75,104.75,0,0,0-47-1.36c2.57,4.54,5.48,10.33,8.77,17.76,18.59,42,58.28,104.66,58.83,127.25.3,12.29-10.61,54.79-.74,66.92C554.08,327.54,571.66,310.83,575.67,287.91Z"/><path id="Path_38127" data-name="Path 38127" class="cls-9" d="M450.94,131.3s-3.59,3.17-3.1,5c.76,2.92,8.87,9.68,21.87,6.32,9.8-2.54,8.11-8,6.34-11C472.69,126,461.46,126.36,450.94,131.3Z"/><path id="Path_38128" data-name="Path 38128" class="cls-10" d="M449.59,112.41l.29,23.58c.73,2.07,10.41,7.36,20.6,3.95,3.33-1.11,4.76-5.73,4.12-7.06a16.06,16.06,0,0,0-2.73-3.77l-14.53-14.57Z"/><path id="Path_38129" data-name="Path 38129" class="cls-7" d="M460.27,117.47c-3.73.58-8.85,1.31-8.85,1.31a15.73,15.73,0,0,0,8.62,7.68,16,16,0,0,0,9.72.53Z"/><g id="Group_7497" data-name="Group 7497"><path id="Path_38130" data-name="Path 38130" class="cls-11" d="M660.62,181.79,507.07,212.28,479.87,85.71,633.42,55.22Z"/><path id="Path_38131" data-name="Path 38131" class="cls-12" d="M724.09,169.18l-63.46,12.61L633.42,55.22l63.47-12.61Z"/><path id="Path_38132" data-name="Path 38132" class="cls-13" d="M681.78,86.64l-16.34,3.24L657,50.54l16.34-3.25Z"/><path id="Path_38133" data-name="Path 38133" class="cls-14" d="M633.42,94.44l-49.17,9.77-4.94-23,49.17-9.77Z"/><path id="Path_38134" data-name="Path 38134" class="cls-12" d="M502,188.49s12.51-29.51,30.42-30.84,25.13,24.58,39,21.5.51-10,25.42-9.5,61.64,2.07,61.64,2.07l2.16,10.07L507.07,212.28Z"/><path id="Path_38135" data-name="Path 38135" class="cls-12" d="M544.82,145.45a3.85,3.85,0,0,0-.24,7.43,14.4,14.4,0,0,1,6.95,4.86c5.64,7.07,10.53,11.8,13.37,8.76s-1.47-16.46-6.43-19.69A19.32,19.32,0,0,0,544.82,145.45Z"/></g><path id="Path_38136" data-name="Path 38136" class="cls-15" d="M570.59,257.67c-2.32-6.75-5.09-13.93-7.78-21.49l-74.35,1S525.71,262.34,570.59,257.67Z"/><path id="Path_38137" data-name="Path 38137" class="cls-10" d="M451.61,103l-.64,13.5a8.43,8.43,0,0,0,8.62,8,24.42,24.42,0,0,0,10.22-2.31c3.55-1.41,4.46-5.31,3.12-10a44.08,44.08,0,0,0-7.09-13.69C461.37,92.51,452.7,94.18,451.61,103Z"/><path id="Path_38138" data-name="Path 38138" class="cls-7" d="M469.82,122.11c3.55-1.41,4.46-5.31,3.12-10a38.69,38.69,0,0,0-2.42-6.15c-3.87.17-10.38,2.23-13.15,2.66-2.48.4-4.72-3.4-5.76-5.53L451,116.45a8.43,8.43,0,0,0,8.62,8A24.58,24.58,0,0,0,469.82,122.11Z"/><path id="Path_38139" data-name="Path 38139" class="cls-10" d="M453.54,109.05a11.28,11.28,0,0,1-.92-2.34c-.44-1.53-1.47-3.71-3.52-2-3,2.56-.13,10.6,4,10.17C456.15,114.59,454.57,110.92,453.54,109.05Z"/><path id="Path_38140" data-name="Path 38140" class="cls-14" d="M462.6,109.71A24.22,24.22,0,0,0,470,108s.89,2.66-.54,4.05S464.55,112.65,462.6,109.71Z"/><g id="Group_7498" data-name="Group 7498"><path id="Path_38141" data-name="Path 38141" class="cls-16" d="M469.63,117.19c-4.35.31-5.74,7.14-14.71,3.42a10.76,10.76,0,0,1-3.93-4.47v.3a8.43,8.43,0,0,0,8.62,8,24.42,24.42,0,0,0,10.22-2.31,5.78,5.78,0,0,0,3.63-5A21.2,21.2,0,0,1,469.63,117.19Z"/></g><g id="Group_7503" data-name="Group 7503"><g id="Group_7499" data-name="Group 7499"><path id="Path_38142" data-name="Path 38142" class="cls-10" d="M428.85,160.81c44.76.72,83.22,35.21,113,39.1,25.58,3.34,94.47-24.06,102.09-14.86,13.86,16.72-34.92,44.6-57.43,53.53-69,27.34-125.62-14.64-152.88-31.4C397.67,185.08,394.74,160.25,428.85,160.81Z"/></g><path id="Path_38143" data-name="Path 38143" class="cls-17" d="M638.36,206.37c-12.72,13.24-37.58,26.54-51.87,32.2-69,27.35-125.62-14.64-152.88-31.39-23.73-14.59-33.06-30.37-26.85-39.25l72.94,38.7s23.21,16,40.9,20,18.23,3.7,38.46-1.28C575.57,221.33,616.2,208.65,638.36,206.37Z"/><path id="Path_38144" data-name="Path 38144" class="cls-15" d="M474.34,171.6c8.8,3.67,17.25,7.84,25.32,11.86-5.25,10.89-16.92,32.84-26,33.61C464,217.91,471.13,184.71,474.34,171.6Z"/><g id="Group_7500" data-name="Group 7500"><path id="Path_38145" data-name="Path 38145" class="cls-10" d="M641.1,199.45s12.45-1.13,18.08-10.09c5-8,5.35-16.24,0-19.31-4.46-2.55-9.17,10.41-13.89,11.82s-12.79,1.78-12.12,7.69S635.91,201.33,641.1,199.45Z"/><path id="Path_38146" data-name="Path 38146" class="cls-10" d="M635.36,185.59s3.88-8.75,7.23-11.78,2.51-9.21,5.11-7.52,2.31,7.11.59,9.12,3,7.49.08,10.4S633.5,190.08,635.36,185.59Z"/></g><g id="Group_7501" data-name="Group 7501"><path id="Path_38147" data-name="Path 38147" class="cls-18" d="M430.45,208.53c-39.72-27.79-35.71-48.28-1.6-47.72,18.54.3,41.09,7.06,61.16,14.87-2.44,11.28-8.68,36.52-25.82,52.62A351.19,351.19,0,0,1,430.45,208.53Z"/></g><g id="Group_7502" data-name="Group 7502"><path id="Path_38148" data-name="Path 38148" class="cls-19" d="M430.45,208.52c-24.13-16.87-32.1-31.05-27-39.46,8.79,9.6,26.41,26.74,41.65,28.26,10,1,23.21,5.12,34.61,9.31a74.78,74.78,0,0,1-15.51,21.67A350.42,350.42,0,0,1,430.45,208.52Z"/></g></g></g></g></svg>