<svg xmlns="http://www.w3.org/2000/svg" xmlns:xlink="http://www.w3.org/1999/xlink" width="2619.859" height="2391.369" viewBox="0 0 2619.859 2391.369"><defs><clipPath id="a"><rect width="1311.43" height="2391.369" fill="#ededed"/></clipPath></defs><g transform="translate(53.142 -2558.271)"><g transform="translate(1255.287 2558.271)"><g transform="translate(0 0)"><g clip-path="url(#a)" style="isolation:isolate"><path d="M2173.744,2520.159l-4.553-2141.507c-21.419-15.489-45.791-12.28-65.979,9.662V343.268h-21.067v-33.39h-70.869V434.639h-10.136V391.684h0c-14.951-27.619-39.518-25.484-53,4.6l-3.076,6.871V529.08h-39.984V400.089h-17.222V373.982h-11.132c-3.236-13.808-10.675-23.47-19.335-23.47V200.02c-16.551-46.233-53.122-47.054-70.274-1.579l-.6,1.579V441.883h-10.139V398.928l-27.866-51.489L1720.308,410.4V536.324h-39.984V407.33H1663.1v-26.1h-18.685v26.1h-17.2V520.967h-16.683v-126.4c-24.45-31.838-56.553-33.919-82.007-6.255V343.268H1507.46V294.2H1436.59V434.639h-10.139V391.684L1398.585,340.2l-28.209,62.961V529.08h-39.984V400.089h-17.221V373.982h-18.686v9.367c-20.1-11.493-42.206-7.175-60.778,13.008V351.315h-21.067v-33.39h-70.869V442.686h-10.137V399.731h0c-14.951-27.619-39.518-25.484-53,4.6l-3.076,6.871V537.127h-.746v-5.641l-3.076-6.871c-13.48-30.088-38.048-32.223-53-4.6h0v42.955H1008.6V438.206H937.734V471.6H916.667v45.042c-18.571-20.183-40.682-24.5-60.778-13.008v-9.367H837.2v26.107H819.982V649.361H780V523.439l-28.209-62.961-27.866,51.486V554.92h-10.14V503.629H642.915v-40.08H621.848v45.045c-25.454-27.664-57.557-25.584-82.007,6.255h0v126.4H523.158V527.61h-17.2v-26.1H487.272v26.1H470.051V656.6H430.067V530.683l-28.209-62.964-27.866,51.489v42.955h-10.14V320.3l-.6-1.579c-17.152-45.475-53.723-44.654-70.274,1.579h0V470.792c-8.66,0-16.1,9.661-19.335,23.47H262.516v26.107H245.3V649.361H205.311V523.439l-3.076-6.871c-13.48-30.088-38.048-32.223-53-4.6h0V554.92H139.1V430.159H68.23v33.39H47.163v45.045c-20.189-21.942-44.561-25.151-65.98-9.661l-4.553,2000.484,1130.626,115.8-1.1-118.874Z" transform="translate(-472.233 -57.696)" fill="#ededed" style="mix-blend-mode:multiply;isolation:isolate"/></g></g></g><g transform="translate(-53.142 2558.271)"><g transform="translate(0 0)"><g clip-path="url(#a)" style="isolation:isolate"><path d="M2173.744,2520.159l-4.553-2141.507c-21.419-15.489-45.791-12.28-65.979,9.662V343.268h-21.067v-33.39h-70.869V434.639h-10.136V391.684h0c-14.951-27.619-39.518-25.484-53,4.6l-3.076,6.871V529.08h-39.984V400.089h-17.222V373.982h-11.132c-3.236-13.808-10.675-23.47-19.335-23.47V200.02c-16.551-46.233-53.122-47.054-70.274-1.579l-.6,1.579V441.883h-10.139s6.966-19.344,0-42.955-27.866-51.489-27.866-51.489L1720.308,410.4V536.324h-39.984V407.33H1663.1v-26.1h-18.685v26.1h-17.2V520.967h-16.683v-126.4c-24.45-31.838-56.553-33.919-82.007-6.255V343.268H1507.46v-58.7H1436.59V434.639h-10.139V391.684L1398.585,340.2l-28.209,62.961V529.08h-39.984V400.089h-17.221V373.982h-18.686v9.367c-20.1-11.493-42.206-7.175-60.778,13.008V351.315h-21.067v-33.39h-70.869V442.686h-10.137V399.731h0c-14.951-27.619-39.518-25.484-53,4.6l-3.076,6.871V537.127h-.746v-5.641l-3.076-6.871c-13.48-30.088-38.048-32.223-53-4.6h0v42.955H1008.6V438.206H937.734V471.6H916.667v45.042c-18.571-20.183-40.682-24.5-60.778-13.008v-9.367H837.2v26.107H819.982V649.361H780V523.439l-28.209-62.961-27.866,51.486V554.92h-10.14V313.057H642.915V463.549H621.848v45.045c-25.454-27.664-57.557-25.584-82.007,6.255h0v126.4H523.158V527.61h-17.2v-26.1H487.272v26.1H470.051V656.6H430.067V530.683l-28.209-62.964-27.866,51.489v42.955h-10.14V320.3l-.6-1.579c-17.152-45.475-53.723-44.654-70.274,1.579h0V470.792c-8.66,0-16.1,9.661-19.335,23.47H262.516v26.107H245.3V649.361H205.311V523.439l-3.076-6.871c-13.48-30.088-38.048-32.223-53-4.6h0V554.92H139.1V430.159H68.23v33.39H47.163v45.045c-20.189-21.942-44.561-25.151-65.98-9.661l-4.553,2000.484,1130.626,115.8-1.1-118.874Z" transform="translate(-472.233 -57.696)" fill="#ededed" style="mix-blend-mode:multiply;isolation:isolate"/></g></g></g></g></svg>