<svg xmlns="http://www.w3.org/2000/svg" xmlns:xlink="http://www.w3.org/1999/xlink" viewBox="0 0 1100 700"><defs><style>.cls-1{isolation:isolate;}.cls-2{fill:url(#radial-gradient);}.cls-3{fill:#d7eef9;}.cls-4{fill:#0e2050;}.cls-5{fill:#36a9e1;}.cls-20,.cls-6,.cls-7,.cls-8,.cls-9{mix-blend-mode:color-dodge;}.cls-6{fill:url(#_5);}.cls-7{fill:url(#_5-2);}.cls-8{fill:url(#_5-3);}.cls-9{fill:url(#_5-4);}.cls-10{fill:#fff;}.cls-11{fill:#662483;}.cls-12{fill:#e6007e;}.cls-13{fill:#ad263d;}.cls-14{fill:#8c2d63;}.cls-15{fill:#ff6161;}.cls-16{fill:#706f6f;}.cls-17{fill:#9d9d9c;}.cls-18{mix-blend-mode:multiply;}.cls-19{fill:#eaf3f4;}.cls-20{fill:url(#_5-5);}.cls-21{fill:#f9b233;}.cls-22{fill:#ff9248;}</style><radialGradient id="radial-gradient" cx="234.3" cy="-862.21" r="236.43" gradientTransform="translate(215.5 748.75) scale(1.03 0.13)" gradientUnits="userSpaceOnUse"><stop offset="0" stop-color="#b2b2b2"/><stop offset="1" stop-color="#fff" stop-opacity="0"/></radialGradient><linearGradient id="_5" x1="582.49" y1="162.09" x2="748.45" y2="162.09" gradientUnits="userSpaceOnUse"><stop offset="0" stop-color="#4d4d4d"/><stop offset="1"/></linearGradient><linearGradient id="_5-2" x1="566.35" y1="231.75" x2="594.24" y2="231.75" xlink:href="#_5"/><linearGradient id="_5-3" x1="626.34" y1="340.31" x2="741.4" y2="340.31" xlink:href="#_5"/><linearGradient id="_5-4" x1="621.28" y1="495.55" x2="647.44" y2="495.55" xlink:href="#_5"/><linearGradient id="_5-5" x1="12.33" y1="3538.59" x2="-17.66" y2="3781.73" gradientTransform="matrix(0.75, 0.66, 0.66, -0.75, -1739.98, 2904.48)" xlink:href="#_5"/></defs><title>2789 Website–Key Features–V1B</title><g class="cls-1"><g id="Layer_1" data-name="Layer 1"><ellipse class="cls-2" cx="457.09" cy="638.84" rx="243.8" ry="30.14"/><path class="cls-3" d="M418,159.29c-69.47,64.07-129,253.16-4.57,360.05s345.5,75.42,345.5-204.92C758.92,102.72,487.46,95.21,418,159.29Z"/><path class="cls-4" d="M785.49,154c-17.61-14-40.08-21.52-65.35-22.1h-.49c-1.87,0-3.75,0-5.65,0H675l14.81,2.42c-2.88.51-5.78,1.09-8.71,1.76-31.08,7.1-54.46,27.08-67.61,57.75a127.6,127.6,0,0,0-10.06,42.52,26.16,26.16,0,0,0,5.65,17.14c-4.38,3.72-20.94,9.94-20.94,9.94s28,1.82,41.52,0c14-1.86,25.73-11.18,26.2-25.36,0-.43,1.82-42.85,36.93-50.87,25.15-5.75,46.45-3,60,7.81,11.15,8.89,16.81,23.09,16.82,42.19,0,22.26-27.5,43.21-51.77,61.7-23.22,17.7-43.28,33-48.67,54.88-8.77,35.55-7,75.64-6.93,77.33a26.06,26.06,0,0,0,4.19,13c-2.25,3.1-17.37,7-18.64,11.93l40.63,0,1.23,0a26.24,26.24,0,0,0,25-27.4,280.58,280.58,0,0,1,2.87-49.41,39.8,39.8,0,0,1,13.66-24.07c5.86-5,12.89-10.32,18.47-14.56,30.56-23.3,72.43-55.2,72.42-103.44C822.07,202.33,809.08,172.78,785.49,154Z"/><path class="cls-4" d="M670.61,466.27c-5.28-1-16.25-2-26.05,1l1.26,65s17.48,1.6,27.35.24c.91-.13,1.82-.23,2.74-.27a26.22,26.22,0,0,0,25-26.2V493.43a26.23,26.23,0,0,0-22.78-26C675.6,467.1,673.1,466.73,670.61,466.27Z"/><path class="cls-5" d="M647.8,456.09a26.22,26.22,0,0,1-26.18-25c-.08-1.69-1.85-41.78,6.92-77.33,5.4-21.9,25.46-37.18,48.68-54.88C701.48,280.4,729,259.45,729,237.19c0-19.1-5.66-33.3-16.82-42.19-13.53-10.79-34.82-13.56-60-7.81-35.11,8-36.92,50.44-36.94,50.87a26.23,26.23,0,0,1-26.19,25.36l-.89,0a26.23,26.23,0,0,1-25.34-27.08,127.74,127.74,0,0,1,10-42.52c13.15-30.67,36.53-50.65,67.62-57.75,41-9.38,78.09-3,104.36,17.93,23.58,18.8,36.57,48.35,36.58,83.2,0,48.24-41.86,80.14-72.43,103.44-5.57,4.24-12.6,9.6-18.46,14.56a39.86,39.86,0,0,0-13.67,24.07A280,280,0,0,0,674,428.66a26.24,26.24,0,0,1-25,27.4Z"/><path class="cls-5" d="M645.82,532.27A26.23,26.23,0,0,1,619.59,506V493.43a26.23,26.23,0,1,1,52.46,0V506A26.23,26.23,0,0,1,645.82,532.27Z"/><path class="cls-6" d="M585.53,176.89s21.79-37.69,81.64-43.23,81.28,32.87,81.28,32.87S695.93,143.65,653.23,155s-55.55,37.61-62.52,36S579.16,185.24,585.53,176.89Z"/><path class="cls-7" d="M573,203.51s-9.68,23.13-5.71,38.05,17,20.9,25.36,17.5S573,203.51,573,203.51Z"/><path class="cls-8" d="M634.65,429.85a3.68,3.68,0,0,1-7.14.32,27.31,27.31,0,0,1-1.16-8.36c.27-10.19,2.41-67.64,9.91-79.59,15.81-25.19,86.29-75,90.31-82.23s17.95-21.2,14.2-3.78-44.75,56.27-55.2,64.58-30.82,13.39-40.72,59.63C641.07,398,637,417.93,634.65,429.85Z"/><path class="cls-9" d="M640,470s-12.14,3.57-15.9,13.76-4.64,31.17,2.77,37.15S659.93,466.65,640,470Z"/><path class="cls-4" d="M389.06,151.57s7.45-27.06,38.8-19.85,34.2,22.94,33.34,30.87-54,107.64-54,107.64-48.33.67-60.28-12.41S327.48,181.12,389.06,151.57Z"/><path class="cls-10" d="M534.67,594.83s-1.92,20.17.58,25.2a9.06,9.06,0,0,1-7.18,2.88,97.4,97.4,0,0,1-18.87-2.7c1.74-18.42-.64-21.64-.25-25.71Z"/><path class="cls-10" d="M529.25,635.41c12.47,1.19,26.57.49,33.56,0a12.08,12.08,0,0,1,.26,2.53c0,4.52-45.79,4.14-53.47-.24-2.07-1.17-3-3.57-3.08-6.44A144.92,144.92,0,0,0,529.25,635.41Z"/><path class="cls-4" d="M529.25,635.41a144.92,144.92,0,0,1-22.73-4.16,21.72,21.72,0,0,1,1.91-8.84,19.26,19.26,0,0,0,.77-2.2,97.4,97.4,0,0,0,18.87,2.7,9.06,9.06,0,0,0,7.18-2.88l.18.33c1.22,2,4.82,3.45,9.78,5.56,7.14,3.7,16.08,1.88,17.6,9.48C555.82,635.9,541.72,636.6,529.25,635.41Z"/><path class="cls-10" d="M402,594.83s-1.92,20.17.59,25.2a9.1,9.1,0,0,1-7.19,2.88,97.5,97.5,0,0,1-18.87-2.7c1.74-18.42-.63-21.64-.24-25.71Z"/><path class="cls-10" d="M396.61,635.41c12.47,1.19,26.57.49,33.57,0a12.11,12.11,0,0,1,.25,2.53c0,4.52-45.79,4.14-53.47-.24-2.06-1.17-3-3.57-3.07-6.44A145,145,0,0,0,396.61,635.41Z"/><path class="cls-4" d="M396.61,635.41a145,145,0,0,1-22.72-4.16,21.72,21.72,0,0,1,1.91-8.84,19.33,19.33,0,0,0,.76-2.2,97.5,97.5,0,0,0,18.87,2.7,9.1,9.1,0,0,0,7.19-2.88,3.41,3.41,0,0,0,.17.33c1.23,2,4.82,3.45,9.78,5.56,7.14,3.7,16.08,1.88,17.61,9.48C423.18,635.9,409.08,636.6,396.61,635.41Z"/><path class="cls-4" d="M473.61,299.82S515.32,387.66,524,425.25c9.32,40.5,32.11,171.68,9.84,178.55-20.55,6.33-24.59,14.09-33.47,9.24-17.75-9.69-30.85-123.37-31.92-157-.66-20.87-66-145.47-57.66-161.45S473.61,299.82,473.61,299.82Z"/><path class="cls-4" d="M473.61,299.82a232.56,232.56,0,0,0-23.94-7.57c1.76,23.38,13,51.7,21.22,70.13,19,42.43,27.3,122.9,31.7,163.87,2.17,20.26-6.54,41.7-15.91,58.21,4.08,15,8.69,25.87,13.66,28.58,8.88,4.85,12.92-2.91,33.47-9.24,22.27-6.87-.52-138-9.84-178.55C515.32,387.66,473.61,299.82,473.61,299.82Z"/><path class="cls-4" d="M373.28,457c4.57-43.92-29.72-153.47,7.42-170.44s68,18.41,68,18.41-15.56,136.44-24,181.39c-6.16,32.7-17.78,116.36-18.89,118.91-4.16,9.51-44.22,17.11-42.44,9.37.48-2.1-2.36-61.1,2-105.26C367.47,487.9,372,468.94,373.28,457Z"/><path class="cls-4" d="M435.05,293.31a69.34,69.34,0,0,0-18.36-9c1.06,15.42,6.26,101.83-6.67,144.38-11.63,38.23-20.71,92-47,127.26-.48,30.65.67,57.26.35,58.66-1.78,7.74,38.28.14,42.44-9.37,1.11-2.55,12.73-86.21,18.89-118.91,7.16-38,19.39-141.5,23-172.5C443.78,305.79,439.58,298.73,435.05,293.31Z"/><path class="cls-11" d="M508.52,193.85S533.85,257,555.09,264.7c20.42,7.41,101.3-2.75,107.79,20.92S605,332.53,540.52,302.19s-69.81-61-62.4-78.4S508.52,193.85,508.52,193.85Z"/><path class="cls-4" d="M476.39,243.85c1.61,7.44,5.78,15.71,13.8,24.44,4.4-9.21,9.86-21.14,11.88-27.84,3.61-12,7.46-31.73,7.46-31.73S488.12,230.06,476.39,243.85Z"/><path class="cls-12" d="M412.17,156c9.18-7.09,25.43-5.53,47.5,3.41s48.28,29,49.8,36.7c6.09,30.8-33.65,52.84-35,68.5s36.93,54.07-15.34,62.89c-37.24,6.29-95.8,7.7-96-9C362.43,261.58,376,184,412.17,156Z"/><path class="cls-13" d="M481.33,126.74s-7-3.33-10.31-3.41-5.55-5.37-9-4.82-3.79,5.61-1.35,8-3.62,17.6,4.05,22.42S486.35,134,481.33,126.74Z"/><path class="cls-14" d="M465.2,184.67s-18.34-13.94-21.14-21.53-4.2-7.72,2.5-11.22,29.19-.77,35.88,6S486.4,174.31,465.2,184.67Z"/><path class="cls-4" d="M485.64,142.87s5.78.12,6.47-7.45c.45-4.94-5.86-13.16-9.09-13.55s-2.38,2.45-3.13,3.87c-4.05,7.68-13.44,9.83-15.27,16.16s5.86,10.64,8.9,9.71S485.64,142.87,485.64,142.87Z"/><path class="cls-15" d="M466.51,144.43l-9.7,14.44a7.91,7.91,0,0,0,1,10c4.3,4.26,11.15,8.77,14.78,7.2,1.67-.72,2.07-3.67,1.62-7.11l-3.07-18.89Z"/><path class="cls-4" d="M471.8,153.91c-3.11-1.48-7.34-3.56-7.34-3.56a14.65,14.65,0,0,0,2.33,10.46,14,14,0,0,0,7,5.43Z"/><path class="cls-15" d="M473.13,138.09l-7.74,10.21A7.82,7.82,0,0,0,467.56,159c2.8,1.9,4.8,2.59,8.92,3.48,3.43.74,6.21-1.84,7.7-6.15a42.65,42.65,0,0,0,2-14.36C486.06,135,478.67,131.8,473.13,138.09Z"/><path class="cls-15" d="M471.4,143.24a11.59,11.59,0,0,1-.23-2.36c0-1.51-.38-3.75-2.61-2.63-3.25,1.63-2.74,9.67,1,10.25C472.34,148.93,471.84,145.2,471.4,143.24Z"/><path class="cls-10" d="M477.55,149.72a21.32,21.32,0,0,0,6.51,2.47,2.72,2.72,0,0,1-2.21,1.68C480,154.21,477.43,153,477.55,149.72Z"/><path class="cls-11" d="M509.47,196.13c-.49-2.46-3.51-6.19-8.12-10.42,1.5,7.54,1.56,20.09-9.22,32.52-17,19.63-43.1,69-40.17,89.49,1.13,7.92,2.46,14.84,3.66,20.36l3.49-.56c52.27-8.82,14-47.23,15.34-62.89S515.56,226.93,509.47,196.13Z"/><path class="cls-4" d="M370.21,247.4a33.47,33.47,0,0,1-4.86-.32,5.41,5.41,0,1,1,1.64-10.7c5.93.91,48.88-1.93,64.59-40.6,9.46-23.3-5.14-45.72-5.29-45.94a5.42,5.42,0,0,1,9-6c.74,1.1,18,27.32,6.32,56C426.29,237.59,387.71,247.4,370.21,247.4Z"/><path class="cls-13" d="M479,158.54c-3.43-2-8.15,2.6-12.88-4.94-.88-1.41-.7-4-.55-5.52l-.16.22A7.82,7.82,0,0,0,467.56,159c2.8,1.9,4.8,2.59,8.92,3.48a5.44,5.44,0,0,0,5.4-2C481.19,160.35,480,159.15,479,158.54Z"/><rect class="cls-16" x="667.94" y="211.44" width="12.05" height="54.42" transform="translate(239.71 -329.33) rotate(33.1)"/><path class="cls-17" d="M689.7,225.34A95.58,95.58,0,1,1,822,197.47,95.69,95.69,0,0,1,689.7,225.34ZM787.63,75.11A83.75,83.75,0,1,0,812.06,191,83.84,83.84,0,0,0,787.63,75.11Z"/><g class="cls-18"><path class="cls-19" d="M787.63,75.11A83.75,83.75,0,1,0,812.06,191,83.84,83.84,0,0,0,787.63,75.11Z"/></g><path class="cls-16" d="M679.79,218.88A95.58,95.58,0,1,1,812.06,191,95.68,95.68,0,0,1,679.79,218.88ZM777.73,68.65a83.76,83.76,0,1,0,24.42,115.9A83.86,83.86,0,0,0,777.73,68.65Z"/><path class="cls-20" d="M724.18,104.28c-31.46,8.31-10.94,86.18-44.59,76.79-17.7-4.93-21.15-69.11,10.83-94.21a102.61,102.61,0,0,1,27.86-15.73c20.14-7.41,32.35,22.29,12.66,30.83A47.3,47.3,0,0,1,724.18,104.28Z"/><path class="cls-21" d="M671.33,248.83h0A21.65,21.65,0,0,0,641,252.49l-52.28,66.68a21.63,21.63,0,0,0,3.67,30.28h0a21.63,21.63,0,0,0,30.28-3.66L675,279.11A21.63,21.63,0,0,0,671.33,248.83Z"/><path class="cls-22" d="M672.07,249.44c-3.19,2.37-7.5,7.21-9.47,16.79-3.33,16.19-10.17,36.18-23.89,42.79s-20.57,6.66-25,16.6-17.32,20.13-28.81,12.5a21.4,21.4,0,0,0,7.49,11.33h0a21.63,21.63,0,0,0,30.28-3.66L675,279.11A21.64,21.64,0,0,0,672.07,249.44Z"/><path class="cls-4" d="M462.77,289.6c9.94,9.12,18,14.72,23.81,18.12,1.32-12.6-9.07-28-11.61-38.28l-50.24-41.58S440.44,269.11,462.77,289.6Z"/><path class="cls-12" d="M415.13,164.57c25.89-14,55,55.42,78.72,72.56,27.65,20,136.64,40,132.57,60.41s-86.12,18.27-132.66-1.1S384.88,180.91,415.13,164.57Z"/><path class="cls-11" d="M415.13,164.57l.21-.09c4.45,11.46,13.11,32.17,22.73,46.85,14,21.31,69.41,66.13,84.2,70.33s47.19,5.14,60,8.12,39.22,3.69,40.67,11.94a5.57,5.57,0,0,1,0,1.23c-16.6,14.42-87.31,10.94-129.23-6.51C447.23,277.06,384.88,180.91,415.13,164.57Z"/><path class="cls-14" d="M475.35,167.47a60.74,60.74,0,0,1-8.07,2.52c-2.39.36-9.7-15.52-12.65-14.13a6.68,6.68,0,0,0-3.7,8.36c1.12,4.08,11.78,17.88,17.15,16.37s8.26-3.52,9-5.93S476.69,167.45,475.35,167.47Z"/><path class="cls-10" d="M476.24,148.79l-.2-.06a6.44,6.44,0,0,1-4.5-4.53,4.71,4.71,0,0,1,1.56-4.54c1.46-1.32,4-1.31,7.35,0a3.62,3.62,0,0,1,2.07,4.55h0C481.91,146,480.51,150.1,476.24,148.79Zm2.36-8.17c-1.56-.48-3.47-.77-4.5.15a3.23,3.23,0,0,0-1.09,3.12,4.94,4.94,0,0,0,3.51,3.42c2.23.76,3.44-.21,4.58-3.54a2.15,2.15,0,0,0-1.2-2.69C479.52,140.93,479.08,140.77,478.6,140.62Z"/><path class="cls-10" d="M485.5,151.64c-4.27-1.32-3.14-5.49-2.65-7.29h0a3.63,3.63,0,0,1,4.27-2.61c3.52.77,5.63,2.19,6.1,4.1a4.73,4.73,0,0,1-1.25,4.63,6.4,6.4,0,0,1-6.27,1.22Zm-1.2-6.89c-.93,3.4-.44,4.88,1.8,5.5a5,5,0,0,0,4.82-.85,3.23,3.23,0,0,0,.85-3.2c-.43-1.76-3.3-2.64-5-3a2.13,2.13,0,0,0-2.5,1.55Z"/><path class="cls-10" d="M483.79,144.39l.6-.62c-.06-.06-1.54-1.48-3.12-.91l.29.8C482.63,143.28,483.78,144.38,483.79,144.39Z"/><path class="cls-15" d="M621.34,289.62s12.35,2.62,15.21,2.27,6.28-3.67,5.78.21-7.32,3.5-9.16,4.25,5.54,8.64,8.4,9.61,7.32.79,5.4,3.18-9.6,3.29-10.81,4.34-12.8,0-16.55-4.54-9.83-11.17-6.84-14.73S620.32,289.41,621.34,289.62Z"/></g></g></svg>