<svg id="Layer_1" data-name="Layer 1" xmlns="http://www.w3.org/2000/svg" viewBox="0 0 1100 700"><defs><style>.cls-1{fill:#d7eef9;}.cls-2{fill:#ad263d;}.cls-3{fill:#311e69;}.cls-4{fill:#662483;}.cls-5{fill:#1e1240;}.cls-6{fill:#614cd4;}.cls-7{fill:#ff6161;}.cls-8{fill:#fff;}.cls-9{fill:#f9b233;}.cls-10{fill:#f4a53b;}.cls-11{fill:#ffd5d4;}.cls-12{fill:#e6007e;}.cls-13{fill:#edaeae;}.cls-14{fill:#ffcbca;}.cls-15{fill:#dd9e9e;}</style></defs><title>2789 Website–Key Features–V1B</title><path class="cls-1" d="M776.62,248.34c-76.42-82.85-301.9-153.86-429.36-5.46s-89.94,412,244.36,412C844.07,654.89,853,331.18,776.62,248.34Z"/><g id="Group_7886" data-name="Group 7886"><g id="Group_7653" data-name="Group 7653"><path id="Path_38514" data-name="Path 38514" class="cls-2" d="M525,97.91S402.44,209.6,433.52,266.45s97.79,10.37,109.92-12.13S525,97.91,525,97.91Z"/><path id="Path_38515" data-name="Path 38515" class="cls-3" d="M463.21,166.73c12.87,13.83,45.23,44.88,82.37,52.42C541.9,171.92,525,97.91,525,97.91A531.6,531.6,0,0,0,463.21,166.73Z"/><path id="Path_38516" data-name="Path 38516" class="cls-4" d="M671.82,290.68c-1.46-38.53-1.76-43.75-2.65-68.26-2.32-63.2,9.67-113.84,0-124.06-34.79-36.72-140.25-24.31-156.43,11.79-16.05,35.79,7.89,92.33,8.55,176.23C521.36,294.24,672.08,297.53,671.82,290.68Z"/><path id="Path_38517" data-name="Path 38517" class="cls-5" d="M571.26,641A40.53,40.53,0,0,1,569,633.5a17.28,17.28,0,0,0-6.92-11.06c-5.62-4-13.4-8.5-16.4-5.48-3.32,3.34,1.42,15.27-1.57,19.81-1.3,2-25.83,15.42-26.23,18.15-.68,4.56,46.69,5.5,54.67,1.25C576.7,653.94,573.72,647.36,571.26,641Z"/><path id="Path_38518" data-name="Path 38518" class="cls-5" d="M697.7,640.36a40.63,40.63,0,0,1-2.47-7.47A17.27,17.27,0,0,0,688,622c-5.72-3.83-13.63-8.14-16.55-5-3.22,3.44,1.83,15.23-1,19.85-1.25,2-25.41,16.11-25.74,18.86-.55,4.58,46.83,4.24,54.68-.24C703.48,653.12,700.32,646.62,697.7,640.36Z"/><path id="Path_38519" data-name="Path 38519" class="cls-3" d="M650.1,124.51S637,211.23,669.63,235c-.14-3.71-.29-7.75-.46-12.52a682.1,682.1,0,0,1,2.28-75.1Z"/><g id="Group_7650" data-name="Group 7650"><path id="Path_38520" data-name="Path 38520" class="cls-3" d="M561.69,50.78s-11.66-8-4-17.61c11.42-14.28,31.42,1.68,34.35,7.51,4.36,8.7,2.5,24.4,2.5,24.4S565.74,61.21,561.69,50.78Z"/><g id="Group_7643" data-name="Group 7643"><path id="Path_38521" data-name="Path 38521" class="cls-6" d="M594.56,65.08s1.86-15.69-2.51-24.4h0a184,184,0,0,1-28.52,13C571.08,61.92,594.56,65.08,594.56,65.08Z"/></g><path id="Path_38522" data-name="Path 38522" class="cls-7" d="M589.17,55.65l16.52,28.92c.88,4.35-20.22,21-28.17,16.83-2.34-1.22-2.58-5.5-1.57-10.4l6.49-26.85Z"/><path id="Path_38523" data-name="Path 38523" class="cls-3" d="M581.13,69.55c4.64-1.79,11-4.32,11-4.32A21.14,21.14,0,0,1,587.57,80a20.32,20.32,0,0,1-10.68,7Z"/><path id="Path_38524" data-name="Path 38524" class="cls-7" d="M581,46.64l10,15.54a11.29,11.29,0,0,1-4.31,15.14,31.17,31.17,0,0,1-13.2,4c-5,.69-8.73-3.33-10.4-9.7a61.38,61.38,0,0,1-1.37-20.88C562.68,40.76,573.67,37,581,46.64Z"/><path id="Path_38525" data-name="Path 38525" class="cls-3" d="M591,62.19l-9.64-16.77c-.89-1.18-2.22-.94-3.19-1.72,1.15,3.34,3.35,13.39,2.75,14.87-1.54,3.81-5,.22-10.78,1.54a19.92,19.92,0,0,0-8.41,3.81,52,52,0,0,0,1.36,7.74c1.68,6.37,5.39,10.38,10.4,9.7a31.26,31.26,0,0,0,13.21-4A11.28,11.28,0,0,0,591,62.19Z"/><path id="Path_38526" data-name="Path 38526" class="cls-8" d="M574,61.7a30.3,30.3,0,0,1-9.62,2.83s.81,3.76,3.4,4.44S573.83,66.47,574,61.7Z"/><g id="Group_7644" data-name="Group 7644"><path id="Path_38527" data-name="Path 38527" class="cls-5" d="M570.3,75.43c5.15-2.5,11.44,4.64,19.06-5.7a14.51,14.51,0,0,0,1.4-7.88l.22.34a11.27,11.27,0,0,1-4.31,15.13,31.08,31.08,0,0,1-13.2,4,7.86,7.86,0,0,1-7.56-3.46C566.92,77.79,568.72,76.19,570.3,75.43Z"/></g><path id="Path_38528" data-name="Path 38528" class="cls-7" d="M583,51.93a16.17,16.17,0,0,0,.59-3.38c.17-2.17.93-5.36,4-3.51,4.5,2.67,3.73,13.24-1.71,13.69C581.87,59.07,582.18,54.69,583,51.93Z"/><g id="Group_7649" data-name="Group 7649"><g id="Group_7647" data-name="Group 7647"><g id="Group_7645" data-name="Group 7645"><path id="Path_38529" data-name="Path 38529" class="cls-3" d="M562.42,61l-.23.05a6.91,6.91,0,0,1-6.85-2.19,6.07,6.07,0,0,1-.91-5.71c.72-2.25,3.21-3.71,7.23-4.23a4.13,4.13,0,0,1,4.47,3.64h0C566.49,54.75,567.32,59.9,562.42,61Zm-2.09-10c-1.78.4-3.82,1.19-4.32,2.77a4.13,4.13,0,0,0,.6,3.94,5.31,5.31,0,0,0,5.29,1.59c2.6-.48,3.26-2.22,2.58-6.41a2.42,2.42,0,0,0-2.62-2.15C561.41,50.75,560.88,50.83,560.33,51Z"/></g><g id="Group_7646" data-name="Group 7646"><path id="Path_38530" data-name="Path 38530" class="cls-3" d="M573,58.63c-4.89,1.08-6-4-6.52-6.19h0a4.42,4.42,0,0,1,2.77-5.24c3.87-1.23,6.71-.94,8.19.81a6,6,0,0,1,1.26,5.63,7.34,7.34,0,0,1-5.48,4.93ZM568.15,52c.93,4.14,2.2,5.43,4.73,4.79a5.68,5.68,0,0,0,4.27-3.7,4.12,4.12,0,0,0-.89-3.88c-1.37-1.62-4.66-.88-6.49-.3A2.61,2.61,0,0,0,568.15,52Z"/></g></g><g id="Group_7648" data-name="Group 7648"><path id="Path_38531" data-name="Path 38531" class="cls-3" d="M567.45,51.93l.26-1a3.52,3.52,0,0,0-3.55.84l.72.68C565.72,51.43,567.44,51.93,567.45,51.93Z"/></g></g></g><path id="Path_38532" data-name="Path 38532" class="cls-9" d="M678.65,290.63c-.23-1-3.37-20.22-8-30.17-9.56-14.17-23.67-28.45-28-50.36-8.2-40.95,1.1-101,1.82-126.95a114.33,114.33,0,0,0-22.11-5.38l-6.67,66-65.7-2,12.45-61.35a126.33,126.33,0,0,0-22.78,7.34C529.09,112.61,518.09,253.38,519,285.91c2.29,87.2,15.3,341.78,24,348.09s48.15,9.36,54.63,0c9.6-13.85-6.42-137.24-6.77-161.93-.24-15.91,1.15-40.82,2.74-67.1,7.66,25.92,10,52.4,12.13,62.55,12.7,62.32,23.95,153.13,30.82,161.71s52.08,4.07,60.08-1.65S689.51,335.61,678.65,290.63Z"/><path id="Path_38533" data-name="Path 38533" class="cls-10" d="M678.65,290.63c-.23-1-3.37-20.22-8-30.17-9.56-14.17-23.67-28.45-28-50.36-8.19-40.95,1.1-101,1.82-126.95a114.33,114.33,0,0,0-22.11-5.38l-6.67,66-8.91-.27c-2,25.26-3,51.14-1,68.2,5.1,43.9,34.94,95.38,39,156.43s12.65,174.26,14.78,209.38c1.38,22.79.62,43.23,3.85,56.44,14-.55,29-3.26,33.3-6.33C704.62,621.86,689.51,335.61,678.65,290.63Z"/><path id="Path_38534" data-name="Path 38534" class="cls-3" d="M685.24,340.08c-1.67-17.3-3.37-31.64-5-41.38L617,296.8S641.31,336.37,685.24,340.08Z"/><path id="Path_38535" data-name="Path 38535" class="cls-7" d="M654.39,95.88c14-14.33,102.43,61.32,98.72,157.68s-100.41,63-132.75,45.15-46.19-45.48-33.71-60.31,101.79,28.66,112.21,18.87C715.37,241.77,628.25,122.59,654.39,95.88Z"/><path id="Path_38536" data-name="Path 38536" class="cls-2" d="M711.67,158.52c.66,24.55,10.44,35.41,16.17,62.36s10.11,32,10.33,50.2S717.06,296.69,693.58,291s-36.49,4.38-68.83-9.09c-30-12.5-29-34-41.65-37-5,15.46,9.16,38.36,37.27,53.87,32.35,17.86,129,51.22,132.75-45.15,1.77-45.82-17.3-87-39.3-116A76.84,76.84,0,0,0,711.67,158.52Z"/><g id="Group_7651" data-name="Group 7651"><path id="Path_38537" data-name="Path 38537" class="cls-11" d="M543.14,161.16a12.7,12.7,0,0,1,6.06-.43,5.55,5.55,0,0,1,3.57,3.31l-13.55,1.62S537.77,162.77,543.14,161.16Z"/><path id="Path_38538" data-name="Path 38538" class="cls-12" d="M560.9,161.17,492.59,169a6.15,6.15,0,0,0-5.39,6.78l12.11,106.06a6.15,6.15,0,0,0,6.78,5.39l68.31-7.8a6.15,6.15,0,0,0,5.39-6.78L567.68,166.56A6.15,6.15,0,0,0,560.9,161.17Z"/><path id="Path_38539" data-name="Path 38539" class="cls-11" d="M492.47,246.9l-1.92,13.8L555,253.19s-9.37-88.45-6.4-90.59L534.33,164Z"/><path id="Path_38540" data-name="Path 38540" class="cls-8" d="M549.19,160.73a7.62,7.62,0,0,0-7.16,2.89c-3.86,3.9,6.76,85.1,6.76,85.1s-52.41,4.38-64,2.33a62.63,62.63,0,0,0,1.48-17.48c-2.19-21.75-8.65-58.93-5-64.21C486.29,162.13,542,158.4,549.19,160.73Z"/></g><path id="Path_38541" data-name="Path 38541" class="cls-3" d="M687.71,212c8.8-1.86,37-9.23,46.58-28.85l-51.66,18C684.38,204.78,686.08,208.42,687.71,212Z"/><path id="Path_38542" data-name="Path 38542" class="cls-7" d="M594.59,237.35S578.8,227.28,576,227a59.6,59.6,0,0,0-16.58,4.5c-2.51,1.4-.42,5.12,0,5.19a19.46,19.46,0,0,1,3.22,1.63c.16.21,2.93,10.31,5.94,12.33s16.11,3.76,19.25,1.21S594.59,237.35,594.59,237.35Z"/><g id="Group_7652" data-name="Group 7652"><path id="Path_38543" data-name="Path 38543" class="cls-4" d="M738.16,178.9c-25.09-57.05-73.68-93.33-83.77-83-16.2,16.56,7.44,69.83,26.62,110.73C694.49,204.25,724,196.4,738.16,178.9Z"/></g><path id="Path_38544" data-name="Path 38544" class="cls-3" d="M738.16,178.92c-24-54.61-69.55-90.17-82.26-84.09a65,65,0,0,0,19.71,32.07c18.87,15.5,40.1,33,41.11,45.48a176.35,176.35,0,0,0,3.63,20.8A60.79,60.79,0,0,0,738.16,178.92Z"/><path id="Path_38545" data-name="Path 38545" class="cls-10" d="M593.59,405s-3.48-27.57-3.48-36.51c0-13.9-9-12.89-16.24-2.28s.5,71-6.07,114.47,9.1,128.12-4.55,135.32c-5.79,3.06-15.16,3.63-23.82,4.1,1.25,8.17,2.43,13.12,3.56,13.93,8.76,6.31,48.14,9.36,54.62,0,9.61-13.85-6.41-137.24-6.77-161.93C590.61,456.15,592,431.24,593.59,405Z"/></g><g id="Group_7657" data-name="Group 7657"><rect id="Rectangle_2423" data-name="Rectangle 2423" class="cls-13" x="405.4" y="499.03" width="90.84" height="153.12"/><rect id="Rectangle_2424" data-name="Rectangle 2424" class="cls-14" x="252.27" y="499.03" width="153.12" height="153.12"/><rect id="Rectangle_2425" data-name="Rectangle 2425" class="cls-13" x="317.23" y="499.03" width="23.22" height="53.26"/><rect id="Rectangle_2426" data-name="Rectangle 2426" class="cls-15" x="439.21" y="499.03" width="23.22" height="53.26"/><g id="Group_7654" data-name="Group 7654"><path id="Path_38546" data-name="Path 38546" class="cls-3" d="M385.16,616.6l-4.91,9.74h1.35v17.07h7.12V626.34h1.36Z"/><path id="Path_38547" data-name="Path 38547" class="cls-3" d="M374.06,616.6l-4.91,9.74h1.35v17.07h7.12V626.34H379Z"/></g><g id="Group_7656" data-name="Group 7656"><rect id="Rectangle_2427" data-name="Rectangle 2427" class="cls-8" x="410.66" y="621.36" width="41.22" height="23.32"/><g id="Group_7655" data-name="Group 7655"><rect id="Rectangle_2428" data-name="Rectangle 2428" class="cls-3" x="414.19" y="622.8" width="1.9" height="20.44"/><rect id="Rectangle_2429" data-name="Rectangle 2429" class="cls-3" x="446.45" y="622.8" width="1.9" height="20.44"/><rect id="Rectangle_2430" data-name="Rectangle 2430" class="cls-3" x="418.42" y="628.1" width="1.9" height="15.14"/><rect id="Rectangle_2431" data-name="Rectangle 2431" class="cls-3" x="421.12" y="628.1" width="2.94" height="15.14"/><rect id="Rectangle_2432" data-name="Rectangle 2432" class="cls-3" x="432.61" y="628.1" width="1.9" height="15.14"/><rect id="Rectangle_2433" data-name="Rectangle 2433" class="cls-3" x="435.31" y="628.1" width="2.94" height="15.14"/><rect id="Rectangle_2434" data-name="Rectangle 2434" class="cls-3" x="425.4" y="626.52" width="1.9" height="16.72"/><rect id="Rectangle_2435" data-name="Rectangle 2435" class="cls-3" x="428.1" y="628.1" width="2.94" height="15.14"/><rect id="Rectangle_2436" data-name="Rectangle 2436" class="cls-3" x="439.35" y="628.1" width="1.9" height="15.14"/><rect id="Rectangle_2437" data-name="Rectangle 2437" class="cls-3" x="442.05" y="628.1" width="2.94" height="15.14"/></g></g></g><g id="Group_7661" data-name="Group 7661"><rect id="Rectangle_2438" data-name="Rectangle 2438" class="cls-13" x="372.98" y="355.84" width="59.14" height="143.98"/><rect id="Rectangle_2439" data-name="Rectangle 2439" class="cls-14" x="273.3" y="355.84" width="99.68" height="143.98"/><rect id="Rectangle_2440" data-name="Rectangle 2440" class="cls-13" x="315.58" y="355.84" width="15.11" height="78.98"/><rect id="Rectangle_2441" data-name="Rectangle 2441" class="cls-15" x="394.99" y="355.84" width="15.11" height="78.98"/><g id="Group_7658" data-name="Group 7658"><path id="Path_38548" data-name="Path 38548" class="cls-3" d="M359.8,476.67,356.6,483h.88v11.12h4.64V483H363Z"/><path id="Path_38549" data-name="Path 38549" class="cls-3" d="M352.58,476.67l-3.2,6.34h.88v11.12h4.64V483h.88Z"/></g><g id="Group_7660" data-name="Group 7660"><rect id="Rectangle_2442" data-name="Rectangle 2442" class="cls-8" x="376.4" y="479.77" width="26.84" height="15.18"/><g id="Group_7659" data-name="Group 7659"><rect id="Rectangle_2443" data-name="Rectangle 2443" class="cls-3" x="378.7" y="480.71" width="1.24" height="13.31"/><rect id="Rectangle_2444" data-name="Rectangle 2444" class="cls-3" x="399.7" y="480.71" width="1.24" height="13.31"/><rect id="Rectangle_2445" data-name="Rectangle 2445" class="cls-3" x="381.46" y="484.16" width="1.24" height="9.86"/><rect id="Rectangle_2446" data-name="Rectangle 2446" class="cls-3" x="383.21" y="484.16" width="1.91" height="9.86"/><rect id="Rectangle_2447" data-name="Rectangle 2447" class="cls-3" x="390.69" y="484.16" width="1.24" height="9.86"/><rect id="Rectangle_2448" data-name="Rectangle 2448" class="cls-3" x="392.45" y="484.16" width="1.91" height="9.86"/><rect id="Rectangle_2449" data-name="Rectangle 2449" class="cls-3" x="386" y="483.13" width="1.24" height="10.88"/><rect id="Rectangle_2450" data-name="Rectangle 2450" class="cls-3" x="387.75" y="484.16" width="1.91" height="9.86"/><rect id="Rectangle_2451" data-name="Rectangle 2451" class="cls-3" x="395.08" y="484.16" width="1.24" height="9.86"/><rect id="Rectangle_2452" data-name="Rectangle 2452" class="cls-3" x="396.84" y="484.16" width="1.91" height="9.86"/></g></g></g></g></svg>