<svg id="Layer_1" data-name="Layer 1" xmlns="http://www.w3.org/2000/svg" xmlns:xlink="http://www.w3.org/1999/xlink" viewBox="0 0 1100 700"><defs><style>.cls-1{fill:#fbd9ec;}.cls-2{fill:#0e2050;}.cls-3{fill:url(#linear-gradient);}.cls-4{fill:#1f1012;}.cls-5{fill:url(#linear-gradient-2);}.cls-6{fill:#ad263d;}.cls-7{fill:#36a9e1;}.cls-8{fill:#1e1240;}.cls-9{fill:#ffe0b3;}.cls-10{fill:#aa3766;}.cls-11{fill:#311e69;}.cls-12{fill:#e6007e;}.cls-13{fill:#ff6161;}.cls-14{fill:#fff;}.cls-15{fill:#6d183b;}.cls-16{fill:#bc0070;}.cls-17{fill:#f9b233;}.cls-18{fill:#db9a31;}.cls-19{fill:#f7de61;}</style><linearGradient id="linear-gradient" x1="-2964.95" y1="4665.87" x2="-2962.31" y2="4665.87" gradientTransform="matrix(28.29, 0, 0, -173.35, 84506.03, 809192.37)" gradientUnits="userSpaceOnUse"><stop offset="0" stop-color="#fff"/><stop offset="0.18" stop-color="#eaeaea"/><stop offset="0.53" stop-color="#c7c7c7"/><stop offset="0.81" stop-color="#b2b2b2"/><stop offset="1" stop-color="#ababab"/></linearGradient><linearGradient id="linear-gradient-2" x1="-2966.02" y1="4676.42" x2="-2967.8" y2="4674.06" gradientTransform="matrix(28.54, 0, 0, -122.95, 85267.83, 575268.28)" xlink:href="#linear-gradient"/></defs><title>2789 Website–Key Features–V1B</title><path class="cls-1" d="M748.29,176.87c-78.52-85.13-310.23-158.1-441.2-5.6s-92.42,423.37,251.1,423.37C817.6,594.64,826.81,262,748.29,176.87Z"/><g id="Group_7887" data-name="Group 7887"><path id="Path_38071" data-name="Path 38071" class="cls-2" d="M711.32,287.46c-1.13-25-17.5-33.53-26-58.37-1.08-3.16-8.67-25.2-9.67-28.25-15.51-47.83-10.52-48.05-26.4-72.3-14.38-21.94-25.68-16.36-40.92-6.95-17,10.48,4.77,36.67-.15,60.82-2.3,11.35-12.84,20.14-23.67,33.23-17,20-25.26,44.74-26.38,70.74-.82,19.37,1.71,321.85,1.71,321.85h17.06C584.3,578.85,634,284,634,284c16,34.75,26.37,324.21,26.37,324.21h16.53S723.72,396,711.32,287.46Z"/><path id="Path_38072" data-name="Path 38072" class="cls-3" d="M685.34,229.09c-1.08-3.16-8.67-25.2-9.67-28.25a481.83,481.83,0,0,1-12.75-48.33c-8.65-2.37-16.9-2-24.11,2.57,0,0,30.71,143.89,30.81,163.47s7.89,32.86,15.66,37.26c26.74,15.13,16.45,72,13,84.79-8.94,33.55-34.49,34.28-44.73,25.81,4.32,74,6.75,141.83,6.75,141.83h16.54S723.72,396,711.32,287.47C710.19,262.44,693.82,253.94,685.34,229.09Z"/><path id="Path_38073" data-name="Path 38073" class="cls-4" d="M684.24,621.25c-4.35-2.22-9.88-4-10.11-4.48a35.14,35.14,0,0,1,.94-8.55H661.56a27.52,27.52,0,0,1-4.75,12.44c-3.08,4.53-5.42,8.55-2.08,10.42,6.39,3.57,44.83,3.69,44.37,0C698.83,628.87,690.78,624.58,684.24,621.25Z"/><path id="Path_38074" data-name="Path 38074" class="cls-4" d="M578,620.67a25.61,25.61,0,0,1-4-12.44H560.1a13,13,0,0,1-1.4,8.47c-1,1.62-4,2.82-8.14,4.55-6.53,3.33-14.58,7.62-14.86,9.84-.47,3.69,38,3.58,44.37,0C583.42,629.23,581.08,625.2,578,620.67Z"/><path id="Path_38075" data-name="Path 38075" class="cls-5" d="M608.9,361.31c-7.35,26-11.4,74.58-24.84,88.46-8.53,8.82-18.9,6.44-25.36,3.53.53,78.49,1.17,154.93,1.17,154.93h17.06C584.31,578.85,634,284,634,284,625.55,282.46,616.26,335.32,608.9,361.31Z"/><g id="Group_7487" data-name="Group 7487"><path id="Path_38076" data-name="Path 38076" class="cls-6" d="M626.66,110.82c-7.71,7.1,1.21,32.1,19.94,56.61C659.86,184.78,680,207,704.2,216c58.36,21.51,68.35-92.7,56.94-113.87-1.25-2.31-8.6-7-12.19-1.77-13.37,19.42-26.7,73.38-33.66,74.11-7.78.83-32.44-31.31-54.29-50.42C649.87,114.3,634.8,103.32,626.66,110.82Z"/><g id="Group_7460" data-name="Group 7460"><g id="Group_7459" data-name="Group 7459"><g id="Group_7456" data-name="Group 7456"><g id="Group_7454" data-name="Group 7454"><path id="Path_38077" data-name="Path 38077" class="cls-7" d="M718.87,162.22l95.76-21.83L848.77,273l-116.36,24.2L713.05,173.05l7.22-6.85Z"/></g><g id="Group_7455" data-name="Group 7455"><path id="Path_38078" data-name="Path 38078" class="cls-2" d="M828.36,137.26l42.7,124.4-13,.85L848.78,273,814.63,140.39Z"/></g></g><g id="Group_7457" data-name="Group 7457"><path id="Path_38079" data-name="Path 38079" class="cls-8" d="M828.36,137.26l-11.51,12.13L713.06,173.05l7.22-6.86-1.41-4Z"/></g><g id="Group_7458" data-name="Group 7458"><path id="Path_38080" data-name="Path 38080" class="cls-2" d="M858,262.51,824.56,142.88l3.8-5.62,42.71,124.4Z"/></g></g></g><g id="Group_7461" data-name="Group 7461"><path id="Path_38081" data-name="Path 38081" class="cls-9" d="M799.45,168.69a2.12,2.12,0,0,0,1.41-1.61c4.21-22.29-7.68-67.75-27.75-76.79-7.65-3.45-14-3.49-18.93-.15-11.84,8.06-14.89,35.6-9.58,86.63a2.16,2.16,0,0,0,2.4,1.89,2.13,2.13,0,0,0,2-2.28v0c-5-48-2.37-75.86,7.76-82.77,3.58-2.43,8.34-2.26,14.53.53,16.63,7.49,29.47,50.09,25.29,72.23a2.11,2.11,0,0,0,1.72,2.44h0A2.22,2.22,0,0,0,799.45,168.69Z"/></g><path id="Path_38082" data-name="Path 38082" class="cls-8" d="M616.55,71a17.1,17.1,0,0,0-13.17-1.45c-7.76,2.11-3.75,14.67-3,17.2a6.91,6.91,0,0,1-3.28,8.84c-7.34,3.75-13.53,23.36,4.73,24.06s7.06-13.87,7.22-16.15c.57-7.65,5.71-4,7-12S620.92,73.61,616.55,71Z"/><g id="Group_7462" data-name="Group 7462"><path id="Path_38083" data-name="Path 38083" class="cls-10" d="M702.27,165.64c-11.21-10.73-26.85-29-41.28-41.63-11.12-9.72-26.19-20.71-34.33-13.2-7.71,7.09,1.21,32.09,19.94,56.61a181.39,181.39,0,0,0,36.49,37C695.82,193.41,700.62,174.79,702.27,165.64Z"/></g><path id="Path_38084" data-name="Path 38084" class="cls-11" d="M670.3,166.22c-3.4-6.88-2.22-18.72-2.22-18.72s-9.43,6.36-13,15.1c-1.38,3.43.53,11.15,3.35,19.26a153.66,153.66,0,0,0,25.62,23.32C680.71,194.88,672.93,171.55,670.3,166.22Z"/><g id="Group_7463" data-name="Group 7463"><path id="Path_38085" data-name="Path 38085" class="cls-12" d="M692.3,235c-10.65-26.72-20.57-44.75-27.37-68.91-3.39-12,12.62-23-3.29-40-23.13-24.7-51-25.19-69.22-7.84S594,181.14,565,242c-9.14,19.21,29.41,21,65.74,19.37C668.18,259.72,698.06,249.43,692.3,235Z"/></g><path id="Path_38086" data-name="Path 38086" class="cls-11" d="M630.68,75.35s-.8-4.28-7.06-5.9a10.35,10.35,0,0,0-11.16,3.48c-6,6.39-2.31,25.15,9.92,23.93S639.17,81.86,630.68,75.35Z"/><g id="Group_7466" data-name="Group 7466"><g id="Group_7464" data-name="Group 7464"><path id="Path_38087" data-name="Path 38087" class="cls-13" d="M619.46,91.44,618,107.77c-.23,2.68,6.13,10.08,10.81,7,1.37-.91-.05-4.72-1.06-7.6L625.5,92.89Z"/><path id="Path_38088" data-name="Path 38088" class="cls-11" d="M626.84,101.36A7.59,7.59,0,0,1,620,94.5l5.81.41Z"/></g><path id="Path_38089" data-name="Path 38089" class="cls-13" d="M619.18,81.55l-1.47,6.2a9.4,9.4,0,0,0,6.88,11.3A8.39,8.39,0,0,0,635,93.28a8,8,0,0,0,.25-1.18c1-5.09-2.49-9.78-3.69-12.2C628.75,74.4,621.41,74.53,619.18,81.55Z"/><path id="Path_38090" data-name="Path 38090" class="cls-13" d="M619.31,87.09a6.86,6.86,0,0,1-.79-1.49c-.41-1-1.25-2.37-2.48-1-1.79,1.89.67,7,3.38,6.48C621.44,90.6,620.12,88.27,619.31,87.09Z"/><g id="Group_7465" data-name="Group 7465"><path id="Path_38091" data-name="Path 38091" class="cls-6" d="M625.32,97a9.47,9.47,0,0,0,7-1.38,13.42,13.42,0,0,0,2.93-3.84,2.36,2.36,0,0,1,0,.28,8.39,8.39,0,0,1-9.43,7.19,11,11,0,0,1-1.17-.24,9.27,9.27,0,0,1-6.51-5.77A12.3,12.3,0,0,0,625.32,97Z"/></g><path id="Path_38092" data-name="Path 38092" class="cls-14" d="M631.94,90.43q-3.45.5-6.86,1.32A6,6,0,0,0,630,94.18C631.53,94,631.94,90.43,631.94,90.43Z"/></g><path id="Path_38093" data-name="Path 38093" class="cls-11" d="M580.7,188.51A175.78,175.78,0,0,1,565,242.05a9.18,9.18,0,0,0,.62,10.61,170.23,170.23,0,0,0,31.61-48.19c15.77-37,12-56.55,12-56.55Z"/><path id="Path_38094" data-name="Path 38094" class="cls-13" d="M597.28,118.5c-19.51-7.06-43.39,87.61-70.52,106.48-24,16.67-107.49,13.91-107.24,30.94.32,22.22,98.06,26.77,139-8C588.06,222.89,628,129.64,597.28,118.5Z"/><path id="Path_38095" data-name="Path 38095" class="cls-6" d="M606,127.05c-4.92,15.43-16.61,51.42-25.37,72.73-11.37,27.69-30.79,45.09-54.09,51.78C504,258,436.06,262.18,420.84,260.11c11.77,18.46,99.46,20.27,137.68-12.16C584.1,226.25,617.5,153.41,606,127.05Z"/><path id="Path_38096" data-name="Path 38096" class="cls-11" d="M590.06,202.67l-35.6-11.94s13.32,15.39,32.87,17.31Q588.72,205.39,590.06,202.67Z"/><g id="Group_7476" data-name="Group 7476"><g id="Group_7467" data-name="Group 7467"><path id="Path_38097" data-name="Path 38097" class="cls-9" d="M395.67,332.93h.27a2.6,2.6,0,0,0,2.61-2.58c0-.44-.5-44.35,9.9-60.08,5.57-8.41,9.85-12.46,13.9-13.14,3.21-.52,7,1,12.21,4.92,8.08,6.07,13.21,45.24,14.55,68.5a2.64,2.64,0,1,0,5.27-.28c-.37-6.39-4-62.74-16.57-72.23-6.51-4.89-11.56-6.71-16.35-5.91-5.72.94-10.95,5.56-17.47,15.41-11.25,17-10.75,61-10.73,62.88A2.59,2.59,0,0,0,395.67,332.93Z"/></g><g id="Group_7474" data-name="Group 7474"><g id="Group_7473" data-name="Group 7473"><g id="Group_7470" data-name="Group 7470"><g id="Group_7468" data-name="Group 7468"><path id="Path_38098" data-name="Path 38098" class="cls-12" d="M367.7,316.06l105.69-2.58,5.4,146.65-127.91.7,8.21-134.61,9.17-5.66Z"/></g><g id="Group_7469" data-name="Group 7469"><path id="Path_38099" data-name="Path 38099" class="cls-15" d="M488.54,313.11,504.8,453l-13.92-1.88-12.1,9-5.4-146.65Z"/></g></g><g id="Group_7471" data-name="Group 7471"><path id="Path_38100" data-name="Path 38100" class="cls-16" d="M488.54,313.11l-14.9,10.31-114.57,2.8,9.17-5.66-.56-4.49Z"/></g><g id="Group_7472" data-name="Group 7472"><path id="Path_38101" data-name="Path 38101" class="cls-12" d="M490.89,451.09l-7.65-124.87,5.28-13.11L504.78,453Z"/></g></g></g><g id="Group_7475" data-name="Group 7475"><path id="Path_38102" data-name="Path 38102" class="cls-9" d="M389,332.93h.26a2.6,2.6,0,0,0,2.61-2.58c0-.44-.5-44.35,9.9-60.08,5.57-8.41,9.86-12.46,13.9-13.14,3.22-.52,7,1,12.21,4.92,8.09,6.07,13.21,45.24,14.55,68.5a2.64,2.64,0,1,0,5.27-.28c-.36-6.39-3.95-62.74-16.56-72.23-6.51-4.89-11.56-6.71-16.35-5.91-5.72.94-10.95,5.56-17.47,15.41-11.25,17-10.76,61-10.73,62.88A2.59,2.59,0,0,0,389,332.93Z"/></g></g><g id="Group_7485" data-name="Group 7485"><g id="Group_7483" data-name="Group 7483"><g id="Group_7482" data-name="Group 7482"><g id="Group_7479" data-name="Group 7479"><g id="Group_7477" data-name="Group 7477"><path id="Path_38103" data-name="Path 38103" class="cls-17" d="M387.26,305.67l72.34-1.77,3.69,100.38-87.54.48,5.62-92.14,6.28-3.87Z"/></g><g id="Group_7478" data-name="Group 7478"><path id="Path_38104" data-name="Path 38104" class="cls-18" d="M470,303.65l11.13,95.73-9.53-1.29-8.29,6.19L459.6,303.9Z"/></g></g><g id="Group_7480" data-name="Group 7480"><path id="Path_38105" data-name="Path 38105" class="cls-18" d="M470,303.65l-10.19,7.05-78.42,1.92,6.28-3.88-.39-3.07Z"/></g><g id="Group_7481" data-name="Group 7481"><path id="Path_38106" data-name="Path 38106" class="cls-19" d="M471.58,398.09l-5.22-90.95,3.61-3.49,11.13,95.73Z"/></g></g></g><g id="Group_7484" data-name="Group 7484"><path id="Path_38107" data-name="Path 38107" class="cls-9" d="M395.54,320.2h.21a2.09,2.09,0,0,0,2-2.22h0c0-.36-3-36,4.54-49.26,4-7.12,7.26-10.63,10.51-11.39,2.57-.61,5.71.42,10.18,3.32,6.91,4.49,13.34,36,15.78,54.77a2.13,2.13,0,0,0,2.4,1.79,2.09,2.09,0,0,0,1.87-2.28v0c-.67-5.17-6.85-50.67-17.63-57.68-5.57-3.61-9.76-4.83-13.62-3.92-4.58,1.07-8.55,5.09-13.27,13.45-8.13,14.39-5.17,50.05-5,51.56A2.12,2.12,0,0,0,395.54,320.2Z"/></g></g><path id="Path_38108" data-name="Path 38108" class="cls-13" d="M767.61,87c-2.79-1.47-4.85,2.59-5.37,3.74,0-1.23-.14-2.82-.87-3s-1.69,2.68-2.16,4.28a15.55,15.55,0,0,0-4.58,2.49,21.23,21.23,0,0,0-3.53,6.68c1.46,2.8,11,0,13.92-2.38S770.85,88.73,767.61,87Z"/><g id="Group_7486" data-name="Group 7486"><path id="Path_38109" data-name="Path 38109" class="cls-12" d="M597.28,118.5c-13.18-4.78-28.37,36.92-45.21,70.29a82.56,82.56,0,0,0,39,17.52C609.33,170.45,617.76,125.92,597.28,118.5Z"/></g><path id="Path_38110" data-name="Path 38110" class="cls-10" d="M591.05,206.31c18.29-35.87,26.71-80.39,6.24-87.82a6.21,6.21,0,0,0-2-.37c-1.23,8.26-3.89,25.67-5.4,33.12-1.48,7.3-12.32,35.18-18,49.53A74.18,74.18,0,0,0,591.05,206.31Z"/><path id="Path_38111" data-name="Path 38111" class="cls-10" d="M692.31,235c-10.66-26.73-20.57-44.76-27.38-68.92-3.39-12,12.63-23-3.28-40a64,64,0,0,0-25.28-17.25c7.79,6.46,23.33,20.17,25.68,28.45,3.17,11.12-1.7,18.34-7.52,21s-37.54.35-28.12,5.71,24-4.42,32.48,9.34c7,11.34,16.31,61.94,19.37,79.42C689.33,248.19,695.14,242.09,692.31,235Z"/><path id="Path_38112" data-name="Path 38112" class="cls-13" d="M409.59,266.23c1.29,3.18,8.11,1.9,12.76.53s4.15-10.92,4.15-10.92c-1.07-3.89-5.84-3.56-7.63-3.68s-3.76,5.76-3.76,5.76,1.2-5.19-1.2-6.29S408.3,263.05,409.59,266.23Z"/></g></g></svg>