<svg id="Layer_1" data-name="Layer 1" xmlns="http://www.w3.org/2000/svg" viewBox="0 0 1100 700"><defs><style>.cls-1{fill:#e8deec;}.cls-2{fill:#274b68;}.cls-3{fill:#404859;}.cls-4{fill:#0e2050;}.cls-5{fill:#38638e;}.cls-6{fill:#fff;}.cls-7{fill:#662483;}.cls-8{fill:#450c63;}.cls-9{fill:#ffe164;}.cls-10{fill:#f2a25c;}.cls-11{fill:#ededed;}.cls-12{fill:#ff867a;}.cls-13{fill:#434a59;}.cls-14{fill:#725252;}.cls-15{fill:#c66c67;}</style></defs><title>2789 Website–Key Features–V1B</title><path class="cls-1" d="M757.39,194.06c-75.51-81.86-298.32-152-424.27-5.38S244.24,595.8,574.59,595.8C824,595.8,832.9,275.93,757.39,194.06Z"/><path class="cls-2" d="M563.9,88.17s70.58,42.34,90,67.75-3.08,32.47-17.44,38.1-53-42.15-63.37-51.64S563.9,88.17,563.9,88.17Z"/><path class="cls-3" d="M389.84,576.52c-2-6,5.57-10.53,7.72-15.58.15-.34,5-5.66,5.46-6,1.89-1.61,1-5.24-5.26-4.38-12.3,1.72-5.86-14.33-8.87-11.32-9,8.93-25.72,17.89-25.57,22.67.27,9.12,28.57,41.47,33,39C398.92,599.34,393.33,586.89,389.84,576.52Z"/><path class="cls-3" d="M607.46,647.07c-6.12-3.08-10.57-11.66-13.56-17.14-.2-.37-2.32-5.8-2.38-6.42-.28-2.65-8-10.06-10.82-4.71-5.51,10.54-2.07-2.64-5.37.56-5.5,5.33-9,30.15-4.9,33.7,7.74,6.78,62.43,11.8,62.83,6.58C633.49,656.52,618.05,652.39,607.46,647.07Z"/><path class="cls-4" d="M464.6,452.65c2.71-79.81,6.3-157,6.3-157s-4.75-33,3.48-50.89c5.9-12.85,48.58-12.2,70.22-1.29l57.25,8.23S628.32,387,630.65,444.46c3.12,76.91-21.51,178.83-29.44,181.45-11.78,3.9-21.6,12-40.83,3.17-2-.91,3.86-167.78,3.86-167.78s-8.08-96.24-10-99.82C553.92,391,551.9,451.13,526,489.6c-22.88,34-114.62,81.14-117.38,82.18-6.19,2.33-24.33-20.65-28.22-28.91C378.71,539.26,413.87,502.32,464.6,452.65Z"/><path class="cls-5" d="M474.48,113.74c10.94-20.44,32.76-31.46,59.75-32.89,24.71-1.31,35.19,8.9,47.51,25.31,11.42,15.2,24.85,84.09,27.15,102.06,5.1,39.84,34.47,94.63-7,92.46C590.53,300.09,589,277,589,277l-40.15,3.51s-4.83,17.56-20.74,24.38c-28,12-58.57,8-60.42-9.93-2.17-21.16,9.77-57.93,9.76-96.57C477.41,167.22,463.71,133.86,474.48,113.74Z"/><path class="cls-5" d="M609,381.78l-50.54,14.84c-.69-7.07-1.36-13.71-2-19.28C579.15,375.66,599.2,376.28,609,381.78Z"/><path class="cls-5" d="M466.87,390.89c20.53-4.22,55.92-10.82,87-13.34-.23,6.38-.61,13.39-1.25,20.78l-87,25.55C466,412.56,466.45,401.49,466.87,390.89Z"/><path class="cls-6" d="M548.63,280.7S495.54,101.81,520.15,86s46.73,11.6,52.72,27.9c9.42,25.63,16.29,162.62,16.29,162.62Z"/><path class="cls-7" d="M341.66,175l347.19-50.25a15.31,15.31,0,0,1,17.35,12.95l30.42,210.16a15.32,15.32,0,0,1-13,17.35L376.47,415.43a15.31,15.31,0,0,1-17.35-13L328.7,192.31A15.3,15.3,0,0,1,341.66,175Z"/><path class="cls-8" d="M341.66,175l347.19-50.25a15.31,15.31,0,0,1,17.35,12.95L724.64,265.1c-24.17-11.88-97-42.73-204.12-44.05-94.24-1.16-157.72,4.07-186.62,7.2l-5.2-35.94A15.3,15.3,0,0,1,341.66,175Z"/><rect class="cls-9" x="621.15" y="179.19" width="54.54" height="40.54" rx="7.18" transform="translate(-21.89 94.94) rotate(-8.24)"/><path class="cls-10" d="M635.34,217l.69,4.77,1.27-.18-.69-4.77,28-4.06.69,4.77,1.27-.19-.69-4.76,11.29-1.64a8.2,8.2,0,0,0,.14-1.31l-11.61,1.68-1.14-7.89,11.69-1.69-.19-1.27-11.69,1.69L663,192.38l11.69-1.69-.18-1.27-11.69,1.69-1.14-7.89,11.61-1.68a8.72,8.72,0,0,0-.51-1.22L661.5,182l-.69-4.76-1.27.18.69,4.77-28.05,4.06-.69-4.77-1.27.19.69,4.76L619.62,188a7,7,0,0,0-.13,1.31l11.6-1.68,1.15,7.89-11.69,1.69.18,1.27,11.69-1.69,1.41,9.74-11.69,1.69.18,1.27L634,207.82l1.14,7.88-11.6,1.68a7.37,7.37,0,0,0,.5,1.23Zm-3-29.5,28.06-4.06,4.06,28.05-28.06,4.06Z"/><path class="cls-11" d="M405.61,257l6.12,1.66a18.32,18.32,0,0,0,2.32,15.23l-5.35,3.4A24.79,24.79,0,0,1,405.61,257Z"/><path class="cls-11" d="M387.64,252.13l6.13,1.67a36.78,36.78,0,0,0,4.59,30.07L393,287.29a43.5,43.5,0,0,1-5.35-35.16Z"/><path class="cls-11" d="M369.66,272.4a60.43,60.43,0,0,1,1.55-24.72l6.14,1.67A53.7,53.7,0,0,0,384,293l-5.37,3.41A60.36,60.36,0,0,1,369.66,272.4Z"/><path class="cls-4" d="M367.36,189.41l102.71-14.87a4,4,0,0,1,4.52,3.38l1.1,7.58a4,4,0,0,1-3.38,4.52L369.6,204.89a4,4,0,0,1-4.52-3.38l-1.1-7.58A4,4,0,0,1,367.36,189.41Z"/><rect class="cls-4" x="617.59" y="284.61" width="61.95" height="14.94" rx="3.81" transform="translate(-35.15 95.92) rotate(-8.24)"/><rect class="cls-4" x="543.99" y="295.27" width="61.95" height="14.94" rx="3.81" transform="translate(-37.44 85.48) rotate(-8.24)"/><rect class="cls-4" x="470.38" y="305.92" width="61.95" height="14.94" rx="3.81" transform="matrix(0.99, -0.14, 0.14, 0.99, -39.72, 75.05)"/><rect class="cls-4" x="396.77" y="316.57" width="61.95" height="14.94" rx="3.81" transform="translate(-42.01 64.61) rotate(-8.24)"/><path class="cls-12" d="M491,272.12c8.42,0,16.21,5.26,19.52,6.8,6.79,3.17,9.05,8.21,4,6.75-1.33-.38-3-1.42-4.32-1.75-2.82-.71-4.77-.37-3.06,1.52,2.51,2.79,18.77,5.76,15.54,13.62-2.69,6.55-25.69,3-35.89-9.27C483.91,286.31,477.83,272.06,491,272.12Z"/><path class="cls-12" d="M473.87,251.21c15.69,16.43,29.38,32.16,26.29,36.3-3.53,4.74-21.58-3.11-42.82-11.92C458.8,267.88,461.86,259.78,473.87,251.21Z"/><path class="cls-5" d="M499,93.64c-2.53-7.74-80.84,26.53-110.84,82.83-27.61,51.8,71.23,111.34,85,105.5,3.44-1.46,16.45-19.49,10.61-25.71C463.2,244.41,431.29,205.5,432,196.59,434.23,170,517.76,151,499,93.64Z"/><path class="cls-13" d="M428.89,207.05a1.28,1.28,0,0,0,1.28-1.17c1.16-13.75,8.52-19.93,8.59-20a1.28,1.28,0,1,0-1.62-2c-.33.27-8.26,6.93-9.51,21.75a1.28,1.28,0,0,0,1.16,1.38Z"/><path class="cls-13" d="M472.68,158.48a1.31,1.31,0,0,0,.79-.26c10.18-7.76,16.94-9.42,17-9.44a1.28,1.28,0,0,0-.58-2.49c-.29.07-7.31,1.76-18,9.9a1.28,1.28,0,0,0,.76,2.29Z"/><path class="cls-5" d="M459.93,477.34a1.61,1.61,0,0,0,1.55-1.16,135.88,135.88,0,0,0,4.71-23.38,1.6,1.6,0,1,0-3.19-.29,136.22,136.22,0,0,1-4.6,22.78,1.6,1.6,0,0,0,1.1,2A1.25,1.25,0,0,0,459.93,477.34Z"/><path class="cls-14" d="M548.28,23.41c9.86,3.39,1.23,19.17,1.25,21.94S535.47,65.15,531,65.53s-6.9-8.8-7.11-10.19-3.1-9.66-1.17-14.35c1.25-3,9.58-8.44,9.58-8.44s-4.06-.07-3.09-1.36C533.55,25.42,540.72,20.82,548.28,23.41Z"/><path class="cls-12" d="M531.6,53.61l-8.06,30.51c-.33,3.14,6.31,16.16,19.53,12.26,1.8-.53,2.7-9.25,1.64-12.65L541.06,62.4Z"/><path class="cls-15" d="M533,63.78l8.59,1.64,1,6.09C537.69,70.72,533,63.78,533,63.78Z"/><path class="cls-12" d="M534.26,45.21l-2.85,12.93c-.82,4.73,4.06,10.52,12.93,10.23,9.44-.31,10.57-4.93,10.23-10.09-.44-6.7-3.77-17.59-5.18-20.76-2.28-5.08-4.55-.47-8.58,2.54C539.12,41.31,535.15,42.55,534.26,45.21Z"/><path class="cls-6" d="M552.37,51.61a31.93,31.93,0,0,1-10.06,2.32s1.63,2.92,4.19,3.77S551.73,56.44,552.37,51.61Z"/><path class="cls-12" d="M532,47.42c-.57-1.42-1.76-3.39-3.44-1.5-2.44,2.74.31,9.65,4,8.8C535.36,54.09,532.3,48.17,532,47.42Z"/><path class="cls-15" d="M547.25,48.4a5.64,5.64,0,0,0,2.31-1.47c.5-.52,1.21.34.72.86a6.6,6.6,0,0,1-2.56,1.63C547,49.65,546.57,48.63,547.25,48.4Z"/><path class="cls-13" d="M542.09,43.56a.57.57,0,0,1,.71.2,2,2,0,0,1,.39,1,.61.61,0,0,1-.76.62C541.88,45.28,541.35,43.81,542.09,43.56Z"/><path class="cls-13" d="M549,42.67a.54.54,0,0,1,.71.2,2,2,0,0,1,.38,1,.61.61,0,0,1-.75.62C548.76,44.38,548.24,42.92,549,42.67Z"/><path class="cls-14" d="M548,40.83a16.5,16.5,0,0,1,2.8,1.73c.81.62,1.74-.67.93-1.28a19.18,19.18,0,0,0-3.18-1.94C547.6,38.9,547.05,40.39,548,40.83Z"/><path class="cls-14" d="M542.1,40c-.85.46-1.73.88-2.56,1.38a.79.79,0,0,0,.8,1.37c.83-.5,1.71-.92,2.56-1.39S543,39.53,542.1,40Z"/><path class="cls-14" d="M535.51,42.53a9.43,9.43,0,0,0-.09,3.91c.39,2.38,1.27,4.2-.66,4.63s-1.71-1.88-2.77-3.65.14-4.53,1.94-5.23S535.51,42.53,535.51,42.53Z"/></svg>