<svg xmlns="http://www.w3.org/2000/svg" width="60" height="60" viewBox="0 0 60 60"><g transform="translate(-120 -768.149)"><g transform="translate(120 768.149)" fill="none" stroke="#f5b44b" stroke-width="2"><circle cx="30" cy="30" r="30" stroke="none"/><circle cx="30" cy="30" r="29" fill="none"/></g><g transform="translate(162.695 786.428) rotate(90)" fill="none"><path d="M9.475,1.284a2.478,2.478,0,0,1,4.343,0L23,18.326a2.414,2.414,0,0,1-2.171,3.542H2.46A2.414,2.414,0,0,1,.289,18.326L7.6,4.761Z" stroke="none"/><path d="M 11.64669895172119 2.000003814697266 C 11.51656913757324 2.000003814697266 11.33965873718262 2.040424346923828 11.23586940765381 2.232975006103516 L 2.049409866333008 19.27541351318359 C 2.024129867553711 19.32231521606445 1.947198867797852 19.46502494812012 2.057798385620117 19.65028381347656 C 2.117208480834961 19.74980354309082 2.235258102416992 19.86844444274902 2.460239410400391 19.86844444274902 L 20.83315849304199 19.86844444274902 C 21.05813980102539 19.86844444274902 21.17618942260742 19.74980354309082 21.23559951782227 19.65028381347656 C 21.34619903564453 19.46502494812012 21.26926803588867 19.32231521606445 21.24398803710938 19.27540397644043 L 12.05752849578857 2.232975006103516 C 11.95373916625977 2.040424346923828 11.77682876586914 2.000003814697266 11.64669895172119 2.000003814697266 M 11.64669895172119 1.9073486328125e-06 C 12.50166893005371 1.9073486328125e-06 13.35663890838623 0.4279994964599609 13.81804847717285 1.283994674682617 L 23.00450897216797 18.32642364501953 C 23.87077903747559 19.93348503112793 22.68459892272949 21.86844444274902 20.83315849304199 21.86844444274902 L 2.460239410400391 21.86844444274902 C 0.6087989807128906 21.86844444274902 -0.5773811340332031 19.93348503112793 0.2888889312744141 18.32642364501953 L 9.475349426269531 1.283994674682617 C 9.936758995056152 0.4279994964599609 10.79172897338867 1.9073486328125e-06 11.64669895172119 1.9073486328125e-06 Z" stroke="none" fill="#f5b44b"/></g></g></svg>