<svg xmlns="http://www.w3.org/2000/svg" xmlns:xlink="http://www.w3.org/1999/xlink" width="47" height="43" viewBox="0 0 47 43"><defs><clipPath id="a"><rect width="47" height="43" transform="translate(-0.209 0.258)" fill="#fff"/></clipPath></defs><g transform="translate(0.209 -0.258)"><g transform="translate(0 0)" clip-path="url(#a)"><path d="M24.958,55.61,7.473,49.054A.728.728,0,0,1,7,48.372V44H8.458v3.866l17.012,6.38Z" transform="translate(-1.621 -12.084)" fill="#fff"/><path d="M31.729,52.671A.729.729,0,0,1,31,51.942V33h1.457V50.891l16.028-6.01V41.014h1.457v4.371a.729.729,0,0,1-.472.682L31.985,52.624a.715.715,0,0,1-.256.047" transform="translate(-8.136 -9.097)" fill="#fff"/><path d="M17.485,40.364a.749.749,0,0,1-.265-.05L.463,33.757a.729.729,0,0,1-.387-1l5.1-10.2,1.3.651L1.737,32.691l15.447,6.045,5.509-8.953,1.241.764-5.828,9.471a.729.729,0,0,1-.621.347" transform="translate(0.28 -6.261)" fill="#fff"/><path d="M37.6,40.364a.729.729,0,0,1-.621-.347l-5.828-9.471,1.241-.764L37.9,38.735l15.447-6.045L48.6,23.2l1.3-.651,5.1,10.2a.728.728,0,0,1-.386,1L37.862,40.314a.749.749,0,0,1-.265.05" transform="translate(-8.176 -6.261)" fill="#fff"/><path d="M25.213,28.857a.719.719,0,0,1-.28-.056L7.448,21.516a.728.728,0,0,1,.04-1.36l14.571-5.1.481,1.375L9.765,20.9,25.213,27.34,40.662,20.9,27.887,16.431l.481-1.375,14.571,5.1a.728.728,0,0,1,.04,1.36L25.494,28.8a.719.719,0,0,1-.28.056" transform="translate(-1.621 -4.226)" fill="#fff"/><path d="M50.91,18.29l-1.15-.9,4.5-5.786L39,5.636,36.4,10.19l-1.265-.723,2.914-5.1a.73.73,0,0,1,.9-.318L55.7,10.606a.729.729,0,0,1,.31,1.126Z" transform="translate(-9.257 -1.225)" fill="#fff"/><path d="M5.254,18.29l-5.1-6.557a.729.729,0,0,1,.31-1.126L17.22,4.05a.732.732,0,0,1,.9.318l2.914,5.1-1.265.723-2.6-4.553L1.9,11.608l4.5,5.786Z" transform="translate(0.28 -1.225)" fill="#fff"/><rect width="2" height="19" transform="translate(22.791 0.258)" fill="#fff"/><path d="M30.722,26.451a.727.727,0,0,1-.515-.213l-2.914-2.914,1.03-1.03,2.4,2.4,2.4-2.4,1.03,1.03-2.914,2.914a.727.727,0,0,1-.515.213" transform="translate(-7.129 -6.191)" fill="#fff"/></g></g></svg>