<svg xmlns="http://www.w3.org/2000/svg" xmlns:xlink="http://www.w3.org/1999/xlink" width="47" height="47" viewBox="0 0 47 47"><defs><clipPath id="a"><rect width="47" height="47" transform="translate(-0.209 -0.444)" fill="#fff"/></clipPath></defs><g transform="translate(0.209 0.444)"><g transform="translate(0 0)" clip-path="url(#a)"><path d="M44.914,19.827a2.914,2.914,0,1,1,2.914-2.914,2.917,2.917,0,0,1-2.914,2.914m0-4.371a1.457,1.457,0,1,0,1.457,1.457,1.459,1.459,0,0,0-1.457-1.457" transform="translate(-11.122 -3.94)" fill="#fff"/><path d="M5.457,25.855H4V6.185A2.188,2.188,0,0,1,6.186,4H25.856V5.456H6.186a.729.729,0,0,0-.729.729Z" transform="translate(-0.806 -1.225)" fill="#fff"/><path d="M49.671,51.855H30V50.4H49.671a.729.729,0,0,0,.729-.729V30h1.457V49.67a2.188,2.188,0,0,1-2.186,2.186" transform="translate(-7.864 -8.283)" fill="#fff"/><rect width="10" transform="translate(5.791 6.556)" fill="#fff"/><rect width="1" height="2" transform="translate(5.791 8.556)" fill="#fff"/><rect width="2" height="2" transform="translate(8.791 8.556)" fill="#fff"/><rect width="1" height="2" transform="translate(11.791 8.556)" fill="#fff"/><rect width="2" height="1" transform="translate(22.791 22.556)" fill="#fff"/><rect width="10" height="2" transform="translate(30.791 39.556)" fill="#fff"/><rect width="1" height="1" transform="translate(39.791 36.556)" fill="#fff"/><rect width="1" height="1" transform="translate(36.791 36.556)" fill="#fff"/><rect width="2" height="1" transform="translate(32.791 36.556)" fill="#fff"/><path d="M16.914,49.2A2.917,2.917,0,0,1,14,46.284h1.457a1.457,1.457,0,0,0,2.914,0c0-.473-1.037-1.2-1.755-1.52C16.18,44.568,14,43.511,14,41.913a2.914,2.914,0,1,1,5.828,0H18.371a1.457,1.457,0,1,0-2.914,0c0,.473,1.037,1.2,1.755,1.52.436.2,2.616,1.253,2.616,2.851A2.917,2.917,0,0,1,16.914,49.2" transform="translate(-3.521 -10.727)" fill="#fff"/><rect width="2" height="1" transform="translate(11.791 27.556)" fill="#fff"/><rect width="2" height="3" transform="translate(11.791 37.556)" fill="#fff"/><rect width="1" height="2" transform="translate(17.791 32.556)" fill="#fff"/><rect width="2" height="2" transform="translate(6.791 32.556)" fill="#fff"/><path d="M44.028,26.227a.73.73,0,0,1-.569-.273l-2.345-2.932-2.345,2.932a.732.732,0,0,1-.84.221l-3.643-1.457a.73.73,0,0,1-.458-.677V20.4H30.186a.73.73,0,0,1-.677-.458L28.052,16.3a.729.729,0,0,1,.221-.839L31.2,13.113l-2.932-2.345a.729.729,0,0,1-.221-.839l1.457-3.643a.73.73,0,0,1,.677-.458h3.643V2.185a.73.73,0,0,1,.458-.677L37.928.051a.732.732,0,0,1,.84.221L41.114,3.2,43.459.272A.732.732,0,0,1,44.3.051l3.643,1.457a.73.73,0,0,1,.458.677V5.827h3.643a.73.73,0,0,1,.677.458l1.457,3.643a.728.728,0,0,1-.222.839l-2.931,2.345,2.931,2.345a.728.728,0,0,1,.222.839L52.719,19.94a.73.73,0,0,1-.677.458H48.4v3.643a.73.73,0,0,1-.458.677L44.3,26.175a.736.736,0,0,1-.271.052m-2.914-5.1a.729.729,0,0,1,.569.273l2.576,3.221,2.683-1.073V19.67a.728.728,0,0,1,.729-.729h3.878l1.073-2.683L49.4,13.682a.729.729,0,0,1,0-1.138l3.221-2.576L51.549,7.285H47.671a.728.728,0,0,1-.729-.729V2.678L44.259,1.6,41.683,4.826a.753.753,0,0,1-1.138,0L37.969,1.6,35.285,2.678V6.556a.728.728,0,0,1-.729.729H30.679L29.606,9.968l3.22,2.576a.728.728,0,0,1,0,1.138l-3.22,2.576,1.073,2.683h3.878a.728.728,0,0,1,.729.729v3.878l2.683,1.073L40.545,21.4a.729.729,0,0,1,.569-.273" transform="translate(-7.321 -0.14)" fill="#fff"/><path d="M43.557,22.113a6.557,6.557,0,1,1,6.557-6.557,6.564,6.564,0,0,1-6.557,6.557m0-11.657a5.1,5.1,0,1,0,5.1,5.1,5.106,5.106,0,0,0-5.1-5.1" transform="translate(-9.764 -2.583)" fill="#fff"/><path d="M16.029,54.227a.73.73,0,0,1-.57-.273l-2.345-2.932-2.345,2.932a.731.731,0,0,1-.84.221L6.286,52.718a.73.73,0,0,1-.458-.677V48.4H2.186a.73.73,0,0,1-.677-.458L.052,44.3a.728.728,0,0,1,.222-.839L3.2,41.113.274,38.768a.728.728,0,0,1-.222-.839l1.457-3.643a.73.73,0,0,1,.677-.458H5.828V30.185a.73.73,0,0,1,.458-.677l3.643-1.457a.732.732,0,0,1,.84.221L13.114,31.2l2.345-2.932a.732.732,0,0,1,.84-.221l3.643,1.457a.73.73,0,0,1,.458.677v3.643h3.643a.73.73,0,0,1,.677.458l1.457,3.643a.728.728,0,0,1-.222.839l-2.931,2.345,2.931,2.345a.728.728,0,0,1,.222.839L24.719,47.94a.73.73,0,0,1-.677.458H20.4v3.643a.73.73,0,0,1-.458.677L16.3,54.175a.733.733,0,0,1-.27.052m-2.915-5.1a.729.729,0,0,1,.569.273l2.576,3.221,2.683-1.073V47.67a.728.728,0,0,1,.729-.729h3.878l1.073-2.683L21.4,41.682a.728.728,0,0,1,0-1.138l3.22-2.576-1.073-2.683H19.671a.728.728,0,0,1-.729-.729V30.678L16.259,29.6l-2.576,3.221a.753.753,0,0,1-1.138,0L9.969,29.6,7.285,30.678v3.878a.728.728,0,0,1-.729.729H2.679L1.606,37.968l3.22,2.576a.728.728,0,0,1,0,1.138l-3.22,2.576,1.073,2.683H6.557a.728.728,0,0,1,.729.729v3.878l2.683,1.073L12.545,49.4a.729.729,0,0,1,.569-.273" transform="translate(0.28 -7.741)" fill="#fff"/></g></g></svg>