<svg xmlns="http://www.w3.org/2000/svg" xmlns:xlink="http://www.w3.org/1999/xlink" width="48" height="41" viewBox="0 0 48 41"><defs><clipPath id="a"><rect width="48" height="41" transform="translate(-0.334 0.226)" fill="#fff"/></clipPath></defs><g transform="translate(0.334 -0.226)"><g transform="translate(0)" clip-path="url(#a)"><path d="M47.728,36.014a.729.729,0,0,1-.515-1.244l2.7-2.7V30.612l2.4-2.4a.728.728,0,1,1,1.03,1.03l-1.972,1.972v1.457L48.244,35.8a.727.727,0,0,1-.515.213" transform="translate(-12.188 -7.742)" fill="#fff"/><path d="M40.2,46.114a3.2,3.2,0,0,1-1.972-.942l-8.014-8.014a.728.728,0,1,1,1.03-1.03l8.014,8.014a1.808,1.808,0,0,0,.942.515A1.459,1.459,0,0,0,41.657,43.2a1.811,1.811,0,0,0-.517-.944l-8.012-8.012a.728.728,0,0,1,1.03-1.03l8.014,8.014a3.2,3.2,0,0,1,.942,1.972A2.917,2.917,0,0,1,40.2,46.114" transform="translate(-7.573 -9.099)" fill="#fff"/><path d="M35.471,50.471a3.2,3.2,0,0,1-1.972-.942l-7.285-7.285a.728.728,0,0,1,1.03-1.03L34.529,48.5a1.808,1.808,0,0,0,.942.515,1.459,1.459,0,0,0,1.457-1.457,1.811,1.811,0,0,0-.517-.944.728.728,0,0,1,1.032-1.028,3.2,3.2,0,0,1,.942,1.972,2.917,2.917,0,0,1-2.914,2.914" transform="translate(-6.487 -11.27)" fill="#fff"/><path d="M26.213,48.4a3.2,3.2,0,0,1-1.972-.942L10.914,34.13V31.944l-2.7-2.7a.728.728,0,1,1,1.03-1.03l3.128,3.128v2.186l12.9,12.9a1.808,1.808,0,0,0,.942.515,1.459,1.459,0,0,0,1.457-1.457,1.811,1.811,0,0,0-.517-.944.728.728,0,0,1,1.032-1.028,3.2,3.2,0,0,1,.942,1.972A2.917,2.917,0,0,1,26.213,48.4" transform="translate(-1.601 -7.742)" fill="#fff"/><path d="M14.914,42.1A2.917,2.917,0,0,1,12,39.186a3.2,3.2,0,0,1,.942-1.972.728.728,0,0,1,1.03,1.03,1.808,1.808,0,0,0-.515.942,1.459,1.459,0,0,0,1.457,1.457,1.811,1.811,0,0,0,.944-.517.728.728,0,0,1,1.028,1.032,3.2,3.2,0,0,1-1.972.942" transform="translate(-2.687 -10.185)" fill="#fff"/><path d="M18.914,46.1A2.917,2.917,0,0,1,16,43.186a3.2,3.2,0,0,1,.942-1.972.728.728,0,0,1,1.03,1.03,1.808,1.808,0,0,0-.515.942,1.459,1.459,0,0,0,1.457,1.457,1.811,1.811,0,0,0,.944-.517.728.728,0,0,1,1.028,1.032,3.2,3.2,0,0,1-1.972.942" transform="translate(-3.772 -11.27)" fill="#fff"/><path d="M22.914,50.1A2.917,2.917,0,0,1,20,47.186a3.2,3.2,0,0,1,.942-1.972.728.728,0,0,1,1.03,1.03,1.808,1.808,0,0,0-.515.942,1.459,1.459,0,0,0,1.457,1.457,1.811,1.811,0,0,0,.944-.517.728.728,0,0,1,1.028,1.032,3.2,3.2,0,0,1-1.972.942" transform="translate(-4.858 -12.356)" fill="#fff"/><path d="M26.914,54.1A2.917,2.917,0,0,1,24,51.186a3.2,3.2,0,0,1,.942-1.972.728.728,0,0,1,1.03,1.03,1.808,1.808,0,0,0-.515.942,1.459,1.459,0,0,0,1.457,1.457,1.811,1.811,0,0,0,.944-.517.728.728,0,0,1,1.028,1.032,3.2,3.2,0,0,1-1.972.942" transform="translate(-5.944 -13.442)" fill="#fff"/><path d="M39.213,36.585a3.2,3.2,0,0,1-1.972-.942.728.728,0,0,1,1.03-1.03,1.808,1.808,0,0,0,.942.515,1.459,1.459,0,0,0,1.457-1.457,1.811,1.811,0,0,0-.517-.944l-9.682-9.682V19.1H29.316l-3.429,3.429a3.2,3.2,0,0,1-1.972.942A2.917,2.917,0,0,1,21,20.557a3.2,3.2,0,0,1,.942-1.972l4.371-4.371a.728.728,0,0,1,1.03,1.03l-4.371,4.371a1.808,1.808,0,0,0-.515.942,1.459,1.459,0,0,0,1.457,1.457,1.811,1.811,0,0,0,.944-.517l3.854-3.854h3.216v4.8L41.186,31.7a3.2,3.2,0,0,1,.942,1.972,2.917,2.917,0,0,1-2.914,2.914" transform="translate(-5.13 -3.941)" fill="#fff"/><path d="M39.186,27.914H37V26.457h2.186A1.459,1.459,0,0,0,40.643,25H42.1a2.917,2.917,0,0,1-2.914,2.914" transform="translate(-9.473 -6.927)" fill="#fff"/><path d="M52.842,21.856H51.385a.727.727,0,0,1-.515-.213L39.213,9.986A.725.725,0,0,1,39,9.471V8.014a.725.725,0,0,1,.213-.515L46.5.213a.728.728,0,0,1,1.03,1.03L40.457,8.315v.854L51.687,20.4h.854L55.97,16.97A.728.728,0,0,1,57,18l-3.643,3.643a.728.728,0,0,1-.515.213" transform="translate(-10.016 -0.141)" fill="#fff"/><path d="M5.828,21.856H4.371a.727.727,0,0,1-.515-.213L.213,18a.728.728,0,0,1,1.03-1.03L4.673,20.4h.854l11.23-11.23V8.315L9.684,1.244a.728.728,0,0,1,1.03-1.03L18,7.5a.725.725,0,0,1,.213.515V9.471A.725.725,0,0,1,18,9.986L6.343,21.643a.727.727,0,0,1-.515.213" transform="translate(0.571 -0.141)" fill="#fff"/><path d="M56.728,21.914a.729.729,0,0,1-.515-1.244l1.457-1.457a.728.728,0,0,1,1.03,1.03L57.244,21.7a.727.727,0,0,1-.515.213" transform="translate(-14.631 -5.298)" fill="#fff"/><path d="M6.186,21.914A.727.727,0,0,1,5.67,21.7L4.213,20.244a.728.728,0,1,1,1.03-1.03L6.7,20.67a.729.729,0,0,1-.515,1.244" transform="translate(-0.515 -5.298)" fill="#fff"/></g></g></svg>