<svg xmlns="http://www.w3.org/2000/svg" xmlns:xlink="http://www.w3.org/1999/xlink" width="48" height="46" viewBox="0 0 48 46"><defs><clipPath id="a"><rect width="48" height="46" transform="translate(-0.334 0.142)" fill="#fff"/></clipPath></defs><g transform="translate(0.334 -0.142)"><rect width="44" height="2" transform="translate(3.666 11.142)" fill="#fff"/><g transform="translate(0 0)"><g transform="translate(0 0)" clip-path="url(#a)"><path d="M42.226,20.371H11.116L7.274,17.3a.729.729,0,0,1,.91-1.138l3.443,2.755H41.715l3.443-2.755a.729.729,0,0,1,.91,1.138Z" transform="translate(-1.329 -4.63)" fill="#fff"/><path d="M25.76,43.989a.644.644,0,0,1-.455-1.1L35.459,32.735l4.295-6.442,2.159-5.759a.644.644,0,1,1,1.206.452l-2.253,5.959L36.415,33.6l-10.2,10.2a.64.64,0,0,1-.455.189" transform="translate(-6.247 -5.748)" fill="#fff"/><path d="M15.729,36.756a.689.689,0,0,1-.121-.01.728.728,0,0,1-.6-.838l.8-4.577,2.108-4.218V23.732L17.208,20.9a.728.728,0,1,1,1.413-.353l.75,3.09v3.815l-2.214,4.427-.71,4.263a.729.729,0,0,1-.718.609" transform="translate(-3.501 -5.716)" fill="#fff"/><path d="M29.015,30.243,25.528,28.5l-.789-4.738-.717-2.857a.728.728,0,0,1,1.413-.353l.729,2.914.68,4.062L29.184,28.7l2.5-.625,3.41-2.728,2.845-4.979a.728.728,0,0,1,1.265.723l-2.983,5.221-3.876,3.1Z" transform="translate(-5.944 -5.716)" fill="#fff"/><path d="M.728,53.557a.729.729,0,0,1-.515-1.244l5.1-5.1a.728.728,0,0,1,1.03,1.03l-5.1,5.1a.727.727,0,0,1-.515.213" transform="translate(0.571 -13.046)" fill="#fff"/><path d="M16.728,62.643a.729.729,0,0,1-.515-1.244L18.4,59.213a.728.728,0,0,1,1.03,1.03l-2.186,2.186a.727.727,0,0,1-.515.213" transform="translate(-3.772 -16.303)" fill="#fff"/><path d="M16.928,55.756a.727.727,0,0,1-.515-.213l-10.2-10.2a.728.728,0,0,1,0-1.03l5.1-5.1a.728.728,0,0,1,1.03,0l10.2,10.2a.728.728,0,0,1,0,1.03l-5.1,5.1a.727.727,0,0,1-.515.213M7.759,44.828,16.928,54,21,49.928l-9.169-9.169Z" transform="translate(-1.058 -10.874)" fill="#fff"/><path d="M21.186,53.914a.727.727,0,0,1-.515-.213l-1.457-1.457a.728.728,0,1,1,1.03-1.03L21.7,52.67a.729.729,0,0,1-.515,1.244" transform="translate(-4.587 -14.132)" fill="#fff"/><path d="M30.728,30.2a.729.729,0,0,1-.515-1.244l3.544-3.544,2.13-4.971a.728.728,0,1,1,1.339.574l-2.241,5.229-3.742,3.742a.727.727,0,0,1-.515.213" transform="translate(-7.573 -5.716)" fill="#fff"/><rect width="1.457" height="3.091" transform="translate(9.527 6.056) rotate(-45)" fill="#fff"/><rect width="1.457" height="3.258" transform="translate(16.676 1.496) rotate(-26.565)" fill="#fff"/><rect width="3.091" height="1.457" transform="translate(37.94 7.212) rotate(-45)" fill="#fff"/><rect width="3.258" height="1.457" transform="translate(31.246 3.758) rotate(-63.422)" fill="#fff"/><rect width="2" height="2" transform="translate(24.666 0.142)" fill="#fff"/></g></g></g></svg>