<svg xmlns="http://www.w3.org/2000/svg" xmlns:xlink="http://www.w3.org/1999/xlink" width="48" height="47" viewBox="0 0 48 47"><defs><clipPath id="a"><rect width="48" height="47" transform="translate(-0.334 -0.183)" fill="#fff"/></clipPath></defs><g transform="translate(0.334 0.183)"><g transform="translate(0 0)" clip-path="url(#a)"><path d="M23.313,43.513H.729A.728.728,0,0,1,0,42.784V10.729A.728.728,0,0,1,.729,10H45.9a.728.728,0,0,1,.729.729V28.942H45.169V11.457H1.457v30.6H23.313Z" transform="translate(0.571 -2.711)" fill="#fff"/><path d="M25.371,22.371H21V18h4.371Zm-2.914-1.457h1.457V19.457H22.457Z" transform="translate(-5.13 -4.883)" fill="#fff"/><path d="M33.371,22.371H29V18h4.371Zm-2.914-1.457h1.457V19.457H30.457Z" transform="translate(-7.301 -4.883)" fill="#fff"/><path d="M41.371,22.371H37V18h4.371Zm-2.914-1.457h1.457V19.457H38.457Z" transform="translate(-9.473 -4.883)" fill="#fff"/><path d="M49.371,22.371H45V18h4.371Zm-2.914-1.457h1.457V19.457H46.457Z" transform="translate(-11.645 -4.883)" fill="#fff"/><path d="M57.371,22.371H53V18h4.371Zm-2.914-1.457h1.457V19.457H54.457Z" transform="translate(-13.816 -4.883)" fill="#fff"/><path d="M25.371,30.371H21V26h4.371Zm-2.914-1.457h1.457V27.457H22.457Z" transform="translate(-5.13 -7.055)" fill="#fff"/><path d="M17.371,30.371H13V26h4.371Zm-2.914-1.457h1.457V27.457H14.457Z" transform="translate(-2.958 -7.055)" fill="#fff"/><path d="M9.371,30.371H5V26H9.371ZM6.457,28.914H7.914V27.457H6.457Z" transform="translate(-0.786 -7.055)" fill="#fff"/><path d="M33.371,30.371H29V26h4.371Zm-2.914-1.457h1.457V27.457H30.457Z" transform="translate(-7.301 -7.055)" fill="#fff"/><path d="M41.371,30.371H37V26h4.371Zm-2.914-1.457h1.457V27.457H38.457Z" transform="translate(-9.473 -7.055)" fill="#fff"/><path d="M49.371,30.371H45V26h4.371Zm-2.914-1.457h1.457V27.457H46.457Z" transform="translate(-11.645 -7.055)" fill="#fff"/><path d="M57.371,30.371H53V26h4.371Zm-2.914-1.457h1.457V27.457H54.457Z" transform="translate(-13.816 -7.055)" fill="#fff"/><path d="M25.371,38.371H21V34h4.371Zm-2.914-1.457h1.457V35.457H22.457Z" transform="translate(-5.13 -9.226)" fill="#fff"/><path d="M17.371,38.371H13V34h4.371Zm-2.914-1.457h1.457V35.457H14.457Z" transform="translate(-2.958 -9.226)" fill="#fff"/><path d="M9.371,38.371H5V34H9.371ZM6.457,36.914H7.914V35.457H6.457Z" transform="translate(-0.786 -9.226)" fill="#fff"/><path d="M33.371,38.371H29V34h4.371Zm-2.914-1.457h1.457V35.457H30.457Z" transform="translate(-7.301 -9.226)" fill="#fff"/><path d="M25.371,46.371H21V42h4.371Zm-2.914-1.457h1.457V43.457H22.457Z" transform="translate(-5.13 -11.398)" fill="#fff"/><path d="M17.371,46.371H13V42h4.371Zm-2.914-1.457h1.457V43.457H14.457Z" transform="translate(-2.958 -11.398)" fill="#fff"/><path d="M9.371,46.371H5V42H9.371ZM6.457,44.914H7.914V43.457H6.457Z" transform="translate(-0.786 -11.398)" fill="#fff"/><path d="M46.627,5.828H45.169V1.457H1.457V5.828H0V.729A.728.728,0,0,1,.729,0H45.9a.728.728,0,0,1,.729.729Z" transform="translate(0.571 0.003)" fill="#fff"/><rect width="36" height="2" transform="translate(5.666 2.817)" fill="#fff"/><rect width="1" height="1" transform="translate(11.666 14.817)" fill="#fff"/><rect width="1" height="1" transform="translate(5.666 14.817)" fill="#fff"/><path d="M45.722,51.365a.727.727,0,0,1-.515-.213l-2.914-2.914,1.03-1.03,2.4,2.4,5.313-5.313,1.03,1.03-5.828,5.828a.727.727,0,0,1-.515.213" transform="translate(-10.91 -12.021)" fill="#fff"/><path d="M44.928,55.856A10.928,10.928,0,1,1,55.856,44.928,10.94,10.94,0,0,1,44.928,55.856m0-20.4A9.471,9.471,0,1,0,54.4,44.928a9.482,9.482,0,0,0-9.471-9.471" transform="translate(-8.659 -9.226)" fill="#fff"/></g></g></svg>