<svg xmlns="http://www.w3.org/2000/svg" xmlns:xlink="http://www.w3.org/1999/xlink" width="34" height="46" viewBox="0 0 34 46"><defs><clipPath id="a"><rect width="34" height="46" transform="translate(-0.449 0.425)" fill="#fff"/></clipPath></defs><g transform="translate(0.449 -0.425)"><g transform="translate(0 0)" clip-path="url(#a)"><path d="M33.513,10.2H32.056V2.914A1.459,1.459,0,0,0,30.6,1.457H23.272a6.557,6.557,0,0,1-13.032,0H2.914A1.459,1.459,0,0,0,1.457,2.914V10.2H0V2.914A2.917,2.917,0,0,1,2.914,0h8.742V.729a5.1,5.1,0,1,0,10.2,0V0H30.6a2.917,2.917,0,0,1,2.914,2.914Z" transform="translate(0 -0.431)" fill="#fff"/><path d="M30.6,50.97H21.856v-.729a5.1,5.1,0,1,0-10.2,0v.729H2.914A2.917,2.917,0,0,1,0,48.056V16H1.457V48.056a1.459,1.459,0,0,0,1.457,1.457H10.24a6.557,6.557,0,0,1,13.032,0H30.6a1.459,1.459,0,0,0,1.457-1.457V16h1.457V48.056A2.917,2.917,0,0,1,30.6,50.97" transform="translate(0 -4.774)" fill="#fff"/><rect width="2" height="2" transform="translate(24.551 9.425)" fill="#fff"/><rect width="1" height="2" transform="translate(27.551 9.425)" fill="#fff"/><rect width="2" height="2" transform="translate(30.551 9.425)" fill="#fff"/><rect width="2" height="2" transform="translate(21.551 9.425)" fill="#fff"/><rect width="1" height="2" transform="translate(19.551 9.425)" fill="#fff"/><rect width="2" height="2" transform="translate(15.551 9.425)" fill="#fff"/><rect width="1" height="2" transform="translate(13.551 9.425)" fill="#fff"/><rect width="1" height="2" transform="translate(10.551 9.425)" fill="#fff"/><rect width="2" height="2" transform="translate(6.551 9.425)" fill="#fff"/><rect width="2" height="2" transform="translate(4.551 9.425)" fill="#fff"/><rect width="1" height="2" transform="translate(1.551 9.425)" fill="#fff"/><path d="M23.285,31.657H21.828V25.1a.728.728,0,0,1,.729-.729h1.155L21.1,21.759l-2.613,2.613h1.155a.728.728,0,0,1,.729.729v6.557H18.914V25.828H16.728a.728.728,0,0,1-.515-1.244l4.371-4.371a.728.728,0,0,1,1.03,0l4.371,4.371a.728.728,0,0,1-.515,1.244H23.285Z" transform="translate(-4.344 -5.86)" fill="#fff"/><rect width="22" height="2" transform="translate(5.551 28.425)" fill="#fff"/><rect width="22" height="2" transform="translate(5.551 31.425)" fill="#fff"/><rect width="22" transform="translate(5.551 35.425)" fill="#fff"/></g></g></svg>