<svg id="Layer_1" data-name="Layer 1" xmlns="http://www.w3.org/2000/svg" xmlns:xlink="http://www.w3.org/1999/xlink" viewBox="0 0 1100 700"><defs><style>.cls-1{fill:#e6007e;}.cls-2{fill:#3d2547;}.cls-3{fill:url(#linear-gradient);}.cls-4{fill:#662483;}.cls-5{fill:#ffb5b5;}.cls-6{fill:#0e2050;}.cls-7{fill:url(#linear-gradient-2);}.cls-8{fill:#e0e0e0;}.cls-9{fill:#969792;}.cls-10{fill:url(#linear-gradient-3);}.cls-11{fill:url(#linear-gradient-4);}.cls-12{fill:#fff;}.cls-13{fill:url(#linear-gradient-5);}.cls-14{fill:#c4deff;}.cls-15{fill:url(#linear-gradient-6);}.cls-16{fill:url(#linear-gradient-7);}.cls-17{fill:#9a76ce;}.cls-18{fill:url(#linear-gradient-8);}</style><linearGradient id="linear-gradient" x1="-4136.75" y1="5404.71" x2="-4136.75" y2="5403.63" gradientTransform="matrix(72.31, 0, 0, -157.32, 299466.59, 850387.06)" gradientUnits="userSpaceOnUse"><stop offset="0" stop-color="#762a80"/><stop offset="0.18" stop-color="#713286"/><stop offset="0.47" stop-color="#664898"/><stop offset="0.82" stop-color="#546db6"/><stop offset="1" stop-color="#4a82c7"/></linearGradient><linearGradient id="linear-gradient-2" x1="-4162.15" y1="5377.26" x2="-4161.51" y2="5377.26" gradientTransform="matrix(130.31, 0, 0, -435.47, 542710.18, 2342133.58)" gradientUnits="userSpaceOnUse"><stop offset="0" stop-color="#fff"/><stop offset="0.18" stop-color="#eaeaea"/><stop offset="0.53" stop-color="#c7c7c7"/><stop offset="0.81" stop-color="#b2b2b2"/><stop offset="1" stop-color="#ababab"/></linearGradient><linearGradient id="linear-gradient-3" x1="-4177.24" y1="5376.55" x2="-4176.6" y2="5376.55" gradientTransform="matrix(247.61, 0, 0, -453.72, 1034767.71, 2439864.65)" xlink:href="#linear-gradient-2"/><linearGradient id="linear-gradient-4" x1="-4161.76" y1="5379.38" x2="-4161.12" y2="5379.38" gradientTransform="matrix(126.98, 0, 0, -374.22, 528886.38, 2013273.76)" xlink:href="#linear-gradient-2"/><linearGradient id="linear-gradient-5" x1="-4286.34" y1="5725.21" x2="-4285.69" y2="5725.21" gradientTransform="matrix(37.15, 0, 0, -17.84, 152127.56, 102252.27)" gradientUnits="userSpaceOnUse"><stop offset="0" stop-color="#fff"/><stop offset="0.19" stop-color="#f8f4f7"/><stop offset="0.68" stop-color="#eadfe9"/><stop offset="1" stop-color="#e6d8e4"/></linearGradient><linearGradient id="linear-gradient-6" x1="-4033.16" y1="5554.23" x2="-4032.52" y2="5554.23" gradientTransform="matrix(25.16, 0, 0, -33.62, 101864.29, 186814.41)" xlink:href="#linear-gradient-2"/><linearGradient id="linear-gradient-7" x1="-4168.94" y1="5396.55" x2="-4168.29" y2="5396.55" gradientTransform="matrix(164.21, 0, 0, -188.63, 685015.14, 1018117.63)" xlink:href="#linear-gradient-2"/><linearGradient id="linear-gradient-8" x1="-4109.9" y1="5332.18" x2="-4109.26" y2="5332.18" gradientTransform="matrix(19.16, -84.53, -84.53, -19.16, 529747.56, -245155.11)" gradientUnits="userSpaceOnUse"><stop offset="0" stop-color="#fff"/><stop offset="1" stop-color="#ebebeb"/></linearGradient></defs><title>2789 Website–Key Features–V1B</title><g id="Group_9647" data-name="Group 9647"><g id="Group_7676" data-name="Group 7676"><path id="Path_38585" data-name="Path 38585" class="cls-1" d="M602.83,670.57a170.87,170.87,0,0,1-43.42-5.37L565,644.1a155.05,155.05,0,0,0,48.49,4.34l1.3,21.77C610.76,670.45,606.75,670.57,602.83,670.57Zm34.71-3L634,646.11a227.17,227.17,0,0,0,47.43-13.45l8.15,20.23a248,248,0,0,1-52,14.73ZM537.17,657.38a129.78,129.78,0,0,1-45.44-33.81l16.51-14.25a108,108,0,0,0,37.86,28.16Zm-58.74-55.94A69,69,0,0,1,475,579.22c0-10.87,2.19-23,6.52-36.06l20.7,6.86c-3.59,10.84-5.42,20.66-5.42,29.2a47.7,47.7,0,0,0,2.32,15.22Zm31.39-70.54L490,521.77c6.64-14.39,15.33-29.75,26.58-46.95l18.25,11.94c-10.65,16.29-18.84,30.73-25,44.14ZM546.91,469l-17.82-12.56c10.6-15.05,21.37-29.14,30-40.46l1.49-1.95,17.33,13.24-1.49,1.95c-9,11.76-19.17,25.08-29.52,39.78Zm-235.16-.43c-3.36,0-6.81-.11-10.27-.32-12.33-.76-24.18-5-35.2-12.69l12.44-17.91a47.1,47.1,0,0,0,24.11,8.83,137,137,0,0,0,18.79-.09l1.67,21.75c-3.75.28-7.64.43-11.54.43Zm34.87-4.28-5.49-21.1a103.67,103.67,0,0,0,41.51-21.9L396.72,438c-15.34,13-31.72,21.58-50.1,26.35ZM248.2,439c-11-12.92-20.39-29.91-27-49.15l20.61-7.13c5.77,16.68,13.73,31.25,23,42.12Zm165.16-17.29-16.22-14.58c11.48-12.78,21.5-27.81,29.79-40.82L445.33,378C436.56,391.8,425.91,407.76,413.36,421.72Zm177.88-12.16-17.72-12.71c1.14-1.59,2.18-3.07,3.1-4.43A71.24,71.24,0,0,0,589,354.51l21.8.53a92.87,92.87,0,0,1-16.11,49.55Q593.17,406.89,591.24,409.56ZM214.88,367.69a221.29,221.29,0,0,1-5.31-48.26c0-.95,0-1.89,0-2.83,0-1.19,0-2.39.08-3.58l21.8.61c0,1.07-.06,2.15-.07,3.22,0,.86,0,1.72,0,2.58a198.91,198.91,0,0,0,4.78,43.5ZM457,359.51l-18.45-11.63c9.6-15.24,20-31.2,32-44l15.89,14.94C475.73,330.21,466,345.16,457,359.51Zm129.79-23.34a52.34,52.34,0,0,0-26.39-32.86l10-19.38c18.35,9.45,31.63,25.9,37.39,46.33ZM501,306.23l-12.14-18.12a75,75,0,0,1,43-13.15c1.05,0,2.1,0,3.17.06a92.49,92.49,0,0,1,11.51,1.14L543,297.68a72.39,72.39,0,0,0-8.81-.87A54.51,54.51,0,0,0,501,306.23Zm-268.07-13.5-21.68-2.34a406,406,0,0,1,9.61-52.94L242,242.66a381.34,381.34,0,0,0-9.11,50.08ZM247.57,222l-20.93-6.11a505.63,505.63,0,0,1,17.58-50.74l20.08,8.52A492.8,492.8,0,0,0,247.57,222Z"/></g><g id="Group_7674" data-name="Group 7674"><path id="Path_38550" data-name="Path 38550" class="cls-2" d="M409.26,95.42S418,70.2,475.35,73.8s84.17,109.27,90.88,164.89c5.5,45.64-32.43,91.78-98.55,90.61S381,133,409.26,95.42Z"/><path id="Path_38551" data-name="Path 38551" class="cls-3" d="M347.24,239.17,322.88,340.84h42.05l4.68-82.77Z"/><path id="Path_38552" data-name="Path 38552" class="cls-4" d="M393.41,100.18S304,155.48,294.72,215.05s43.94,62.47,85,53.57S393.41,100.18,393.41,100.18Z"/><path id="Path_38553" data-name="Path 38553" class="cls-5" d="M617.18,532.46c-4.87-3.1-40.15-81.58-99.37-104.36-30.44-11.71-17.75-93.93-30.66-135.75-1.41-4.59-13.65-23.6-14.74-27.73-17.39,1.6-62.32,4.41-106.28-3.78-5.39,13.09-12.77,16-15,29.78-8.3,50.74-25.59,333.87-25.59,333.87h34.07s42.86-74.37,44-119.36c.7-27.7-7.07-44.56-11-58.24C385.86,423.55,416.26,346,416.26,346c6,22.75,18.05,68.53,40.62,100.12,68.33,95.67,145.94,111.69,145.94,111.69Z"/><path id="Path_38554" data-name="Path 38554" class="cls-2" d="M372.05,423l-32.19-11q-.51,6.76-1,13.64C348.37,426,365.27,426.19,372.05,423Z"/><path id="Path_38555" data-name="Path 38555" class="cls-2" d="M446.28,429,477,414.76l-39.23-3.35C440.35,417.38,443.19,423.3,446.28,429Z"/><g id="Group_7663" data-name="Group 7663"><path id="Path_38556" data-name="Path 38556" class="cls-6" d="M487.15,292.35c-1.41-4.59-13.65-23.6-14.74-27.73-17.39,1.6-62.32,4.41-106.28-3.78-5.39,13.09-12.77,16-15,29.78-3.11,19-7.48,70.57-11.72,127.66,10.91,1.22,38.77,6.72,62.17,7,5.66-31.67,8.18-61.45,8.18-61.45,4.48,16.9,11.52,35.09,25.57,59.41,20.64-2.05,47.74-9.56,66.39-16.32C492.21,376.7,496.74,323.4,487.15,292.35Z"/></g><g id="Group_7664" data-name="Group 7664"><path id="Path_38557" data-name="Path 38557" class="cls-7" d="M383.84,343.05S370.6,433,372.05,461c.82,16-19.71,32.09-38.26,36.12-4.69,68.7-8.27,127.35-8.27,127.35h34.07s42.86-74.37,44-119.36c.7-27.7-7.07-44.57-11-58.24-1.49-5.15-1.16-12.94.25-21.95,2.95.17,5.87.28,8.72.31,5.67-31.66,8.19-61.44,8.19-61.45h0Z"/></g><path id="Path_38558" data-name="Path 38558" class="cls-2" d="M361.25,270c-4.26,6.48-8.53,10.76-10.14,20.67-.62,3.74-1.28,8.75-2,14.8,10.22,1.36,30,2.55,44.49-5.44C406.54,292.88,381.46,279.12,361.25,270Z"/><path id="Path_38559" data-name="Path 38559" class="cls-8" d="M483.69,280.91c-16.5-48.69,20.18-124-10-157.61-22.49-25-47.05-30-68.48-25.18-29.88,6.74-24,29.1-29.69,72.14-8,60.44-24.46,102.81-24.42,120.36C385.13,308.36,473.32,299.9,483.69,280.91Z"/><path id="Path_38560" data-name="Path 38560" class="cls-9" d="M393.62,106.68s-1.53-4.12-3.87-2.69c0,0,2.05-6.54,7.38-7.61S393.62,106.68,393.62,106.68Z"/><g id="Group_7665" data-name="Group 7665"><path id="Path_38561" data-name="Path 38561" class="cls-10" d="M617.18,532.46c-4.87-3.1-40.15-81.58-99.37-104.36-7.85-3-12.82-10.72-16.11-21.2-6-19.18-6.41-47.67-8.33-73.87,0-.51-.08-1-.11-1.53s-.09-1.11-.13-1.67l-.24-2.89c0-.39-.07-.79-.1-1.18-.07-.73-.13-1.46-.21-2.19,0-.4-.07-.81-.11-1.21-.1-1-.21-2-.31-3.05,0-.26-.07-.53-.09-.79-.1-.84-.19-1.67-.29-2.49l-.12-1c-.13-1-.26-2.05-.4-3.06,0-.18-.05-.35-.08-.53-.12-.88-.26-1.75-.39-2.61,0-.29-.09-.57-.13-.85-.16-1-.33-2-.51-3l-.06-.32c-.16-.9-.33-1.78-.51-2.65-.05-.25-.1-.51-.16-.76-.2-1-.4-1.91-.62-2.84,0-.05,0-.1,0-.15-.21-.89-.43-1.75-.66-2.61l-.18-.69c-.25-.9-.5-1.78-.77-2.65-1.23-4-10.76-19.07-13.85-25.54-.11-.23-.22-.45-.31-.66-.18-.42-.34-.79-.45-1.1s-.1-.3-.13-.43c-1.36.12-2.89.26-4.57.39l-2.09.16-2.23.16q-2.88.21-6.18.39h-.18c3.64,58.06,10.37,140.53,19.82,154.49,14.84,21.91,42.9,21.3,51.44,48.75,5.22,16.79-9.35,27.19-25,30.36,52.8,48.89,99.43,58.52,99.43,58.52Z"/></g><g id="Group_7666" data-name="Group 7666"><path id="Path_38562" data-name="Path 38562" class="cls-2" d="M612.34,514.43l-32.93,40C599.8,567,619,566.42,621,569.65a11.21,11.21,0,0,1,1.14,9.54c-2,8.81-4.35,19.82-2.47,21.85,3.13,3.39,33.53-32.9,35.2-41.77.8-4.18-3.74-5.41-9.58-6.14l-1.94-.22C637.19,552.27,627.07,531.21,612.34,514.43Z"/></g><g id="Group_7667" data-name="Group 7667"><path id="Path_38563" data-name="Path 38563" class="cls-2" d="M374.57,607.63l-49.87-14c-3.32,23.76,5,41,2.85,44.21a11.25,11.25,0,0,1-8.27,4.9c-8.87,1.7-19.89,4-21,6.56-1.83,4.23,43.64,17.39,52.43,15.34,4.15-1,3.44-5.61,1.75-11.24-.19-.61-.38-1.24-.58-1.87C350,645.64,365.16,627.88,374.57,607.63Z"/></g><path id="Path_38564" data-name="Path 38564" class="cls-4" d="M408,96.46s-6.91,92.73-3.22,130.07-15.1,118.32-15.1,118.32,113.52-12.1,118-13.72c0,0-12.6-59.89-13.42-89s9.59-114.28-39.64-136.29C416.51,88.8,408,96.46,408,96.46Z"/><g id="Group_7668" data-name="Group 7668"><path id="Path_38565" data-name="Path 38565" class="cls-11" d="M494.26,242.12c-.81-29.11,9.58-114.28-39.64-136.29-12.69-5.67-22.1-8.6-29-10,6,22.6,30.51,119.44,25.14,165-3.6,30.58.45,58.83,4.38,76.85,26.09-2.94,50.5-5.83,52.54-6.56C507.68,331.13,495.07,271.24,494.26,242.12Z"/></g><path id="Path_38566" data-name="Path 38566" class="cls-2" d="M494.26,242.12c0-1.54-.06-3.24-.07-5.08l-61-1.14s25.61,31.7,63.3,31h0C495.32,257.7,494.45,249,494.26,242.12Z"/><path id="Path_38567" data-name="Path 38567" class="cls-2" d="M419.81,154.56s24.13-48.43,40-48.73c0,0-18.93-9.31-25.17-7.59,0,0-30.79,32.23-35.44,63s26.69,77.81,68.49,79.59C467.68,240.86,409.74,204.51,419.81,154.56Z"/><g id="Group_7672" data-name="Group 7672"><path id="Path_38568" data-name="Path 38568" class="cls-2" d="M413,67s3,2,2.41,9.36S410,91.05,410,91.05,399,80.41,399.19,74.51s2.36-9,2.36-9Z"/><path id="Path_38569" data-name="Path 38569" class="cls-5" d="M406.55,77.68l6.41,25c-1.1,5.48-12.81,11.28-19,4.61-1.38-1.48,2.43-24.95,2.43-24.95Z"/><path id="Path_38570" data-name="Path 38570" class="cls-2" d="M395.33,89.05c-.32,2.26-.68,4.83-1,7.33,3.7-.27,8.91-1.27,10.28-4.75C406.08,87.94,399.74,88.36,395.33,89.05Z"/><path id="Path_38571" data-name="Path 38571" class="cls-5" d="M404.63,67.05l3.71,14.89a9.35,9.35,0,0,1-7.43,10.72c-4,.78-6.5.6-11.45-.37-4.12-.8-6-5-5.56-10.39a50.87,50.87,0,0,1,4.51-16.76C391.87,57.54,401.51,57.53,404.63,67.05Z"/><path id="Path_38572" data-name="Path 38572" class="cls-12" d="M385,76.71s-.5,3.64,4.79,1.32C389.74,78,387.8,77.39,385,76.71Z"/><g id="Group_7669" data-name="Group 7669"><path id="Path_38573" data-name="Path 38573" class="cls-13" d="M405.05,87.42c1.64-1.13,2.67-4.06,3.21-5.81l.08.32a9.36,9.36,0,0,1-7.43,10.73c-4,.77-6.51.59-11.45-.37a6.52,6.52,0,0,1-5-4.74C385.28,87.74,396.3,93.5,405.05,87.42Z"/></g><path id="Path_38574" data-name="Path 38574" class="cls-5" d="M402.27,73.66c.67-1.68,3-5,5-2.83,2.92,3.22.17,10.15-4.25,9.18C399.71,79.29,401.91,74.55,402.27,73.66Z"/><g id="Group_7671" data-name="Group 7671"><path id="Path_38575" data-name="Path 38575" class="cls-14" d="M386.21,63.07s-3.34-17,7-16.22c14,1,25.36,10.72,21.37,22.71,0,0-7.93-.91-13.37-1.6,0,0-7.37.57-10-.4C384.8,65.25,386.21,63.07,386.21,63.07Z"/><g id="Group_7670" data-name="Group 7670"><path id="Path_38576" data-name="Path 38576" class="cls-15" d="M399.12,47.83a19.8,19.8,0,0,1,8.35,20.9l7.1.83C418,59.33,410.19,50.75,399.12,47.83Z"/></g><path id="Path_38577" data-name="Path 38577" class="cls-2" d="M386,61.56s-18,.8-17.55,3.17,6.5,4.28,11.4,4.67S399,69.53,401.2,68C401.2,68,387,65.81,386,61.56Z"/></g></g><path id="Path_38578" data-name="Path 38578" class="cls-9" d="M407,111.06s-1.1-12.69,2.28-15.64c1.46-1.27,1.25-2.28,1.25-2.28s7.61-.66,8.37,3.86l.77,9.78S415.66,102.74,407,111.06Z"/><path id="Path_38579" data-name="Path 38579" class="cls-4" d="M448,111.06c28.77.9,72.44,35.91,82.87,79.91C546,255.21,417.25,306.71,403.29,155.35l9.94-2.1s58.28,63.21,63.5,38.26c1.13-5.44-28.09-17.4-31.94-19C410.49,158.12,424,110.31,448,111.06Z"/><g id="Group_7673" data-name="Group 7673"><path id="Path_38580" data-name="Path 38580" class="cls-16" d="M530.82,191c-5.54-23.38-20.48-44.23-37.57-58.76,10,12.25,17.9,26.78,21.62,42.45,10.48,44.25-47.36,82.45-88.93,52.48C466.34,283.77,542.74,241.28,530.82,191Z"/></g><path id="Path_38581" data-name="Path 38581" class="cls-5" d="M413.23,153.25s-1.67-12.35-5-12.42-7.79,8.6-5.25,16.38C404.34,161.43,413.23,153.25,413.23,153.25Z"/><path id="Path_38582" data-name="Path 38582" class="cls-17" d="M420.54,262.61l44.26-1.77s11.16,46.7-15.88,50S417.78,276.24,420.54,262.61Z"/><path id="Path_38583" data-name="Path 38583" class="cls-2" d="M322.88,218.77a43.7,43.7,0,0,1,26.26-14L348,214A39.24,39.24,0,0,0,322.88,218.77Z"/></g><g id="Group_7675" data-name="Group 7675"><path id="Path_38584" data-name="Path 38584" class="cls-1" d="M319.38,69.63a56.89,56.89,0,1,0-98.65,38.6l41.76,42.24,41.77-42.24A56.72,56.72,0,0,0,319.38,69.63Z"/><circle id="Ellipse_21" data-name="Ellipse 21" class="cls-2" cx="266.06" cy="76.1" r="28.01"/><circle id="Ellipse_22" data-name="Ellipse 22" class="cls-18" cx="262.48" cy="69.63" r="28.01"/></g><g id="Group_7678" data-name="Group 7678"><path id="Path_38585-2" data-name="Path 38585-2" class="cls-1" d="M813.31,360.3c2.92-1.68,6-3.31,9.06-4.85,11.06-5.51,23.45-7.74,36.83-6.62l-1.82,21.73A47.19,47.19,0,0,0,832.09,375a137.88,137.88,0,0,0-16.24,9.48l-12.32-18C806.64,364.33,809.93,362.26,813.31,360.3Zm-28,21.14L800.56,397a103.59,103.59,0,0,0-25,39.72L755,429.31c6.8-18.88,16.68-34.54,30.22-47.87Zm97.88-27.29c16,5.67,32.63,15.71,48,29.05l-14.29,16.48c-13.34-11.57-27.51-20.2-41-25ZM748.76,451.72l21.33,4.51c-3.55,16.81-4.71,34.83-5.39,50.25l-21.79-1C743.63,489.22,744.87,470.08,748.76,451.72Zm198.9-52.46a221.26,221.26,0,0,1,28.73,39.14c.47.82.94,1.64,1.4,2.46.58,1,1.16,2.08,1.73,3.14l-19.19,10.37c-.51-.95-1-1.89-1.55-2.82-.42-.76-.84-1.5-1.27-2.24A200,200,0,0,0,931.61,414ZM742.09,527.4l21.79.84c-.69,18-1.71,37-5.72,54.08l-21.23-5c3.57-15.19,4.51-33,5.16-49.93Zm-11.47,68.13,19.58,9.63A75,75,0,0,1,719.57,638c-.91.52-1.83,1-2.78,1.53a93,93,0,0,1-10.53,4.77l-7.72-20.39a71.91,71.91,0,0,0,8.05-3.65,54.56,54.56,0,0,0,24-24.76ZM969.53,473.19l20-8.81A406.08,406.08,0,0,1,1007.62,515l-20.94,6.07A383.69,383.69,0,0,0,969.53,473.19Zm22.65,68.56,21.18-5.17a505.09,505.09,0,0,1,10.15,52.72L1001.86,592A494.87,494.87,0,0,0,992.18,541.75Z"/></g></g></svg>