<svg xmlns="http://www.w3.org/2000/svg" xmlns:xlink="http://www.w3.org/1999/xlink" width="122.109" height="207.724" viewBox="0 0 122.109 207.724"><defs><linearGradient id="a" x1="0.5" y1="0.977" x2="0.5" y2="0.28" gradientUnits="objectBoundingBox"><stop offset="0" stop-color="#fff"/><stop offset="0.18" stop-color="#eaeaea"/><stop offset="0.527" stop-color="#c7c7c7"/><stop offset="0.813" stop-color="#b2b2b2"/><stop offset="1" stop-color="#ababab"/></linearGradient><linearGradient id="b" x1="0" y1="0.5" x2="1" y2="0.5" xlink:href="#a"/></defs><path d="M123.356,245.9v-2.32l6.6.425-.63,1.9Z" transform="translate(-65.157 -47.306)" fill="#d60b51"/><g transform="translate(0 199.26)"><path d="M65.28,247.262s-1.854,1.049-2.3,2.071,1.373,1.661,4.12.809a8.372,8.372,0,0,0,4.143-2.88Z" transform="translate(-53.722 -247.262)" fill="#d60b51"/><path d="M69.1,247.262s5.654,6.139,3.053,7.275-17.939,1.666-20.3.645,11.283-7.92,11.283-7.92-1.615,1.8-1.182,2.277C63.186,250.907,69.1,247.262,69.1,247.262Z" transform="translate(-51.577 -247.262)" fill="#36a9e1"/><g transform="translate(0 5.705)"><path d="M53.274,254.332c3.327-.235,7.32,2.12,12.7,1.493a23.724,23.724,0,0,0,6.812-1.527c.148.714.007,1.292-.628,1.57-2.6,1.135-17.939,1.666-20.3.645C51.139,256.2,51.885,255.36,53.274,254.332Z" transform="translate(-51.577 -254.298)" fill="#3c3c57"/></g></g><g transform="translate(54.461 198.596)"><path d="M129.322,246.443s2.6,1.766,3.19,3.526-4.371,1.249-6.32-.284a11.179,11.179,0,0,1-2.835-3.242Z" transform="translate(-119.618 -246.443)" fill="#d60b51"/><g transform="translate(0)"><path d="M122.484,246.443s-5.655,6.139-3.054,7.275,17.939,1.667,20.3.645-11.282-7.92-11.282-7.92,1.614,1.8,1.181,2.277C128.4,250.088,122.484,246.443,122.484,246.443Z" transform="translate(-118.746 -246.443)" fill="#36a9e1"/><g transform="translate(0.002 5.706)"><path d="M138.31,253.513c-3.327-.234-7.32,2.121-12.7,1.493a23.7,23.7,0,0,1-6.812-1.526c-.148.714-.008,1.292.628,1.57,2.6,1.136,17.939,1.667,20.3.645C140.446,255.385,139.7,254.541,138.31,253.513Z" transform="translate(-118.748 -253.48)" fill="#3c3c57"/></g></g></g><path d="M122.4,97.056c-16.781,3-33.933,1.971-40.572,1.383-.417,1.519-.885,3.109-1.426,4.793C67.262,144.153,64.688,218.519,64.688,218.519s4.177.162,7.3,0c0,0,20.042-60.838,25.168-76.471,2.446-7.459,5.3-18.066,7.6-26.417l6.252,102.51s4.366.135,9.453,0c0,0,13.332-88.86,7.691-106.266C126.564,106.976,124.457,101.857,122.4,97.056Z" transform="translate(-54.057 -19.584)" fill="#0e2050"/><path d="M65.832,247.141l.046-.518h5.966l-.046.518Z" transform="translate(-54.274 -47.881)" fill="#d60b51"/><g transform="translate(53.544 123.394)" style="mix-blend-mode:multiply;isolation:isolate"><path d="M128.711,174.637a36,36,0,0,1-11.1-1.612l3.405,55.832s4.366.135,9.453,0c0,0,6.469-43.115,8.488-75.164C136.507,158.536,137.269,174.167,128.711,174.637Z" transform="translate(-117.615 -153.693)" fill="url(#a)"/></g><g transform="translate(10.631 123.58)" style="mix-blend-mode:multiply;isolation:isolate"><path d="M71.989,185.078a4.645,4.645,0,0,1-3.894-2.873c-2.674,25.936-3.406,47.072-3.406,47.072s4.177.162,7.3,0c0,0,19.159-58.156,24.8-75.355C90.652,164.286,77.436,185.427,71.989,185.078Z" transform="translate(-64.688 -153.923)" fill="url(#b)"/></g><g transform="translate(12.99 0)"><path d="M94.019,27.288c1.982-2.081,2.713-6.323,1.19-7.779a4.169,4.169,0,0,0-6.829.892,14.931,14.931,0,0,0-.675,2.57s-1.017.031-1.524,1.716c-.706,2.346.735,6.492,2.661,6.568C89.959,31.3,92.272,29.123,94.019,27.288Z" transform="translate(-71.079 -4.65)" fill="#311e69"/><path d="M127.017,90.089c.953-5.437-3.086-12.945-5.739-21.592-4.422-14.41-9.609-30.205-15.257-31.816-15.762-4.5-37.758,5.147-38.385,16.548-.553,10.039,5.038,14.961,7.84,27.709,2.414,10.983-2.987,24.662,6.469,31.929C86.573,116.422,123.382,110.828,127.017,90.089Z" transform="translate(-67.598 -7.948)" fill="#36a9e1"/><path d="M132.311,90.089c.954-5.437-3.086-12.945-5.739-21.592-4.422-14.41-9.609-30.205-15.257-31.816a35.055,35.055,0,0,0-15.735-.455c.86,1.519,1.833,3.457,2.936,5.945,6.226,14.05,19.512,35.043,19.7,42.609.1,4.115-3.553,18.349-.249,22.408C125.081,103.358,130.967,97.761,132.311,90.089Z" transform="translate(-72.892 -7.948)" fill="#1d93cc"/><path d="M89.123,37.837s-1.2,1.063-1.039,1.686c.255.978,2.971,3.244,7.324,2.117,3.28-.85,2.715-2.665,2.123-3.669C96.4,36.058,92.645,36.183,89.123,37.837Z" transform="translate(-71.471 -8.14)" fill="#ffb5b3"/><path d="M88.809,30.333l.1,7.9c.243.691,3.486,2.462,6.9,1.322a2.282,2.282,0,0,0,1.378-2.365,5.345,5.345,0,0,0-.913-1.26l-4.866-4.878Z" transform="translate(-71.611 -6.961)" fill="#ff6161"/><path d="M92.526,32.424c-1.249.194-2.962.438-2.962.438a5.28,5.28,0,0,0,2.887,2.573,5.351,5.351,0,0,0,3.252.174Z" transform="translate(-71.754 -7.356)" fill="#311e69"/><g transform="translate(27.34)"><path d="M161.842,49.094,110.424,59.305l-9.107-42.382L152.734,6.713Z" transform="translate(-101.317 -2.492)" fill="#ffbf80"/><path d="M195.094,43.889,173.839,48.11,164.732,5.728l21.255-4.221Z" transform="translate(-113.314 -1.507)" fill="#e8a35f"/><path d="M182.767,16.614,177.3,17.7,174.466,4.526l5.47-1.086Z" transform="translate(-115.156 -1.873)" fill="#bf793a"/><path d="M160.5,21.116l-16.466,3.27-1.653-7.695,16.466-3.27Z" transform="translate(-109.086 -3.761)" fill="#fff"/><path d="M110.438,59.339s4.19-9.884,10.187-10.329,8.415,8.232,13.067,7.2.169-3.335,8.51-3.181,20.641.692,20.641.692l.724,3.371L112.15,67.3Z" transform="translate(-103.043 -10.491)" fill="#e8a35f"/><path d="M127.911,43.927a1.289,1.289,0,0,0-.08,2.488,4.818,4.818,0,0,1,2.326,1.629c1.891,2.366,3.529,3.952,4.476,2.933s-.493-5.51-2.152-6.593A6.474,6.474,0,0,0,127.911,43.927Z" transform="translate(-106.16 -9.492)" fill="#e8a35f"/></g><path d="M132.365,88.644c-.777-2.259-1.7-4.665-2.608-7.2l-24.9.343S117.335,90.21,132.365,88.644Z" transform="translate(-74.648 -16.631)" fill="#d60b52"/><path d="M89.6,25.8l-.214,4.521a2.823,2.823,0,0,0,2.886,2.67,8.189,8.189,0,0,0,3.421-.774c1.191-.473,1.494-1.778,1.045-3.331A14.834,14.834,0,0,0,94.364,24.3C92.862,22.306,89.961,22.862,89.6,25.8Z" transform="translate(-71.72 -5.596)" fill="#ff6161"/><path d="M95.691,32.856c1.191-.473,1.494-1.778,1.045-3.331a12.582,12.582,0,0,0-.811-2.059,41.592,41.592,0,0,0-4.4.891c-.831.131-1.579-1.142-1.929-1.854l-.211,4.456a2.823,2.823,0,0,0,2.886,2.67A8.189,8.189,0,0,0,95.691,32.856Z" transform="translate(-71.72 -6.236)" fill="#311e69"/><path d="M90,28.559a3.878,3.878,0,0,1-.309-.783c-.149-.513-.494-1.243-1.178-.656-.994.854-.045,3.548,1.336,3.4C90.875,30.414,90.343,29.185,90,28.559Z" transform="translate(-71.477 -6.312)" fill="#ff6161"/><path d="M94.184,29.079a8.009,8.009,0,0,0,2.48-.586s.3.892-.178,1.357S94.836,30.065,94.184,29.079Z" transform="translate(-72.628 -6.613)" fill="#fff"/><g transform="translate(17.664 24.625)"><path d="M95.629,32.23c-1.455.1-1.922,2.39-4.923,1.142a3.573,3.573,0,0,1-1.317-1.494l0,.1a2.823,2.823,0,0,0,2.886,2.67,8.189,8.189,0,0,0,3.421-.774,1.928,1.928,0,0,0,1.218-1.662A7.238,7.238,0,0,1,95.629,32.23Z" transform="translate(-89.384 -31.878)" fill="#1e1240"/></g><g transform="translate(1.248 39.573)"><g transform="translate(0.98 0.001)"><path d="M78.372,50.318c14.989.244,27.871,11.79,37.831,13.093,8.565,1.121,31.635-8.055,34.188-4.974,4.639,5.6-11.693,14.933-19.233,17.923-23.094,9.156-42.063-4.9-51.192-10.514C67.931,58.447,66.95,50.131,78.372,50.318Z" transform="translate(-70.346 -50.315)" fill="#ff6161"/></g><path d="M148.53,66.134c-4.259,4.432-12.585,8.886-17.371,10.784C108.065,86.073,89.1,72.015,79.967,66.4,72.021,61.519,68.9,56.237,70.976,53.263L95.4,66.22s7.772,5.368,13.695,6.712,6.106,1.238,12.88-.427C127.5,71.144,141.108,66.9,148.53,66.134Z" transform="translate(-69.367 -50.872)" fill="#ad263d"/><path d="M98.6,54.778c2.946,1.227,5.775,2.625,8.479,3.97-1.758,3.646-5.666,11-8.707,11.256C95.116,70.283,97.523,59.168,98.6,54.778Z" transform="translate(-74.357 -51.159)" fill="#d60b52"/><g transform="translate(77.404 1.744)"><path d="M167.279,63.955s4.168-.38,6.054-3.382c1.673-2.665,1.792-5.436,0-6.463-1.5-.855-3.071,3.486-4.653,3.957s-4.283.6-4.058,2.575S165.54,64.585,167.279,63.955Z" transform="translate(-164.603 -52.756)" fill="#ff6161"/><path d="M165.517,59.026a16.009,16.009,0,0,1,2.423-3.948c1.121-1.017.84-3.083,1.711-2.516s.771,2.381.2,3.053,1.011,2.51.027,3.482S164.893,60.529,165.517,59.026Z" transform="translate(-164.763 -52.466)" fill="#ff6161"/></g><path d="M78.68,66.3c-13.3-9.3-11.959-16.167-.536-15.98,6.207.1,13.759,2.364,20.48,4.981-.818,3.776-2.908,12.232-8.646,17.62A117.063,117.063,0,0,1,78.68,66.3Z" transform="translate(-69.138 -50.314)" fill="#ff9791"/><g transform="translate(0.008 2.767)"><path d="M78.681,66.944c-8.081-5.652-10.748-10.4-9.043-13.217,2.941,3.217,8.84,8.953,13.946,9.464a53.062,53.062,0,0,1,11.589,3.117,25.1,25.1,0,0,1-5.193,7.257A117.065,117.065,0,0,1,78.681,66.944Z" transform="translate(-69.147 -53.727)" fill="#d95f76"/></g></g></g></svg>