<svg id="Layer_1" data-name="Layer 1" xmlns="http://www.w3.org/2000/svg" viewBox="0 0 1100 700"><defs><style>.cls-1{fill:#ad263d;}.cls-2{fill:#870057;}.cls-3{fill:#662483;}.cls-4{fill:#fff;}.cls-5{fill:#2c8796;}.cls-6{fill:#564122;}.cls-7{fill:#006570;}.cls-8{fill:#ff6161;}.cls-9{fill:#311e69;}.cls-10{fill:#ff8b85;}.cls-11{fill:#e09494;}.cls-12{fill:#ffcbca;}.cls-13{fill:#edaeae;}.cls-14{fill:#ededed;}.cls-15{fill:#b7b7b7;}.cls-16{fill:#f9b233;}.cls-17{fill:#1e1240;}.cls-18{fill:#9e650a;}.cls-19{fill:#0e2050;}.cls-20{fill:#36a9e1;}</style></defs><title>2789 Website–Key Features–V1B</title><g id="Group_9642" data-name="Group 9642"><path id="Path_38398" data-name="Path 38398" class="cls-1" d="M549.77,320.47s51-4.41,65.77-13.62c16.73-10.45,25.88-68.52,50.49-85.56s6.63,32.82,2.84,46.07-8.52,59.83-37.55,74.41S558.66,362,558.66,362Z"/><path id="Path_38399" data-name="Path 38399" class="cls-2" d="M598.9,353.7c-.07-10.88-4.36-29.36-4.36-29.36L585.59,357C589.8,356.08,594.29,355,598.9,353.7Z"/><g id="Group_7618" data-name="Group 7618"><path id="Path_38400" data-name="Path 38400" class="cls-3" d="M586.94,315.46c-18.16,3.38-39.56,5-39.56,5L558.66,362a328.57,328.57,0,0,0,33.05-6.46C598.79,335.23,590.8,320.82,586.94,315.46Z"/></g><g id="Group_7620" data-name="Group 7620"><path id="Path_38401" data-name="Path 38401" class="cls-4" d="M607.05,621.52s.12,9.85,2.69,11.7a5.13,5.13,0,0,1-2.83,3.32,55.19,55.19,0,0,1-10.12,3.61c-.83-4.13-4.9-12.71-5.78-14.84Z"/><g id="Group_7619" data-name="Group 7619"><path id="Path_38402" data-name="Path 38402" class="cls-4" d="M610.78,642.45a124.26,124.26,0,0,0,16.74-8.82,7.23,7.23,0,0,1,.79,1.19c1.18,2.26-21.74,14.1-26.72,13.94a4,4,0,0,1-3.23-2.41A80.58,80.58,0,0,0,610.78,642.45Z"/><path id="Path_38403" data-name="Path 38403" class="cls-3" d="M610.79,642.46a80.7,80.7,0,0,1-12.43,3.9,12.35,12.35,0,0,1-1.37-4.91,9.7,9.7,0,0,0-.19-1.3,55.19,55.19,0,0,0,10.12-3.61,5.11,5.11,0,0,0,2.82-3.32l.18.11c1.13.66,3.31.46,6.35.21,4.53,0,8.51-3.29,11.27.1A124.38,124.38,0,0,1,610.79,642.46Z"/></g></g><g id="Group_7622" data-name="Group 7622"><path id="Path_38404" data-name="Path 38404" class="cls-4" d="M385.92,504.82s-9-3.94-11.76-2.36a5.08,5.08,0,0,1-1.87-3.94,54,54,0,0,1,.86-10.7c4.11.94,13.6.75,15.91.82Z"/><g id="Group_7621" data-name="Group 7621"><path id="Path_38405" data-name="Path 38405" class="cls-4" d="M365.3,499.62a124.31,124.31,0,0,0,1.17,18.89,7.41,7.41,0,0,1-1.41.23c-2.54.14-3.92-25.62-1.73-30.09a4,4,0,0,1,3.52-1.95A81.39,81.39,0,0,0,365.3,499.62Z"/><path id="Path_38406" data-name="Path 38406" class="cls-3" d="M365.3,499.62a81.39,81.39,0,0,1,1.55-12.92,12.33,12.33,0,0,1,5,.76,11.49,11.49,0,0,0,1.27.37,54.1,54.1,0,0,0-.86,10.7,5.12,5.12,0,0,0,1.87,4l-.18.1c-1.07.76-1.77,2.84-2.79,5.7-1.84,4.14-.5,9.11-4.72,10.24A124.44,124.44,0,0,1,365.3,499.62Z"/></g></g><path id="Path_38407" data-name="Path 38407" class="cls-5" d="M533.61,414.83s-4.8,89.25-24.81,108.47c-19.15,18.39-61.86,34.72-120.16-4.11a15.59,15.59,0,0,1-6.84-14.85l1.14-9.09a10.46,10.46,0,0,1,12.85-8.91c22,5.25,68.77,15.14,75.64,6.16,12.25-16-1.18-73,17.65-85.13S533.61,414.83,533.61,414.83Z"/><path id="Path_38408" data-name="Path 38408" class="cls-6" d="M520,293.67c.64-2.16,3.67-2.74,3.67-2.74a3,3,0,0,1,1.17-4.11,2.26,2.26,0,0,1,.35-.17c1.1-.58,3.53,1.13,3.53,1.13a3.87,3.87,0,0,1-.39-2.54c.24-1.57,7.13-2.84,10.34,2.65,2.6,4.45-.9,8.14-2.33,9.39a3.72,3.72,0,0,1-.4.49c-.7,5.67-14.48,11.18-14.48,11.18s-3.28-6.66-2.21-11.51a7.37,7.37,0,0,1,.88-2A2.86,2.86,0,0,1,520,293.67Z"/><path id="Path_38409" data-name="Path 38409" class="cls-5" d="M506,423.57s-.45,15.12,2.1,23.8c3.22,11,32.74,74.1,40.14,100,11.33,39.64,33.67,90,49.2,85.3,3.85-1.17,11.47-1.21,12.78-6.26,7.13-27.48-22.22-102-26.53-116.62-5.63-19.13-32-106.39-32-106.39Z"/><path id="Path_38410" data-name="Path 38410" class="cls-7" d="M508.8,523.3c20-19.22,24.81-108.48,24.81-108.48a62.76,62.76,0,0,0-7.07-4.47c-2.51,3.7-4.12,10.27-6.62,15.12-5,9.79-4.73,32.51-6.53,47.7s-2.94,22.68-15.87,29.55-8.84,15.22-30.3,24.38-72-26.2-78.16-27.46c-2.66-.54-5.2,1.76-7.23,4.57l0,.14a15.55,15.55,0,0,0,6.84,14.85C446.94,558,489.65,541.69,508.8,523.3Z"/><path id="Path_38411" data-name="Path 38411" class="cls-3" d="M462.17,433.36c7.36-20,3.16-92.62,32.35-109.66,19.49-11.38,55.65-6.72,66.78,2.8,11.56,9.88-11.43,50.31-4.26,94.61,3.51,21.67-23.46,20.94-32.91,21.73C522.45,443,473.11,445,462.17,433.36Z"/><path id="Path_38412" data-name="Path 38412" class="cls-8" d="M522.93,303.59,518.36,320c.1,2.27,12.62,7.88,16,4.82,1-.9.59-3-.53-5.34L527.32,307Z"/><path id="Path_38413" data-name="Path 38413" class="cls-9" d="M528.64,309.47c-2.52-.31-6-.77-6-.77a10.81,10.81,0,0,0,4.07,6.76,10.38,10.38,0,0,0,6.17,2.15Z"/><path id="Path_38414" data-name="Path 38414" class="cls-8" d="M525.87,298.11l-3,8.94a5.74,5.74,0,0,0,4,6.95,15.76,15.76,0,0,0,7,.35c2.57-.28,3.91-2.73,3.94-6.09a31.56,31.56,0,0,0-1.92-10.5C534.18,292.93,528.27,292.43,525.87,298.11Z"/><path id="Path_38415" data-name="Path 38415" class="cls-4" d="M531.17,304.7a15.45,15.45,0,0,0,5.12.2s.06,2-1.13,2.62S531.87,307,531.17,304.7Z"/><g id="Group_7623" data-name="Group 7623"><path id="Path_38416" data-name="Path 38416" class="cls-1" d="M534.73,311c-2.86-.61-5.08,3.72-10.14-.45a7.3,7.3,0,0,1-1.67-3.72l-.07.19a5.75,5.75,0,0,0,4,7,15.76,15.76,0,0,0,7,.34,4,4,0,0,0,3.31-2.65A14,14,0,0,1,534.73,311Z"/></g><path id="Path_38417" data-name="Path 38417" class="cls-8" d="M526.08,301.75a8.56,8.56,0,0,1-.15-1.75c0-1.11-.23-2.76-1.88-2-2.41,1.15-2.5,6.56.25,7C526.33,305.42,526.38,303.18,526.08,301.75Z"/><path id="Path_38418" data-name="Path 38418" class="cls-10" d="M531.09,323.34l2.79-3.9s4.89,3.33,5,5.89-.76,3-.76,3l-6.64-2.62-7.57,2.74s-7.95-5.88-7.62-7.44a23,23,0,0,1,3.26-5.22S525,321.79,531.09,323.34Z"/><g id="Group_7624" data-name="Group 7624"><path id="Path_38419" data-name="Path 38419" class="cls-1" d="M349.46,374.85C354.88,362,408.21,368,417,357.38c13-15.7,12.22-68.24,24-67.24,24.39,2.06,15,80.93-21.95,95.91C381.08,401.45,343,390.31,349.46,374.85Z"/></g><g id="Group_7625" data-name="Group 7625"><path id="Path_38420" data-name="Path 38420" class="cls-11" d="M401.34,324.34,856,57.63,406.8,206.76Z"/><path id="Path_38421" data-name="Path 38421" class="cls-12" d="M283.48,141.25l79.28,41.38L685.6,108,406.8,206.76,558.1,277.1l148.79-42.17,171.45-190L409.22,88Z"/><path id="Path_38422" data-name="Path 38422" class="cls-13" d="M362.76,182.63l38.58,141.71,5.46-117.58L856,57.63Z"/></g><g id="Group_7627" data-name="Group 7627"><path id="Path_38423" data-name="Path 38423" class="cls-14" d="M361.9,348.14s1.77-7.84-2.82-13.69c-3.69-4.7-10.33-9.13-21.3-2.13s-8.26,20.18-18.42,24.87-18-.41-25,5.07-8.27,9.51-7.25,11.16,4.43-3.4,5.52-3.2-4.61,2-5.91,13,6.4,27.4,21.78,27.13S363.24,370,361.9,348.14Z"/><g id="Group_7626" data-name="Group 7626"><path id="Path_38424" data-name="Path 38424" class="cls-15" d="M357.75,364.2c-10.34,21.19-37.17,45.92-49.24,46.13-15.38.28-23.07-16.14-21.78-27.13,0-.34.08-.67.13-1a29.07,29.07,0,0,0,18.58,8.52C317.6,391.56,343.76,374.21,357.75,364.2Z"/></g></g><path id="Path_38425" data-name="Path 38425" class="cls-8" d="M345,351l-1.2,14.87c-.19,2.45,5.4,9.16,9.48,6.32,1.2-.83-.06-4.29-1-6.91l-2-13Z"/><path id="Path_38426" data-name="Path 38426" class="cls-9" d="M351.46,360c-3.13-1.2-6-6.21-6-6.21l5.08.35Z"/><path id="Path_38427" data-name="Path 38427" class="cls-8" d="M345.62,341.44l-1.29,5.65a8.56,8.56,0,0,0,6,10.28,7.35,7.35,0,0,0,9.06-5.1,7.17,7.17,0,0,0,.23-1.21c.87-4.65-2.18-8.91-3.23-11.11C354,334.93,347.58,335.05,345.62,341.44Z"/><path id="Path_38428" data-name="Path 38428" class="cls-1" d="M351,355.55a11.23,11.23,0,0,0,6.12-1.26,11.41,11.41,0,0,0,2.56-3.49l0,.25a7.36,7.36,0,0,1-9.29,6.32,8.21,8.21,0,0,1-5.7-5.26A10.68,10.68,0,0,0,351,355.55Z"/><path id="Path_38429" data-name="Path 38429" class="cls-8" d="M344.67,347.57a6.69,6.69,0,0,1-.69-1.36c-.36-.9-1.08-2.15-2.17-1-1.57,1.73.59,6.42,3,5.91C346.54,350.77,345.38,348.64,344.67,347.57Z"/><path id="Path_38430" data-name="Path 38430" class="cls-4" d="M357.47,347.68a17.61,17.61,0,0,1-5.51,1.45,3.79,3.79,0,0,0,3.26,1.19C357.32,350.09,357.47,347.68,357.47,347.68Z"/><path id="Path_38431" data-name="Path 38431" class="cls-8" d="M387,439.24c-4.22-5.55-20.86-27.9-17-40.69,3.94-13.05,8.69-21.36,1.09-29-12.38-12.51-31.18-11.68-44.58-.21-9.26,7.93-2.24,24.58-2.94,33.88-1.35,17.81-10.43,28.29-19.25,52.91-6,16.72-8.14,66.7-13.45,72.58-9.07,10.05-7.5-1.09-72.67,56.51-3.69,3.26-.33,10.22,4.59,9.51,51.75-7.46,76.17-22.17,93.74-40.86,5.82-6.2,34.53-52.9,44-70.22a.19.19,0,0,0,.09-.16s21.17,45.84,21.17,58c0,11.85-17.14,94.95-16.29,102.55.51,4.63,4,4.1,12.54-1.24,5.05-3.18,32.93-48.17,38.55-96.53C420.4,513.43,402,458.47,387,439.24Z"/><path id="Path_38432" data-name="Path 38432" class="cls-8" d="M387,439.24c-4.22-5.55-20.86-27.9-17-40.69,3.94-13.05,8.69-21.36,1.09-29-12.38-12.51-31.18-11.68-44.58-.21-9.26,7.93-2.24,24.58-2.94,33.88-1.35,17.81-10.43,28.29-19.25,52.91-6,16.72-8.14,66.7-13.45,72.58-9.07,10.05-7.5-1.09-72.67,56.51-3.69,3.26-.33,10.22,4.59,9.51,51.75-7.46,76.17-22.17,93.74-40.86,5.82-6.2,34.53-52.9,44-70.22a.19.19,0,0,0,.09-.16s21.17,45.84,21.17,58c0,11.85-17.14,94.95-16.29,102.55.51,4.63,4,4.1,12.54-1.24,5.05-3.18,32.93-48.17,38.55-96.53C420.4,513.43,402,458.47,387,439.24Z"/><path id="Path_38433" data-name="Path 38433" class="cls-7" d="M610.23,626.4c7.13-27.48-22.22-102-26.53-116.61-5.62-19.14-32-106.4-32-106.4L545.76,406c-2,34.34,2.64,56.57,16.45,84.78,14.51,29.66,24.16,64.06,28.8,91.52,2.84,16.77,2.42,36.6,5.26,50.58a8.09,8.09,0,0,0,1.19-.24C601.3,631.49,608.92,631.45,610.23,626.4Z"/><path id="Path_38434" data-name="Path 38434" class="cls-1" d="M387,439.24c-4.22-5.55-20.86-27.9-17-40.69,3.29-10.92,7.15-18.52,3.86-25.21-9.95,11.43-18.67,36.59-18.67,36.59a196.49,196.49,0,0,0,13.39,24.18c4.11,6.16,13.63,8.55,21.47,9.44Q388.49,441.18,387,439.24Z"/><path id="Path_38435" data-name="Path 38435" class="cls-16" d="M322,412.69c7-.73,35.28-3.52,48.41-3.19a20.37,20.37,0,0,1-.43-10.95c3.94-13.05,8.68-21.36,1.09-29a30.07,30.07,0,0,0-16.16-8.61c1.76,2.5,6.18,9.54,4.14,14.4-2.53,6-11.52,7.32-15.54-1.39-2.43-5.27-4.08-9.25-5-11.59a36.77,36.77,0,0,0-7.18,3.45c2.16,4.29,5.29,11.4,5.8,17.41.59,6.92-8.92,11.82-13.85,13.89a32.74,32.74,0,0,1,.28,6.1A55.91,55.91,0,0,1,322,412.69Z"/><path id="Path_38436" data-name="Path 38436" class="cls-17" d="M416.47,357.92a22.7,22.7,0,0,1-1.6,4.75c-2.88,4.73-35.23,24.95-38.7,26.19s-6.78-1.42-6.94,2.53a2.91,2.91,0,0,0,.12,1,78.85,78.85,0,0,0,17.76.93,53.67,53.67,0,0,0,23-12.47c15-14.05,21.61-41.19,22.56-49.71a94.17,94.17,0,0,0-1.19-23.53c-3.71,16.5-6.5,40.13-14.5,49.79A5.17,5.17,0,0,1,416.47,357.92Z"/><g id="Group_7628" data-name="Group 7628"><path id="Path_38437" data-name="Path 38437" class="cls-18" d="M370,398.55c3.93-13.05,8.68-21.36,1.08-29a30.11,30.11,0,0,0-16.15-8.61c1.75,2.5,6.18,9.54,4.13,14.4a7.83,7.83,0,0,1-2.55,3.26,24.66,24.66,0,0,1-.76,10.46c-2.12,5.46-1.25,15.48-.54,20.89,5.8-.33,11.22-.52,15.23-.42A20.24,20.24,0,0,1,370,398.55Z"/></g><path id="Path_38438" data-name="Path 38438" class="cls-9" d="M369.58,400.39a12.84,12.84,0,0,1,.4-1.84c1.43-4.74,3-8.85,4-12.54l-42.5,1.81S349.94,402.68,369.58,400.39Z"/><g id="Group_7630" data-name="Group 7630"><path id="Path_38439" data-name="Path 38439" class="cls-8" d="M325.14,374.85c5.42-12.9,58.75-6.88,67.52-17.47,13-15.7,12.22-68.24,24-67.24,24.39,2.06,15,80.93-21.94,95.91C356.77,401.45,318.65,390.31,325.14,374.85Z"/><g id="Group_7629" data-name="Group 7629"><path id="Path_38440" data-name="Path 38440" class="cls-8" d="M325.14,374.85c5.42-12.9,58.75-6.88,67.52-17.47,13-15.7,12.22-68.24,24-67.24,24.39,2.06,15,80.93-21.94,95.91C356.77,401.45,318.65,390.31,325.14,374.85Z"/></g><path id="Path_38441" data-name="Path 38441" class="cls-1" d="M414.72,327.77c-4.13,12.87-1.77,18.87-4.19,32.21s-21.61,21.17-33.87,25.39c-9.61,3.3-36.32,1.79-47.43,1,10.81,8.12,38.2,10.78,65.53-.31,35.73-14.49,45.69-88.79,24.19-95.46C414.92,300.33,417.88,317.9,414.72,327.77Z"/><path id="Path_38442" data-name="Path 38442" class="cls-8" d="M414.87,293a3.6,3.6,0,0,0,3.66,3.54,3.41,3.41,0,0,0,1.13-.2c5.11-1.74,14-5.28,15.74-9.25,2.44-5.63,3.55-7.73,1.49-7.1s-4.37,4.59-6.79,5.89-2.88-.39-2.37-1.2,3.48-3.12,2.75-4.61-.83-.42-4.17.94-10.27,5-11.18,9.47A12.53,12.53,0,0,0,414.87,293Z"/></g><g id="Group_7631" data-name="Group 7631"><path id="Path_38443" data-name="Path 38443" class="cls-19" d="M364.94,642.44c2.09-.24,6.14.7,7.67.15s3.94-3,6.53-2.43,7.86,6,9.83,7.25,6.92,2.26,7.82,4.86h0a2.83,2.83,0,0,1-3,2.54l-26.35.25a4.47,4.47,0,0,1-4.66-3.31C362.39,649.68,362.85,642.69,364.94,642.44Z"/></g><path id="Path_38444" data-name="Path 38444" class="cls-3" d="M531.43,442.36c11.64-.91,28.43-3.87,25.62-21.25-7.17-44.3,15.81-84.73,4.25-94.61-4.55-3.9-13.29-7-23.36-8.48a63.9,63.9,0,0,1,3.44,18.37c1.89,26.6-1.59,45.24-6.47,73.95A277.34,277.34,0,0,0,531.43,442.36Z"/><g id="Group_7632" data-name="Group 7632"><path id="Path_38445" data-name="Path 38445" class="cls-19" d="M219.53,584c.56,2,.24,6.17,1,7.6s3.52,3.45,3.39,6.09-4.74,8.68-5.67,10.81-1.18,7.18-3.61,8.46h0a2.81,2.81,0,0,1-3-2.59l-4.25-26a4.49,4.49,0,0,1,2.56-5.11C212,582.62,219,582,219.53,584Z"/></g><path id="Path_38446" data-name="Path 38446" class="cls-9" d="M499.63,358.05a113.63,113.63,0,0,0,60.59,5.83c1.38-7,2.74-13.25,3.58-18.68Z"/><g id="Group_7633" data-name="Group 7633"><path id="Path_38447" data-name="Path 38447" class="cls-20" d="M387,439.25a142.71,142.71,0,0,1-10.24-15.31c-29.27,11.32-52.24,4.64-59.48,1.9-3.63,8.26-8.33,17.29-13,30.25-6,16.72-8.13,66.7-13.44,72.58-9.07,10.05-7.5-1.09-72.67,56.51-3.69,3.26-.33,10.22,4.59,9.51,51.74-7.46,76.17-22.17,93.73-40.86,5.83-6.2,34.54-52.9,44.05-70.22a.19.19,0,0,0,.09-.16s21.17,45.84,21.17,58c0,11.85-17.14,94.95-16.29,102.54.51,4.63,4,4.1,12.54-1.24,5.05-3.17,32.93-48.16,38.55-96.52C420.4,513.43,402,458.47,387,439.25Z"/></g><path id="Path_38448" data-name="Path 38448" class="cls-8" d="M493.41,329.54c14.07-9.17,54.42,1.31,70.54-5.2,18.29-7.38,31.71-64.23,58.92-76.73s.81,33.47-5.22,45.86S603,342,571.84,351.31s-77.67,10.26-83.67-.81A16.39,16.39,0,0,1,493.41,329.54Z"/><path id="Path_38449" data-name="Path 38449" class="cls-1" d="M632.75,246c-1.09,3.24-2,7.35-4.08,9.85-4.39,5.2-7.6,12.62-12.81,21.25s-2.68,8.89-7.58,22.61-14.51,19.41-19.4,27.93-15.62,15.62-37.08,17.83-39.61-3.15-56.81-1.56a28.68,28.68,0,0,0-8.43,1.81,15.31,15.31,0,0,0,1.61,4.79c6,11.06,52.54,10.11,83.67.81s39.78-45.45,45.81-57.84C622.6,283.3,641.26,250.52,632.75,246Z"/><path id="Path_38450" data-name="Path 38450" class="cls-9" d="M538.81,357.58a45.09,45.09,0,0,0-6.87-26.9l-5.73,27.76C530.31,358.3,534.54,358,538.81,357.58Z"/><g id="Group_7634" data-name="Group 7634"><path id="Path_38451" data-name="Path 38451" class="cls-3" d="M530.18,326.05c-14.63-.73-29.35-1.35-36.77,3.49a16.39,16.39,0,0,0-5.24,21c3.71,6.85,23.27,13,44.75,11.54C537.84,347.65,532.36,330.61,530.18,326.05Z"/></g><path id="Path_38452" data-name="Path 38452" class="cls-8" d="M627.15,248.29a3.59,3.59,0,0,0,3.66,3.54,3.32,3.32,0,0,0,1.13-.2c5.11-1.74,14-5.28,15.73-9.25,2.45-5.62,3.55-7.73,1.5-7.1s-4.38,4.6-6.79,5.9-2.88-.39-2.37-1.21,3.48-3.11,2.75-4.6-.83-.42-4.17.93-10.27,5-11.18,9.48A12.43,12.43,0,0,0,627.15,248.29Z"/><path id="Path_38453" data-name="Path 38453" class="cls-19" d="M532.92,362a42.36,42.36,0,0,0,1.89-16.16s-9.09,2.11-26.41.54A42.65,42.65,0,0,1,487,338.34a16.14,16.14,0,0,0,1.14,12.15C491.88,357.35,511.44,363.52,532.92,362Z"/></g></svg>