<svg id="Layer_1" data-name="Layer 1" xmlns="http://www.w3.org/2000/svg" viewBox="0 0 1100 700"><defs><style>.cls-1{fill:#54678c;}.cls-2{fill:#000104;}.cls-3{fill:#0e2050;}.cls-4{fill:#f6bc55;}.cls-5{fill:#36a9e1;}.cls-6{fill:#ff867a;}.cls-12,.cls-7{fill:#fff;}.cls-8{fill:#bf0d52;}.cls-9{fill:#b2094a;}.cls-10{fill:#cecece;}.cls-11,.cls-12{isolation:isolate;}.cls-12{font-size:245.42px;font-family:Assistant-Bold, Assistant;font-weight:700;letter-spacing:-0.06em;}.cls-13{fill:#e6007e;}.cls-14{fill:#c66c67;}.cls-15{fill:#402823;}.cls-16{fill:#543732;}.cls-17{fill:#493734;}</style></defs><title>2789 Website–Key Features–V1B</title><g id="Group_9650" data-name="Group 9650"><g id="Group_7850" data-name="Group 7850"><g id="Group_7713" data-name="Group 7713"><g id="Group_7712" data-name="Group 7712"><g id="Group_7711" data-name="Group 7711"><path id="Path_38668" data-name="Path 38668" class="cls-1" d="M491.26,225.64c6.08,7.82,10.19,18.51,14.4,28.27,7.07,16.41,14.75,31.55,14.75,31.55s64.09,19.36,64.92,20.89c1.59,2.95,3.52,10.2.24,14.45-1.18,1.52-42.47,9.05-72.5-3.87-30.5-13.13-42.18-66.61-41.4-76.05C472.92,225.8,486.59,219.64,491.26,225.64Z"/></g></g></g><g id="Group_7717" data-name="Group 7717"><g id="Group_7716" data-name="Group 7716"><g id="Group_7715" data-name="Group 7715"><g id="Group_7714" data-name="Group 7714"><path id="Path_38669" data-name="Path 38669" class="cls-2" d="M487.76,165.17s2.21-4.52,7.11-1.89,4.89,9.42,5.27,13.44,1.44,12-2.72,14.81S490,196,489.55,199s-.4,10.55-8.89,7.33-9-9.87-6.39-19.34S477,164.53,487.76,165.17Z"/></g></g></g></g><g id="Group_7721" data-name="Group 7721"><g id="Group_7720" data-name="Group 7720"><g id="Group_7719" data-name="Group 7719"><g id="Group_7718" data-name="Group 7718"><path id="Path_38670" data-name="Path 38670" class="cls-3" d="M506.34,664.81c-5.35-2.36-7-3.48-9.54-6.78-.17-.22-2.48-10-2.58-10.43-.46-1.73-16.79-10.93-18.75,3.07,2.49,9.4,2.24,22.78,5.28,24.68,5.82,3.64,43.83,1,43.55-2.49C524.14,670.76,513.58,668,506.34,664.81Z"/></g></g></g></g><g id="Group_7725" data-name="Group 7725"><g id="Group_7724" data-name="Group 7724"><g id="Group_7723" data-name="Group 7723"><g id="Group_7722" data-name="Group 7722"><path id="Path_38671" data-name="Path 38671" class="cls-3" d="M320.75,659.6c.65-.79,4.92-10.53,5.07-10.89,1.86-4.3,21-10.63,13.19,8.5-1.89,4.64-4.83,16.14-8.38,17.64-6.78,2.86-16.14,5.67-32.07,4.16C292.46,678.44,315,666.61,320.75,659.6Z"/></g></g></g></g><g id="Group_7731" data-name="Group 7731"><g id="Group_7730" data-name="Group 7730"><g id="Group_7729" data-name="Group 7729"><g id="Group_7728" data-name="Group 7728"><g id="Group_7727" data-name="Group 7727"><g id="Group_7726" data-name="Group 7726"><path id="Path_38672" data-name="Path 38672" class="cls-4" d="M402.8,303.29c1-1.41,62.75-4.66,67.1-1.1A1234.13,1234.13,0,0,1,489.58,465c4.25,85.09,10.89,154.13,12.22,183.65.49,10.94-48.42,3-49.17-4.47-4.77-47.31-19.85-232.76-23.71-266.7-1.79,9.64-36.62,207.42-71.73,272.48-3.58,6.62-38.59,2.54-38-4.17,3.86-43.13,51.21-278.46,58.21-300.08C385.3,321.31,398.08,309.82,402.8,303.29Z"/></g></g></g></g></g></g><g id="Group_7737" data-name="Group 7737"><g id="Group_7736" data-name="Group 7736"><g id="Group_7735" data-name="Group 7735"><g id="Group_7734" data-name="Group 7734"><g id="Group_7733" data-name="Group 7733"><g id="Group_7732" data-name="Group 7732"><path id="Path_38673" data-name="Path 38673" class="cls-5" d="M401.11,301c8.47-12.59,18.69-27.91,21.79-38.71,7.46-26,8.59-43.68,16.44-51.36s21.23-14.42,40.1-7.59c20.46,7.4,22.2,26.18,24.59,40.52,2.42,14.57-20,37.87-26.95,81.06C474.3,342.23,398.5,304.88,401.11,301Z"/></g></g></g></g></g></g><g id="Group_7743" data-name="Group 7743"><g id="Group_7742" data-name="Group 7742"><g id="Group_7741" data-name="Group 7741"><g id="Group_7740" data-name="Group 7740"><g id="Group_7739" data-name="Group 7739"><g id="Group_7738" data-name="Group 7738"><path id="Path_38674" data-name="Path 38674" class="cls-6" d="M480.85,185.81l-8.12,15.91c-1.33,2.62,1.85,12.55,7.69,11.24,1.71-.39,1.89-4.79,2.09-8.08l3.65-15.27Z"/></g></g></g></g></g></g><g id="Group_7749" data-name="Group 7749"><g id="Group_7748" data-name="Group 7748"><g id="Group_7747" data-name="Group 7747"><g id="Group_7746" data-name="Group 7746"><g id="Group_7745" data-name="Group 7745"><g id="Group_7744" data-name="Group 7744"><path id="Path_38675" data-name="Path 38675" class="cls-6" d="M485,175l-3.62,5.91c-2.88,4.69-.16,12.1,4.66,14.77,7.36,4.07,10.8.52,12.84-5.5,1.08-3.2-.61-9.94-1-12.82C497,170.74,489.63,168.46,485,175Z"/></g></g></g></g></g></g><g id="Group_7755" data-name="Group 7755"><g id="Group_7754" data-name="Group 7754"><g id="Group_7753" data-name="Group 7753"><g id="Group_7752" data-name="Group 7752"><g id="Group_7751" data-name="Group 7751"><g id="Group_7750" data-name="Group 7750"><path id="Path_38676" data-name="Path 38676" class="cls-7" d="M490.87,186.18a22.93,22.93,0,0,0,7.23,1.89s-1.77,2.78-3.68,3.35S491.1,189.7,490.87,186.18Z"/></g></g></g></g></g></g><g id="Group_7761" data-name="Group 7761"><g id="Group_7760" data-name="Group 7760"><g id="Group_7759" data-name="Group 7759"><g id="Group_7758" data-name="Group 7758"><g id="Group_7757" data-name="Group 7757"><g id="Group_7756" data-name="Group 7756"><path id="Path_38677" data-name="Path 38677" class="cls-6" d="M481.56,181.71A8.68,8.68,0,0,1,481,180c-.26-1.13-.91-2.74-2.41-1.53-2.17,1.75-.45,7.67,2.46,7.48C483.21,185.81,482.21,183.1,481.56,181.71Z"/></g></g></g></g></g></g><g id="Group_7783" data-name="Group 7783"><g id="Group_7778" data-name="Group 7778"><g id="Group_7777" data-name="Group 7777"><g id="Group_7763" data-name="Group 7763"><g id="Group_7762" data-name="Group 7762"><rect id="Rectangle_2454" data-name="Rectangle 2454" class="cls-8" x="623.99" y="240.56" width="76.7" height="16.99" transform="translate(-11.1 466.3) rotate(-38.49)"/></g></g><g id="Group_7773" data-name="Group 7773"><g id="Group_7766" data-name="Group 7766"><g id="Group_7765" data-name="Group 7765"><g id="Group_7764" data-name="Group 7764"><path id="Path_38678" data-name="Path 38678" class="cls-9" d="M685.52,239C639.29,180.87,649,96,707.13,49.73s143-36.53,189.28,21.61S933,214.4,874.81,260.63,731.75,297.16,685.52,239ZM883.37,81.71a118.05,118.05,0,1,0-18.94,165.87A118.18,118.18,0,0,0,883.37,81.71Z"/></g></g></g><g id="Group_7769" data-name="Group 7769"><g id="Group_7768" data-name="Group 7768"><g id="Group_7767" data-name="Group 7767"><path id="Path_38679" data-name="Path 38679" class="cls-10" d="M887.15,81C846.64,30,771,17.69,720.05,58.2s-69.41,111.68-24.26,165c42.09,49.66,121.47,64.17,172.43,23.66A118.17,118.17,0,0,0,887.15,81Z"/></g></g></g><g id="_" data-name=" " class="cls-11"><text class="cls-12" transform="translate(539.45 284.36)">***</text></g><g id="Group_7772" data-name="Group 7772"><g id="Group_7771" data-name="Group 7771"><g id="Group_7770" data-name="Group 7770"><path id="Path_38680" data-name="Path 38680" class="cls-13" d="M678.93,225.22C632.7,167.07,642.39,82.16,700.54,35.93S843.59-.61,889.82,57.54s36.54,143.06-21.61,189.29S725.16,283.36,678.93,225.22ZM876.78,67.91a118,118,0,1,0-18.94,165.87A118.18,118.18,0,0,0,876.78,67.91Z"/></g></g></g></g><g id="Group_7776" data-name="Group 7776"><g id="Group_7775" data-name="Group 7775"><g id="Group_7774" data-name="Group 7774"><path id="Path_38681" data-name="Path 38681" class="cls-13" d="M651.94,255.9h0a30.5,30.5,0,0,0-42.79-4.19l-92.28,75.8a30.48,30.48,0,0,0-4.2,42.78h0a30.5,30.5,0,0,0,42.79,4.2l92.28-75.8A30.5,30.5,0,0,0,651.94,255.9Z"/></g></g></g></g></g></g><g id="Group_7787" data-name="Group 7787"><g id="Group_7786" data-name="Group 7786"><g id="Group_7785" data-name="Group 7785"><g id="Group_7784" data-name="Group 7784"><path id="Path_38684" data-name="Path 38684" class="cls-14" d="M479.28,188.9l.93-1.84c1.11,1.07,3,4.88,7.2,7a18.1,18.1,0,0,0,7.7,2.14c-2.1,1.6-5,1.71-9.12-.57a7.9,7.9,0,0,1-1.09-.72l-1.46,6.1C481,198.59,479.5,192.22,479.28,188.9Z"/></g></g></g></g><g id="Group_7800" data-name="Group 7800"><g id="Group_7793" data-name="Group 7793"><g id="Group_7792" data-name="Group 7792"><g id="Group_7791" data-name="Group 7791"><g id="Group_7790" data-name="Group 7790"><g id="Group_7789" data-name="Group 7789"><g id="Group_7788" data-name="Group 7788"><path id="Path_38685" data-name="Path 38685" class="cls-6" d="M565.07,304s9.57-6.45,11.39-7.21,12.92-1.6,13-.88c.11,1.92-8.35,2.26-8.35,2.26s8.13.71,8.38,1.8-.29,1.47-.29,1.47a1.61,1.61,0,0,1,0,1.87c-.41.68-7.13,1.79-7.13,1.79a18.46,18.46,0,0,1,4.69.42c1.76.53-3.62,1.32-5.92,2s-5.77,4.33-10.09,5.76-7.15.72-7.63-.57S562.45,306.22,565.07,304Z"/></g></g></g></g></g></g><g id="Group_7799" data-name="Group 7799"><g id="Group_7798" data-name="Group 7798"><g id="Group_7797" data-name="Group 7797"><g id="Group_7796" data-name="Group 7796"><g id="Group_7795" data-name="Group 7795"><g id="Group_7794" data-name="Group 7794"><path id="Path_38686" data-name="Path 38686" class="cls-6" d="M574.69,298.63s3.29-3,3.61-5.14-1.57-1.13-2.76.75-7.34,6.26-8.23,7.42-.08,2.21,2.53.89A19.12,19.12,0,0,0,574.69,298.63Z"/></g></g></g></g></g></g></g><g id="Group_7832" data-name="Group 7832"><g id="Group_7819" data-name="Group 7819"><g id="Group_7806" data-name="Group 7806"><g id="Group_7805" data-name="Group 7805"><g id="Group_7804" data-name="Group 7804"><g id="Group_7803" data-name="Group 7803"><g id="Group_7802" data-name="Group 7802"><g id="Group_7801" data-name="Group 7801"><path id="Path_38687" data-name="Path 38687" class="cls-14" d="M495.23,186a4.23,4.23,0,0,0,1.52-1.39c.3-.45.94.1.64.55a4.83,4.83,0,0,1-1.68,1.53C495.24,187,494.76,186.3,495.23,186Z"/></g></g></g></g></g></g><g id="Group_7812" data-name="Group 7812"><g id="Group_7811" data-name="Group 7811"><g id="Group_7810" data-name="Group 7810"><g id="Group_7809" data-name="Group 7809"><g id="Group_7808" data-name="Group 7808"><g id="Group_7807" data-name="Group 7807"><path id="Path_38688" data-name="Path 38688" class="cls-15" d="M491.52,178.55a.55.55,0,0,1,.58.45,2,2,0,0,1-.08,1.06.64.64,0,0,1-.84.35l-.12-.07C490.61,180,490.74,178.5,491.52,178.55Z"/></g></g></g></g></g></g><g id="Group_7818" data-name="Group 7818"><g id="Group_7817" data-name="Group 7817"><g id="Group_7816" data-name="Group 7816"><g id="Group_7815" data-name="Group 7815"><g id="Group_7814" data-name="Group 7814"><g id="Group_7813" data-name="Group 7813"><path id="Path_38689" data-name="Path 38689" class="cls-15" d="M497.85,180.69a.54.54,0,0,1,.58.44,2,2,0,0,1-.09,1.07.63.63,0,0,1-.83.34l-.12-.07C496.93,182.15,497.07,180.63,497.85,180.69Z"/></g></g></g></g></g></g></g><g id="Group_7825" data-name="Group 7825"><g id="Group_7824" data-name="Group 7824"><g id="Group_7823" data-name="Group 7823"><g id="Group_7822" data-name="Group 7822"><g id="Group_7821" data-name="Group 7821"><g id="Group_7820" data-name="Group 7820"><path id="Path_38690" data-name="Path 38690" class="cls-16" d="M491.64,176a8.74,8.74,0,0,0-3,.69.36.36,0,1,0,.3.66h0a7.83,7.83,0,0,1,2.65-.62C492.06,176.65,492.12,175.93,491.64,176Z"/></g></g></g></g></g></g><g id="Group_7831" data-name="Group 7831"><g id="Group_7830" data-name="Group 7830"><g id="Group_7829" data-name="Group 7829"><g id="Group_7828" data-name="Group 7828"><g id="Group_7827" data-name="Group 7827"><g id="Group_7826" data-name="Group 7826"><path id="Path_38691" data-name="Path 38691" class="cls-16" d="M498.53,177.85a16.17,16.17,0,0,0-1.63-.91c-.43-.22-.8.41-.37.62s1.11.57,1.64.91S498.93,178.11,498.53,177.85Z"/></g></g></g></g></g></g></g><g id="Group_7836" data-name="Group 7836"><g id="Group_7835" data-name="Group 7835"><g id="Group_7834" data-name="Group 7834"><g id="Group_7833" data-name="Group 7833"><path id="Path_38692" data-name="Path 38692" class="cls-2" d="M495.88,170.24s-5.06,7.66-10.32,11.31c-6.85,4.75-3.9,12.89-5.81,18s-5.84,9.08-9.83,8.11-6-4.34-9.8-7.06c-13.24-9.43,3-13.06,2.89-19.59s5.7-14.29,9.52-14.66,4.2-4.56,6.88-5.51C488.2,157.69,494.52,165.45,495.88,170.24Z"/></g></g></g></g><g id="Group_7839" data-name="Group 7839"><g id="Group_7838" data-name="Group 7838"><g id="Group_7837" data-name="Group 7837"><path id="Path_38693" data-name="Path 38693" class="cls-5" d="M455.48,213.45c6.09,7.82,10.19,18.51,14.4,28.26,7.07,16.41,14.75,31.55,14.75,31.55s79.18,27.24,80.18,28.67c1.91,2.75,4.64,9.74,1.86,14.33-1,1.65-56.49,6.95-86.52-6-30.5-13.12-45-72.16-44.26-81.59C437.14,213.6,450.81,207.44,455.48,213.45Z"/></g></g></g><g id="Group_7840" data-name="Group 7840"><path id="Path_38694" data-name="Path 38694" class="cls-1" d="M467.82,300a1,1,0,0,1-.53-.15c-.36-.22-8.9-5.72-20.27-27.19s-12.12-43.7-12.13-43.92a1,1,0,0,1,1-1h0a1,1,0,0,1,1,1c0,.21.78,22,11.9,43s19.48,26.38,19.56,26.43a1,1,0,0,1-.53,1.85Z"/></g><g id="Group_7841" data-name="Group 7841"><path id="Path_38695" data-name="Path 38695" class="cls-1" d="M483.55,272.12a1,1,0,0,1-.9-.56c-.18-.37-19.5-39.79-22.43-46.82-2.6-6.27-4.3-10.15-5.91-11.14a1,1,0,0,1-.33-1.38h0a1,1,0,0,1,1.38-.33h0c2.06,1.28,3.63,4.66,6.71,12.07,2.91,7,22.2,46.34,22.38,46.71a1,1,0,0,1-.9,1.45Z"/></g><g id="Group_7849" data-name="Group 7849"><path id="Path_38698" data-name="Path 38698" class="cls-17" d="M428.71,379.87a1.35,1.35,0,0,1-.35-.06,1.26,1.26,0,0,1-.85-1.56c5.17-17.27,27.08-26.62,28-27a1.25,1.25,0,0,1,1,2.31c-.22.09-21.74,9.29-26.57,25.42A1.27,1.27,0,0,1,428.71,379.87Z"/></g></g></g></svg>