<svg id="Layer_1" data-name="Layer 1" xmlns="http://www.w3.org/2000/svg" xmlns:xlink="http://www.w3.org/1999/xlink" viewBox="0 0 1100 700"><defs><style>.cls-1{fill:#d60b51;}.cls-2{fill:#2d2d2d;}.cls-3{fill:#36a9e1;}.cls-4{fill:#298696;}.cls-5{fill:url(#linear-gradient);}.cls-6{fill:url(#linear-gradient-2);}.cls-7{fill:#ad263d;}.cls-8{fill:#0e2050;}.cls-9{fill:#ff6161;}.cls-10{fill:#aa3766;}.cls-11{fill:#311e69;}.cls-12{fill:#d95f76;}.cls-13{fill:#7e7e7d;}.cls-14{fill:#949493;}.cls-15{fill:#fff;}.cls-16{fill:#1e1240;}.cls-17{fill:#db9a31;}.cls-18{fill:#f9b233;}.cls-19{fill:#d8e7eb;}.cls-20{fill:#eaaa44;}.cls-21{fill:none;stroke:#fff;stroke-miterlimit:10;stroke-width:3.31px;}</style><linearGradient id="linear-gradient" x1="-6405.33" y1="5379.65" x2="-6405.33" y2="5379.24" gradientTransform="matrix(81.03, 0, 0, -470.64, 519866.39, 2532233.98)" gradientUnits="userSpaceOnUse"><stop offset="0" stop-color="#fff"/><stop offset="0.02" stop-color="#fdfdfe"/><stop offset="0.43" stop-color="#dadef1"/><stop offset="0.78" stop-color="#c5cae8"/><stop offset="1" stop-color="#bec4e6"/></linearGradient><linearGradient id="linear-gradient-2" x1="-6408.15" y1="5397.22" x2="-6407.86" y2="5397.58" gradientTransform="matrix(91.19, 0, 0, -233.3, 585021.82, 1259771.11)" xlink:href="#linear-gradient"/></defs><title>2789 Website–Key Features–V1B</title><g id="Group_9648" data-name="Group 9648"><path id="Path_37989" data-name="Path 37989" class="cls-1" d="M806,595.57v-7l19,1.28-1.82,5.67Z"/><g id="Group_7392" data-name="Group 7392"><path id="Path_37990" data-name="Path 37990" class="cls-1" d="M694.27,595.57s-5.34,3.14-6.62,6.2,4,5,11.86,2.43a24.22,24.22,0,0,0,11.93-8.63Z"/><g id="Group_7391" data-name="Group 7391"><path id="Path_37991" data-name="Path 37991" class="cls-2" d="M711.44,595.57s16.28,18.39,8.79,21.79-51.65,5-58.45,1.93,32.49-23.72,32.49-23.72-4.65,5.38-3.41,6.82C694.41,606.49,711.44,595.57,711.44,595.57Z"/><g id="Group_7390" data-name="Group 7390"><path id="Path_37992" data-name="Path 37992" class="cls-3" d="M665.87,612.76c9.58-.7,21.08,6.35,36.56,4.47,11.28-1.37,16.94-3.3,19.61-4.57.43,2.14,0,3.87-1.81,4.7-7.48,3.41-51.65,5-58.45,1.94C659.73,618.37,661.87,615.84,665.87,612.76Z"/></g></g></g><g id="Group_7395" data-name="Group 7395"><path id="Path_37993" data-name="Path 37993" class="cls-1" d="M823.15,595.57s7.49,5.29,9.19,10.56-12.59,3.75-18.2-.85a33.15,33.15,0,0,1-8.16-9.71Z"/><g id="Group_7394" data-name="Group 7394"><path id="Path_37994" data-name="Path 37994" class="cls-2" d="M806,595.57s-16.28,18.39-8.79,21.79,51.65,5,58.46,1.93-32.49-23.72-32.49-23.72,4.65,5.38,3.4,6.82C823,606.49,806,595.57,806,595.57Z"/><g id="Group_7393" data-name="Group 7393"><path id="Path_37995" data-name="Path 37995" class="cls-3" d="M851.54,612.76c-9.57-.7-21.07,6.35-36.55,4.47-11.29-1.37-16.94-3.3-19.62-4.57-.42,2.14,0,3.87,1.81,4.7,7.49,3.41,51.65,5,58.45,1.93C857.69,618.37,855.54,615.84,851.54,612.76Z"/></g></g></g><path id="Path_37996" data-name="Path 37996" class="cls-4" d="M830.19,296.73c-39.49,7.35-79.84,4.82-95.46,3.38-1,3.72-2.09,7.61-3.36,11.73C700.45,412,694.4,594,694.4,594s9.83.4,17.18,0c0,0,47.15-148.91,59.21-187.17,5.76-18.26,11-24.72,16.45-45.16L803.38,593.1s10.28.33,22.24,0c0,0,31.37-217.5,18.1-260.1C840,321,835,308.48,830.19,296.73Z"/><path id="Path_37997" data-name="Path 37997" class="cls-5" d="M843.72,333c-3.74-12-8.7-24.52-13.54-36.27-8.64,1.6-17.32,2.74-25.77,3.52,2.47,61.62,12.51,147.71,8.81,165.21-3.58,16.94-11.83,20.55-17.28,21l7.44,106.68s10.27.33,22.24,0C825.62,593.1,857,375.6,843.72,333Z"/><path id="Path_37998" data-name="Path 37998" class="cls-6" d="M705.84,447.21C696.72,524.18,694.4,594,694.4,594s9.83.4,17.18,0l40.27-127.23Z"/><path id="Path_37999" data-name="Path 37999" class="cls-1" d="M694.27,595.57l.13-1.55h17.17l-.13,1.55Z"/><g id="Group_7401" data-name="Group 7401"><path id="Path_38000" data-name="Path 38000" class="cls-7" d="M806.85,156.77c13.95-3.69,23.4,22.61,28.7,47.18s69.78,26.54,71.16,39.12,1.91,22.84-34.2,20.29-54-8.1-62.36-26.38S786.36,162.2,806.85,156.77Z"/><g id="Group_7396" data-name="Group 7396"><path id="Path_38001" data-name="Path 38001" class="cls-8" d="M806.85,156.77c13.95-3.69,23.4,22.61,28.7,47.18.88,4.06,3.38,7.5,6.93,10.47a88,88,0,0,1-33.91,18.87C800,212.1,787.59,161.88,806.85,156.77Z"/></g><path id="Path_38002" data-name="Path 38002" class="cls-9" d="M838.89,258.66a16.13,16.13,0,0,1,5.11-4.11c3.27-1.66,7.78-1.84,9.18-3.34s3.64-2.19,3.2,0-.7,5.55-9.52,8.12S838.89,258.66,838.89,258.66Z"/><g id="Group_7398" data-name="Group 7398"><g id="Group_7397" data-name="Group 7397"><path id="Path_38003" data-name="Path 38003" class="cls-10" d="M765.74,115.82a16,16,0,0,1-.45-7.53c1.09-4.79,11.4-13.26,16.26-14,2.78-.39,6.39,3.08,9,6.13C785.35,102.41,771.87,108,765.74,115.82Z"/><path id="Path_38004" data-name="Path 38004" class="cls-11" d="M790.53,100.46a49.55,49.55,0,0,1,3.31,4.33c-4.51,5.9-24.21,16.67-25.7,15.73-.74-.47-1.73-2.34-2.4-4.7C771.87,108,785.35,102.41,790.53,100.46Z"/></g><path id="Path_38005" data-name="Path 38005" class="cls-12" d="M800.82,103.8c-5.48-1.36-13.78.94-20.75,5.4-10.66,6.81-17.93,11.91-18,16.76s13.24,3.34,23.13-.07C794.36,122.75,810.61,106.24,800.82,103.8Z"/></g><path id="Path_38006" data-name="Path 38006" class="cls-3" d="M719.91,169.48c11.57-29.43,70.22-42.42,95.41-13.72,11.12,12.68,10.27,20.54,12.89,71.59.37,7.13,21,52.86,13,66.74-5.8,10-29.78,25.32-61.5,25.32-21.7,0-56.22-6.47-60.1-14.42-4.08-8.38-2.91-39.12-1.44-71.16C719.49,204.28,716.22,178.88,719.91,169.48Z"/><path id="Path_38007" data-name="Path 38007" class="cls-11" d="M798.79,109.81c-5.63-6.47-24.23-.07-28,10.41-2.92,8.14,2.25,11.56,4.4,11.11C784.22,129.47,802.74,114.34,798.79,109.81Z"/><path id="Path_38008" data-name="Path 38008" class="cls-3" d="M841.17,294.09c8-13.88-12.59-59.61-13-66.74-2.62-51-1.77-58.91-12.89-71.59-7.71-8.77-18.54-13.65-30.2-15.35,9.46,19.27,22.85,50.45,24.07,74.76,1.4,28,2.88,75.51,3.56,98.43C827.38,308.24,837.64,300.2,841.17,294.09Z"/><path id="Path_38009" data-name="Path 38009" class="cls-8" d="M813.12,153.46c-26.24-25.66-82-12.59-93.21,16a20.33,20.33,0,0,0-1,3.6c5.71,5,14.69,8.85,25.48-.81,0,0,17.36-22.64,37.46-22.85A122.86,122.86,0,0,1,813.12,153.46Z"/><path id="Path_38010" data-name="Path 38010" class="cls-9" d="M775.73,122.54l-9.83,21.23c-.38,3.2,11.16,11.17,16.66,7.68,1.61-1,3.37-20.68,3.37-20.68Z"/><g id="Group_7399" data-name="Group 7399"><path id="Path_38011" data-name="Path 38011" class="cls-13" d="M983.83,167.35s-14.66-3.87-25.77-1.85c-15,2.74-21.28,11-21.28,11L890.69,310.34l42-14.26S979,181.39,983.83,167.35Z"/><path id="Path_38012" data-name="Path 38012" class="cls-14" d="M855.8,161s-.65,87.72-9.83,109.09-16.79,40.27-16.79,40.27h61.51l46.09-133.85S917.58,164,902.51,161C879.66,156.42,855.8,161,855.8,161Z"/></g><path id="Path_38013" data-name="Path 38013" class="cls-9" d="M781.53,114.9l-6.32,11.82a8.18,8.18,0,0,0,4,10.69c3.21,1.5,5.39,1.89,9.78,2.13,3.67.2,6.11-2.92,6.94-7.62a44.41,44.41,0,0,0-.24-15.17C794.38,109.57,786.22,107.5,781.53,114.9Z"/><path id="Path_38014" data-name="Path 38014" class="cls-11" d="M784.33,144.49c.38-2.48.71-5.25,1-7.64L776.23,135S779,142.5,784.33,144.49Z"/><path id="Path_38015" data-name="Path 38015" class="cls-15" d="M788.09,125.47a22.35,22.35,0,0,0,7.13,1.48s-.37,2.75-2.2,3.41S788.51,128.91,788.09,125.47Z"/><path id="Path_38016" data-name="Path 38016" class="cls-9" d="M779.61,120.55a11.35,11.35,0,0,1-.31-2.46c-.06-1.58-.51-3.91-2.81-2.67-3.35,1.79-2.58,10.19,1.34,10.68C780.75,126.47,780.13,122.58,779.61,120.55Z"/><path id="Path_38017" data-name="Path 38017" class="cls-7" d="M781.09,135.56a13.28,13.28,0,0,0,9.84.27,4.81,4.81,0,0,1,3.61.22c-1.24,2.28-3.12,3.62-5.55,3.49-4.39-.24-6.57-.63-9.78-2.13a8.15,8.15,0,0,1-4.64-7A14.22,14.22,0,0,0,781.09,135.56Z"/><path id="Path_38018" data-name="Path 38018" class="cls-9" d="M734.48,159.44c30.19-1.5-1.1,84.38,14.81,100.29,3.88,3.88,87.67-11.08,89.56,9.32,2.32,25-89.56,38.56-117.57,15.5C697.71,265.15,703.23,161,734.48,159.44Z"/><path id="Path_38019" data-name="Path 38019" class="cls-7" d="M838.84,270.85c-2.1,23.88-90.23,36.2-117.56,13.7-22-18.15-18.64-110.48,7.48-123.57.6,19.84,2,69.07,1.77,76.49-.34,9.33-10.86,19.5,0,31.59s18.05.56,32.17,10.77,31.94,8.13,48.45,2.62C825.59,277.65,830,269.25,838.84,270.85Z"/><path id="Path_38020" data-name="Path 38020" class="cls-9" d="M840.2,257.4l1.28-.22,7.4-1.33s.62,4.35,3.1,5.68,10.24-3.62,12.08-1.25c1.06,1.36-2.39,3.82-3.22,6.09s-5.73,3.76-6.39,5.08a15,15,0,0,1-4.91,4.46c-1.32.6-15.82,3.43-17.33-7.87C831.68,264,840.2,257.4,840.2,257.4Z"/><g id="Group_7400" data-name="Group 7400"><path id="Path_38021" data-name="Path 38021" class="cls-8" d="M734.47,159.44c21.81-1.09,15.17,43.05,13.78,73.85-6.86,2.73-26.66,8-41.46,1.27C705.88,199.72,715.36,160.4,734.47,159.44Z"/></g><path id="Path_38022" data-name="Path 38022" class="cls-11" d="M779.45,117.85l-.11,2.84a3.26,3.26,0,0,0,3,3.13l4.26.48a3,3,0,0,0,2.74-1l2-2.59,0,0a1.9,1.9,0,0,1,2.45.28l0,0,1.82,3a3.58,3.58,0,0,0,2.64,1.64l1.22.18a2.73,2.73,0,0,0,3.25-2.43l.11-2.83a2.74,2.74,0,0,0-2.54-2.63l-4.4-.53a1.64,1.64,0,0,0-1.41.5,1,1,0,0,1-.38.19,1.45,1.45,0,0,1-.92,0,2.43,2.43,0,0,0-.48-.14,2.58,2.58,0,0,0-.68,0,1.48,1.48,0,0,1-1-.24,1.19,1.19,0,0,1-.2-.19,2,2,0,0,0-1.36-.81l-7.44-.84A2.3,2.3,0,0,0,779.45,117.85Z"/><path id="Path_38023" data-name="Path 38023" class="cls-15" d="M864.26,172.49l-1.43,18.09s27.3-.32,33.64,2.54l3.18-16.19S879.67,168,864.26,172.49Z"/><path id="Path_38024" data-name="Path 38024" class="cls-15" d="M862,233,859,251s26.18,3.43,42.51,5.29l5.07-15.89S885.21,233.29,862,233Z"/><path id="Path_38025" data-name="Path 38025" class="cls-15" d="M864.43,202.42l-3.1,21.87,26.79,3.62,1.06-8.87-17.78-3.29,2.33-12.16Z"/><path id="Path_38026" data-name="Path 38026" class="cls-15" d="M875.43,203.39l16,3.27-.71,5.09-16.06-3.15Z"/><path id="Path_38027" data-name="Path 38027" class="cls-15" d="M874.38,209.87l16,3.26-1.16,5-15.61-3.06Z"/></g><g id="Group_7418" data-name="Group 7418"><g id="Group_7417" data-name="Group 7417"><path id="Path_38028" data-name="Path 38028" class="cls-7" d="M535,359.33s5.43-6.34,13-5.62,12.85,1.65,10.68,7.07-8,7.24-13.76,6.88S523.63,367.66,535,359.33Z"/><path id="Path_38029" data-name="Path 38029" class="cls-7" d="M451.39,309s-6.7,42.34,1.63,51.75,83-8.93,98.63,0c5.15,3-24.69,45.53-74.33,47.89s-92.43-35.4-86.52-51.7S451.39,309,451.39,309Z"/><path id="Path_38030" data-name="Path 38030" class="cls-16" d="M431.85,638.86a27.22,27.22,0,0,0,1.8-10.37,10.22,10.22,0,0,1,5.77-9.32c3.11-1.5,6.67-2.65,8.86-1.52,4.06,2.11,3.36,7.39,7.17,11.23,1.66,1.68,28.9,8.61,29.84,11.2,1.55,4.33-44.51,14.49-53.12,11.89C427.66,650.61,429.38,645.15,431.85,638.86Z"/><path id="Path_38031" data-name="Path 38031" class="cls-8" d="M331,413.82s71.52,206.41,94.32,213.65,33.73-6.59,24.33-34.76-37.73-190.47-63.8-196.27S322.83,386.76,331,413.82Z"/><path id="Path_38032" data-name="Path 38032" class="cls-16" d="M431,585a27.44,27.44,0,0,0,4.38-9.56,10.21,10.21,0,0,1,7.95-7.55c3.39-.66,7.13-.86,9,.8,3.38,3.06,1.36,8,4.07,12.68,1.18,2.05,25.76,15.68,26,18.43.4,4.58-46.73,2.67-54.4-2C424,595.33,427,590.48,431,585Z"/><path id="Path_38033" data-name="Path 38033" class="cls-16" d="M411.2,242.18c-7.5-8.58-15.14-17.07-37.93-24.11-26.62-8.21-40.77,11-42.7,18.54a27,27,0,0,1-7.49,12.33s-30.9,9.41-43.21,34.52,23.19,66.39,50,67.6S431.21,265.07,411.2,242.18Z"/><g id="Group_7409" data-name="Group 7409"><g id="Group_7402" data-name="Group 7402"><path id="Path_38034" data-name="Path 38034" class="cls-11" d="M308.91,652.39a85,85,0,1,1,84.95-84.95A85.05,85.05,0,0,1,308.91,652.39Zm0-160.22a75.27,75.27,0,1,0,75.27,75.27h0A75.35,75.35,0,0,0,308.91,492.17Z"/></g><g id="Group_7406" data-name="Group 7406"><g id="Group_7403" data-name="Group 7403"><path id="Path_38035" data-name="Path 38035" class="cls-11" d="M638.17,652.39a85,85,0,1,1,85-84.95A85.05,85.05,0,0,1,638.17,652.39Zm0-160.22a75.27,75.27,0,1,0,75.27,75.27h0A75.35,75.35,0,0,0,638.17,492.17Z"/></g><g id="Group_7404" data-name="Group 7404"><path id="Path_38036" data-name="Path 38036" class="cls-16" d="M629.23,652.39a85,85,0,1,1,84.95-84.95A85.05,85.05,0,0,1,629.23,652.39Zm0-160.22a75.27,75.27,0,1,0,75.26,75.27h0A75.34,75.34,0,0,0,629.23,492.17Z"/></g><g id="Group_7405" data-name="Group 7405"><path id="Path_38037" data-name="Path 38037" class="cls-15" d="M629.23,644.22A76.79,76.79,0,1,1,706,567.44h0A76.86,76.86,0,0,1,629.23,644.22Zm0-146.87a70.09,70.09,0,1,0,70.08,70.09,70.09,70.09,0,0,0-70.08-70.09Z"/></g></g><g id="Group_7407" data-name="Group 7407"><path id="Path_38038" data-name="Path 38038" class="cls-16" d="M300,652.39a85,85,0,1,1,84.95-84.95A85.05,85.05,0,0,1,300,652.39Zm0-160.22a75.27,75.27,0,1,0,75.26,75.27h0A75.34,75.34,0,0,0,300,492.17Z"/></g><g id="Group_7408" data-name="Group 7408"><path id="Path_38039" data-name="Path 38039" class="cls-15" d="M300,644.22a76.79,76.79,0,1,1,76.78-76.78h0A76.87,76.87,0,0,1,300,644.22Zm0-146.87a70.09,70.09,0,1,0,70.08,70.09h0A70.16,70.16,0,0,0,300,497.36Z"/></g><path id="Path_38040" data-name="Path 38040" class="cls-16" d="M632.77,560.74l-14.14-17.31-51.4-124.56c-3.19-7.71-.7-41.68,3.09-49.12a9,9,0,0,0-8-13.07H534.89a4.1,4.1,0,0,0,0,8.2h27.42a.79.79,0,0,1,.79.8.73.73,0,0,1-.09.35c-4.76,9.35-7.43,45.51-3.63,55.26L387.61,464.24,375,435.1a4.1,4.1,0,0,0-7.52,3.27l13.26,30.54-89,106.75a4.09,4.09,0,0,0,1.11,5.69,4,4,0,0,0,2.29.7h.18l129.38-13.41.19,0,.16,0c.13,0,.25,0,.38-.06h.06a4.71,4.71,0,0,0,.86-.32l.09-.05.29-.17.13-.09.22-.17.14-.11.19-.18.18-.19a1.71,1.71,0,0,0,.21-.26l0,0,142-120.45,41.52,100.61a4.09,4.09,0,0,0,.62,1l14.52,17.79a4.1,4.1,0,0,0,6.35-5.18ZM303.05,573.49,384.47,478l34,82.73Zm122.42-17.3L390.8,471.82l171.69-42.93,3.6,8.72Z"/><circle id="Ellipse_13" data-name="Ellipse 13" class="cls-16" cx="424.48" cy="564.54" r="15.77"/></g><g id="Group_7410" data-name="Group 7410"><path id="Path_38041" data-name="Path 38041" class="cls-17" d="M390.54,357.85c.07-.29.16-.59.26-.88,5.91-16.29,60.59-47.93,60.59-47.93s-4.87,30.81-1.13,45.71C441,357.32,415.64,363.14,390.54,357.85Z"/></g><path id="Path_38042" data-name="Path 38042" class="cls-16" d="M415.9,376.35A22.92,22.92,0,0,1,410.69,388c-14.58-10.8-22.69-23.32-19.89-31a18.77,18.77,0,0,1,2.45-4.37l38-14.64S417,366.22,415.9,376.35Z"/><path id="Path_38043" data-name="Path 38043" class="cls-16" d="M373.58,448.23c-12.31,2.17-42.37-.54-46.71-9.87s4-12.59,26.43-10.77,47.39,0,41.62,8S385.89,446.05,373.58,448.23Z"/><path id="Path_38044" data-name="Path 38044" class="cls-18" d="M339.13,376.89a161.2,161.2,0,0,1-32.95-16.11c6.53-43.41,32.59-99,70.25-117.46,41.69-20.44,99.52,25.93,92,54.1-5.08,19-35.71,38.23-46.37,53.23a117.81,117.81,0,0,0-17,35.41S368.47,387.39,339.13,376.89Z"/><path id="Path_38045" data-name="Path 38045" class="cls-3" d="M339.13,376.89c29.34,10.5,65.95,9.17,65.95,9.17s58.53-.81,79.26,32.11c19.25,30.56-18.8,131.86-20.43,148.7s-10.6,15.91-25.55,6.68,1.95-121.9-1.59-128c-10.1-17.59-123,6.35-130.59-38.91a150.29,150.29,0,0,1,0-45.81A161.2,161.2,0,0,0,339.13,376.89Z"/><g id="Group_7415" data-name="Group 7415"><path id="Path_38046" data-name="Path 38046" class="cls-11" d="M454.53,236.9s7.19-5.23,6.73-10.23-4.77-10-10.59-8.47a22,22,0,0,0-5.4,2.23s-3.76-2-8.72,1.53c-3.35,2.41-3.83,14.66-3.83,14.66S450.19,242.5,454.53,236.9Z"/><path id="Path_38047" data-name="Path 38047" class="cls-19" d="M439.36,253.3s4,2.51,2.3,7.93-6.51,5.84-11.57,3.75-12.69-14.39-11.29-18.32S434.74,246.71,439.36,253.3Z"/><path id="Path_38048" data-name="Path 38048" class="cls-9" d="M437.68,231.87l-15.22,14.57c-1.33,2.48,8.48,16.38,14.05,15.28,1.64-.32,2.56-2.88,2.83-6l.9-17.45Z"/><path id="Path_38049" data-name="Path 38049" class="cls-11" d="M440.06,241.75c-2.5-1.92-5.87-4.59-5.87-4.59a13.35,13.35,0,0,0,.07,9.79,12.82,12.82,0,0,0,5.21,6.19Z"/><path id="Path_38050" data-name="Path 38050" class="cls-9" d="M444.29,227.89l-8.88,7.62a7.15,7.15,0,0,0-.12,10c2.14,2.23,3.78,3.24,7.29,4.82,2.92,1.32,5.89-.45,8.05-4a39,39,0,0,0,4.6-12.42C456.43,227.61,450.44,223.34,444.29,227.89Z"/><path id="Path_38051" data-name="Path 38051" class="cls-15" d="M445.79,238.27a19.23,19.23,0,0,0,5.32,3.45s-1.17,2.12-2.86,2.08S445,241.2,445.79,238.27Z"/><path id="Path_38052" data-name="Path 38052" class="cls-7" d="M445.57,247.26c-2.67-2.45-7.77.76-10.54-6.89-.51-1.42.14-3.7.58-5l-.2.17a7.12,7.12,0,0,0-.11,10c2.13,2.24,3.78,3.24,7.28,4.83a5,5,0,0,0,5.21-.74C447.19,249.31,446.39,248,445.57,247.26Z"/><path id="Path_38053" data-name="Path 38053" class="cls-9" d="M442.22,231.89a10.29,10.29,0,0,1,.94-1.95c.72-1.18,1.5-3.09-.77-3.29-3.3-.29-6.81,5.41-4.18,7.66C440.16,236,441.62,233.61,442.22,231.89Z"/><g id="Group_7414" data-name="Group 7414"><g id="Group_7411" data-name="Group 7411"><path id="Path_38054" data-name="Path 38054" class="cls-11" d="M453.33,243.21a2,2,0,0,1-.42-.2l-.54-.35a2.69,2.69,0,0,1-.89-2.89l.37-2.27a4.7,4.7,0,0,1,.66-1.66,4.35,4.35,0,0,1,1.41-1.42,1.65,1.65,0,0,1,1.76-.12l2.89,1.83a1.8,1.8,0,0,1,.69,1.8,4.85,4.85,0,0,1-.77,2.11C457,242.45,454.83,243.72,453.33,243.21Zm1.65-7.79c-.16,0-.82.28-1.35,1.13a3.11,3.11,0,0,0-.48,1.16l-.38,2.28c-.12.75,0,1.37.3,1.57l.54.34c.73.46,2.49-.54,3.77-2.56a3.66,3.66,0,0,0,.58-1.53c0-.36,0-.53-.09-.56Z"/></g><g id="Group_7412" data-name="Group 7412"><path id="Path_38055" data-name="Path 38055" class="cls-11" d="M445.24,238a3,3,0,0,1-.65-.31l-.78-.5c-2-1.24-2.23-4.33-.6-6.89,1-1.58,2.76-2.2,4-1.42l4.15,2.64a2.18,2.18,0,0,1,1,1.74,3.42,3.42,0,0,1-.56,2.06,3.55,3.55,0,0,1-1.4,1.29l-2.23,1.1A3.78,3.78,0,0,1,445.24,238Zm1.09-8.09a2,2,0,0,0-2,1.09c-1.24,2-1.15,4.23.2,5.08l.77.5a2.3,2.3,0,0,0,2.26-.05l2.23-1.1a2.41,2.41,0,0,0,.87-.81,2.21,2.21,0,0,0,.36-1.27.91.91,0,0,0-.35-.72L446.51,230l-.18-.08Z"/></g><g id="Group_7413" data-name="Group 7413"><path id="Path_38056" data-name="Path 38056" class="cls-11" d="M453,236.57a.62.62,0,0,1-.41-.42.94.94,0,0,0-1.07-.77h0a.67.67,0,0,1-.8-.48.66.66,0,0,1,.48-.8,2.24,2.24,0,0,1,2.68,1.64.67.67,0,0,1-.43.83A.64.64,0,0,1,453,236.57Z"/></g></g></g><path id="Path_38057" data-name="Path 38057" class="cls-16" d="M436.07,335.89c-34.67-12.4-51.82-57.14-51.82-57.14L457.73,315C451.34,322.2,443.25,329.26,436.07,335.89Z"/><path id="Path_38058" data-name="Path 38058" class="cls-9" d="M385.43,258.64c18.11-21.77,65.52,34.08,107.4,31.85,19.3-1,17.85-86,41.56-91.92S562.6,302.07,514,328,362,286.8,385.43,258.64Z"/><path id="Path_38059" data-name="Path 38059" class="cls-9" d="M544.91,202.77s1.76-10.6,1.61-13.69-8.85-6.56-11.25-7.44-1.46,5.19-2.26,9.14-4.11,14.62,3.8,15.11S544.91,202.77,544.91,202.77Z"/><path id="Path_38060" data-name="Path 38060" class="cls-17" d="M376.43,243.32c9.81-4.81,20.52-5.92,31.05-4.44-10,7-27,26.23-38.29,51.1-12.16,26.87-24,69.15-27.47,87.8-.87-.29-1.73-.59-2.58-.89a161,161,0,0,1-32.95-16.11C312.71,317.37,338.77,261.78,376.43,243.32Z"/><path id="Path_38061" data-name="Path 38061" class="cls-16" d="M379.69,235.41s29.06,10.41,25.39,33.22-35.06,63.61-69,57.56c-26.44-4.71-31.62-22.25-31.62-22.25L297,318.23s12.79,19.73,42.32,22.45,70.55-23.83,78.81-45.23S422.85,232.61,379.69,235.41Z"/><path id="Path_38062" data-name="Path 38062" class="cls-16" d="M434,600.42l38.35.89a8,8,0,0,1,7.78,8.14h0a8,8,0,0,1-8.14,7.78h0l-38.35-.9a8,8,0,0,1-7.77-8.14h0A8,8,0,0,1,434,600.42Z"/><path id="Path_38063" data-name="Path 38063" class="cls-7" d="M392.71,289.84a47.61,47.61,0,0,1,16.93,3.22c30.68,11,33.79,19.73,57.2,24.08S513,315.33,526,301.57c21-22.18,14.84-30.06,17.74-50.85,1.06-7.6,4.62-15.72,7.68-17.33,1.94,32.77-8,78.93-37.42,94.58C479.52,346.35,417.51,318,392.71,289.84Z"/><path id="Path_38064" data-name="Path 38064" class="cls-16" d="M460.48,291.46s-4,24.06-8.76,35.59a161.59,161.59,0,0,1-18.32-7.7Z"/><path id="Path_38065" data-name="Path 38065" class="cls-16" d="M437.73,646.73l37.42-8.42a8,8,0,0,1,9.52,6h0a8,8,0,0,1-6,9.51l-37.42,8.42a8,8,0,0,1-9.52-6h0a8,8,0,0,1,6-9.51Z"/><g id="Group_7416" data-name="Group 7416"><path id="Path_38066" data-name="Path 38066" class="cls-20" d="M385.44,258.64c13.84-16.65,44.83,12.1,77.38,25.55-2.65,7.58-9.68,35.57-25.52,45.14C401.44,312.48,372,274.83,385.44,258.64Z"/></g><path id="Path_38067" data-name="Path 38067" class="cls-17" d="M385.43,258.64a15.4,15.4,0,0,1,1.84-1.86c6.29,10.13,19.52,27.12,33.69,36.34a116.87,116.87,0,0,0,33.2,14.75c-4,8.54-9.48,17-16.87,21.46C401.44,312.48,372,274.83,385.43,258.64Z"/><path id="Path_38068" data-name="Path 38068" class="cls-8" d="M334.79,403.68c32.59,12.68,88.86,13.12,105.45,25.21s1,82.71,1.74,104.8c.39,12,1.53,29.68,2.49,43.32-1.91-1-4-2.12-6.11-3.46-15-9.23,1.95-121.9-1.59-128-10.1-17.59-123,6.35-130.59-38.91a140.83,140.83,0,0,1-1.68-26.74C308.94,387.45,317.68,397,334.79,403.68Z"/></g></g><g id="Group_7419" data-name="Group 7419"><path id="Path_38069" data-name="Path 38069" class="cls-3" d="M943,62.32c-5.43-20.35-27.64-34.17-54.8-32.89-23,1.09-46.16,12.83-57.91,29.65-13.8,19.76-9.86,43.59,9.73,56.65a51.05,51.05,0,0,0,8.63,4.61c-3,6.27-8.33,11.86-14.17,17.21-1.3,1.18.18,2.45,1.83,1.84a95.63,95.63,0,0,0,27.06-15,79.62,79.62,0,0,0,42.74-5.76C932.52,107.32,947.81,84.21,943,62.32Z"/></g><circle id="Ellipse_14" data-name="Ellipse 14" class="cls-15" cx="882.98" cy="55.83" r="11.75"/><path id="Path_38070" data-name="Path 38070" class="cls-21" d="M883.23,71.62v38"/></g></svg>