<svg id="Layer_1" data-name="Layer 1" xmlns="http://www.w3.org/2000/svg" xmlns:xlink="http://www.w3.org/1999/xlink" viewBox="0 0 1100 700"><defs><style>.cls-1{fill:#846028;}.cls-2{fill:#662482;}.cls-3{fill:#e6007e;}.cls-4{fill:#eb6687;}.cls-5{fill:#e5007e;}.cls-6{fill:#d60b51;}.cls-7{fill:#c6c6c5;}.cls-8{fill:url(#linear-gradient);}.cls-12,.cls-9{fill:#0e2050;}.cls-15,.cls-9{opacity:0.5;}.cls-9{isolation:isolate;}.cls-10{fill:#2d2d2e;}.cls-11{fill:#fff;}.cls-13{fill:#2a8595;}.cls-14{fill:#f8b133;}.cls-16{fill:url(#linear-gradient-2);}.cls-17{fill:#4a96a3;}.cls-18{fill:#36a9e1;}.cls-19{fill:url(#linear-gradient-3);}.cls-20{fill:url(#linear-gradient-4);}.cls-21{fill:#e9ab20;}.cls-22{fill:#35a8e0;}.cls-23{fill:#fcc62e;}.cls-24{fill:url(#linear-gradient-5);}.cls-25{fill:#ccd3d3;}.cls-26{fill:url(#linear-gradient-6);}.cls-27{fill:#ffeb7c;}.cls-28{fill:url(#linear-gradient-7);}.cls-29{fill:url(#linear-gradient-8);}.cls-30{fill:url(#linear-gradient-9);}</style><linearGradient id="linear-gradient" x1="170.76" y1="5395.8" x2="171.65" y2="5395.8" gradientTransform="matrix(80.25, 0, 0, -137.92, -20275.73, 744556.49)" gradientUnits="userSpaceOnUse"><stop offset="0" stop-color="#fff"/><stop offset="0.09" stop-color="#f6f6f6"/><stop offset="0.47" stop-color="#d3d3d3"/><stop offset="0.79" stop-color="#bebebe"/><stop offset="1" stop-color="#b7b7b7"/></linearGradient><linearGradient id="linear-gradient-2" x1="172.46" y1="5872.34" x2="172.36" y2="5870.73" gradientTransform="matrix(17.75, 0, 0, -8.74, -2315.8, 51730.32)" gradientUnits="userSpaceOnUse"><stop offset="0" stop-color="#fff"/><stop offset="0.09" stop-color="#f1eef5"/><stop offset="0.39" stop-color="#cabeda"/><stop offset="0.65" stop-color="#ad9bc7"/><stop offset="0.86" stop-color="#9c86bb"/><stop offset="1" stop-color="#967fb7"/></linearGradient><linearGradient id="linear-gradient-3" x1="248.21" y1="5386.56" x2="248.21" y2="5387.18" gradientTransform="matrix(51.09, 0, 0, -187.27, -12109.85, 1009370.77)" gradientUnits="userSpaceOnUse"><stop offset="0" stop-color="#fff"/><stop offset="0.21" stop-color="#f7f3f7"/><stop offset="0.69" stop-color="#e9dee8"/><stop offset="1" stop-color="#e5d7e3"/></linearGradient><linearGradient id="linear-gradient-4" x1="261.12" y1="5387.23" x2="261.12" y2="5386.7" gradientTransform="matrix(76.82, 0, 0, -187.77, -19409.49, 1012077.45)" xlink:href="#linear-gradient-3"/><linearGradient id="linear-gradient-5" x1="260.8" y1="5419.54" x2="260.4" y2="5419.91" gradientTransform="matrix(74.66, 0, 0, -80.89, -19127.25, 438613.52)" gradientUnits="userSpaceOnUse"><stop offset="0" stop-color="#fff"/><stop offset="0.19" stop-color="#e8e8e8"/><stop offset="0.54" stop-color="#c5c5c6"/><stop offset="0.82" stop-color="#b0b0b1"/><stop offset="1" stop-color="#a9a9aa"/></linearGradient><linearGradient id="linear-gradient-6" x1="275.85" y1="5374.85" x2="275.61" y2="5374.07" gradientTransform="matrix(173.31, 0, 0, -370.78, -47398.97, 1993181.6)" xlink:href="#linear-gradient-5"/><linearGradient id="linear-gradient-7" x1="177.34" y1="5893.73" x2="177.25" y2="5892.13" gradientTransform="matrix(17.84, 0, 0, -8.78, -2845.95, 51963.42)" xlink:href="#linear-gradient-2"/><linearGradient id="linear-gradient-8" x1="260.25" y1="5410.98" x2="260.1" y2="5410.19" gradientTransform="matrix(73.02, 0, 0, -95.49, -18617.8, 516948.81)" xlink:href="#linear-gradient-5"/><linearGradient id="linear-gradient-9" x1="253.06" y1="5378.57" x2="252.45" y2="5377.73" gradientTransform="matrix(56.98, 0, 0, -287.59, -14124.68, 1547210.69)" xlink:href="#linear-gradient-5"/></defs><title>2789 Website–Key Features–V1B</title><g id="Group_9641" data-name="Group 9641"><g id="Group_9393" data-name="Group 9393"><path id="Path_37761" data-name="Path 37761" class="cls-1" d="M704,342.24l19.52-41.35-10.58-3.5-27.77,38.06Z"/><path id="Path_37762" data-name="Path 37762" class="cls-2" d="M705.88,288.63c16.23-40.43,55.68-56.56,55.68-56.56l2.8,35.71s-22.7,14.12-25,23.88C732.2,292.4,719.21,292.82,705.88,288.63Z"/><path id="Path_37763" data-name="Path 37763" class="cls-3" d="M782.31,202.8c-2.13-5.24-8.68-14.77-22-12.3s-12.74,33.34-12.74,33.34A32.48,32.48,0,0,0,767,229.59c14.56-.23,19.46-7.42,19.46-7.42S784.43,208,782.31,202.8Z"/><path id="Path_37764" data-name="Path 37764" class="cls-4" d="M791.07,244.28c16.6,25.48,23.53,38.64,45.79,115.93,21.39,74.3-22.93,276.4-22.93,276.4h-13s-8.44-244.14-20.75-256.8c0,0-60.32,17.21-59.68,1.87,2.24-53.23,35.52-63.22,39.39-82.35s-17.33-53.39-4-61.69C767.93,230.19,779.76,226.89,791.07,244.28Z"/><path id="Path_37765" data-name="Path 37765" class="cls-5" d="M822.81,313.57c4,12.41,8.56,27.57,14.05,46.64,21.4,74.3-22.92,276.4-22.92,276.4h-13s-8.41-243.37-20.69-256.73L779,324.53C794.65,323,810.32,319.7,822.81,313.57Z"/><path id="Path_37766" data-name="Path 37766" class="cls-5" d="M720.5,381.68c1.19-28.24,11.11-44.31,20.75-56A295.62,295.62,0,0,0,779,324.53l1.22,55.35-.06-.07s-39.09,233.53-44.9,256.8H721.84S719.85,397,720.5,381.68Z"/><path id="Path_37767" data-name="Path 37767" class="cls-6" d="M787.88,418.44c-1-8.58-1.94-16.11-3-22.22l45.72,8.43Z"/><path id="Path_37768" data-name="Path 37768" class="cls-6" d="M767,410.73s-29.45,5.47-46.65,3.52c0-8.62,0-15.93,0-21.5Z"/><path id="Path_37769" data-name="Path 37769" class="cls-2" d="M720.5,381.68c2.24-53.23,35.52-63.22,39.38-82.35s-19.39-54.68-6-63c12-7.45,25.9-9.46,37.22,7.93,16.6,25.48,23.52,38.64,45.78,115.93,3.69,12.79,5.42,27.1,5.77,42a382.36,382.36,0,0,1-54.5,7.81c-5,.34-10.13.57-15.33.66-17.74.29-36.24-1.14-52.42-5.91C720.35,393.08,720.37,384.63,720.5,381.68Z"/><g id="Group_7314" data-name="Group 7314"><path id="Path_37770" data-name="Path 37770" class="cls-7" d="M772.23,391.9c5.55-.09,11-.32,16.34-.66a436,436,0,0,0,52.9-6.77q.94,8.67,1.16,17.76a382.36,382.36,0,0,1-54.5,7.81c-5,.33-10.12.57-15.32.65-17.74.29-36.25-1.13-52.42-5.9,0-7.42,0-13.52,0-17.76C736.64,391,754.78,392.16,772.23,391.9Z"/></g><g id="Group_7315" data-name="Group 7315"><path id="Path_37771" data-name="Path 37771" class="cls-8" d="M720.37,392.68v-.32c0-.54,0-1.08,0-1.59V388.7c0-3.3.06-5.71.12-7,2.23-53.22,35.51-63.21,39.38-82.35s12.79-11.55,20.35-9.39c9.32,2.66,12.23-2.7,12.17,8.71s-24.47,64-30.88,85.82a178,178,0,0,0-5.34,26,156,156,0,0,1-35.79-5.63c0-.83,0-1.63,0-2.43v-5.44C720.37,395.42,720.37,394,720.37,392.68Z"/></g><path id="Path_37772" data-name="Path 37772" class="cls-9" d="M747.58,325.78,789,300.89a40.69,40.69,0,0,1-14.36,35.36c-12,10.16-32.94,11.44-46.37,9.91a82.43,82.43,0,0,1,7.14-12.78Z"/><path id="Path_37773" data-name="Path 37773" class="cls-9" d="M820.24,305.74c3.07,9.17,6.47,20,10.38,33.14-15.91-1.06-33.69-18.31-37.62-27.24-6.5-14.77-1.2-23.91-1.2-23.91Z"/><path id="Path_37774" data-name="Path 37774" class="cls-2" d="M770.59,230.87s76.26,7.74,92.95,59.16c14.09,43.43-42.44,65.16-69.7,13-2.82-5.4-3.23-19.72.73-24.35,6.6-7.73,39.41,14.51,39.15,10.17s-44.7-37-44.7-37Z"/><path id="Path_37775" data-name="Path 37775" class="cls-7" d="M770.41,233.52s4.94,3.15,6,7.78-4.17,6.86-9.39,5.22-6.19-7.31-6.6-10.14S767.22,232.16,770.41,233.52Z"/><path id="Path_37776" data-name="Path 37776" class="cls-1" d="M761.72,219.59l-.2,16c0,2.62,6.45,9.37,10.59,6,1.22-1-.38-4.59-1.52-7.31l-3.13-13.71Z"/><path id="Path_37777" data-name="Path 37777" class="cls-10" d="M769.32,228.72c-3.43-1.05-6.87-6.18-6.87-6.18h5.46Z"/><path id="Path_37778" data-name="Path 37778" class="cls-1" d="M761.72,209.37l-1,6.12A9.16,9.16,0,0,0,767.94,226c4.47.8,8.78-1.78,9.44-7.42.59-5-3-9.35-4.26-11.62C770.18,201.81,763.34,202.41,761.72,209.37Z"/><path id="Path_37779" data-name="Path 37779" class="cls-1" d="M761.89,215.25a7.53,7.53,0,0,1-.4-1.57c-.17-1-.66-2.5-2-1.51-2,1.45-.84,6.84,1.76,6.85C763.12,219,762.4,216.53,761.89,215.25Z"/><path id="Path_37780" data-name="Path 37780" class="cls-1" d="M774.76,213.37a7.41,7.41,0,0,0,0-1.63c-.07-1,.06-2.58,1.65-1.93,2.3.94,2.38,6.47-.15,7.06C774.43,217.31,774.57,214.73,774.76,213.37Z"/><path id="Path_37781" data-name="Path 37781" class="cls-11" d="M767.65,218a18,18,0,0,0,5.88-.77s-.45,2.59-1.68,3.58S768.89,220.52,767.65,218Z"/><g id="Group_7316" data-name="Group 7316"><path id="Path_37782" data-name="Path 37782" class="cls-1" d="M813.94,636.61s-1.47,7.16-.91,8.28c.22.45,5.54,2.18,9.74,4.34,1.87,1.63,3.69,3.73,1.67,4.39-3.47,1.12-23.82,1.13-25.74-2.24a8.9,8.9,0,0,0-2.35-2.72,26.67,26.67,0,0,0,4.58-12Z"/><path id="Path_37783" data-name="Path 37783" class="cls-12" d="M798.71,651.38c1.91,3.37,22.26,3.36,25.73,2.24,2-.66.2-2.76-1.67-4.39,6.28,3.22,14.05,7.38,14.31,9.53.45,3.58-36.58,3.47-42.74,0-3.22-1.81-1-5.71,2-10.1A9.07,9.07,0,0,1,798.71,651.38Z"/></g><g id="Group_7317" data-name="Group 7317"><path id="Path_37784" data-name="Path 37784" class="cls-1" d="M721.84,636.61s.92,4.61-1.34,8.21c-1,1.56-3.87,2.73-7.84,4.41-1.87,1.63-3.7,3.73-1.68,4.39,3.47,1.12,23.83,1.13,25.74-2.24a8.9,8.9,0,0,1,2.35-2.72,25,25,0,0,1-3.8-12Z"/><path id="Path_37785" data-name="Path 37785" class="cls-12" d="M736.72,651.38c-1.91,3.37-22.27,3.36-25.74,2.24-2-.66-.19-2.76,1.68-4.39-6.29,3.22-14,7.38-14.32,9.53-.45,3.58,36.59,3.47,42.74,0,3.22-1.81,1-5.71-2-10.1A8.9,8.9,0,0,0,736.72,651.38Z"/></g><g id="Group_7318" data-name="Group 7318"><path id="Path_37786" data-name="Path 37786" class="cls-6" d="M745.67,511c5.6-4.11,10.82-13.12,15.62-19.64-10.88,63.62-23,133.09-26,145.24H721.84s-.57-67.76-1-133.52C728.28,514.59,733.48,520,745.67,511Z"/></g><path id="Path_37787" data-name="Path 37787" class="cls-13" d="M743.71,306.86l-19.23,42.49,17,5.62s11.85-27.82,13.18-45Z"/><path id="Path_37788" data-name="Path 37788" class="cls-13" d="M756.26,234.63s3.07,40.24.66,57.51-3.53,14.57-3.53,14.57l-9.68.15s10.67-66.23,10-70.84A5.93,5.93,0,0,1,756.26,234.63Z"/><path id="Path_37789" data-name="Path 37789" class="cls-2" d="M705.88,288.63c13.33,4.19,26.32,3.77,33.52,3a5.23,5.23,0,0,0,2.51,6c7.53,4.92,31.2-22.39,39.63-16.71,5.05,3.41,8.49,17.32,7.21,23.27-12.33,57.51-103.9,39.54-83.47-14.09Z"/><path id="Path_37790" data-name="Path 37790" class="cls-1" d="M777,285.9c-1.11-3,1-11.22,3.38-12.22s5.49,9,3.56,13S777.65,287.54,777,285.9Z"/><rect id="Rectangle_1468" data-name="Rectangle 1468" class="cls-14" x="779.57" y="264.42" width="11.09" height="20.25" rx="0.68" transform="translate(-35.67 140.06) rotate(-9.97)"/><path id="Path_37791" data-name="Path 37791" class="cls-1" d="M793.38,273.73a10.35,10.35,0,0,0-3.44-3.73s.71,4.94-.18,5.5-4.55-1-6.61-2.58c-3.46-2.68-3.22,1.17-1.65,4.19s9.38,7.67,12.62,6.78S794.7,276,793.38,273.73Z"/><g id="Group_7319" data-name="Group 7319" class="cls-15"><path id="Path_37792" data-name="Path 37792" class="cls-12" d="M705.28,290.16l.6-1.53c7.58-18.88,20.23-32.46,31.55-41.58,3.23-2.6,6-4.55,6-4.55s-12.83,22.15-18.94,30.87c-16.79,23.94-5.82,39.93,13,44.8,14.5,3.75,36.86.54,50.18-25.93,1.21,4.48,1.68,9.15,1.07,12C776.42,361.76,684.84,343.78,705.28,290.16Z"/></g><g id="Group_7320" data-name="Group 7320"><path id="Path_37793" data-name="Path 37793" class="cls-13" d="M741.46,355l-56.33-19.52-10,35a9.87,9.87,0,0,0,6.55,12.14l39,12.21A9.86,9.86,0,0,0,733,388.34a4.61,4.61,0,0,0,.15-.53Z"/><path id="Path_37794" data-name="Path 37794" class="cls-13" d="M741.46,355A59.87,59.87,0,0,1,718.24,363c-13.42,1.64-29.23-5.48-33.11-27.58Z"/></g><g id="Group_7321" data-name="Group 7321"><path id="Path_37795" data-name="Path 37795" class="cls-16" d="M768.49,224c1.84.06,5.1-.67,6.44-1.79a12.45,12.45,0,0,0,2.47-3.92,2.72,2.72,0,0,1,0,.28c-.66,5.64-5,8.22-9.45,7.42a8.78,8.78,0,0,1-6.46-5.18A11.3,11.3,0,0,0,768.49,224Z"/></g><path id="Path_37796" data-name="Path 37796" class="cls-3" d="M770.25,203s-2,8.87-9,9.7c0,0-1.36-3.58-.56-6S770.25,203,770.25,203Z"/><path id="Path_37797" data-name="Path 37797" class="cls-13" d="M790.08,66.08a89.56,89.56,0,0,1,22.64-15.47c3.38-1.63,6.89-3.06,10.48-4.38A139.13,139.13,0,0,1,857,37.75C916.47,30.44,987.5,48.33,991.3,96c1.14,14.33-4.29,27.35-14,38.25-.07.13-.1.28-.17.42-9.9,18-40.77,30.24-64.72,36.21a182.16,182.16,0,0,1-42.93,5.35c-2.05.05-4.06,0-6.07,0-15.33,14-38.06,24.62-62.56,30.47-.47.12-2.52-.09-1.77-.74,11.69-10,22.66-22,29.67-34.68-23.43-6.21-43.08-18.26-53.87-36.38C760.46,110.71,768.71,85.1,790.08,66.08Z"/><g id="Group_7322" data-name="Group 7322"><path id="Path_37798" data-name="Path 37798" class="cls-11" d="M905.6,119.61c6,.57,6.69-9.25,5.21-13,0,0,0,0-.08-.09.54-2.54-.51-5.17-1.69-7.61-1.06-2.22-2.33-5.32-5.18-5.52-6.06-.4-7.17,8.3-6.51,12.5S900.35,119.12,905.6,119.61Zm-5.09-14.52a10.18,10.18,0,0,1,.62-5.59c1.18-2.3,2.57-1.93,4,0,1.94,2.48,2.14,6.2,3.32,9a.8.8,0,0,0,1.45.09c.12-.19.18-.38.28-.57.28,3.07-.89,6.13-3.48,7.45s-2.82-.07-3.89-2.43a26.81,26.81,0,0,1-2.33-7.93Z"/></g><g id="Group_7323" data-name="Group 7323"><path id="Path_37799" data-name="Path 37799" class="cls-11" d="M873.52,118.92c1.52,3.13,5.12,6.39,7.22,1.58,1.89-4.35.67-11.8-2.76-15.06a.45.45,0,0,0-.4-.09c-1.38-2.64-3.51-5-5.49-2.67-1.37,1.64-1,5.43-.9,7.42A24.19,24.19,0,0,0,873.52,118.92Zm.27-10.87c0-2.19,0-3.69,2.16-1.25.77.89,1.5,1.84,2.17,2.79a19.63,19.63,0,0,1,.81,4c.09,1.3.4,3.59-.31,4.66-1.53,2.31-2.25.54-3-1.38A22.34,22.34,0,0,1,873.79,108.05Z"/></g><g id="Group_7324" data-name="Group 7324"><path id="Path_37800" data-name="Path 37800" class="cls-11" d="M844.49,122.94c2.47,5,7.23,5.15,9.07-.44,1.35-4.1,1.2-12.63-3.63-14.59,1.92-4.7-5.17-5.56-7.56-2.16C839.12,110.36,842.32,118.57,844.49,122.94Zm1.33-8.48a11.14,11.14,0,0,1-.57-3.62,1.5,1.5,0,0,1,.61-2,1.4,1.4,0,0,1,.67-.18c.68-1,1.3-1,1.85-.26a1,1,0,0,0,.42.2c0,2.16,1.27,4.1,1.58,6.26.19,1.39.56,6-.73,7C847.83,123.12,846.1,115.72,845.82,114.46Z"/></g><g id="Group_7338" data-name="Group 7338"><path id="Path_37801" data-name="Path 37801" class="cls-5" d="M583.69,639.72v-6.34l-17.34,1.16,1.66,5.18Z"/><g id="Group_7327" data-name="Group 7327"><path id="Path_37802" data-name="Path 37802" class="cls-5" d="M685.67,639.72s4.87,2.88,6,5.67-3.61,4.54-10.83,2.21A22.18,22.18,0,0,1,670,639.72Z"/><g id="Group_7326" data-name="Group 7326"><path id="Path_37803" data-name="Path 37803" class="cls-2" d="M670,639.72s-14.86,16.79-8,19.9,47.15,4.55,53.36,1.76-29.65-21.66-29.65-21.66,4.24,4.91,3.1,6.23C685.53,649.69,670,639.72,670,639.72Z"/><g id="Group_7325" data-name="Group 7325"><path id="Path_37804" data-name="Path 37804" class="cls-7" d="M711.58,655.42c-8.74-.65-19.24,5.79-33.37,4.08-10.3-1.26-15.46-3-17.9-4.18-.39,1.95,0,3.53,1.65,4.3,6.84,3.1,47.15,4.55,53.36,1.76C717.2,660.53,715.23,658.23,711.58,655.42Z"/></g></g></g><g id="Group_7330" data-name="Group 7330"><path id="Path_37805" data-name="Path 37805" class="cls-5" d="M568,639.72s-6.83,4.83-8.38,9.64,11.48,3.42,16.61-.77a30.29,30.29,0,0,0,7.45-8.87Z"/><g id="Group_7329" data-name="Group 7329"><path id="Path_37806" data-name="Path 37806" class="cls-2" d="M583.69,639.72s14.86,16.79,8,19.9-47.16,4.55-53.36,1.76S568,639.72,568,639.72s-4.24,4.91-3.11,6.23C568.15,649.69,583.69,639.72,583.69,639.72Z"/><g id="Group_7328" data-name="Group 7328"><path id="Path_37807" data-name="Path 37807" class="cls-7" d="M542.09,655.42c8.75-.65,19.24,5.79,33.37,4.08,10.3-1.26,15.47-3,17.91-4.18.39,1.95,0,3.53-1.65,4.3-6.84,3.1-47.16,4.55-53.36,1.76C536.48,660.53,538.44,658.23,542.09,655.42Z"/></g></g></g><path id="Path_37808" data-name="Path 37808" class="cls-17" d="M561.59,366.91c36,6.71,72.88,4.41,87.15,3.1.89,3.39,1.9,6.94,3.06,10.7,28.22,91.44,33.75,257.6,33.75,257.6s-9,.36-15.68,0c0,0-43-135.94-54.06-170.86-5.26-16.67-11.38-40.37-16.32-59L586.06,637.47s-9.38.3-20.31,0c0,0-28.64-198.55-16.52-237.44C552.64,389.08,557.17,377.64,561.59,366.91Z"/><path id="Path_37809" data-name="Path 37809" class="cls-12" d="M602.44,419.6s48.67-18.93,48.84-12.38c.15,5.7-36.21,20-46.27,22.09C603.8,424.78,603.6,424,602.44,419.6Z"/><path id="Path_37810" data-name="Path 37810" class="cls-14" d="M543.19,241.44s-39.56,14.68-52.47,48.5-4.42,57.19-4.42,57.19l79.28-66.23Z"/><path id="Path_37811" data-name="Path 37811" class="cls-12" d="M546.62,418.23a95.2,95.2,0,0,1,2-15.78c6.72-2.12,14.44-3.29,18.81-2.68,11.1,1.55,14.19,19.79,14.19,19.79S562.84,423,546.62,418.23Z"/><path id="Path_37812" data-name="Path 37812" class="cls-6" d="M536.48,403.26C536.33,379.5,541.66,298,541.66,298s-17.95-42.9-13.42-52.4c28.91-11.13,102.25-30.37,137.63,12,8.57,10.25-16,35.65-19.24,54.68,0,0,14.21,45.49,25.82,89.48C656.44,411.77,574.42,436.3,536.48,403.26Z"/><g id="Group_7331" data-name="Group 7331"><path id="Path_37813" data-name="Path 37813" class="cls-6" d="M528.24,245.57a225.78,225.78,0,0,1,51.43-12.88c-26,12.88-28.33,31.23-28.38,38-.34,48.43,28.27,38.1,53.55,42.92,0,0-24,44.74-23.26,67.8.37,12.24,6.2,27.19,11.59,38.53-21.24.17-42.19-4-56.69-16.67C536.33,379.5,541.66,298,541.66,298S523.71,255.07,528.24,245.57Z"/></g><path id="Path_37814" data-name="Path 37814" class="cls-14" d="M613.34,214.18l6.46,19.33c0,2.81-15.07,10.57-19.5,7-1.29-1-.93-3.73.3-6.64L607.87,218Z"/><path id="Path_37815" data-name="Path 37815" class="cls-14" d="M606.4,221.22c3.1-.53,7.31-1.34,7.31-1.34a13.32,13.32,0,0,1-4.58,8.62,12.8,12.8,0,0,1-7.48,3.08Z"/><g id="Group_7333" data-name="Group 7333"><path id="Path_37816" data-name="Path 37816" class="cls-18" d="M595.35,212.86s-11.17-6-11.6-16.35c-.27-6.6,9.55-14.65,17.94-9.47,5.73,3.54,7.21,10.4,7.21,10.4s7.13,1.45,6.26,7.08-1.11,15.35-8.92,15.36S595.35,212.86,595.35,212.86Z"/><path id="Path_37817" data-name="Path 37817" class="cls-14" d="M609.06,207l4.33,10.85a7.12,7.12,0,0,1-4.5,8.86c-2.92,1-4.84,1.11-8.67.9-3.19-.18-5-3.12-5.27-7.27a38.76,38.76,0,0,1,1.68-13.11C598.46,201.16,605.73,200.15,609.06,207Z"/><path id="Path_37818" data-name="Path 37818" class="cls-18" d="M604,202.43s5.54,3.15,2.6,8.86c-1.46,2.84,1.57,4.18,2.7,1.23s2.78-7.37,1.31-8.53S604,202.43,604,202.43Z"/><path id="Path_37819" data-name="Path 37819" class="cls-14" d="M609.28,212.52a9.74,9.74,0,0,0,.06-2.16c-.09-1.37.11-3.43,2.21-2.56,3.05,1.28,3.11,8.62-.25,9.38C608.81,217.75,609,214.32,609.28,212.52Z"/><path id="Path_37820" data-name="Path 37820" class="cls-11" d="M602.36,215.52a18.84,18.84,0,0,1-6.3.59s.05,2.43,1.56,3.17S601.67,218.46,602.36,215.52Z"/><g id="Group_7332" data-name="Group 7332"><path id="Path_37821" data-name="Path 37821" class="cls-14" d="M599,223.56c3.5-.94,6.52,4.26,12.5-1.22,1.11-1,1.59-3.35,1.82-4.72l.09.24a7.13,7.13,0,0,1-4.5,8.86c-2.92,1-4.85,1.11-8.67.89a5,5,0,0,1-4.26-3.06C596.6,224.61,597.91,223.84,599,223.56Z"/></g></g><path id="Path_37822" data-name="Path 37822" class="cls-14" d="M587.78,274.37s-.84-8.05-3.74-8.11-4.65,6.17-2.45,12.93S587.78,274.37,587.78,274.37Z"/><rect id="Rectangle_1469" data-name="Rectangle 1469" class="cls-13" x="575.19" y="246.17" width="12.8" height="23.36" rx="0.79" transform="translate(-35.84 104.49) rotate(-9.96)"/><path id="Path_37823" data-name="Path 37823" class="cls-14" d="M577.45,270.68S569.2,340.79,530,347c-36.92,5.82-38.46,7.74-42.85,2.32s4.9-53.95,14.71-62.47,71-19.62,71-19.62Z"/><path id="Path_37824" data-name="Path 37824" class="cls-14" d="M667.2,254.92s42.08,31.7,49.3,71.41c9,49.22-88.45,67.81-134.92-47.15l6.2-4.82,58.51,21.69S660.63,258.4,667.2,254.92Z"/><path id="Path_37825" data-name="Path 37825" class="cls-6" d="M639.3,238.71s28.38,8.9,58.45,41.46l-41.31,21.39-10.15-5.51Z"/><path id="Path_37826" data-name="Path 37826" class="cls-5" d="M685.67,639.72l-.12-1.41H669.87l.12,1.41Z"/><path id="Path_37827" data-name="Path 37827" class="cls-14" d="M577.45,270.68s4.23-5.37,5.47-8.4c3.61-8.82-7.09-.23-7.09-.23l-.45-2.58s-2.66,4.25-5.93,8.38Z"/><path id="Path_37828" data-name="Path 37828" class="cls-14" d="M531.72,276.09s-23.49,4-31.64,12.69c0,0,3.38-8.91,12.15-11.31S531.72,276.09,531.72,276.09Z"/><path id="Path_37829" data-name="Path 37829" class="cls-14" d="M656.44,301.55s18.12,4.13,29.11,14.46C685.55,316,683.12,298.11,656.44,301.55Z"/><g id="Group_7334" data-name="Group 7334"><path id="Path_37830" data-name="Path 37830" class="cls-14" d="M527.5,327.71c21-5.51,50-57,50-57S569.2,340.79,530,347c-36.92,5.82-38.46,7.74-42.85,2.32a4.94,4.94,0,0,1-.81-2.18s-4-11-2.33-28.75C495.44,330.94,508.72,332.65,527.5,327.71Z"/></g><g id="Group_7335" data-name="Group 7335"><path id="Path_37831" data-name="Path 37831" class="cls-14" d="M663.15,342.86c22.25,5.91,45.64-.17,53-18.13.11.53.22,1.07.32,1.6,9,49.22-88.45,67.8-134.92-47.15C581.58,279.18,636,335.63,663.15,342.86Z"/></g><g id="Group_7336" data-name="Group 7336"><path id="Path_37832" data-name="Path 37832" class="cls-19" d="M569.54,516.32c8.59.49,18.24-1.92,23.83-3.6l-7.31,124.75s-9.38.3-20.31,0c0,0-13.89-96.34-18.23-168C552.79,480.34,551.16,515.26,569.54,516.32Z"/></g><g id="Group_7337" data-name="Group 7337"><path id="Path_37833" data-name="Path 37833" class="cls-20" d="M669.87,539.55c3.94-.27,6.6-2.8,8.36-6.42,5.75,58,7.31,105.18,7.31,105.18s-9,.36-15.67,0c0,0-41.16-129.94-53.28-168.37C629.78,493.09,658.16,540.33,669.87,539.55Z"/></g></g><path id="Path_37834" data-name="Path 37834" class="cls-14" d="M574,188.06c-17.63-7.74-28.21-24.44-32-42.89-1.79-8.64-2-17.27-2-26,0-5.86.07-12.26-2.51-17.68-2.71-5.71-7.45-8.17-13.39-9.52-9.12-2.07-18.68-3.08-28-4.33-17.43-2.35-35.1-3.85-52.68-2.48a139.39,139.39,0,0,0-23.76,3.82c-6.45,1.66-14.7,3.42-20,7.74-4.44,3.61-5.66,8.85-5.95,14.34-.51,9.63.18,19.45.71,29.06s1.26,19,2.38,28.46c.76,6.42,1.7,13,5.83,18.28,9.34,11.86,25.92,10.72,39.2,8.55,22.23-3.62,44.39-5.77,66.86-7.17,10.66-.66,21.41-1.56,32.08-.57,9.71.89,19,5.1,28.78,3.69A1.21,1.21,0,0,0,570.7,190a.45.45,0,0,0,0-.11c.59.29,1.13.61,1.74.88C574.27,191.57,575.87,188.88,574,188.06Z"/><path id="Path_37835" data-name="Path 37835" class="cls-11" d="M440,132.51a8.63,8.63,0,0,0-11.12,4.76,1.22,1.22,0,0,0,.53,1.62,7.81,7.81,0,0,0,2.31,6.25c3.64,3.45,9.39,2.9,11.74-1.7C445.41,139.54,444.21,134.28,440,132.51Zm1.09,8.39c-.71,2.71-3.25,4.23-5.89,2.91s-4.53-6.25-.5-7.22a1.37,1.37,0,0,0,1.1-1.44,5.55,5.55,0,0,1,2.26,0C440.66,135.77,441.69,138.45,441.05,140.9Z"/><path id="Path_37836" data-name="Path 37836" class="cls-11" d="M472.18,134.55c-3.37-4.31-9.82-4.4-13.82-1a1.27,1.27,0,0,0-.34,1.68,8.16,8.16,0,0,0-1.47,9.71,9.72,9.72,0,0,0,13.5,3.28C474.46,145.31,475.38,138.64,472.18,134.55Zm-3,10.33a6.51,6.51,0,0,1-8.57.12c-3.25-2.76-2.24-8.93,2.72-8.32,1.46.18,1.83-1.43,1.17-2.42a6.31,6.31,0,0,1,4.77,1.7,6.57,6.57,0,0,1-.09,8.92Z"/><path id="Path_37837" data-name="Path 37837" class="cls-11" d="M496.45,136.3c-2.82-3.25-7.78-2.85-11.61-2.25-1.32.21-1.37,1.61-.68,2.43a6,6,0,0,0-.8,6.48,8.12,8.12,0,0,0,10.6,3.65C497.78,144.82,499.33,139.61,496.45,136.3Zm-2.27,6.13c-1.41,2.15-4.57,2.29-6.54.86s-2.7-5.61.71-5.86a1.58,1.58,0,0,0,1.18-.65,10.24,10.24,0,0,1,2.06.23C494.11,137.61,495.79,140,494.18,142.43Z"/><g id="Group_7350" data-name="Group 7350"><g id="Group_7349" data-name="Group 7349"><path id="Path_37838" data-name="Path 37838" class="cls-21" d="M190.44,277.88a103.94,103.94,0,0,1,28.79-10.15c15.89-2.9,17.17,1.76,17.17,1.76S202.43,293,190.44,277.88Z"/><path id="Path_37839" data-name="Path 37839" class="cls-4" d="M265.79,231.84c1.93-2.46.16-6.59.16-6.59s-2.8,3.73-3.66,3.1-.77-4.61,0-7.12c1.22-4.24-2.28-2.58-4.52,0s-3.7,11.61-1.66,14.31S264.16,233.92,265.79,231.84Z"/><path id="Path_37840" data-name="Path 37840" class="cls-4" d="M310.3,230.84s-20.07-2.38-37.84,10.48-29.92,40.53-40,41.43c-9.22.82,28.57-48.24,28.57-48.24l-5.4-3.85s-27.66,14.3-45.43,37c-15,19.21-5.85,51.66,21.82,51.8s58.47-44.4,58.47-44.4Z"/><rect id="Rectangle_1470" data-name="Rectangle 1470" class="cls-22" x="250.93" y="215.03" width="20.35" height="11.15" rx="0.69" transform="translate(-1.38 439.56) rotate(-80.03)"/><path id="Path_37841" data-name="Path 37841" class="cls-4" d="M266.19,225.93s-.59-2.78-.78-3.87-2.14,1.2-1.62,2.77-.18,6.2-2.47,6.47-.22,2.19-.22,2.19,3.71-1.27,4.16-2.51A39.35,39.35,0,0,0,266.19,225.93Z"/><g id="Group_7339" data-name="Group 7339"><path id="Path_37842" data-name="Path 37842" class="cls-23" d="M272.46,241.32c-17.77,12.86-29.92,40.53-40,41.43-2.42.21-1.6-3,.93-7.89.85-1.63,3.05-5.37,3.05-5.37s-7.61,4.72-24.37,6.69c-10.45,1.23-20.8,1.74-21.59,1.7-1.81,2-.6,41.6,41.53,41.6,27.67,0,58.48-44.4,58.48-44.4l19.84-44.24S290.23,228.46,272.46,241.32Z"/></g><path id="Path_37843" data-name="Path 37843" class="cls-13" d="M329.36,215.78s5.92,8.26,18.52,14.59c11.42,5.73,32.85,8.52,32.85,8.52s.36,15.26-4.69,23.68c-.49.83-4.47-.29-4.47-.29s1.45,4.69.65,5.64a53.78,53.78,0,0,1-11,9.81l-.55.37c-.68.45-3.63-1.58-3.63-1.58s0,3.71-.75,4.09a31.8,31.8,0,0,1-16,3.29,32.41,32.41,0,0,1-3.55-.41,33.84,33.84,0,0,1-13.92-5.76s-11.58-51.81-8.64-58.11S319.69,206.76,329.36,215.78Z"/><path id="Path_37844" data-name="Path 37844" class="cls-24" d="M329.36,215.78s5.92,8.26,18.52,14.59c11.42,5.73,32.85,8.52,32.85,8.52s.36,15.26-4.69,23.68c-.49.83-4.47-.29-4.47-.29s1.45,4.69.65,5.64a53.78,53.78,0,0,1-11,9.81l-.55.37c-.68.45-3.63-1.58-3.63-1.58s0,3.71-.75,4.09a31.8,31.8,0,0,1-16,3.29,32.41,32.41,0,0,1-3.55-.41,33.84,33.84,0,0,1-13.92-5.76s-11.58-51.81-8.64-58.11S319.69,206.76,329.36,215.78Z"/><path id="Path_37845" data-name="Path 37845" class="cls-10" d="M285.63,281.48l-11.56-31.32s-11.36,4.7-19,29.44c-5.08,16.51-3.8,27.5-2.4,33C266.59,304.09,279.08,289.75,285.63,281.48Z"/><path id="Path_37846" data-name="Path 37846" class="cls-25" d="M366.52,381.21c-.87-20.7-7.39-40.39-20.86-56.31-8.56-10.43-16.9-17.43-18.73-26.46-3.89-19.23,17.41-53.65,4-62-12.06-7.49-24-10.8-35.33,6.67-16.68,25.62-23.64,38.84-46,116.53-21.51,74.68-17.14,277.81-17.14,277.81h53.26s8.48-245.39,20.85-258.11h0s12.41,183.88,143.16,211.77l20.69-47.53S369.62,450.61,366.52,381.21Z"/><path id="Path_37847" data-name="Path 37847" class="cls-26" d="M366.52,381.21c-.87-20.7-7.39-40.39-20.86-56.31-8.56-10.43-16.9-17.43-18.73-26.46-2.22-11,3.77-26.92,6.82-40.12-5.19.8-9.22,2.28-11.59,4.41-16,14.39-1.57,63,3.17,78.72s16.39,44.64,30.35,88.17,23.39,61.62,18.44,76.91c-3.28,10.14-15.19,12.17-22.85,12.39,21.31,33.47,52.6,62.4,98.42,72.18l20.69-47.53S369.62,450.61,366.52,381.21Z"/><g id="Group_7340" data-name="Group 7340"><path id="Path_37848" data-name="Path 37848" class="cls-4" d="M272.6,637.45s1.48,7.2.92,8.33c-.23.45-5.58,2.19-9.79,4.35-1.88,1.65-3.72,3.76-1.69,4.42,3.49,1.12,23.95,1.14,25.87-2.25a9,9,0,0,1,2.37-2.73,26.82,26.82,0,0,1-4.6-12.11Z"/><path id="Path_37849" data-name="Path 37849" class="cls-22" d="M287.91,652.3c-1.92,3.39-22.38,3.37-25.86,2.24-2-.65-.2-2.77,1.68-4.41-6.32,3.24-14.12,7.43-14.39,9.59-.45,3.6,36.77,3.48,43,0,3.23-1.83,1-5.74-2-10.16A9.15,9.15,0,0,0,287.91,652.3Z"/></g><g id="Group_7341" data-name="Group 7341"><path id="Path_37850" data-name="Path 37850" class="cls-4" d="M464.83,556.33s5.8,1.7,7.95,5.39c.93,1.62.62,4.72.26,9,.58,2.43,1.6,5,3.12,3.54,2.62-2.56,12.15-20.67,10-23.94a9.1,9.1,0,0,1-1.32-3.37c-4.83.54-11.12-2-14.5-3.41Z"/><path id="Path_37851" data-name="Path 37851" class="cls-22" d="M486.2,550.36c2.11,3.27-7.42,21.38-10,23.94-1.52,1.5-2.54-1.11-3.12-3.54-.07,7.1,0,16,1.79,17.2,3,2.07,20.19-30.94,20-38-.11-3.72-4.63-3.54-9.93-2.94A9.1,9.1,0,0,0,486.2,550.36Z"/></g><g id="Group_7342" data-name="Group 7342"><path id="Path_37852" data-name="Path 37852" class="cls-23" d="M335.58,304.32c-.43-.82-2.86-14.48-1.79-28.19,1.34-17.41,5.68-36-1.83-40.68-12.06-7.49-42.72-8.63-54.1,8.84-11.12,17.07-18.75,29-17.61,57.35C271,304.45,307.78,307.9,335.58,304.32Z"/></g><path id="Path_37853" data-name="Path 37853" class="cls-27" d="M334.88,265.21c-24.95,2.57-54-5.16-64.8-8.44A76,76,0,0,0,263.67,271c23.86,19.2,57.59,16.26,69.87,14.36-.06-3,0-6.12.24-9.27C334.07,272.5,334.48,268.81,334.88,265.21Z"/><path id="Path_37854" data-name="Path 37854" class="cls-22" d="M320,283.68l-6-.26a18.52,18.52,0,0,0,3.47,10.91c5.86,7.53,17.69,8.11,17.69,8.11l-.61-10.36S321.81,291.59,320,283.68Z"/><path id="Path_37855" data-name="Path 37855" class="cls-4" d="M324.35,232.87s73.8,21.27,87.33,64.5c10.34,33.06-46.45,28.11-94-8.55l4.21-7.2s46.42,8.77,49.26,6.75c1.29-.92-7.85-5.19-18.25-9.59A46.52,46.52,0,0,1,324.57,238Z"/><g id="Group_7343" data-name="Group 7343"><path id="Path_37856" data-name="Path 37856" class="cls-23" d="M411.68,297.37c-13.53-43.23-87.33-64.5-87.33-64.5l.75,17.28a27.39,27.39,0,0,0,17.09,24.19c13.68,5.53,30.73,12.8,29,14-1.39,1-13.22-.6-24.93-2.49l2.43,37.35C386.79,341.63,419.88,323.56,411.68,297.37Z"/></g><g id="Group_7346" data-name="Group 7346"><path id="Path_37857" data-name="Path 37857" class="cls-4" d="M325.09,218.3l.2,16c0,2.64-6.49,9.43-10.65,6.08-1.22-1,.38-4.6,1.53-7.34l3.14-13.78Z"/><path id="Path_37858" data-name="Path 37858" class="cls-10" d="M317.45,227.47c3.44-1.05,6.9-6.21,6.9-6.21h-5.48Z"/><path id="Path_37859" data-name="Path 37859" class="cls-4" d="M325.09,208l1,6.16a9.21,9.21,0,0,1-7.22,10.58c-4.49.8-8.83-1.79-9.49-7.46-.59-5,3-9.4,4.29-11.68C316.58,200.42,323.46,201,325.09,208Z"/><path id="Path_37860" data-name="Path 37860" class="cls-4" d="M325.65,214.68a8.28,8.28,0,0,0,.83-1.41c.45-.94,1.33-2.23,2.4-.88,1.55,2-1.11,6.84-3.61,6.11C323.41,218,324.8,215.77,325.65,214.68Z"/><path id="Path_37861" data-name="Path 37861" class="cls-11" d="M315.37,215.6a15.57,15.57,0,0,1-5.08-1.95S310.92,217,315.37,215.6Z"/><g id="Group_7344" data-name="Group 7344"><path id="Path_37862" data-name="Path 37862" class="cls-28" d="M318.28,222.76c-1.84.05-5.12-.68-6.47-1.8a12.37,12.37,0,0,1-2.49-3.93c0,.09,0,.18,0,.27.66,5.68,5,8.26,9.49,7.46a8.83,8.83,0,0,0,6.5-5.2A11.5,11.5,0,0,1,318.28,222.76Z"/></g><path id="Path_37863" data-name="Path 37863" class="cls-22" d="M317.8,197.39s2.31-2.14,7.14-1.47,5.63-2.51,8.32-1.41.61,3.65.55,5.41,3.94,6.71-.22,11C331.17,213.42,311.74,204.61,317.8,197.39Z"/><g id="Group_7345" data-name="Group 7345"><path id="Path_37864" data-name="Path 37864" class="cls-10" d="M328.54,204.26a71.88,71.88,0,0,1-10.44-7.1,3.45,3.45,0,0,0-.3.23c-6.06,7.22,13.37,16,15.79,13.53a6.32,6.32,0,0,0,1.81-3.56A34.37,34.37,0,0,1,328.54,204.26Z"/></g><path id="Path_37865" data-name="Path 37865" class="cls-22" d="M312.88,204.67c2.31,2.17,10.31,9.52,15.83,12.39a2.25,2.25,0,0,0,2.62-.44,14.5,14.5,0,0,0,3.15-5,2.28,2.28,0,0,0-.89-2.76c-3.53-2.23-12.39-8-15.47-11.24a1.72,1.72,0,0,0-2.41-.11,10.4,10.4,0,0,0-3.34,5.52A1.75,1.75,0,0,0,312.88,204.67Z"/></g><g id="Group_7347" data-name="Group 7347"><path id="Path_37866" data-name="Path 37866" class="cls-22" d="M342.76,504.4c11.41-15,20.16-56.62,20.16-56.62s-19.49,3.6-35.38,18q-.71.64-1.35,1.32,2.54,7,5.51,14.1a94.68,94.68,0,0,1,15.63-16.62l-12,24.95Q338.78,497,342.76,504.4Z"/><path id="Path_37867" data-name="Path 37867" class="cls-22" d="M267,336.39l-16.46,20c-.31,1.07-.63,2.16-.94,3.26-1.56,5.41-3,11.5-4.28,18.13l2.4-.72c15-4.63,38.44-53.22,38.44-53.22a81,81,0,0,0-27.19,4.1q-2.26,7.45-4.81,16.07A88.17,88.17,0,0,1,267,336.39Z"/><path id="Path_37868" data-name="Path 37868" class="cls-22" d="M268.12,391.62s-7.36,18.4-3.68,39.53c3.08,17.63,23.66,28.27,30.37,31.31,0-.41.07-.83.09-1.23-18.13-20-20.91-47.46-20.91-47.46l21.9,34.92c.67-8,1.36-15.68,2.07-22.76C286.67,409.63,268.12,391.62,268.12,391.62Z"/><path id="Path_37869" data-name="Path 37869" class="cls-22" d="M256.08,558.49s1.54-1.87,1.9-17.6c.21-9.31-13.24-26.25-24.27-38.54-.25,6.53-.47,13-.65,19.43Z"/><path id="Path_37870" data-name="Path 37870" class="cls-22" d="M248.45,559.34a76.82,76.82,0,0,1-15.74-23.84c-.12,5-.21,10-.29,14.81A76.4,76.4,0,0,0,248.45,559.34Z"/><path id="Path_37871" data-name="Path 37871" class="cls-22" d="M287.46,592.78c-15.41-5.42-34.88-3.16-34.88-3.16a61.6,61.6,0,0,0,17.34,25c4.66,3.93,10.68,5.34,16.41,5.56.09-2.33.19-4.87.3-7.6A74.6,74.6,0,0,1,267,599.72l19.86,8.55C287,603.53,287.22,598.34,287.46,592.78Z"/><path id="Path_37872" data-name="Path 37872" class="cls-22" d="M428.35,499a96.39,96.39,0,0,1-23.51-10.47l16.57,2.1c-3.48-4.3-7-8.76-10.44-13.36-14.36.31-27,1.76-27,1.76s9.56,17.36,28.23,27.9c7.87,4.44,17.17,4.3,25.31,2.66Q433.06,504.58,428.35,499Z"/><path id="Path_37873" data-name="Path 37873" class="cls-22" d="M345.82,423s6.07.91,11.37-11.86-14.42-55.82-14.42-55.82-11.89,12.72-15.6,31.18,16.35,36.72,16.35,36.72c-10-22.77-3-47.9-3-47.9Z"/></g><path id="Path_37874" data-name="Path 37874" class="cls-22" d="M319.74,281.86c-.17-9.65,16.52-44.93,16.52-44.93-1.2-.91-5.77-2.31-5.77-2.31s-7.31,16.64-12,27.88c-2.83,6.86-4.78,14.38-4.55,20.92l6,.26A8.64,8.64,0,0,1,319.74,281.86Z"/><path id="Path_37875" data-name="Path 37875" class="cls-4" d="M324.86,285.67s-1.63-6.75-4-8.1-8.85-6.59-8.71,2.85c.05,3.28,1.32,5.25,5.53,8.4Z"/><path id="Path_37876" data-name="Path 37876" class="cls-10" d="M317.32,198.69s-3.52,2.76-3.36,5.57Z"/><path id="Path_37877" data-name="Path 37877" class="cls-10" d="M322.16,202.51a7.48,7.48,0,0,0-4.44,5.23Z"/><path id="Path_37878" data-name="Path 37878" class="cls-10" d="M326.68,205.51s-1,4.72-3.77,6.29Z"/><path id="Path_37879" data-name="Path 37879" class="cls-10" d="M332.62,209.65s-1,4.73-3.77,6.3Z"/><g id="Group_7348" data-name="Group 7348"><path id="Path_37880" data-name="Path 37880" class="cls-29" d="M411.68,297.37C404,273,377.2,255.56,355.27,245c22.43,19.78,50.3,54.88,35.49,60.82-13.51,5.43-35.55-.21-43.35-2.52l1.29,19.9C386.79,341.63,419.88,323.56,411.68,297.37Z"/></g><path id="Path_37881" data-name="Path 37881" class="cls-30" d="M263.22,462.46c-9.42,45.45-8.37,127.9-6.79,175h29.25s8.48-245.39,20.86-258.11C306.53,379.34,276.92,396.34,263.22,462.46Z"/></g></g><g id="Group_7355" data-name="Group 7355"><g id="Group_7351" data-name="Group 7351"><path id="Path_37882" data-name="Path 37882" class="cls-13" d="M172.29,79.05,288.78,71.5a24.38,24.38,0,0,1,25.9,22.75v.14l1.34,22.8a24.37,24.37,0,0,1-20.1,25.43l-5.47,1s6.69,17.49,9.7,22.93c2.89,5.25,10.17,16.66,10.17,16.66a73.55,73.55,0,0,1-39.14-33.09l-85.59,20.51a24.37,24.37,0,0,1-29.38-18c-.18-.77-.33-1.55-.44-2.33l-6-43.51a24.37,24.37,0,0,1,20.78-27.5C171.1,79.15,171.7,79.09,172.29,79.05Z"/></g><g id="Group_7352" data-name="Group 7352"><path id="Path_37883" data-name="Path 37883" class="cls-11" d="M197.94,116.13c-.73-4.19-4.6-12.06-10.2-9.71-2.64,1.1-2.83,4.45-3.12,6.9-.32,2.68-.47,5.51.86,7.74,0,0,0,.06,0,.11-.18,4,3.67,13.09,9.15,10.62C199.39,129.62,198.65,120.16,197.94,116.13Zm-2.88,8.53c-.24,2.58,0,4-2.88,3.56s-5-2.92-5.71-5.92c.14.15.29.3.44.44a.8.8,0,0,0,1.35-.55c.19-3.06-.82-6.64.21-9.62.77-2.25,2-3,3.83-1.26a10.14,10.14,0,0,1,2.39,5.09,26.27,26.27,0,0,1,.37,8.25Z"/></g><g id="Group_7353" data-name="Group 7353"><path id="Path_37884" data-name="Path 37884" class="cls-11" d="M224.06,111.63c-.51-1.92-1.43-5.62-3.26-6.73-2.65-1.61-3.89,1.36-4.33,4.3a.51.51,0,0,0-.35.22c-2.19,4.2-.93,11.64,2.27,15.14,3.55,3.88,5.9-.37,6.32-3.83A24.06,24.06,0,0,0,224.06,111.63Zm-1.93,7.84c-.15,2.08-.25,4-2.45,2.3-1-.79-1.46-3.06-1.8-4.31a19.82,19.82,0,0,1-.54-4.06,33.15,33.15,0,0,1,1.16-3.35c1.21-3,1.7-1.58,2.43.49A22.42,22.42,0,0,1,222.13,119.47Z"/></g><g id="Group_7354" data-name="Group 7354"><path id="Path_37885" data-name="Path 37885" class="cls-11" d="M249.91,98.17c-3.37-2.44-9.79.68-6.46,4.49-3.92,3.42-1.31,11.54,1.3,15,3.56,4.7,8,3,8.73-2.52C254.12,110.28,254.48,101.48,249.91,98.17Zm-1.69,17.52c-1.54-.48-2.68-5-2.95-6.34-.41-2.15.14-4.39-.53-6.44a1,1,0,0,0,.33-.33c.27-.91.88-1,1.84-.36,1.27-.15,1.91.41,1.93,1.7a11.3,11.3,0,0,1,.62,3.6C249.61,108.81,250.38,116.37,248.22,115.69Z"/></g></g><path id="Path_37886" data-name="Path 37886" class="cls-6" d="M795.06,511.1c3.05,6.33,8,15.11,12.7,17.35,5.38,2.54,17.83-2.51,26.6-9-8.49,62.74-20.42,117.17-20.42,117.17h-13S798.77,574.36,795.06,511.1Z"/></g></g></svg>