<svg xmlns="http://www.w3.org/2000/svg" xmlns:xlink="http://www.w3.org/1999/xlink" viewBox="0 0 1100 700"><defs><style>.cls-1{isolation:isolate;}.cls-2{fill:url(#radial-gradient);}.cls-3{fill:#fbd9ec;}.cls-4{fill:#0e2050;}.cls-5{fill:#ff6161;}.cls-6{fill:#dadada;}.cls-7{fill:#b2b2b2;}.cls-8{fill:#36a9e1;}.cls-9{fill:#2a214f;}.cls-10{fill:#fff;}.cls-11{fill:#e6007e;}.cls-12{fill:#662483;}.cls-13{mix-blend-mode:color-dodge;fill:url(#_5);}.cls-14{fill:#ad263d;}</style><radialGradient id="radial-gradient" cx="6.89" cy="-1046.91" r="236.43" gradientTransform="translate(426.68 748.75) scale(0.89 0.13)" gradientUnits="userSpaceOnUse"><stop offset="0" stop-color="#b2b2b2"/><stop offset="1" stop-color="#fff" stop-opacity="0"/></radialGradient><linearGradient id="_5" x1="290.6" y1="670.51" x2="323.92" y2="675.81" gradientTransform="translate(6.82 -382.8) rotate(-19.42)" gradientUnits="userSpaceOnUse"><stop offset="0" stop-color="#4d4d4d"/><stop offset="1"/></linearGradient></defs><title>2789 Website–Key Features–V1B</title><g class="cls-1"><g id="Layer_1" data-name="Layer 1"><ellipse class="cls-2" cx="432.81" cy="615.3" rx="210.29" ry="30.14"/><path class="cls-3" d="M718.78,223.77c-64.08-69.47-253.16-129-360-4.57S283.31,564.7,563.65,564.7C775.35,564.7,782.86,293.25,718.78,223.77Z"/><path class="cls-4" d="M439.45,175.77c-6.61,2.49-7.85,8.26-5.63,13.94,6.1,15.58,25.55,51.67,62.51,74.36,47.87,29.37,95.77-12,99.34-32.77s-8-18.55-18.2-18.9c-14.59-.5-38.84,12.71-63.75,12.1-19.49-.47-51.25-35.6-62.78-47.23C447.72,174,442.34,174.68,439.45,175.77Z"/><path class="cls-5" d="M459.25,591.82a6.28,6.28,0,0,1,6.45,4.86,10.33,10.33,0,0,0,1.25,3.16c.91,1.47,3.61,2.58,7.34,4.16,1.74,1.53,3.45,3.5,1.54,4.09-3.27,1-22.4.89-24.18-2.26a8.4,8.4,0,0,0-2.19-2.54,19.14,19.14,0,0,0,2.68-5.75,7.76,7.76,0,0,1,7.05-5.72Z"/><path class="cls-4" d="M451.65,605.83c1.78,3.15,20.91,3.28,24.18,2.26,1.91-.59.2-2.56-1.54-4.09,5.88,3,13.15,7,13.39,9,.4,3.34-34.42,3-40.18-.29-3-1.71-.87-5.31,2-9.38A8.4,8.4,0,0,1,451.65,605.83Z"/><path class="cls-5" d="M395.68,591.82a6.29,6.29,0,0,1,6.45,4.86,10.3,10.3,0,0,0,1.24,3.16c.92,1.47,3.62,2.58,7.34,4.16,1.75,1.53,3.45,3.5,1.54,4.09-3.26,1-22.4.89-24.17-2.26a8.43,8.43,0,0,0-2.2-2.54,19.14,19.14,0,0,0,2.68-5.75,7.78,7.78,0,0,1,7.05-5.72Z"/><path class="cls-4" d="M388.08,605.83c1.77,3.15,20.91,3.28,24.17,2.26,1.91-.59.21-2.56-1.54-4.09,5.89,3,13.16,7,13.4,9,.39,3.34-34.42,3-40.18-.29-3-1.71-.87-5.31,1.95-9.38A8.43,8.43,0,0,1,388.08,605.83Z"/><path class="cls-4" d="M418.49,140.48s-2.49-13.34-13.85-15-14.05,11.07-11.92,18.31-.56,9.21-.56,9.21-8.37-4-12,3.65c-4.1,8.66,7.42,17.25,19.77,15.79s18.63-19.65,18.56-23.94S418.49,140.48,418.49,140.48Z"/><path class="cls-4" d="M380.16,156.61c3.63-7.66,12-3.65,12-3.65s2.69-2,.56-9.21a18.63,18.63,0,0,1-.58-6.69,15.08,15.08,0,0,0,6.17,7.29c6.07,3.85,16.48,2,20.17-3.6,0,.88-.06,4.07,0,7.71.07,4.29-6.21,22.48-18.56,23.94S376.06,165.27,380.16,156.61Z"/><path class="cls-6" d="M500.27,324.2c-.93-20.86-14.5-27.95-21.52-48.65-.89-2.64-7.18-21-8-23.55-12.86-39.87-51.82-35.49-55.89-15.36-1.91,9.45-10.64,16.79-19.61,27.7-14.1,16.67-20.92,37.28-21.83,59-.68,16.15,3.92,203.87-1.36,269.67-.62,7.62,30.55,5.34,30.55,5.34,7.39.54,10.14-6.52,11.29-13.84,8.31-52.73,25.16-227.85,25.16-227.85,10.86,23.73-.7,166.21-5.24,217-.86,9.65-.76,23.31,8.93,23.31l27.47,1.39c2.42.17,3.15-6.89,3.63-9.27C479.38,561.72,509.62,406.48,500.27,324.2Z"/><path class="cls-7" d="M473.85,589c5.53-27.31,35.77-182.55,26.42-264.83a43,43,0,0,0-5.61-19.56,45.23,45.23,0,0,0-13.46,29.3c-2.52,32.93-1.95,108.67-7.88,133.09s-11.2,62.28-14.48,90.35c-1.38,11.79-10.9,28.79-10.09,39.83l21.47,1.09C472.64,598.47,473.37,591.41,473.85,589Z"/><path class="cls-8" d="M500.81,329.46c-3.45-59.61-15.77-65.28-35.87-110.89-6.9-15.65,0-29.46-12.38-40.11s-28.9-14.09-46.61-4.37c-21.51,11.81,10.54,42.42,6.47,62.55-1.91,9.45-10.05,15.3-22.72,30.64-7.46,9-24.83,49.72-16.33,57.84C398.88,349.49,501,332.31,500.81,329.46Z"/><path class="cls-4" d="M426.92,170.11s-5.59-5.37-10.33-.58,4.43,17.38,8.2,30.38,17.68,37.32,24.8,34.86C461.46,230.66,444.64,189.89,426.92,170.11Z"/><path class="cls-4" d="M431.14,148.43s1.22-6.84-3.58-10.92-10.18-5.26-15.71-2-6.76,24.33,5.5,25.64S431.14,148.43,431.14,148.43Z"/><path class="cls-5" d="M417.53,156.22l-.18,15c0,2.47,6.07,8.82,10,5.69,1.14-.91-.36-4.31-1.44-6.88l-2.94-12.9Z"/><path class="cls-9" d="M424.69,164.81c-3.23-1-6.46-5.82-6.46-5.82h5.13Z"/><path class="cls-5" d="M428.27,144.35a7.22,7.22,0,0,0-1.47-1.81c-1.06,1.89-2.89,4.73-4.76,5.76a9.45,9.45,0,0,1-5,1.4h0l-.42,2.66a8.63,8.63,0,0,0,6.77,9.91c4.2.75,8.26-1.67,8.88-7C432.84,150.56,429.48,146.48,428.27,144.35Z"/><path class="cls-4" d="M476.23,334.66c14.59-2,24.63-4.3,24.58-5.2-2.53-43.74-9.84-58.44-21.5-81.19a175,175,0,0,1,.86,31.08C478.81,300.55,477.23,321.77,476.23,334.66Z"/><path class="cls-5" d="M417.7,152.14a6.93,6.93,0,0,1-.38-1.49c-.16-1-.62-2.35-1.93-1.42-1.91,1.36-.79,6.44,1.65,6.45C418.85,155.68,418.17,153.34,417.7,152.14Z"/><path class="cls-5" d="M429.58,150a7.12,7.12,0,0,0,0-1.53c-.07-1,.06-2.44,1.55-1.83,2.17.89,2.24,6.1-.14,6.65C429.27,153.7,429.4,151.27,429.58,150Z"/><path class="cls-10" d="M424.28,154.82a51.62,51.62,0,0,0,6-.54,3.32,3.32,0,0,1-2.53,1.59A4.76,4.76,0,0,1,424.28,154.82Z"/><path class="cls-11" d="M766.83,270.46a13.35,13.35,0,1,0-19-18.76l-12.77,12.93-48.51-47.91a49.68,49.68,0,1,0-18.76,19L753.09,320a13.35,13.35,0,0,0,18.88-.12l22.14-22.42a13.35,13.35,0,0,0-19-18.77l-12.77,12.93-8.28-8.18ZM627,208.94a23,23,0,1,1,32.49-.2A23,23,0,0,1,627,208.94Z"/><path class="cls-12" d="M627,208.94a23,23,0,0,1-4-27.43c-1.79,1-13.65,17.54-.44,30.58,14,13.84,30.9,2.29,31.9.48A23,23,0,0,1,627,208.94Z"/><path class="cls-12" d="M669.25,166.14a49.76,49.76,0,0,1,8.52,59.47l48.52,47.91,8.78-8.89-48.51-47.91a49.68,49.68,0,0,0-78.77-59,49.07,49.07,0,0,0-4.11,4.72A49.74,49.74,0,0,1,669.25,166.14Z"/><rect class="cls-12" x="747.57" y="286.1" width="12.5" height="11.65" transform="translate(16.42 623.15) rotate(-45.36)"/><path class="cls-12" d="M775.12,278.64l-8.78,8.9a13.35,13.35,0,1,1,19,18.76l8.78-8.89a13.35,13.35,0,0,0-19-18.77Z"/><path class="cls-12" d="M747.84,251.7l-8.79,8.89a13.35,13.35,0,0,1,19,18.76l8.78-8.89a13.35,13.35,0,1,0-19-18.76Z"/><path class="cls-7" d="M563.43,60.63a83.79,83.79,0,1,0,55.73,158c19.36-6.83,34.46-18.66,44.39-36.6a20.9,20.9,0,0,0-3-4.67,16.77,16.77,0,0,0-5.91-4.72c-8.45,15.27-23.11,28.39-39.59,34.2a71.29,71.29,0,1,1,43.53-90.94,67.08,67.08,0,0,1,3.72,30.81c2.43,1.06,3.31,1.53,5.43,2.65a55.72,55.72,0,0,1,6.16,4.15l.74-4.56a83,83,0,0,0-4.27-37.21A83.87,83.87,0,0,0,563.43,60.63Z"/><path class="cls-11" d="M708.14,412.75a13.35,13.35,0,0,0-8.88-25.18l-17.13,6L634.56,258.72a49.67,49.67,0,1,0-25.18,8.88l64.76,183.64a13.33,13.33,0,0,0,17,8.15l29.72-10.48A13.35,13.35,0,0,0,712,423.73l-17.13,6-3.87-11ZM584.39,225.67a23,23,0,1,1,29.31,14A23,23,0,0,1,584.39,225.67Z"/><path class="cls-12" d="M584.39,225.67a23,23,0,0,1,8.43-26.41c-2.07.13-20,9.81-13.78,27.31,6.55,18.57,26.79,15.58,28.48,14.38A23,23,0,0,1,584.39,225.67Z"/><path class="cls-12" d="M641.12,205.67a49.75,49.75,0,0,1-18.35,57.2l47.57,134.9,11.79-4.16L634.56,258.72a49.68,49.68,0,0,0-45-87.54,51.88,51.88,0,0,0-5.76,2.45A49.75,49.75,0,0,1,641.12,205.67Z"/><rect class="cls-12" x="680.8" y="420.54" width="12.5" height="11.65" transform="translate(-102.68 252.74) rotate(-19.42)"/><path class="cls-12" d="M712,423.73l-11.78,4.16a13.35,13.35,0,0,1,8.88,25.18l11.78-4.16A13.35,13.35,0,0,0,712,423.73Z"/><path class="cls-12" d="M699.26,387.57l-11.78,4.16a13.35,13.35,0,0,1,8.87,25.18l11.79-4.16a13.35,13.35,0,0,0-8.88-25.18Z"/><path class="cls-11" d="M617.51,429.19a13.35,13.35,0,0,0-3.21-26.5l-18,2.18-17.19-142a49.67,49.67,0,1,0-26.51,3.21L576,459.4a13.35,13.35,0,0,0,14.85,11.65l31.29-3.79a13.35,13.35,0,0,0-3.2-26.51l-18,2.19-1.4-11.56ZM537.26,219.73a23,23,0,1,1,25.57,20.05A23,23,0,0,1,537.26,219.73Z"/><path class="cls-12" d="M537.26,219.73a23,23,0,0,1,13.94-23.95c-2-.32-21.59,5.25-19.36,23.67,2.37,19.55,22.77,21,24.68,20.22A23,23,0,0,1,537.26,219.73Z"/><path class="cls-12" d="M597,212.51a49.75,49.75,0,0,1-30.31,51.86l17.19,142,12.41-1.5-17.19-142a49.68,49.68,0,0,0-31.13-94.07A49.74,49.74,0,0,1,597,212.51Z"/><rect class="cls-12" x="587.72" y="432.08" width="12.5" height="11.65" transform="translate(-48.33 74.57) rotate(-6.9)"/><path class="cls-12" d="M618.91,440.75l-12.41,1.5a13.35,13.35,0,1,1,3.21,26.51l12.4-1.5a13.35,13.35,0,0,0-3.2-26.51Z"/><path class="cls-12" d="M614.3,402.69l-12.41,1.5a13.35,13.35,0,1,1,3.21,26.5l12.41-1.5a13.35,13.35,0,0,0-3.21-26.5Z"/><path class="cls-7" d="M567.59,72.41l-4.16-11.78A83.82,83.82,0,0,0,582.27,223a23.19,23.19,0,0,0-.22-12.62,70.3,70.3,0,0,1-7.74-1.45,71.3,71.3,0,0,1-6.72-136.49Z"/><path class="cls-13" d="M582.88,58.35s-22,.51-49.64,23.23-25.85,58.65-23.82,69.53,7.06,36.67,33.48,55.66c0,0,18.08,13.25,33.3,13.28,0,0-34.51-14.32-53.91-49.53C505.55,140.13,521.59,75.44,582.88,58.35Z"/><path class="cls-14" d="M423.91,160.4c1.73,0,4.8-.64,6.06-1.69A11.61,11.61,0,0,0,432.3,155c0,.09,0,.18,0,.26-.62,5.32-4.68,7.74-8.88,7a8.29,8.29,0,0,1-6.09-4.87A10.71,10.71,0,0,0,423.91,160.4Z"/><path class="cls-8" d="M407,177.65c-6.61,2.49-7.85,8.26-5.63,13.94,6.1,15.58,25.55,51.67,62.52,74.36,47.86,29.37,95.76-12,99.33-32.77s-8-18.55-18.2-18.9c-14.59-.5-38.84,12.71-63.75,12.1-19.48-.47-51.25-35.6-62.78-47.23C415.24,175.9,409.86,176.56,407,177.65Z"/><path class="cls-7" d="M415,426.36c-1.88,41.46-17.11,123.22-18.82,137.45-1.09,9-.8,24.56-.44,34.78,4-.08,6.84-.29,6.84-.29,7.39.54,10.14-6.52,11.29-13.84,8.31-52.73,25.16-227.85,25.16-227.85S416.9,384.9,415,426.36Z"/><path class="cls-4" d="M405.31,178.46c8.87,17.89,27.48,46.13,58.35,65.08,43.28,26.56,86.58-4.75,97.11-26.32,2.7,2.48,3.94,7.14,2.42,16-3.57,20.74-51.47,62.14-99.33,32.77-37-22.69-56.42-58.78-62.52-74.36C399.33,186.44,400.21,181.24,405.31,178.46Z"/><path class="cls-10" d="M456.9,462.24s-1.49,5,5.81,7.41,8.1,2.51,14.83,1.72,12.32-8,12.32-8Z"/><path class="cls-5" d="M456.9,462.24s22.47-1.83,33,1.14C489.86,463.38,480.4,474.79,456.9,462.24Z"/><path class="cls-10" d="M389.36,462.24s-1.48,5,5.82,7.41,8.1,2.51,14.83,1.72,12.32-8,12.32-8Z"/><path class="cls-5" d="M389.36,462.24s22.48-1.83,33,1.14C422.33,463.38,412.86,474.79,389.36,462.24Z"/><path class="cls-5" d="M557.7,212.17a30.76,30.76,0,0,0,2.48-3.42c.52-1,.74-4.35,1.85-4.47s1.23,4.48,1.58,6c.32,1.36,6.51-5.28,7.14-4a17.16,17.16,0,0,1,1.13,8.43c-.19,1.39-1.63,4.33-6.85,6.39S552,218.37,557.7,212.17Z"/></g></g></svg>