<svg id="Layer_1" data-name="Layer 1" xmlns="http://www.w3.org/2000/svg" xmlns:xlink="http://www.w3.org/1999/xlink" viewBox="0 0 1100 700"><defs><style>.cls-1{fill:url(#radial-gradient);}.cls-2{fill:url(#radial-gradient-2);}.cls-3{fill:#d5e7ea;}.cls-4{fill:#2e88bf;}.cls-5{fill:#f9b233;}.cls-6{fill:#e94e1b;}.cls-7{fill:#0e2050;}.cls-8{fill:#f4af76;}.cls-9{fill:#efefef;}.cls-10{fill:#9d9d9c;}.cls-11{fill:#2c8796;}.cls-12{fill:#36a9e1;}.cls-13{fill:#95c3ca;}.cls-14{fill:#e6007e;}.cls-15{fill:#614cd4;}.cls-16{fill:#311e69;}.cls-17{fill:#ff6161;}.cls-18{fill:#fff;}.cls-19{fill:#1e1240;}.cls-20{fill:#d60b52;}.cls-21{fill:#ad263d;}.cls-22{fill:#851d43;}.cls-23{fill:#c6c6c6;}</style><radialGradient id="radial-gradient" cx="134.37" cy="-908.27" r="236.43" gradientTransform="translate(220.37 748.75) scale(1.37 0.13)" gradientUnits="userSpaceOnUse"><stop offset="0" stop-color="#b2b2b2"/><stop offset="1" stop-color="#fff" stop-opacity="0"/></radialGradient><radialGradient id="radial-gradient-2" cx="381.78" cy="-967.58" r="236.43" xlink:href="#radial-gradient"/></defs><title>2789 Website–Key Features–V1B</title><ellipse class="cls-1" cx="405.08" cy="632.97" rx="325.02" ry="30.14"/><ellipse class="cls-2" cx="745.19" cy="625.41" rx="325.02" ry="30.14"/><path class="cls-3" d="M359.29,482c64.07,69.47,253.16,129,360.05,4.57s75.42-345.5-204.92-345.5C302.72,141.08,295.21,412.54,359.29,482Z"/><path class="cls-4" d="M728.25,170.29c-6.29-5.91-23-4.83-38.9,15.69s-29.86,45.59-34.88,46.27c-9.62,1.3-72.62-61-83.24-52.92-15.1,11.52,17,83.43,65.83,99.87C690.87,297.33,749.68,190.41,728.25,170.29Z"/><rect class="cls-5" x="383.78" y="63.08" width="280.87" height="154.52"/><path class="cls-6" d="M577.47,200s-11.36-1-20.67-4.62-28.58.33-45.72,4.29S488.35,197,476.82,194s-23.39,4.65-43.82,11.57-17.13-2.31-29.65-5.6c-7.49-2-14.85,2.28-19.57,6V217.6H584.49Z"/><rect class="cls-6" x="570.86" y="63.08" width="93.79" height="154.52"/><rect class="cls-7" x="613.53" y="63.08" width="8.46" height="154.52"/><rect class="cls-7" x="469.88" y="63.08" width="8.46" height="154.52"/><rect class="cls-8" x="507.58" y="80.05" width="54.33" height="38.29"/><rect class="cls-9" x="506.67" y="79.13" width="54.33" height="38.29"/><rect class="cls-10" x="514.75" y="91.05" width="38.17" height="1.83"/><rect class="cls-10" x="514.75" y="97.36" width="38.17" height="1.83"/><rect class="cls-10" x="514.75" y="103.66" width="38.17" height="1.83"/><path class="cls-11" d="M437.34,179.39V172.9S506.39,207.38,519,274.62,464,367.15,464,367.15Z"/><path class="cls-7" d="M466.21,620.58c3.23-5,4.07-10.36,4.4-14.8l16.4-.26s-1,5.64,1.81,10c1.23,1.9,4.77,3.27,9.66,5.23,7.74,3.82,17.3,8.74,17.67,11.36.62,4.37-44.61,5-52.2.86C460,630.8,462.66,626,466.21,620.58Z"/><path class="cls-7" d="M318.14,621.77c3.24-4.95,4.08-10.36,4.41-14.8l16.39-.27s-1,5.65,1.81,10c1.24,1.89,4.78,3.27,9.67,5.23,7.74,3.81,17.3,8.74,17.67,11.36.62,4.36-44.61,5-52.2.85C311.92,632,314.6,627.19,318.14,621.77Z"/><path class="cls-12" d="M339.19,360.48c2.41-15.15,4.25-52.22,5.39-63.23.14-1.27.21-2.52.24-3.77,43.49,5,86.17-6,96.35-8.91a59.16,59.16,0,0,0,9.95,23.1c19,26.53,49.38,288,37.95,301.84-5.5,6.63-24.07,11.11-31.34,3.61-25.9-26.71-50.87-228.67-50.87-228.67C405.1,391.59,384.34,522.25,353,614c-2.6,7.6-32.65,6.08-33.7-3.75C314.72,567.08,333.31,397.49,339.19,360.48Z"/><path class="cls-7" d="M388,367.15c-9.92-1.21-5.71,11.13-9.62,24s-9,33.8-19.26,74.72-1.81,49-11.74,82.64-6.92,37.71-16.24,51.32a28.5,28.5,0,0,0-5.34,16.69c9.26,3.69,25.36,2.94,27.23-2.53,31.32-91.71,52.08-222.37,53.84-229.51,0,0,.41,3.35,1.19,9.23.37-5.2.62-8.9.71-10.59C409.36,370.76,397.92,368.35,388,367.15Z"/><path class="cls-7" d="M457.73,613.12c7.27,7.5,25.84,3,31.34-3.61,8.38-10.12-5.7-153.31-21.3-239.51l-47.6,50.26s24.84,28.58,24.39,54.5c-.31,17.91-10.1,35.9-16.13,45.32C437,563.1,447.29,602.35,457.73,613.12Z"/><path class="cls-13" d="M477.15,408.33c12.72-137.13-8.65-180.62-16.21-201.14-9.78-26.5-20.45-52.29-85.66-35.07-20.39,5.38-52.63,22.06-49.94,43,1.66,12.93,14.38,58.44,15,78.38.69,23.2-11.25,78.86-13.74,91.84-4.52,23.56,50,27.24,79.48,33.24C437.55,425,476.71,413.07,477.15,408.33Z"/><path class="cls-14" d="M460.94,207.19c-1.25-3.37-2.5-6.73-3.89-10-68.67-7.49-111.34,20.49-128.29,34.84,3.44,15.19,8.4,35.81,10.53,50.9,32.18-14,114.88-24.25,136-26.7C470.7,230.67,464.38,216.54,460.94,207.19Z"/><path class="cls-15" d="M397.59,137.76s-.88-2.34-6.8-4.11a34.26,34.26,0,0,0-13.11-.9c-4.17.76-15.38,5.07-11.85,12.7.67,1.46,3.08,3.89,6,2.3,0,0,1.14,14.59,11.2,14.08S397.72,140.66,397.59,137.76Z"/><path class="cls-16" d="M390.79,133.65a35.85,35.85,0,0,0-9.73-1.18c2.44.71,6.44,2.09,7.65,3.77,1.77,2.46,5,13.54,5,13.54l.18,1.44c2.55-5.74,3.75-12,3.69-13.46C397.59,137.76,396.71,135.42,390.79,133.65Z"/><path class="cls-16" d="M400.79,143.43s1-2.71.08-4.53-2.77-3.81-5.11-3-6.75,3.2-9,6.07-7.75,10.79-8.06,14.59,5.12,8.49,10.23,6.06C395.29,159.67,399.71,146.62,400.79,143.43Z"/><path class="cls-17" d="M382.93,153.72l-4.85,24.08c.39,3.25,19,10,23.63,5.24,1.35-1.39.53-4.45-1.32-7.64l-10.77-17.29Z"/><path class="cls-16" d="M391.78,161.58c-3.66-.17-8.67-.47-8.67-.47a15.63,15.63,0,0,0,6.59,9.31,15,15,0,0,0,9.12,2.45Z"/><path class="cls-17" d="M386.59,145.51l-3.4,13.21a8.31,8.31,0,0,0,6.52,9.59c3.53.72,5.78.58,10.18-.24,3.67-.69,5.34-4.36,5-9.2A45.13,45.13,0,0,0,401,143.93C398,137.16,389.44,137.07,386.59,145.51Z"/><path class="cls-16" d="M383.19,158.72l2.85-14c.35-1,1.34-1.16,1.84-1.94,0,2.6.31,8.2,1.07,9.1,2,2.3,1.68.09,6-.32,2.76-.26,6.65.77,9.12,1.56a38,38,0,0,1,.84,5.73c.31,4.84-1.36,8.51-5,9.2-4.4.82-6.65,1-10.18.24A8.31,8.31,0,0,1,383.19,158.72Z"/><path class="cls-18" d="M394.94,154.44a22.42,22.42,0,0,0,7.4-.25s.3,2.81-1.35,3.9S396.18,157.74,394.94,154.44Z"/><path class="cls-19" d="M400.73,163.18c-4.19-.56-6.93,5.91-14.66.44-1.45-1-2.34-3.63-2.81-5.19l-.07.29a8.31,8.31,0,0,0,6.52,9.59c3.53.72,5.78.58,10.18-.24a5.79,5.79,0,0,0,4.48-4.18C403.64,164.06,402,163.36,400.73,163.18Z"/><path class="cls-17" d="M387.28,150.72a11.73,11.73,0,0,1-.39-2.5c-.11-1.6-.63-4-2.94-2.63-3.34,1.92-2.89,9.72,1.11,10.11C388,156,387.86,152.77,387.28,150.72Z"/><path class="cls-13" d="M341.5,187.9c-33.4,15.34-94.17,38.43-97.78,114.18-2.87,60.27,67.43,105.63,94.51,94.8,8.55-3.42,13.43-17.05,5.46-27.48-17.26-22.58-50.1-51.87-47.16-72.52,3.17-22.34,58.26-46.63,68.62-68.29S352,183.07,341.5,187.9Z"/><path class="cls-7" d="M333.43,252.56c2.78,12.49,5.43,25.45,6.45,35.1,13.64-15.86,24.34-56.81,24.34-56.81Z"/><path class="cls-7" d="M470.07,233.41l17.52,55.51,11.73-11.74-7.75,16.3,12-3.36s-8.17,13.84-15.34,22a39.33,39.33,0,0,1-15.35,10.84S460.39,268.18,470.07,233.41Z"/><path class="cls-11" d="M365.15,228.59c4.13-8.63,2.87-17.61-.79-25-2,9.15-8.94,22.45-29.47,32.2-50.4,23.92-65,95.23-31.14,114.19a134,134,0,0,1,42.58,38.26,19,19,0,0,0-2.64-18.86c-17.26-22.58-50.1-51.87-47.16-72.52C299.7,274.54,354.79,250.25,365.15,228.59Z"/><path class="cls-17" d="M340.91,385.39s10-12.54,12-13,11.06.79,13.13,1.58.89,3.85.6,3.95a13.81,13.81,0,0,0-2.27,1.6c-.1.17-1.09,8.17-3.16,10s-11.85,4.64-14.51,3.06S340.91,385.39,340.91,385.39Z"/><path class="cls-11" d="M436.13,171.68c3.22,12.32,7.13,30.09,5.65,39-2.4,14.55,13.16,32.3,18.58,52.61s7.22,23.47-1.36,41.52,3.61,25.73,3.16,56-5.41,20.76-20.76,42.87c-5.43,7.83-7,13-6.79,16.41,22.6-1.52,42.22-8.44,42.54-11.78,12.72-137.13-8.65-180.62-16.21-201.14-1.9-5.15-5.33-17.71-7.69-22.5l-6.89-5.18A36.86,36.86,0,0,0,436.13,171.68Z"/><path class="cls-20" d="M458.74,201.4c-.42-1.08-.85-2.15-1.29-3.2-.13-.34-.27-.67-.42-1q-8.11-.88-15.75-1.13c.8,5.72,1.12,11,.5,14.66-2.19,13.33,10.67,29.34,17,47.54,7-.91,12.78-1.59,16.55-2-.13-.73-.27-1.45-.4-2.16,0-.09,0-.17-.05-.26-.13-.66-.25-1.32-.38-2,0-.14-.06-.28-.08-.41-.13-.63-.26-1.24-.38-1.85l-.09-.44-.39-1.79-.09-.41-.39-1.76c0-.12,0-.23-.08-.34-.14-.61-.28-1.2-.42-1.79l0-.18c-1.1-4.6-2.23-8.75-3.36-12.48a1.09,1.09,0,0,0-.05-.17c-.14-.48-.29-.94-.43-1.41,0-.08,0-.16-.07-.24l-.42-1.33a2.41,2.41,0,0,1-.08-.25l-.42-1.28c0-.08-.05-.17-.08-.26l-.42-1.24-.06-.19c-.14-.43-.29-.85-.43-1.27v0c-.94-2.74-1.86-5.22-2.71-7.47l0-.1c-.14-.35-.27-.7-.4-1l0-.09q-.21-.53-.39-1l0-.06c-.33-.88-.66-1.73-1-2.54l-.1-.25c-.08-.22-.17-.44-.25-.65s-.1-.28-.16-.42l-.24-.63-.12-.34c-.12-.32-.24-.63-.35-.94l-1.65-4.4C459.11,202.32,458.92,201.86,458.74,201.4Z"/><path class="cls-16" d="M762.67,151.94s3.1-.57,1.8-5.22-3-17-11.26-17.93S741,130.5,739.84,134s3,6,4.75,6.85S762.67,151.94,762.67,151.94Z"/><path class="cls-11" d="M631,445.3c5.76-73.11,40.48-126.08,52.11-149.48,5-13.15,108.13,22.35,110,27.49,18.14,50.73-5.82,117.63.07,147.21,2.48,12.4,57.13,100.42,52.87,123.88-1.37,7.53-10.65,6.33-17.69,2.55-49.37-26.49-79.9-80.55-85.62-96.63-13.16-37-12.33-140.68-27.17-113.09-2.58,4.8-26.68,71-26.68,77.64,0,21.34,17.32,153.17-.16,153.17C658.78,618,628.87,472.54,631,445.3Z"/><path class="cls-7" d="M631,445.3c4.61-58.54,27.78-104.14,42.81-132-5.39,38.23-13.24,91.44-17.87,111.25-7.54,32.33,18.95,142,23.68,161.77,2.59,10.81,2.22,20.24-.51,27C652.74,588.2,629.1,469.62,631,445.3Z"/><path class="cls-7" d="M742.73,500.32c-9.82-27.64-11.85-92.37-18.42-112,8.17,9,29.68,35.41,29.7,65.32,0,36.91,35.94,80.51,49,97.14s33.06,41,30.4,48.24a27.86,27.86,0,0,1-5.06-2.1C779,570.46,748.45,516.4,742.73,500.32Z"/><path class="cls-12" d="M815.24,197.08c-13.41-37.07-75-38.32-94.37-32.49-13.21,4-23.13,38.06-25,63.56-3.06,41.6-42.63,90.4-38.39,108.11,8.55,35.67,95,70.27,142.09,47.75C820.61,373.94,819.52,208.93,815.24,197.08Z"/><path class="cls-7" d="M665.1,278.44c6.26-22.44,39-90,39-90,5.65,13,4.77,36,2.21,56.88C694.7,260.31,680.31,273,665.1,278.44Z"/><path class="cls-4" d="M695.86,228.15c1.88-25.5,11.8-59.58,25-63.56,6.06-1.83,16.28-3,27.86-2.51-4.05,9.15-15.57,36.19-19.31,55.57-4.57,23.65-13.24,87.87-30.87,107.41-8.77,9.7-17.76,23.35-24.6,34.62-8.58-7.32-14.54-15.34-16.48-23.42C653.23,318.55,692.8,269.75,695.86,228.15Z"/><path class="cls-7" d="M689.2,256.76l75.89,2.57s-20.37,27.74-59.56,28.14c-13.35.14-22.75-.27-29.36-.86A294.19,294.19,0,0,0,689.2,256.76Z"/><path class="cls-12" d="M814.54,197.49c-2,32.74-51.77,73.4-102.33,82.77-58.49,10.83-109.61-76.59-84-97.93,11-9.13,54.88,58.09,78.55,58.72,9.9.26,49-33.66,69.88-43.39S815.13,187.63,814.54,197.49Z"/><path class="cls-4" d="M814,201.79c-12.48,5.61-30.6,14.75-36.21,22.7-8.83,12.51.7,18-24.61,25.66S712.29,266,698.56,266.68s-40.87-25.33-49.21-36.84c-7.63-10.54-11.91-39.45-20.46-47.93a3.64,3.64,0,0,0-.63.42c-25.66,21.34,25.46,108.76,84,97.93C760.58,271.3,808.23,233.7,814,201.79Z"/><path class="cls-17" d="M634.29,181.14s-4-6.76-4.27-8.92,3.39-7.08,1.47-8-5.41,4.16-6.17,6.71-15.58-9.73-17.55-7.78,0,7.59-.65,10.17-.09,7.09,8,14.08S640.68,195.9,634.29,181.14Z"/><path class="cls-17" d="M761.29,145.73l8.44,23.88c.09,3.49-18.5,13.47-24.08,9.15-1.63-1.26-1.24-4.61.22-8.26l8.69-19.86Z"/><path class="cls-16" d="M752.81,154.63c3.83-.74,9.06-1.83,9.06-1.83a16.59,16.59,0,0,1-5.51,10.82,15.92,15.92,0,0,1-9.22,4Z"/><path class="cls-17" d="M755.81,136.9l5.62,13.39A8.86,8.86,0,0,1,756,161.4c-3.61,1.3-6,1.5-10.76,1.31-4-.16-6.29-3.77-6.71-8.92a48.25,48.25,0,0,1,1.8-16.33C742.5,129.86,751.51,128.45,755.81,136.9Z"/><path class="cls-17" d="M756.2,143.75a12.73,12.73,0,0,0,0-2.69c-.13-1.7.06-4.27,2.69-3.23,3.82,1.52,4.05,10.64-.11,11.67C755.72,150.26,755.91,146,756.2,143.75Z"/><path class="cls-18" d="M747.67,147.63a23.88,23.88,0,0,1-7.83.88,3.06,3.06,0,0,0,1.95,2.46C743.69,151.86,746.87,151.3,747.67,147.63Z"/><path class="cls-21" d="M743.63,157.69c4.33-1.24,8.21,5.16,15.52-1.79,1.36-1.3,1.9-4.19,2.16-5.9l.12.29A8.86,8.86,0,0,1,756,161.4c-3.61,1.3-6,1.5-10.76,1.31a6.16,6.16,0,0,1-5.36-3.71C740.7,159.06,742.31,158.07,743.63,157.69Z"/><path class="cls-7" d="M698.22,615.77c-2.71-3.64-2.3-6.75-2.2-10a3.73,3.73,0,0,0-3.13-3.74c-6.79-1.17-22.78-3.52-23.91.22-.23.78,6.46,9,6,9.78-1.14,2-4.64,3.61-9.46,5.9-7.6,4.34-17,9.93-17.19,12.6-.36,4.46,45.48,2.26,52.91-2.38C705.15,625.74,702.15,621,698.22,615.77Z"/><path class="cls-7" d="M851.59,605c-2.66-3.57-3.82-10.82-3.73-14a3.66,3.66,0,0,0-3.07-3.68c-6.67-1.15-21.75,1.89-22.85,5.57-.24.77,7.28,7.71,6.86,8.45-1.11,2-4.55,3.54-9.29,5.79-7.46,4.27-16.67,9.76-16.88,12.38-.35,4.38,44.67,2.22,52-2.34C858.4,614.83,855.45,610.22,851.59,605Z"/><path class="cls-21" d="M765.39,148A1.08,1.08,0,0,1,764,148c-2.41-1.92-9.19-9.69-16.62-10.39a11.55,11.55,0,0,0-6.58,1.41,1.22,1.22,0,0,1-1.66-.83c-.68-2.53-1.56-7.61,1.5-10,0,0,2.6-9.16,12-11.35,6.31-1.48,17.56,4.29,16.46,7.85a14.67,14.67,0,0,1-2.54,5.16S771.83,143.07,765.39,148Z"/><path class="cls-22" d="M740.68,128.16s2.6-9.16,12-11.35c2.89-.68,6.81.18,10.11,1.63-3.34,2.29-12.35,8.69-11.86,11,0,0-6,2.1-5,8.18a12.79,12.79,0,0,0-5.06,1.39,1.22,1.22,0,0,1-1.66-.83C738.5,135.64,737.62,130.56,740.68,128.16Z"/><path class="cls-12" d="M766.59,160.72s-8.53,6.17-18.09,3.76c0,0-6.73,5.15-6.2,10.38s4.13,9.13,9.92,8,19.75-8.85,19.34-12.48S771.39,158.19,766.59,160.72Z"/><path class="cls-7" d="M730.1,386.82,800,373.6c-.12,6.16-.48,12.32-1,18.4C788.43,394.65,752.82,402,730.1,386.82Z"/><path class="cls-23" d="M689.08,352.37c19.73,16.31,67.25,26.38,87.58,24.36a101.48,101.48,0,0,0,31.52-8.7c-2.34,8.55-5.19,14.34-8.62,16C752.5,406.53,666,371.93,657.47,336.26c-1.05-4.41.61-10.76,3.75-18.44C667.42,328.12,677.39,342.71,689.08,352.37Z"/></svg>