<svg id="Layer_1" data-name="Layer 1" xmlns="http://www.w3.org/2000/svg" viewBox="0 0 1100 700"><defs><style>.cls-1{fill:#e5007e;}.cls-2{opacity:0.2;}.cls-3{fill:#0e2050;}.cls-4{fill:#007f5d;}.cls-5{fill:#ef8281;}.cls-6{fill:#00936e;}.cls-7{fill:#272d64;}.cls-8{fill:#35a8e0;}.cls-9{opacity:0.1;}.cls-10{fill:#a13d64;}.cls-11{fill:#fff;}.cls-12{opacity:0.3;}.cls-13{fill:#fbc02d;}.cls-14{fill:#fcc62e;}.cls-15{fill:#662482;}.cls-16{fill:#ffd16c;}</style></defs><title>2789 Website–Key Features–V1B</title><g id="Group_9643" data-name="Group 9643"><g id="Group_9316" data-name="Group 9316"><g id="Group_7232" data-name="Group 7232"><g id="Group_7223" data-name="Group 7223"><path id="Path_37698" data-name="Path 37698" class="cls-1" d="M385.79,305.92c1-41,3.95-61.31,20.77-84.36,10.68-15.06,17.46-24,19.07-36.49,3.43-26.63-6.7-43.77,11.43-65.45,20.07-24,34.38-11.91,45.08-3.56,10,7.8-9.31,31.79,7.21,70.54,8.15,19.12,39.26,45,54,78.43,47.64,108.31-52.4,367.58-52.4,367.58l-17.46,1.24S445.51,502,476,446.5c20.85-37.91,4.77-105.4.13-116.63,0,0-43.94,190-279.95,125.38l-2.88-14.84s67.09-36.16,135.42-34.05C350.48,407,384.82,346.92,385.79,305.92Z"/></g><g id="Group_7225" data-name="Group 7225" class="cls-2"><g id="Group_7224" data-name="Group 7224"><path id="Path_37699" data-name="Path 37699" d="M369,453.47h0l0,0-1.26.52-.4.17-.51.2c-1.17.46-2.35.92-3.54,1.37l-1.8.66-1.81.65-1.38.48-1.39.46c-1.42.48-2.84.94-4.29,1.39l-1.29.39-.15.05-1.37.4-1.29.37-1.55.43c-.51.15-1,.29-1.55.42l-1.48.39-1.78.45-1.78.43-1.8.42-1.81.41-1.6.34-2.31.48-1.17.22-1.58.3-1.53.28-1.55.27c-1.11.19-2.23.37-3.35.54l-1.67.25-2.06.29q-.93.14-1.89.24l-.39.06-1.87.22-2.1.24-1.34.14-2.46.23c-.82.07-1.64.15-2.47.21-.54.05-1.07.09-1.61.12l-1.34.1-2.07.13c-.52,0-1.05.07-1.58.09l-1.84.09-1.12.05-1.51.05-.36,0h-.3l-1.36,0c-1.27,0-2.55.07-3.83.08h-5.07l-1.64,0-2,0-1.15,0h-.07l-1.23,0-1.86-.06c-1.88-.07-3.76-.16-5.66-.27l-2-.12h-.19c-1.2-.07-2.4-.16-3.61-.25l-2.32-.18a373.91,373.91,0,0,1-67.43-12.4l-2.88-14.83s67.09-36.15,135.42-34.05h.58c16-.07,29.86-23.7,36.66-35.25a.59.59,0,0,1,0-.08,25.47,25.47,0,0,0,2.37-5.43c9.76-18.91,17-41.24,17.4-59.69,1-41,3.95-61.31,20.77-84.35l.54-.75.51-.74c3.64-5.12,6.8-9.53,9.41-13.64.19-.29,14.09-1.85,15.4-3.48,0,0,0,0,.06,0a0,0,0,0,1,0,0c-.05,1.21,1.4,8.21,1.35,16.51-.14,24.81-11.8,54.48-20.62,89-7.77,30.4-44.9,102.68-62.48,114C335.76,432.08,340.5,453.79,369,453.47Z"/></g></g><g id="Group_7227" data-name="Group 7227" class="cls-2"><g id="Group_7226" data-name="Group 7226"><path id="Path_37700" data-name="Path 37700" d="M493.82,340.31c5.44,13.82,6.54,87.5.51,114.17-5.42,24,25.65,40.33,44.18,20.08-19.33,84.85-47.57,158.05-47.57,158.05l-17.46,1.25S445.5,502,476,446.5c20.39-37.07,5.46-102.41.46-115.79C476.48,330.71,488.37,326.49,493.82,340.31Z"/></g></g><g id="Group_7229" data-name="Group 7229"><g id="Group_7228" data-name="Group 7228"><path id="Path_37701" data-name="Path 37701" class="cls-3" d="M468.36,649.65c.31-.61.64-1.22,1-1.85,3.16-5.86.62-20.76.57-25.77l18.95-.42s9.11-12.28,12.53-10.14c5.7,3.55-5.25,22.84-3.62,26.61a12,12,0,0,0,7.8,6.81c9.05,3.54,24.29,5.41,22.55,12.94-1.12,4.84-51.22,8-60.13,4.07C463.79,660.06,465.45,655.29,468.36,649.65Z"/></g></g><g id="Group_7231" data-name="Group 7231"><g id="Group_7230" data-name="Group 7230"><path id="Path_37702" data-name="Path 37702" class="cls-3" d="M181.86,435.78l2,.76c6.18,2.48,19.5-5.9,24.47-6.52L212.05,453s13.24,7.65,11.5,11.3c-2.88,6.06-23.29-2.62-26.85-.57a12.06,12.06,0,0,0-5.88,8.52c-2.49,9.4-2.6,24.75-10.29,23.87-4.93-.56-13.73-50-10.88-59.27C171,432.43,175.93,433.54,181.86,435.78Z"/></g></g></g><g id="Group_7233" data-name="Group 7233"><path id="Path_37703" data-name="Path 37703" class="cls-4" d="M625.53,185.89a151.29,151.29,0,0,0-40.67-18.28c-22.79-6.16-25.22.47-25.22.47S606.22,206.47,625.53,185.89Z"/></g><g id="Group_7234" data-name="Group 7234"><path id="Path_37704" data-name="Path 37704" class="cls-5" d="M456.79,102.79s29.51-1,53.8,19.88,38.6,62.64,53.23,65.19c13.32,2.32-35.7-73.7-35.7-73.7l8.33-5S575,133.4,598.07,168.64c19.53,29.81,2.21,75.91-38.08,72.75s-79.71-71.78-79.71-71.78Z"/></g><g id="Group_7235" data-name="Group 7235"><path id="Path_37705" data-name="Path 37705" class="cls-5" d="M521.59,101s1.21-4,1.61-5.54,3.2,2.2,2.25,4.43-.72,8.84,2.57,9.52.06,3.22.06,3.22-5.25-2.31-5.75-4.17A56.43,56.43,0,0,1,521.59,101Z"/></g><g id="Group_7237" data-name="Group 7237"><g id="Group_7236" data-name="Group 7236"><path id="Path_37706" data-name="Path 37706" class="cls-6" d="M510.59,122.67c24.3,20.89,38.6,62.64,53.23,65.19,3.5.61,2.69-4.19-.39-11.6-1-2.47-3.78-8.18-3.78-8.18s10.5,7.79,34.66,12.7c15.06,3.07,30.06,5.08,31.22,5.11,2.39,3.1-4.2,60.64-65.54,55.5-40.27-3.37-79.71-71.78-79.71-71.78l-23.49-66.82S486.3,101.78,510.59,122.67Z"/></g></g><g id="Group_7238" data-name="Group 7238"><path id="Path_37707" data-name="Path 37707" class="cls-7" d="M486.52,179.53l20.65-44.19s16,8.23,24,45.17c5.38,24.65,2.18,40.5-.53,48.32C511.48,214.76,495.05,192.37,486.52,179.53Z"/></g><g id="Group_7240" data-name="Group 7240"><g id="Group_7239" data-name="Group 7239"><path id="Path_37708" data-name="Path 37708" class="cls-8" d="M411,206.68c.72-1.15,5.92-20.73,6.05-40.82.17-25.51-3.88-53.12,7.63-59,18.47-9.43,63.24-7.35,77.67,19.47C516.48,152.54,526.13,170.85,521,212,505.05,214.76,451.06,215.28,411,206.68Z"/></g></g><g id="Group_7241" data-name="Group 7241"><path id="Path_37709" data-name="Path 37709" class="cls-5" d="M434.94,103.67S326.05,126,301.09,187.27c-19.09,46.87,64.19,46.59,137.82-1l-5.26-11s-68.64,7.11-72.53,3.81c-1.76-1.49,12.07-6.59,27.75-11.73,24.92-8.18,41.8-30.28,45.12-56.3Z"/></g><g id="Group_7243" data-name="Group 7243"><g id="Group_7242" data-name="Group 7242"><path id="Path_37710" data-name="Path 37710" class="cls-8" d="M301.09,187.27c25-61.27,134.43-83.9,134.43-83.9l-2.63,25.73a40,40,0,0,1-27.83,33.13c-20.59,6.38-46.3,14.89-43.94,16.88,1.9,1.61,19.31.74,36.59-.58l-8.1,54.07C331.92,254.74,286,224.4,301.09,187.27Z"/></g></g><g id="Group_7244" data-name="Group 7244"><path id="Path_37711" data-name="Path 37711" class="cls-5" d="M428.89,180.84s3.2-9.63,6.76-11.31S449.33,161,448,174.74c-.47,4.76-2.56,7.48-9.07,11.55Z"/></g><g id="Group_7246" data-name="Group 7246" class="cls-9"><g id="Group_7245" data-name="Group 7245"><path id="Path_37712" data-name="Path 37712" d="M301.09,187.27c14.09-34.59,55.29-56.65,88.51-69.3-35.08,26.05-79.92,73.74-59.1,84.2,19,9.55,51.78,4,63.42,1.63l-4.31,28.81C331.92,254.74,286,224.4,301.09,187.27Z"/></g></g><g id="Group_7257" data-name="Group 7257"><g id="Group_7247" data-name="Group 7247"><path id="Path_37713" data-name="Path 37713" class="cls-10" d="M430.43,52S426.5,41.49,412,39.58s-25.9,1.82-35.35,17.35c-6.55,10.76-15.44,15.41-21.77,12,0,0,1.93,15.79,21.23,17s27.06-34,39.05-32.77c5.21.56,11.71,2.86,15.2,2.52S430.43,52,430.43,52Z"/></g><g id="Group_7248" data-name="Group 7248"><path id="Path_37714" data-name="Path 37714" class="cls-10" d="M446.78,53.56s-8.42-16.08-23.19-4.31c-16.69,13.3-1.09,37.46,11.72,40.92S446.78,53.56,446.78,53.56Z"/></g><g id="Group_7249" data-name="Group 7249"><path id="Path_37715" data-name="Path 37715" class="cls-5" d="M435.46,83.9l-.54,22.62c-.08,3.73,9,13.41,14.92,8.76,1.74-1.36-.46-6.51-2-10.39L443.59,85.4Z"/></g><g id="Group_7250" data-name="Group 7250"><path id="Path_37716" data-name="Path 37716" class="cls-7" d="M446.09,97c-4.84-1.55-9.63-8.89-9.63-8.89l7.73.09Z"/></g><g id="Group_7251" data-name="Group 7251"><path id="Path_37717" data-name="Path 37717" class="cls-5" d="M435.64,69.4l-1.46,8.67c-1.16,6.87,3.16,13.76,10,15.06,6.33,1.2,12.49-2.38,13.52-10.37.91-7.11-4.07-13.31-5.86-16.55C447.77,58.82,438.05,59.56,435.64,69.4Z"/></g><g id="Group_7252" data-name="Group 7252"><path id="Path_37718" data-name="Path 37718" class="cls-5" d="M436.91,75.71a11,11,0,0,1-1.15-2c-.62-1.34-1.84-3.17-3.37-1.29-2.22,2.75,1.45,9.68,5,8.69C440,80.38,438.08,77.27,436.91,75.71Z"/></g><g id="Group_7253" data-name="Group 7253"><path id="Path_37719" data-name="Path 37719" class="cls-11" d="M457.76,80.63a1.74,1.74,0,0,1-1.15,1.72c-.74.24-3.41.38-4.7-1A12.42,12.42,0,0,0,457.76,80.63Z"/></g><g id="Group_7255" data-name="Group 7255"><g id="Group_7254" data-name="Group 7254" class="cls-9"><path id="Path_37720" data-name="Path 37720" d="M445,90.31c2.61.11,7.25-.86,9.17-2.43,1.7-1.38,3.25-4.76,3.58-5.52,0,.14,0,.26,0,.4-1,8-7.2,11.57-13.52,10.37a12.51,12.51,0,0,1-9.09-7.46A16.16,16.16,0,0,0,445,90.31Z"/></g></g><g id="Group_7256" data-name="Group 7256"><path id="Path_37721" data-name="Path 37721" class="cls-10" d="M441.69,76.11c-12.07,1.75-18.09-4.61-18.09-4.61s11.59-9,20.5-16.21,16.24-7.43,18.64-4.37C470.42,60.71,453.76,74.36,441.69,76.11Z"/></g></g><g id="Group_7281" data-name="Group 7281"><g id="Group_7258" data-name="Group 7258"><path id="Path_37722" data-name="Path 37722" class="cls-5" d="M521.46,109.69c-2.51-3.83.57-9.63.57-9.63s3.62,5.78,4.94,5,1.69-6.61.94-10.36c-1.26-6.31,3.63-3.47,6.58.57s4,17.34.66,21S523.58,112.9,521.46,109.69Z"/></g><g id="Group_7259" data-name="Group 7259"><path id="Path_37723" data-name="Path 37723" class="cls-5" d="M534.46,95.19a11.35,11.35,0,0,0-6.18,4.39,25.06,25.06,0,0,0-.1-3,13.16,13.16,0,0,1,4.88-3A14.81,14.81,0,0,1,534.46,95.19Z"/></g><g id="Group_7280" data-name="Group 7280"><g id="Group_7268" data-name="Group 7268"><g id="Group_7260" data-name="Group 7260"><path id="Path_37724" data-name="Path 37724" class="cls-7" d="M441.28,222.28l18.37,5.8V113.17Z"/></g><g id="Group_7261" data-name="Group 7261"><path id="Path_37725" data-name="Path 37725" class="cls-3" d="M622.49,228.08H459.65V113.17H612.73Z"/></g><g id="Group_7266" data-name="Group 7266"><g id="Group_7264" data-name="Group 7264"><g id="Group_7262" data-name="Group 7262"><circle id="Ellipse_11" data-name="Ellipse 11" class="cls-11" cx="525.08" cy="124.84" r="2.33"/></g><g id="Group_7263" data-name="Group 7263"><path id="Path_37726" data-name="Path 37726" class="cls-11" d="M556.2,124.84a2.34,2.34,0,1,1-2.33-2.33h0A2.33,2.33,0,0,1,556.2,124.84Z"/></g></g><g id="Group_7265" data-name="Group 7265"><path id="Path_37727" data-name="Path 37727" class="cls-7" d="M525.08,125.84h0a1,1,0,0,1-1-1s0-8.17,0-17.44,5.92-15,15.83-15c14.45,0,15.19,12.5,15.19,15,0,5.54,0,17.45,0,17.45h-2s0-11.91,0-17.45c0-3.05-1-13-13.18-13-4.16,0-13.83,1.26-13.83,13,0,9.27,0,17.45,0,17.45A1,1,0,0,1,525.08,125.84Z"/></g></g><g id="Group_7267" data-name="Group 7267" class="cls-12"><path id="Path_37728" data-name="Path 37728" d="M441.28,222.28l18.37,5.8,7.46-112.69-7.46-2.22Z"/></g></g><g id="Group_7279" data-name="Group 7279"><g id="Group_7269" data-name="Group 7269"><path id="Path_37729" data-name="Path 37729" class="cls-13" d="M461.66,248l18.37,5.8V113.17Z"/></g><g id="Group_7270" data-name="Group 7270" class="cls-2"><path id="Path_37730" data-name="Path 37730" d="M461.66,248l18.37,5.8V113.17Z"/></g><g id="Group_7271" data-name="Group 7271"><path id="Path_37731" data-name="Path 37731" class="cls-14" d="M599.13,253.83H480V113.17h113Z"/></g><g id="Group_7278" data-name="Group 7278"><g id="Group_7274" data-name="Group 7274"><g id="Group_7272" data-name="Group 7272"><circle id="Ellipse_12" data-name="Ellipse 12" class="cls-11" cx="525.19" cy="124.84" r="2.33"/></g><g id="Group_7273" data-name="Group 7273"><path id="Path_37732" data-name="Path 37732" class="cls-11" d="M556.3,124.84a2.33,2.33,0,1,1-2.33-2.33h0A2.33,2.33,0,0,1,556.3,124.84Z"/></g></g><g id="Group_7275" data-name="Group 7275"><path id="Path_37733" data-name="Path 37733" class="cls-7" d="M525.19,125.84h0a1,1,0,0,1-1-1s0-8.17,0-17.44,5.92-15,15.83-15c14.45,0,15.18,12.5,15.18,15,0,5.54,0,17.45,0,17.45h-2s0-11.91,0-17.45c0-3.05-1-13-13.18-13-4.16,0-13.84,1.26-13.84,13,0,9.27,0,17.45,0,17.45A1,1,0,0,1,525.19,125.84Z"/></g><g id="Group_7277" data-name="Group 7277"><g id="Group_7276" data-name="Group 7276"><path id="Path_37734" data-name="Path 37734" class="cls-5" d="M534.47,95.19a11.63,11.63,0,0,0-6.19,4.5,31.06,31.06,0,0,0-.14-3.48,12.55,12.55,0,0,1,4.8-2.82A22,22,0,0,1,534.47,95.19Z"/></g></g></g></g></g></g></g><g id="Group_9317" data-name="Group 9317"><g id="Group_7283" data-name="Group 7283"><path id="Path_37735" data-name="Path 37735" class="cls-5" d="M679.86,59.4c.45-3.79.7-6,2-5.88s1.62,5.89,2.9,6.09,4.62-3.32,6.15-6.11c2.58-4.71,4.18-.27,3.9,3.88S688.06,70.57,684,71.15,679.49,62.58,679.86,59.4Z"/></g><g id="Group_7284" data-name="Group 7284"><path id="Path_37736" data-name="Path 37736" class="cls-7" d="M831.66,49.75,840,98l-62.21,7s5.82-47.56,22.47-62.32C806.32,37.28,831.66,49.75,831.66,49.75Z"/></g><g id="Group_7285" data-name="Group 7285"><path id="Path_37737" data-name="Path 37737" class="cls-15" d="M784.6,118.35s-16.87,62.12-68.74,64.72c-66.37,3.33-66.21-77.2-35.39-115.32h8.34s.9,72.78,19.6,60.3c76.19-50.81,99.33-52.38,99.33-52.38S782,108.91,784.6,118.35Z"/></g><g id="Group_7286" data-name="Group 7286" class="cls-2"><path id="Path_37738" data-name="Path 37738" d="M678.44,70.4c-14.65,40.28-4.63,92.89,49.27,90.18,25.86-1.3,43-17.39,53.73-33.2-6.94,17.33-26.14,53.71-65.58,55.69C651,186.33,649.68,109.48,678.44,70.4Z"/></g><g id="Group_7287" data-name="Group 7287"><path id="Path_37739" data-name="Path 37739" class="cls-7" d="M764.08,117.87l2.58,7.59-6.2,35.92a78.69,78.69,0,0,1-8.47,7.86,90.81,90.81,0,0,1,.68-24.36C755.34,130.56,764.08,117.87,764.08,117.87Z"/></g><g id="Group_7288" data-name="Group 7288"><path id="Path_37740" data-name="Path 37740" class="cls-3" d="M717.94,287.57c1.25-27.87,19.37-37.33,28.75-65,1.19-3.52,9.6-28.07,10.7-31.46,17.17-53.26,13.23-70.92,30.81-97.91,15.91-24.44,32.54-19.8,49.41-9.33,18.79,11.67-11,59.82-5.56,86.72,2.55,12.63,14.21,22.42,26.2,37,18.84,22.27,28,49.81,29.17,78.76.9,21.57-1.89,358.39-1.89,358.39H866.65c-8.18-32.72-63.13-361-63.13-361-17.71,38.69-29.17,361-29.17,361H756.06S704.22,408.37,717.94,287.57Z"/></g><g id="Group_7289" data-name="Group 7289" class="cls-12"><path id="Path_37741" data-name="Path 37741" d="M746.69,222.58c1.19-3.52,9.6-28.07,10.69-31.46,7.63-23.65,11.09-40.27,14.12-53.82,9.56-2.65,18.7-2.23,26.67,2.86,0,0-34,160.22-34.09,182s-8.72,36.58-17.32,41.48c-29.6,16.85-18.21,80.15-14.44,94.41,9.89,37.36,38.17,38.17,49.5,28.74-4.78,82.36-7.47,157.93-7.47,157.93H756.06s-51.84-236.38-38.12-357.18C719.19,259.7,737.31,250.24,746.69,222.58Z"/></g><g id="Group_7291" data-name="Group 7291"><g id="Group_7290" data-name="Group 7290"><path id="Path_37742" data-name="Path 37742" class="cls-11" d="M754.24,196.47c17.17-53.27,16.37-76.27,34-103.26,15.91-24.44,32.55-19.8,49.41-9.33,18.79,11.67-11,59.82-5.56,86.72,2.56,12.63,14.22,22.42,26.2,37a118,118,0,0,1,14.44,21.51C849.33,233.74,750.58,207.79,754.24,196.47Z"/></g></g><g id="Group_7292" data-name="Group 7292"><path id="Path_37743" data-name="Path 37743" class="cls-15" d="M828.43,84.21s-23.74,58.17-9.27,121.06S851,318.83,852.7,347.35c0,0,31,1.26,50.33-12.58,0,0-1.68-70-17.61-99.4s-41.68-46.3-45.38-62.58,12.24-63.67,8.89-78.35-19.23-17.2-19.23-17.2Z"/></g><g id="Group_7293" data-name="Group 7293"><path id="Path_37744" data-name="Path 37744" class="cls-15" d="M818.78,75.4s-14.6-2.18-24,6-42.71,29-34.53,76.07C765,184.83,702.57,262.06,710,347.39c10.18,4.06,21.92,3.28,34.49,0,0,0,5-101.85,19.41-157.84C769.64,167.2,818.78,75.4,818.78,75.4Z"/></g><g id="Group_7294" data-name="Group 7294"><path id="Path_37745" data-name="Path 37745" class="cls-5" d="M829.47,58.51l.27,22.43c0,3.69-9.07,13.18-14.89,8.5-1.71-1.36.54-6.44,2.15-10.27l4.39-19.27Z"/></g><g id="Group_7295" data-name="Group 7295"><path id="Path_37746" data-name="Path 37746" class="cls-7" d="M818.78,71.34c4.82-1.47,9.65-8.69,9.65-8.69h-7.66Z"/></g><g id="Group_7296" data-name="Group 7296"><path id="Path_37747" data-name="Path 37747" class="cls-5" d="M829.46,44.14l1.35,8.61c1.07,6.82-3.3,13.59-10.1,14.8-6.28,1.12-12.35-2.5-13.28-10.44-.82-7.06,4.19-13.14,6-16.33C817.57,33.51,827.19,34.35,829.46,44.14Z"/></g><g id="Group_7297" data-name="Group 7297"><path id="Path_37748" data-name="Path 37748" class="cls-14" d="M805.22,36s.72-5.65-.61-6.76-3-7.19,6.33-7.19,25.55,8.79,29.81,15.31c2.52,3.86-6.87,11.69-7.25,13S819.15,48.37,805.22,36Z"/></g><g id="Group_7298" data-name="Group 7298"><path id="Path_37749" data-name="Path 37749" class="cls-5" d="M829.22,52.41a10.4,10.4,0,0,0,.57-2.21c.24-1.44.92-3.52,2.88-2.12,2.85,2,1.18,9.62-2.47,9.62C827.49,57.7,828.51,54.21,829.22,52.41Z"/></g><g id="Group_7299" data-name="Group 7299"><path id="Path_37750" data-name="Path 37750" class="cls-5" d="M811.47,49.21a11,11,0,0,1-.05-2.29c.1-1.45-.09-3.63-2.32-2.72-3.24,1.33-3.34,9.09.21,9.93C812,54.75,811.75,51.12,811.47,49.21Z"/></g><g id="Group_7300" data-name="Group 7300"><path id="Path_37751" data-name="Path 37751" class="cls-11" d="M819.39,56.42a78.19,78.19,0,0,1-8.92-.8A4.94,4.94,0,0,0,814.24,58C816.06,58.18,818.61,57.38,819.39,56.42Z"/></g><g id="Group_7301" data-name="Group 7301"><path id="Path_37752" data-name="Path 37752" class="cls-10" d="M743.64,662.48c5.89-3,13.38-5.46,13.7-6.09.78-1.57-1.28-11.64-1.28-11.64h18.29a37.38,37.38,0,0,0,6.43,16.94c4.18,6.18,7.35,11.65,2.82,14.2-8.65,4.88-60.71,5-60.08,0C723.9,672.87,734.81,667,743.64,662.48Z"/></g><g id="Group_7302" data-name="Group 7302"><path id="Path_37753" data-name="Path 37753" class="cls-10" d="M861.3,661.69c3.82-5.63,4.88-11.84,5.35-16.94h18.87s-1.28,6.48,1.9,11.53c1.38,2.21,5.43,3.85,11,6.2,8.84,4.54,19.74,10.39,20.12,13.41.63,5-51.43,4.88-60.08,0C854,673.34,857.12,667.87,861.3,661.69Z"/></g><g id="Group_7304" data-name="Group 7304"><g id="Group_7303" data-name="Group 7303" class="cls-9"><path id="Path_37754" data-name="Path 37754" d="M820,64.75c-2.59.08-7.17-.94-9.06-2.52-1.67-1.39-3.16-4.76-3.48-5.5,0,.13,0,.25,0,.38.92,7.94,7,11.56,13.27,10.44a12.39,12.39,0,0,0,9.09-7.28A16,16,0,0,1,820,64.75Z"/></g></g><g id="Group_7305" data-name="Group 7305"><path id="Path_37755" data-name="Path 37755" class="cls-16" d="M829.79,50.2s-26.07-3-33.39-6S805.22,36,805.22,36s4.56,1.77,16.71,6C825.05,43.15,830.62,46.9,829.79,50.2Z"/></g><g id="Group_7306" data-name="Group 7306"><path id="Path_37756" data-name="Path 37756" class="cls-15" d="M836.08,79.33S920.23,103,935,152.75c12.52,42.13-9.35,108-52.54,119.53l-11.32-8.85s26.27-73.19,12.08-90.64c-16.28-20-53.5-25.92-53.5-25.92S827.49,84,836.08,79.33Z"/></g><g id="Group_7307" data-name="Group 7307"><path id="Path_37757" data-name="Path 37757" class="cls-5" d="M871.15,263.43s-7.13.88-10.48-2.05-5-.26-3.15,2.18,4.62,2.43,4,3.48-8.18,1.47-11.33,1.47-.21,4.82,6.09,5.87,19.09-.17,24.23-3.65Z"/></g><g id="Group_7308" data-name="Group 7308" class="cls-12"><path id="Path_37758" data-name="Path 37758" d="M831.27,369.8c8.14,28.94,12.62,83,27.49,98.5,9.44,9.82,20.92,7.17,28.06,3.93-.59,87.4-1.3,172.52-1.3,172.52H866.65c-8.18-32.72-63.13-361-63.13-361C812.85,282,823.13,340.85,831.27,369.8Z"/></g><g id="Group_7310" data-name="Group 7310" class="cls-2"><g id="Group_7309" data-name="Group 7309"><path id="Path_37759" data-name="Path 37759" d="M894.22,163.23c23.36,17.72,5.06,82.6-18.58,103.71l-4.49-3.51s26.27-73.19,12.09-90.64c-10.52-12.94-29.75-20-42.06-23.33C841.18,149.46,869.9,144.77,894.22,163.23Z"/></g></g><g id="Group_7311" data-name="Group 7311"><path id="Path_37760" data-name="Path 37760" class="cls-7" d="M897.12,274.48a69.8,69.8,0,0,1-20.22,4.38c-25,2-27.82-8.74-27.82-8.74.67,1.5,3.29,3.61,7.18,4.26,6.3,1,19.1-.17,24.23-3.65l2,1.55a54.06,54.06,0,0,0,13.16-5.49C896.17,269.32,896.66,271.89,897.12,274.48Z"/></g></g></g></svg>