<svg id="Layer_1" data-name="Layer 1" xmlns="http://www.w3.org/2000/svg" viewBox="0 0 1100 700"><defs><style>.cls-1{fill:#ad263d;}.cls-2{fill:#311e69;}.cls-3{fill:#662483;}.cls-4{fill:#1e1240;}.cls-5{fill:#614cd4;}.cls-6{fill:#ff6161;}.cls-7{fill:#fff;}.cls-8{fill:#f9b233;}.cls-9{fill:#f4a53b;}.cls-10{fill:#ffd5d4;}.cls-11{fill:#e6007e;}.cls-12{fill:#edaeae;}.cls-13{fill:#ffcbca;}.cls-14{fill:#dd9e9e;}</style></defs><title>2789 Website–Key Features–V1B</title><g id="Group_9646" data-name="Group 9646"><g id="Group_7653" data-name="Group 7653"><path id="Path_38514" data-name="Path 38514" class="cls-1" d="M589.58,110.65s-122.33,111.46-91.31,168.2,97.59,10.34,109.7-12.1S589.58,110.65,589.58,110.65Z"/><path id="Path_38515" data-name="Path 38515" class="cls-2" d="M527.9,179.33c12.84,13.8,45.14,44.79,82.2,52.31-3.68-47.13-20.53-121-20.53-121S555.52,141.68,527.9,179.33Z"/><path id="Path_38516" data-name="Path 38516" class="cls-3" d="M736.08,303c-1.46-38.46-1.75-43.66-2.65-68.13-2.3-63.06,9.66-113.6,0-123.8-34.71-36.65-139.95-24.26-156.1,11.77-16,35.72,7.87,92.14,8.54,175.87C585.93,306.58,736.34,309.87,736.08,303Z"/><path id="Path_38517" data-name="Path 38517" class="cls-4" d="M635.73,652.66a40.43,40.43,0,0,1-2.26-7.52,17.2,17.2,0,0,0-6.91-11c-5.6-4-13.37-8.49-16.37-5.47-3.3,3.33,1.42,15.24-1.57,19.77-1.3,2-25.78,15.39-26.18,18.12-.68,4.56,46.6,5.49,54.56,1.24C641.15,665.55,638.18,659,635.73,652.66Z"/><path id="Path_38518" data-name="Path 38518" class="cls-4" d="M761.91,652a40,40,0,0,1-2.46-7.46,17.2,17.2,0,0,0-7.21-10.84c-5.7-3.83-13.59-8.12-16.5-5-3.22,3.42,1.82,15.2-1,19.81-1.25,2-25.36,16.07-25.69,18.82-.55,4.57,46.73,4.23,54.57-.24C767.68,664.73,764.52,658.24,761.91,652Z"/><path id="Path_38519" data-name="Path 38519" class="cls-2" d="M714.4,137.2s-13.11,86.54,19.5,110.21c-.14-3.7-.29-7.73-.47-12.51-1-28.35.81-54.18,2.28-74.94Z"/><g id="Group_7650" data-name="Group 7650"><path id="Path_38520" data-name="Path 38520" class="cls-2" d="M626.17,63.62s-11.64-8-4-17.57c11.4-14.25,31.36,1.68,34.28,7.5C660.83,62.24,659,77.9,659,77.9S630.22,74,626.17,63.62Z"/><g id="Group_7643" data-name="Group 7643"><path id="Path_38521" data-name="Path 38521" class="cls-5" d="M659,77.9s1.85-15.67-2.5-24.35h0C650.33,57.62,637.09,63,628,66.47,635.55,74.74,659,77.9,659,77.9Z"/></g><path id="Path_38522" data-name="Path 38522" class="cls-6" d="M653.6,68.48l16.48,28.86c.89,4.35-20.17,21-28.11,16.8-2.33-1.22-2.58-5.5-1.56-10.38L646.88,77Z"/><path id="Path_38523" data-name="Path 38523" class="cls-2" d="M645.57,82.35c4.64-1.79,10.94-4.3,10.94-4.3A21.1,21.1,0,0,1,652,92.81a20.23,20.23,0,0,1-10.66,7Z"/><path id="Path_38524" data-name="Path 38524" class="cls-6" d="M645.4,59.49,655.4,75a11.26,11.26,0,0,1-4.29,15.11c-4.23,2.42-7.18,3.2-13.18,4-5,.69-8.71-3.32-10.38-9.67a61.16,61.16,0,0,1-1.37-20.84C627.17,53.63,638.14,49.86,645.4,59.49Z"/><path id="Path_38525" data-name="Path 38525" class="cls-2" d="M655.4,75l-9.63-16.73c-.88-1.18-2.21-.93-3.18-1.72,1.14,3.34,3.34,13.36,2.74,14.85-1.54,3.79-5,.21-10.75,1.53a19.79,19.79,0,0,0-8.39,3.81,50.73,50.73,0,0,0,1.36,7.72c1.66,6.35,5.37,10.36,10.37,9.67,6-.82,9-1.6,13.18-4A11.27,11.27,0,0,0,655.4,75Z"/><path id="Path_38526" data-name="Path 38526" class="cls-7" d="M638.47,74.52a30.36,30.36,0,0,1-9.6,2.83s.81,3.73,3.39,4.43S638.29,79.28,638.47,74.52Z"/><g id="Group_7644" data-name="Group 7644"><path id="Path_38527" data-name="Path 38527" class="cls-4" d="M634.77,88.22c5.14-2.51,11.41,4.63,19-5.69,1.42-1.93,1.45-5.67,1.39-7.87l.22.34a11.26,11.26,0,0,1-4.29,15.11c-4.23,2.42-7.18,3.2-13.18,4-3.06.42-5.62-.91-7.54-3.46C631.4,90.58,633.2,89,634.77,88.22Z"/></g><path id="Path_38528" data-name="Path 38528" class="cls-6" d="M647.45,64.76A16.52,16.52,0,0,0,648,61.4c.17-2.17.93-5.35,4-3.51,4.49,2.67,3.72,13.21-1.7,13.66C646.32,71.88,646.62,67.53,647.45,64.76Z"/><g id="Group_7649" data-name="Group 7649"><g id="Group_7647" data-name="Group 7647"><g id="Group_7645" data-name="Group 7645"><path id="Path_38529" data-name="Path 38529" class="cls-2" d="M626.91,73.8l-.23,0a6.88,6.88,0,0,1-6.84-2.2,6.08,6.08,0,0,1-.91-5.69c.72-2.25,3.21-3.71,7.22-4.22a4.12,4.12,0,0,1,4.46,3.63h0C631,67.58,631.79,72.72,626.91,73.8Zm-2.08-10c-1.79.4-3.82,1.19-4.32,2.76a4.14,4.14,0,0,0,.6,3.94,5.31,5.31,0,0,0,5.28,1.58c2.59-.48,3.25-2.22,2.58-6.4a2.42,2.42,0,0,0-2.62-2.14c-.45.06-1,.14-1.53.26Z"/></g><g id="Group_7646" data-name="Group 7646"><path id="Path_38530" data-name="Path 38530" class="cls-2" d="M637.49,71.45c-4.88,1.08-6-4-6.5-6.17h0a4.42,4.42,0,0,1,2.77-5.23c3.86-1.23,6.69-.95,8.17.81a6,6,0,0,1,1.26,5.61,7.31,7.31,0,0,1-5.46,4.92Zm-4.88-6.59c.93,4.13,2.21,5.42,4.73,4.78a5.63,5.63,0,0,0,4.26-3.7,4.11,4.11,0,0,0-.89-3.87c-1.37-1.61-4.65-.87-6.48-.29a2.62,2.62,0,0,0-1.62,3.08Z"/></g></g><g id="Group_7648" data-name="Group 7648"><path id="Path_38531" data-name="Path 38531" class="cls-2" d="M631.93,64.77l.26-1c-.1,0-2.31-.68-3.55.83l.72.68C630.2,64.27,631.91,64.77,631.93,64.77Z"/></g></g></g><path id="Path_38532" data-name="Path 38532" class="cls-8" d="M742.9,303c-.24-1-3.37-20.18-8-30.11-9.54-14.15-23.62-28.4-28-50.25-8.18-40.88,1.1-100.84,1.82-126.7a113.89,113.89,0,0,0-22.07-5.36L680,156.38l-65.57-2,12.43-61.23a127.5,127.5,0,0,0-22.74,7.33c-10.5,24.86-21.47,165.34-20.62,197.81,2.29,87,15.27,341.08,24,347.38s48,9.33,54.51,0c9.59-13.83-6.4-137-6.76-161.61-.23-15.87,1.16-40.73,2.75-67,7.63,25.86,10,52.29,12.09,62.42C682.79,541.7,694,632.33,700.87,640.89s52,4.05,60-1.65S753.74,347.86,742.9,303Z"/><path id="Path_38533" data-name="Path 38533" class="cls-9" d="M742.9,303c-.24-1-3.37-20.18-8-30.11-9.54-14.15-23.62-28.4-28-50.25-8.18-40.88,1.1-100.84,1.82-126.7a113.89,113.89,0,0,0-22.07-5.36L680,156.38l-8.9-.28c-2,25.22-3,51-1,68.06C675.2,268,705,319.34,709,380.27s12.63,173.9,14.76,209c1.38,22.73.63,43.13,3.84,56.31,14-.54,28.95-3.25,33.23-6.31C768.82,633.53,753.74,347.86,742.9,303Z"/><path id="Path_38534" data-name="Path 38534" class="cls-2" d="M749.47,352.33c-1.67-17.27-3.36-31.58-5-41.3l-63.08-1.89S705.63,348.63,749.47,352.33Z"/><path id="Path_38535" data-name="Path 38535" class="cls-6" d="M718.69,108.63c14-14.3,102.21,61.2,98.51,157.36S717,328.87,684.73,311.05s-46.09-45.39-33.64-60.19,101.59,28.6,112,18.83C779.55,254.22,692.6,135.29,718.69,108.63Z"/><path id="Path_38536" data-name="Path 38536" class="cls-1" d="M775.85,171.14c.66,24.5,10.42,35.34,16.13,62.23s10.09,31.94,10.31,50.1-21.07,25.56-44.5,19.84-36.41,4.37-68.69-9.08c-29.93-12.47-28.94-33.89-41.57-37-5,15.43,9.14,38.28,37.2,53.77C717,328.87,813.5,362.15,817.2,266,819,220.26,799.93,179.2,778,150.26A76.47,76.47,0,0,0,775.85,171.14Z"/><g id="Group_7651" data-name="Group 7651"><path id="Path_38537" data-name="Path 38537" class="cls-10" d="M607.66,173.77a12.63,12.63,0,0,1,6.05-.42,5.5,5.5,0,0,1,3.56,3.29l-13.52,1.62S602.31,175.38,607.66,173.77Z"/><path id="Path_38538" data-name="Path 38538" class="cls-11" d="M625.39,173.8l-68.17,7.78a6.12,6.12,0,0,0-5.37,6.76l12.08,105.85a6.13,6.13,0,0,0,6.76,5.38l68.18-7.79a6.12,6.12,0,0,0,5.37-6.76L632.16,179.18A6.13,6.13,0,0,0,625.39,173.8Z"/><path id="Path_38539" data-name="Path 38539" class="cls-10" d="M557.09,259.34l-1.91,13.77,64.29-7.5s-9.35-88.27-6.39-90.41l-14.22,1.41Z"/><path id="Path_38540" data-name="Path 38540" class="cls-7" d="M613.71,173.35s-3.3-1-7.15,2.89,6.74,84.9,6.74,84.9-52.3,4.38-63.85,2.33c0,0,2.27-9.53,1.48-17.45-2.18-21.7-8.63-58.8-5-64.08C550.93,174.74,606.57,171,613.71,173.35Z"/></g><path id="Path_38541" data-name="Path 38541" class="cls-2" d="M751.94,224.46c8.78-1.85,36.93-9.21,46.49-28.79L746.87,213.6C748.62,217.31,750.32,220.94,751.94,224.46Z"/><path id="Path_38542" data-name="Path 38542" class="cls-6" d="M659,249.81s-15.76-10.05-18.51-10.3-14,3.09-16.56,4.49-.42,5.11,0,5.18a19.36,19.36,0,0,1,3.21,1.63c.16.21,2.93,10.29,5.94,12.31s16.08,3.73,19.2,1.21S659,249.81,659,249.81Z"/><g id="Group_7652" data-name="Group 7652"><path id="Path_38543" data-name="Path 38543" class="cls-3" d="M802.29,191.48c-25-56.94-73.53-93.14-83.6-82.85-16.17,16.52,7.42,69.69,26.56,110.5C758.71,216.78,788.16,209,802.29,191.48Z"/></g><path id="Path_38544" data-name="Path 38544" class="cls-2" d="M802.29,191.48c-24-54.49-69.41-90-82.09-83.91,2.64,9.14,8.24,22.61,19.67,32,18.83,15.46,40,33,41,45.39a176.9,176.9,0,0,0,3.62,20.75C791.35,201.91,797.64,197.22,802.29,191.48Z"/><path id="Path_38545" data-name="Path 38545" class="cls-9" d="M658,417.09s-3.47-27.52-3.47-36.44c0-13.87-9-12.86-16.21-2.27s.5,70.86-6.06,114.23,9.08,127.86-4.53,135c-5.78,3.05-15.14,3.63-23.78,4.09,1.23,8.16,2.43,13.09,3.56,13.91,8.72,6.29,48,9.33,54.51,0,9.58-13.83-6.4-137-6.76-161.61C655,468.16,656.43,443.3,658,417.09Z"/></g><g id="Group_7657" data-name="Group 7657"><rect id="Rectangle_2423" data-name="Rectangle 2423" class="cls-12" x="470.2" y="510.95" width="90.66" height="152.81"/><rect id="Rectangle_2424" data-name="Rectangle 2424" class="cls-13" x="317.39" y="510.95" width="152.81" height="152.81"/><rect id="Rectangle_2425" data-name="Rectangle 2425" class="cls-12" x="382.21" y="510.95" width="23.17" height="53.15"/><rect id="Rectangle_2426" data-name="Rectangle 2426" class="cls-14" x="503.95" y="510.95" width="23.17" height="53.15"/><g id="Group_7654" data-name="Group 7654"><path id="Path_38546" data-name="Path 38546" class="cls-2" d="M450,628.28l-4.9,9.72h1.35v17h7.11V638h1.35Z"/><path id="Path_38547" data-name="Path 38547" class="cls-2" d="M438.94,628.28,434,638h1.36v17h7.1V638h1.36Z"/></g><g id="Group_7656" data-name="Group 7656"><rect id="Rectangle_2427" data-name="Rectangle 2427" class="cls-7" x="475.46" y="633.03" width="41.14" height="23.27"/><g id="Group_7655" data-name="Group 7655"><rect id="Rectangle_2428" data-name="Rectangle 2428" class="cls-2" x="478.98" y="634.47" width="1.9" height="20.4"/><rect id="Rectangle_2429" data-name="Rectangle 2429" class="cls-2" x="511.17" y="634.47" width="1.9" height="20.4"/><rect id="Rectangle_2430" data-name="Rectangle 2430" class="cls-2" x="483.2" y="639.76" width="1.9" height="15.11"/><rect id="Rectangle_2431" data-name="Rectangle 2431" class="cls-2" x="485.89" y="639.76" width="2.93" height="15.11"/><rect id="Rectangle_2432" data-name="Rectangle 2432" class="cls-2" x="497.37" y="639.76" width="1.9" height="15.11"/><rect id="Rectangle_2433" data-name="Rectangle 2433" class="cls-2" x="500.06" y="639.76" width="2.93" height="15.11"/><rect id="Rectangle_2434" data-name="Rectangle 2434" class="cls-2" x="490.16" y="638.18" width="1.9" height="16.68"/><rect id="Rectangle_2435" data-name="Rectangle 2435" class="cls-2" x="492.86" y="639.76" width="2.93" height="15.11"/><rect id="Rectangle_2436" data-name="Rectangle 2436" class="cls-2" x="504.09" y="639.76" width="1.9" height="15.11"/><rect id="Rectangle_2437" data-name="Rectangle 2437" class="cls-2" x="506.79" y="639.76" width="2.93" height="15.11"/></g></g></g><g id="Group_7661" data-name="Group 7661"><rect id="Rectangle_2438" data-name="Rectangle 2438" class="cls-12" x="437.85" y="368.05" width="59.01" height="143.69"/><rect id="Rectangle_2439" data-name="Rectangle 2439" class="cls-13" x="338.38" y="368.05" width="99.47" height="143.69"/><rect id="Rectangle_2440" data-name="Rectangle 2440" class="cls-12" x="380.57" y="368.05" width="15.08" height="78.82"/><rect id="Rectangle_2441" data-name="Rectangle 2441" class="cls-14" x="459.82" y="368.05" width="15.08" height="78.82"/><g id="Group_7658" data-name="Group 7658"><path id="Path_38548" data-name="Path 38548" class="cls-2" d="M424.71,488.64l-3.2,6.33h.88v11.09H427V495h.88Z"/><path id="Path_38549" data-name="Path 38549" class="cls-2" d="M417.5,488.64,414.3,495h.88v11.09h4.63V495h.88Z"/></g><g id="Group_7660" data-name="Group 7660"><rect id="Rectangle_2442" data-name="Rectangle 2442" class="cls-7" x="441.27" y="491.74" width="26.78" height="15.15"/><g id="Group_7659" data-name="Group 7659"><rect id="Rectangle_2443" data-name="Rectangle 2443" class="cls-2" x="443.56" y="492.67" width="1.24" height="13.28"/><rect id="Rectangle_2444" data-name="Rectangle 2444" class="cls-2" x="464.52" y="492.67" width="1.24" height="13.28"/><rect id="Rectangle_2445" data-name="Rectangle 2445" class="cls-2" x="446.31" y="496.12" width="1.24" height="9.83"/><rect id="Rectangle_2446" data-name="Rectangle 2446" class="cls-2" x="448.06" y="496.12" width="1.91" height="9.83"/><rect id="Rectangle_2447" data-name="Rectangle 2447" class="cls-2" x="455.53" y="496.12" width="1.23" height="9.83"/><rect id="Rectangle_2448" data-name="Rectangle 2448" class="cls-2" x="457.29" y="496.12" width="1.91" height="9.83"/><rect id="Rectangle_2449" data-name="Rectangle 2449" class="cls-2" x="450.84" y="495.09" width="1.23" height="10.86"/><rect id="Rectangle_2450" data-name="Rectangle 2450" class="cls-2" x="452.6" y="496.12" width="1.91" height="9.83"/><rect id="Rectangle_2451" data-name="Rectangle 2451" class="cls-2" x="459.91" y="496.12" width="1.24" height="9.83"/><rect id="Rectangle_2452" data-name="Rectangle 2452" class="cls-2" x="461.66" y="496.12" width="1.91" height="9.83"/></g></g></g></g></svg>