<svg id="Layer_1" data-name="Layer 1" xmlns="http://www.w3.org/2000/svg" viewBox="0 0 1100 700"><defs><style>.cls-1{fill:#dbdee5;}.cls-2{fill:#e5a5a5;}.cls-3{fill:#f4baba;}.cls-4{fill:#edaeae;}.cls-5{fill:#ad263d;}.cls-6{fill:#311e69;}.cls-7{fill:#ffcbca;}.cls-8{fill:#1e1240;}.cls-9{fill:#fff;}.cls-10{fill:#f2adad;}.cls-11{fill:#ff6161;}.cls-12{fill:#36a9e1;}.cls-13{fill:#2c8796;}.cls-14{fill:#e6007e;}</style></defs><title>2789 Website–Key Features–V1B</title><path class="cls-1" d="M787.59,399.15c17.07-94.63-50.62-284.63-217.2-295S243.7,254.91,415.71,482.43C545.6,654.24,770.53,493.78,787.59,399.15Z"/><polygon class="cls-2" points="143.82 300.82 527.88 276.59 949.63 300.82 524.29 412.99 143.82 300.82"/><polygon class="cls-3" points="341.28 355.37 530.76 427.91 535.06 159.94 341.28 355.37"/><polygon class="cls-4" points="749.53 390.55 535.06 159.94 530.76 427.91 538.65 430.93 749.53 390.55"/><path class="cls-5" d="M798.49,187.19s52.68,17.18,70.26,16.73c19.64-.49,70.84-20.86,77.16-15.1s-22.52,38.17-77.57,41c-39.77,2.07-61.36-10-64.93-15.5S798.49,187.19,798.49,187.19Z"/><path class="cls-6" d="M764,451.07a15,15,0,0,0,2.57-7.18l8.1.31a7.65,7.65,0,0,0,.63,5c.56,1,2.27,1.74,4.63,2.84,3.72,2.09,8.3,4.78,8.42,6.09.19,2.17-22.16,1.25-25.79-1C760.7,456,762.14,453.66,764,451.07Z"/><path class="cls-7" d="M837.59,198.52c-19.35-4.89-39.1-11.33-39.1-11.33s1.35,21.68,4.92,27.17c2.45,3.76,13.37,10.62,32.81,13.9C843.06,218.07,839.54,204.27,837.59,198.52Z"/><path class="cls-8" d="M801.13,256.1s12.33,58.25,9.72,89.19c-2.45,29-13.63,96.22-32.09,100.07-5.21,1.09-12.5,1.6-14.23-2.52-4.38-10.48,18.11-71.59,17.24-96.45-.78-22.17-26-81.54-14.73-88.17S801.13,256.1,801.13,256.1Z"/><path class="cls-6" d="M735.07,449.33a16.17,16.17,0,0,0,3-7.6l8.65.58a8.17,8.17,0,0,0,.51,5.35c.57,1,2.37,1.93,4.86,3.18,3.91,2.35,8.73,5.37,8.81,6.77.13,2.33-23.72.64-27.54-1.86C731.34,454.44,733,452,735.07,449.33Z"/><path class="cls-8" d="M747.58,253.7S738,264,736.3,270.75c-9,35.59.86,68.72,2.4,100.08.76,15.68-9.71,64.69-5.5,69,7,7.11,11.77,4.76,16.58,4.16,5.77-.72,14.18-38.5,19.14-76.82,4.38-33.79,5.67-68.23,6.08-74.76.87-13.95.91-34.26.91-34.26Z"/><path class="cls-9" d="M732.92,314.38c-20.49-10,1.59-35.31,1.55-70.69,0-20-5.8-43.61,14.9-56,15.66-9.33,44.49-5.39,53.73,2,16.59,13.27,19.15,102.45,10.31,115C803.61,318.67,746.38,321,732.92,314.38Z"/><path class="cls-6" d="M811.22,205,810,219.67a67.36,67.36,0,0,0,15.16,6.12C819.43,216.37,811.22,205,811.22,205Z"/><path class="cls-7" d="M756.19,292.2a151.19,151.19,0,0,1-29.66-5.66c-.27,1-.53,2.07-.76,3.07a152.36,152.36,0,0,0,30,5.71,159.27,159.27,0,0,0,35.68-.67,142.42,142.42,0,0,0,25.9-5.92c.12-1.1.23-2.25.33-3.43C794.08,293.38,771.65,293.63,756.19,292.2Z"/><path class="cls-7" d="M761.1,264.61a154.07,154.07,0,0,1-28.32-3.18c-.19,1.05-.39,2.08-.6,3.1a155.55,155.55,0,0,0,28.75,3.22,162,162,0,0,0,24.8-1.37,147.34,147.34,0,0,0,32.55-8.15c0-1.1-.07-2.21-.11-3.33A150.5,150.5,0,0,1,761.1,264.61Z"/><path class="cls-7" d="M815.81,227.41a150.28,150.28,0,0,1-57.17,9.74,156.81,156.81,0,0,1-24.45-2.41l.15,3.24a162.26,162.26,0,0,0,48.94.94,147.28,147.28,0,0,0,33-8.3C816.1,229.54,816,228.47,815.81,227.41Z"/><path class="cls-7" d="M810.43,202.54c-.35-1-.71-2-1.09-2.95a151.24,151.24,0,0,1-54.55,8.76,159,159,0,0,1-19.54-1.62c-.26,1-.48,2.06-.67,3.1a162.66,162.66,0,0,0,20,1.66,160.82,160.82,0,0,0,24.81-1.37A148,148,0,0,0,810.43,202.54Z"/><path class="cls-7" d="M782.16,316.42c14.32-1.93,27.08-5.75,31.25-11.68,8.84-12.56,6.28-101.74-10.31-115-3.52-2.82-9.9-5.13-17.31-6.4,2.81,7.88,7.53,22.9,7.23,34.12-.42,15.92,1.48,51.21-3.46,65.06C786.17,292,783.51,307.56,782.16,316.42Z"/><path class="cls-10" d="M786.79,292c-.25,1.06-.51,2.15-.75,3.24,1.79-.18,3.6-.38,5.44-.63a142.42,142.42,0,0,0,25.9-5.92h0c.11-1,.22-2.12.31-3.24,0-.06,0-.12,0-.18A141.11,141.11,0,0,1,786.79,292Z"/><path class="cls-10" d="M792.61,262.1c-.06,1.09-.13,2.17-.21,3.23a145,145,0,0,0,25.88-7.1h0c0-1.1-.07-2.2-.11-3.3v0A141.35,141.35,0,0,1,792.61,262.1Z"/><path class="cls-10" d="M815.82,227.42h0a139.6,139.6,0,0,1-22.8,6.67c0,1.06,0,2.13,0,3.22a146.41,146.41,0,0,0,23.21-6.68h0C816.1,229.54,816,228.47,815.82,227.42Z"/><path class="cls-10" d="M791.78,204.71c.2,1,.37,2.08.53,3.11a143,143,0,0,0,18.12-5.28h0c-.16-.47-.32-.93-.49-1.38a.69.69,0,0,0-.05-.13c-.18-.49-.36-1-.55-1.44h0A141.53,141.53,0,0,1,791.78,204.71Z"/><path class="cls-9" d="M765.32,171.05a8.11,8.11,0,0,1-.79-3.78c.19-2.5,4.78-7.55,7.19-8.27,1.37-.41,3.46,1.08,5,2.43C774.24,162.81,767.84,166.66,765.32,171.05Z"/><path class="cls-6" d="M776.72,161.43a25.77,25.77,0,0,1,2,1.95c-1.84,3.32-11,10.23-11.83,9.87a4.94,4.94,0,0,1-1.56-2.2C767.84,166.66,774.24,162.81,776.72,161.43Z"/><path class="cls-7" d="M782.17,162.36c-2.87-.28-6.9,1.5-10.1,4.27-4.88,4.24-8.18,7.36-7.85,9.82s6.95.71,11.7-1.75C780.31,172.43,787.31,162.86,782.17,162.36Z"/><path class="cls-6" d="M781.59,165.55c-3.33-2.85-12.27,1.77-13.38,7.35-.87,4.33,2,5.68,3,5.3C775.68,176.58,783.92,167.55,781.59,165.55Z"/><path class="cls-11" d="M770.87,173.7l-3.39,11.48c0,1.65,6.47,4.82,9,2.64.74-.63.16-10.71.16-10.71Z"/><path class="cls-6" d="M776.86,183.78c0-1,0-2-.06-3l-4.82-.88S773.09,182.39,776.86,183.78Z"/><path class="cls-11" d="M773.24,169.41l-2.32,6.45a4.18,4.18,0,0,0,2.82,5.11,11.54,11.54,0,0,0,5.11.35c1.86-.17,2.87-1.93,2.94-4.37a23,23,0,0,0-1.25-7.66C779.34,165.76,775.06,165.31,773.24,169.41Z"/><path class="cls-9" d="M777.34,174.27a11.47,11.47,0,0,0,3.72.22s0,1.42-.86,1.89S777.81,176,777.34,174.27Z"/><path class="cls-11" d="M772.69,172.41a5.68,5.68,0,0,1-.35-1.22c-.14-.8-.54-1.94-1.62-1.15-1.55,1.16-.54,5.35,1.48,5.31C773.7,175.32,773.1,173.4,772.69,172.41Z"/><path class="cls-5" d="M774.55,179.9a6.83,6.83,0,0,0,5-.6,2.43,2.43,0,0,1,1.84-.16,3,3,0,0,1-2.54,2.18,11.54,11.54,0,0,1-5.11-.35,4.16,4.16,0,0,1-2.87-3.18A7.39,7.39,0,0,0,774.55,179.9Z"/><path class="cls-5" d="M665.7,221.85c0,.05.12.14.07.15-8.45,2.8-34.63,9.13-38.81,9s.23,18.39,14.59,17.34,44.86-8,47.48-22.95a7.19,7.19,0,0,0-.49-4.18C682,218.78,669.42,221.09,665.7,221.85Z"/><path class="cls-6" d="M625.77,207.83s4.69-7-6.45-7.63c-7.75-.47-8,10.66-14.83,9.87s-8.86-2.58-11.55-.67-.81,6.61-2.69,7.23-8.75-3.65-15.26,0-5.55,18.53,5.22,21.23,18.19.53,20.66-3.62,2.5-7.66,6.65-6.1,19.29,4.2,23.44-2.61S625.77,207.83,625.77,207.83Z"/><path class="cls-12" d="M676.36,379.71c2.77-33.11-30.15-87.4-30.26-87.83-19.58,4.55-48.2-1.15-57.87-3.34A105.8,105.8,0,0,0,583,300.19c-8.83,23.36,3.09,65.33-3.38,96.66-6,28.87-.19,76.18,3,81.33,2.73,4.05,13,6.72,17.16-.18,6.2-10.38,19.21-78.24,25-138.95,16.14,12.55,13.87,39,13,49.34-.66,7.85-6.44,69.54,2.73,91.3,1.72,4.1,10.3,2.18,13,1.45C663.31,478.48,673.93,408.67,676.36,379.71Z"/><path class="cls-13" d="M609.18,358.39c-2.93,18.1-5,52.05-5,67.46,0,5,2.73,8.68,6.4,11.29,5.35-27.21,10.91-63.79,14.16-98.09C624.72,339.05,612.11,340.28,609.18,358.39Z"/><path class="cls-13" d="M634.8,293.42c4,9.7,11.71,27.56,17.36,37.65,8.05,14.35,3.59,28.87,21.76,58,.43.68.87,1.33,1.31,2,.47-4.19.85-8,1.13-11.3,2.77-33.11-30.15-87.4-30.26-87.83A68.75,68.75,0,0,1,634.8,293.42Z"/><path class="cls-8" d="M631,225.53c4.15-6.82-5.19-17.7-5.19-17.7-1.86.34-.68,3.93-2.3,6s-16,4.15-22,6-5.17,10.32-16.31,9.87c-7.92-.32-12.25-4.3-14.09-6.58-.86,5.7,1.94,12.94,9.14,14.74,10.77,2.69,18.19.53,20.66-3.62s2.5-7.66,6.65-6.1S626.81,232.34,631,225.53Z"/><path class="cls-11" d="M627,216.62a5.84,5.84,0,0,0,.14-1.25c0-.8.21-2,1.4-1.39,1.72.88,1.42,5.16-.57,5.45C626.46,219.65,626.73,217.66,627,216.62Z"/><path class="cls-11" d="M616.49,220.59l-1.18,12.32c-.19,2,4.37,7.66,7.79,5.36,1-.67,0-3.57-.71-5.75l-1.53-10.79Z"/><path class="cls-6" d="M621.77,228.14c-2.58-1-4.9-5.22-4.9-5.22l4.21.35Z"/><path class="cls-11" d="M617.15,212.69,616,217.36a7.12,7.12,0,0,0,4.88,8.61c3.4.9,6.9-.81,7.77-5.13.78-3.84-1.69-7.42-2.54-9.26C624.18,207.39,618.85,207.41,617.15,212.69Z"/><path class="cls-11" d="M616.05,217.21a5.76,5.76,0,0,1-.22-1.24c-.06-.8-.34-2-1.48-1.3-1.66,1-1.09,5.24.91,5.4C616.75,220.2,616.35,218.23,616.05,217.21Z"/><path class="cls-9" d="M621.17,219.73a14,14,0,0,0,4.6-.22,5.52,5.52,0,0,1-1.53,2.67C623.23,222.87,622,221.77,621.17,219.73Z"/><path class="cls-5" d="M621.43,224.46a9.34,9.34,0,0,0,5.1-1,9.7,9.7,0,0,0,2.17-2.87c0,.08,0,.15,0,.22-.87,4.32-4.37,6-7.77,5.13a6.85,6.85,0,0,1-4.67-4.43A8.84,8.84,0,0,0,621.43,224.46Z"/><path class="cls-14" d="M667,334.73c-4.07-15-25.61-61.92-26.74-69.37-1.23-8.12,6.26-10.61,2.86-18.67-1-2.32-5.37-6.9-5.91-8.61-2.67-8.45-21.8-10.41-32.38-4.48-7.37,4.14-5.9,27.15-8.13,31.92s-7.78,20.49-23.5,48.53C569,321.54,555,335.88,561.76,341.2c9.09,7.18,20,7.67,28.94,2.89C623.47,326.5,635.56,345.85,667,334.73Z"/><path class="cls-11" d="M619.65,239.77c6.38.62,11.5.95,10.73-2.92-.51-2.55-1.25-3.5-3.42-5.87a34.13,34.13,0,0,0-15.5.12C612.38,233.68,614.19,239.23,619.65,239.77Z"/><path class="cls-5" d="M622.92,210.74l.15,0Z"/><path class="cls-5" d="M632.91,207.74s-11,.33-11,1.21,2.15.54,2.05.54c-1.18.43-5,1.39-3.74,3.09.3.4,6.48,1.14,13.84.07,7.06-1,30,9.61,31.4,11.59,6.43,4.35,20.46,1.29,23.07-3.05C683.49,209.55,648.39,206.19,632.91,207.74Z"/><path class="cls-11" d="M605.73,232.73c-14.79,2.87-60.59,8.46-67.68,33.54-8.67,30.66,50.48,42.32,64,37.39s-42.76-30.87-42.7-34.37c.1-6.64,37.43-11.62,44.2-17.53C610.59,245.63,613.05,231.32,605.73,232.73Z"/><path class="cls-11" d="M606.7,292.19c.87-.81,5.84-1.52,5.95-.46s-3.09,1-3.73,1.57c0,0,4.57-1.09,4.77.1.49,2.82-1.39,3.05-2.9,3.64s-.92.64-.92.64,1.81-.37,2.78-.64c.44-.13,1.46.52-.41,1.75a20.81,20.81,0,0,1-4,2.54,13.39,13.39,0,0,1-5.37,2.06c-1.61.2-2.52-.29-2.71-2.78S606.7,292.19,606.7,292.19Z"/><path class="cls-5" d="M580.53,251.61c-10.17,4.19-23.48,2.84-24.68,9.43s-1.05,12.11,3.44,15.55,13,7.6,22.13,12A98.67,98.67,0,0,0,597.83,294c-12.36-9.47-38.51-22.28-38.47-24.67.1-6.64,37.43-11.62,44.2-17.53a21.35,21.35,0,0,0,6.16-10.71C603.61,243.13,588.52,248.32,580.53,251.61Z"/><path class="cls-5" d="M944.36,194.94s7.77-1.48,8.75-4.21-.17-3.95-.17-3.95,4.48-.6,5.35-2.23-4.52.33-6.3-.05-2.56-.56-4.15.53-5.56,1.05-5.84,4.27S944.36,194.94,944.36,194.94Z"/><polygon class="cls-7" points="143.82 300.82 519.81 373.5 949.63 300.82 771.06 594.25 336.75 594.25 143.82 300.82"/><path class="cls-4" d="M519.81,373.5s109.5,125.21,251.25,220.75C771.06,594.25,702.66,524.28,519.81,373.5Z"/><path class="cls-4" d="M336.75,594.25s84.61-68,183.06-220.75C519.81,373.5,431.46,468.43,336.75,594.25Z"/><path class="cls-11" d="M747.23,189.12c-17.67,10.47-37,26-50.2,59-16.29,40.59,21.76,89.28,31.63,84.35s-9.31-57.08-9-64.66c.9-20.14,38.74-48.46,40.83-59.43C763.44,193.05,752.84,185.8,747.23,189.12Z"/><path class="cls-5" d="M760.52,208.36a21.83,21.83,0,0,0-.83-12.33c-9.43,8.08-40.66,35.35-44.92,45.86-5,12.42-5.77,36.79,3.35,56.83,7.21,15.83,9.19,26.53,12.39,31.65,5-11-11.13-55.61-10.82-62.58C720.59,247.65,758.43,219.33,760.52,208.36Z"/><path class="cls-6" d="M734.47,243.69a94.21,94.21,0,0,1-1,13.68c8.61-6.73,25.16-44.76,25.16-44.76L734.1,233C734.29,236.61,734.47,240.21,734.47,243.69Z"/><path class="cls-6" d="M722.32,258.32a67.4,67.4,0,0,1,7.16-11.49L708.2,230.54S710.11,253.25,722.32,258.32Z"/><path class="cls-11" d="M739.35,334.1l-8.78-7.6s-6.28.34-7.63,2.92,7,11.41,9,13.58,2.87.51,2.4.12-2.09-4.95-2.09-4.95a24.72,24.72,0,0,1,1.64,2.48c1.14,1.86,2.88,3.53,4.12,2.51s.37-5.87.37-5.87c.92.7,1.61,4.95,3,4.55S740.64,335.05,739.35,334.1Z"/><path class="cls-9" d="M747.23,189.12c-13.48,8-27.9,18.92-39.86,38.29,1.48,7,6,17.51,19.92,22.45,11.4-16.46,31.72-33.54,33.23-41.5C763.44,193.05,752.84,185.8,747.23,189.12Z"/><path class="cls-7" d="M759,194.59c-2.17,5.64-6.2,13.82-12.42,18.18-10.1,7.06-14.92,4.93-21.65,13.12a100.12,100.12,0,0,0-10.19,16,31.17,31.17,0,0,0,12.52,8c11.4-16.46,31.72-33.54,33.23-41.5C761.62,202.57,760.79,197.94,759,194.59Z"/></svg>