<svg xmlns="http://www.w3.org/2000/svg" xmlns:xlink="http://www.w3.org/1999/xlink" viewBox="0 0 1100 700"><defs><style>.cls-1{isolation:isolate;}.cls-2{fill:url(#radial-gradient);}.cls-3{fill:#e8deec;}.cls-4{fill:#662483;}.cls-5{fill:#f9bfdf;}.cls-6{fill:#b291c1;}.cls-7{fill:#d60b52;}.cls-8{fill:#fff;}.cls-9{fill:#311e69;}.cls-10{fill:#ad263d;}.cls-11{fill:#e6007e;}.cls-12{fill:#ff6161;}.cls-13{fill:#aa3766;}.cls-14{fill:#f9b233;}.cls-15{fill:#d95f76;}.cls-16{fill:#0e2050;}.cls-17{fill:#36a9e1;}.cls-18{fill:#ffe6e6;}.cls-19{fill:#ebebeb;}.cls-20{fill:#f2f2f2;}.cls-21{fill:#8e604c;}.cls-22,.cls-25{mix-blend-mode:color-dodge;}.cls-22{fill:url(#_4);}.cls-23,.cls-26{mix-blend-mode:screen;}.cls-23{fill:url(#_7);}.cls-24{fill:#2c8796;}.cls-25{fill:url(#_4-2);}.cls-26{fill:url(#_7-2);}</style><radialGradient id="radial-gradient" cx="857.11" cy="12233.32" r="236.43" gradientTransform="translate(-696.38 -922.6) scale(1.4 0.13)" gradientUnits="userSpaceOnUse"><stop offset="0" stop-color="#b2b2b2"/><stop offset="1" stop-color="#fff" stop-opacity="0"/></radialGradient><linearGradient id="_4" x1="577.31" y1="386.98" x2="588.51" y2="414.25" gradientUnits="userSpaceOnUse"><stop offset="0" stop-color="#4d4d4d"/><stop offset="1"/></linearGradient><linearGradient id="_7" x1="598.47" y1="350.78" x2="597.66" y2="385.97" gradientUnits="userSpaceOnUse"><stop offset="0" stop-color="gray"/><stop offset="1"/></linearGradient><linearGradient id="_4-2" x1="-8635.69" y1="391.2" x2="-8624.5" y2="418.47" gradientTransform="matrix(-1, 0, 0, 1, -8086.76, 0)" xlink:href="#_4"/><linearGradient id="_7-2" x1="-8614.54" y1="355" x2="-8615.35" y2="390.19" gradientTransform="matrix(-1, 0, 0, 1, -8086.76, 0)" xlink:href="#_7"/></defs><title>2789 Website–Key Features–V1B</title><g class="cls-1"><g id="Layer_1" data-name="Layer 1"><ellipse class="cls-2" cx="500.88" cy="636.84" rx="330.27" ry="30.14"/><path class="cls-3" d="M384.9,159.29c-69.47,64.07-129,253.16-4.57,360.05s345.5,75.42,345.5-204.92C725.83,102.72,454.37,95.21,384.9,159.29Z"/><path class="cls-4" d="M515.85,368.39s-16.16,7.73-27.64,8.33-25.91,1.91-38,9.78-48.22,119.73-48.22,119.73L527.25,523l.66-85.66V408.8Z"/><path class="cls-5" d="M474.33,68.62c-26.84,24.91-67.48,29-102.8,21.68-5.25-1.09-11.21,3.26-11.67,8.69-3.3,38.6-1.86,79.07,10.35,116.61,12.35,38,35.65,73.71,70.26,94.78,12,7.34,26.33,13.91,40.63,15,12.94-1,25.71-7.42,36-15,30.09-22.2,44.71-59.85,54.32-94.63C581.94,177.61,586.66,137,593,99c.9-5.37-4.33-9.76-9.48-8.69C551.37,97,509.71,95.14,487,68.62,483.92,65,477.77,65.43,474.33,68.62Z"/><path class="cls-6" d="M593,99c.9-5.37-4.33-9.76-9.48-8.69C551.37,97,509.59,96.59,487,68.62a7.2,7.2,0,0,0-3.63-2.37c-10.45,29.32-16.45,60.12-19.49,91-5.51,56.05,5.45,114,22.26,167.44,53.93-11,76.64-73.51,88.21-120.17C583,169.82,587.27,133.26,593,99Z"/><path class="cls-4" d="M493.05,334.16l-.47,0c-25.13-1.75-49.49-16.94-67.71-33-21.63-19-37.5-44.07-48.12-70.73-16.48-41.37-20.16-87.79-15.24-131.31a20.17,20.17,0,0,1,8.16-13.8c4.3-3,10.1-4.83,15.34-3.63,31.7,7.26,69,3.55,94.44-19.16h0c3.71-3.17,8.83-5.65,13.6-5.36,4.49.27,8.72,1.53,11.76,5.36C525,88,564.93,88,593.31,81.71a16.75,16.75,0,0,1,14.32,3.63c3.84,3.37,5.21,9,4.59,13.8C606.59,142.85,600,188,586.86,230.45c-7.81,25.19-18.31,50.77-35.74,70.73-14.3,16.39-34.9,31.32-57.61,33ZM379.15,98.91c-6.49,66.23,4.91,143.72,56.72,189.92,14.78,13.18,33.9,25.53,54.28,27.78a61.4,61.4,0,0,0,15.14-4.2c12.77-5.11,23.73-14.3,32.69-24.66,15.31-17.68,24.73-40.45,31.8-62.76,13-40.85,19-83.77,24.85-126.09-16.28,3.35-33.1,4.62-49.37,2.83-20.65-2.29-41.38-10.23-55.07-27a109.78,109.78,0,0,1-62.34,27A158.25,158.25,0,0,1,379.15,98.91Z"/><path class="cls-7" d="M482.58,334.16l-.47,0c-25.14-1.75-49.5-16.94-67.71-33-21.64-19-37.5-44.07-48.12-70.73C349.79,189.08,346.12,142.66,351,99.14a20.17,20.17,0,0,1,8.16-13.8c4.3-3,10.1-4.83,15.34-3.63,31.71,7.26,69,3.55,94.45-19.16h0c3.71-3.17,8.82-5.65,13.6-5.36,4.48.27,8.72,1.53,11.76,5.36C514.51,88,554.46,88,582.84,81.71a16.72,16.72,0,0,1,14.31,3.63c3.85,3.37,5.22,9,4.59,13.8-5.63,43.71-12.18,88.86-25.35,131.31-7.82,25.19-18.31,50.77-35.74,70.73-14.31,16.39-34.9,31.32-57.61,33ZM368.67,98.91c-6.49,66.23,4.91,143.72,56.72,189.92,14.78,13.18,33.9,25.53,54.29,27.78a61.2,61.2,0,0,0,15.13-4.2c12.78-5.11,23.73-14.3,32.7-24.66,15.31-17.68,24.72-40.45,31.8-62.76,13-40.85,19-83.77,24.85-126.09-16.28,3.35-33.11,4.62-49.38,2.83-20.64-2.29-41.38-10.23-55.06-27a109.78,109.78,0,0,1-62.34,27A158.31,158.31,0,0,1,368.67,98.91Z"/><path class="cls-8" d="M442.1,114c-5.82-4.15-41.06-4.73-50.47,0-2.28,1.15-2.38,9.94-2.61,13.62a167.15,167.15,0,0,0,.76,28.47c2.11,19.67,7.26,44.87,23,58.31,10.75,9.18,21.44-31.49,22.72-36.22a260.78,260.78,0,0,0,7.25-35.85C443.89,133.26,445.16,116.16,442.1,114Z"/><path class="cls-9" d="M683.52,320.38s.68-4.55,7.93-6.64,14.67,5.23,14.89,10.15c.43,9.63,6.07,10.52,4.24,17-.68,2.41-4.24,6.76-2,9.5s8.12,3.08,6.89,10.91A16.49,16.49,0,0,1,701,375.43c-7.14.68-15.56-9.66-12.12-16.11s4-5.92,3.72-9-5.2-5.13-5.26-10.17S683.52,320.38,683.52,320.38Z"/><path class="cls-4" d="M478.69,432.63s34.6,42.48,57.73,32.31,41.68-35.92,35.85-51S557.51,370.14,545,368.34s-22.49-5.74-34.89,1.47S470.23,423.37,478.69,432.63Z"/><path class="cls-10" d="M713.84,374.88s-59.94-33.83-82.31-36.13-65.89.92-73.27,2.3,124.46,53.07,132.82,50.55S713.84,374.88,713.84,374.88Z"/><path class="cls-11" d="M558.16,344.93c18.88-4.11,62.63-11.95,83,.77s28,48.86,29,64.59c3.75,60.76-20,100.41-43.81,121.54-21.36,19-115.14-67.35-103.45-82.19,4.89-6.22,24.3-14.07,28.45-31.95C554.05,405.87,513.63,354.64,558.16,344.93Z"/><path class="cls-10" d="M585.09,336.61s.48,9.86,5.1,13.3,13.31-2.05,13.8-8.46-2.68-14.18-4.42-15.06S585.09,336.61,585.09,336.61Z"/><path class="cls-12" d="M602.68,323.28s1-5.66,2.78-5.4,1.1,9.88-1.69,9.9S602.68,323.28,602.68,323.28Z"/><path class="cls-12" d="M576.45,325s-1.82-5.44-4-4.84-.1,10,3.21,9.53S576.45,325,576.45,325Z"/><path class="cls-12" d="M577.33,310.62s20.61-6.59,24.21,1.18,1.35,21.9-1.5,26.74-13.61,6.38-19.81-.62C574.65,331.61,570,315.3,577.33,310.62Z"/><path class="cls-8" d="M586.31,333.28s7.21-.46,9.24-1.48c0,0-1,3.82-4,4.2S586.31,333.28,586.31,333.28Z"/><path class="cls-9" d="M578.89,314.39s4,5.19,10.49,4.67,6.48-6.7,8.47-7,3.54,4.06,3.9,6.68-.25,6.75,1.09,5.73,1.44-2.68,1.91-5.1,1.94-14.63-.71-17.7-11-5.14-11-5.14-6.31-3.61-11.32-.31-9.7,5-11.42,10.12c-.75,2.21,2.29,18.58,5.44,20.42S572.69,313.34,578.89,314.39Z"/><path class="cls-9" d="M678.53,318.58s7.16-.1,11.31,4.47c5.67,6.25,1,21.81-.3,25.32s-6.31,8.8-10.63,8.59-17.84-7.73-19.72-10.81-2.65-15.84,1.76-23S676.54,315.72,678.53,318.58Z"/><path class="cls-7" d="M638.86,344.42s78.39,33.65,76.75,39.28-20.86,27-32.78,24.33-49.32-20.7-52.84-28C621,361.45,638.86,344.42,638.86,344.42Z"/><path class="cls-13" d="M440.73,599.46s-1.05,1.95-.76,3.13,14.34,12.25,26.84,18.8,20.64,9.84,22,8.79,1.75-4.38-.38-6.25S440.73,599.46,440.73,599.46Z"/><path class="cls-10" d="M491.49,616.45c-.33-5.71,7.51-12.55,9.39-16.42L482,589.26s-2.63,9.61-7.13,11.85c-2,1-4.61-.29-13.89-2.6-8.16-2-18.12-5.49-20.27,1-1.35,4,38.24,28.13,46.64,28.43C491.76,628,491.84,622.72,491.49,616.45Z"/><path class="cls-13" d="M463.5,599.15l-2.5-.64c-8.16-2-18.12-5.49-20.27,1-.76,2.29,11.62,11,24,18.21C467.7,610.75,465.55,603.58,463.5,599.15Z"/><path class="cls-14" d="M525.3,551.81l53.1-.74c36-.49,32.76,13.92,32.76,13.92s9.66-4.33,14.67-2.85-5.32,12.79-5.32,12.79,5.15,11.5-11.08,19.16-90.28,1-90.28,1-71.28,1.12-87.3.68a17.37,17.37,0,0,1-6.63-1.52c-12.73-5.67-14.21-23.26-3-31.58,4.95-3.68,9.61-7,10.73-7.27C445.78,552.29,479.54,518.2,525.3,551.81Z"/><path class="cls-15" d="M463.31,611.92s-1.05,2-.76,3.13,14.34,12.25,26.83,18.8,20.65,9.84,22,8.79,1.74-4.38-.38-6.25S463.31,611.92,463.31,611.92Z"/><path class="cls-12" d="M514.06,628.91c-.32-5.71,7.52-12.56,9.4-16.42L504.6,601.72s-2.63,9.61-7.14,11.85c-2,1-4.61-.29-13.88-2.6-8.16-2-18.12-5.49-20.27.95-1.35,4,38.24,28.13,46.64,28.43C514.34,640.5,514.42,635.18,514.06,628.91Z"/><path class="cls-15" d="M486.08,611.61c-.78-.2-1.6-.42-2.5-.64-8.16-2-18.12-5.49-20.27.95-.77,2.29,11.62,11,24,18.21C490.28,623.21,488.13,616,486.08,611.61Z"/><path class="cls-14" d="M652.19,373.21s-36.3,6.16-61.79,33.28-39.63,35.81-21.31,58.43S653.3,431,661.23,411.61,652.19,373.21,652.19,373.21Z"/><path class="cls-14" d="M609,507.05c14.64-10.93,30.12-60.52,18.79-76.84-12.29-17.7,3.34-51.88,20.41-57C682.24,363,708.45,361.62,724.54,392s2.17,116.06,11.25,143.9C709.43,535.23,644.64,531,609,507.05Z"/><path class="cls-14" d="M576.77,402.32s-22.8,25.85-17.39,46.29,26.08,8.35,31,1S596.94,402.35,576.77,402.32Z"/><path class="cls-16" d="M707.22,533.39s-116.64-94-156-87.79-5.5,66.79,29.89,102.76c43.54,44.26,69,58.53,110.4,47.52C722,587.75,707.22,533.39,707.22,533.39Z"/><path class="cls-16" d="M541.37,449.64s-10.74.67-26.65,44.49-46.89,99.24-35.87,106.4c3.76,2.44,10.93,8.79,15.42,7.5,26.51-7.62,59.78-78.55,68.64-110.94C573.27,459.2,541.37,449.64,541.37,449.64Z"/><path class="cls-17" d="M735.11,533.39s-116.64-94-156-87.79-5.7,62.91,23.87,103.79c36.2,50,43.81,54,107.86,51.87C764.67,599.43,735.11,533.39,735.11,533.39Z"/><path class="cls-17" d="M566.39,451.45S555.86,456.21,540,500,495.56,608.24,503,611.9c3.58,1.77,9.48,6.49,13.78,5.24,29-8.4,69.13-82.63,78.15-115.62C605.25,463.63,566.39,451.45,566.39,451.45Z"/><path class="cls-12" d="M680.18,345.76l7.79,23c1.26,3.79-4.92,16.59-12.47,13.73-2.21-.84-1.61-6.81-1.23-11.29l-1.92-21.28Z"/><path class="cls-9" d="M673.49,362.53c8.39-2.6,7-12.17,7-12.17l-7.88,2.57Z"/><path class="cls-12" d="M677.07,331.43l4.22,8.42c3.36,6.68,1.09,15.09-5.52,18.58-6.1,3.22-13.54,1.5-17.11-6.37-3.17-7,0-14.92.79-18.8C661.31,324.41,671.5,322.1,677.07,331.43Z"/><path class="cls-12" d="M678.25,339.66a11.1,11.1,0,0,0,.56-2.41c.21-1.56.89-3.83,3.05-2.38,3.14,2.12,1.55,10.37-2.39,10.48C676.54,345.43,677.54,341.62,678.25,339.66Z"/><path class="cls-10" d="M674.07,355.8c-2.64.93-6.16,2.13-10.16.39-2.16-.93-4.83-3.86-5.4-4.52,0,.13.09.26.15.39,3.57,7.87,11,9.59,17.11,6.37a13.38,13.38,0,0,0,7-10.5A17.34,17.34,0,0,1,674.07,355.8Z"/><path class="cls-18" d="M662.58,348.55s6.58.78,9.94-.42c0,0-4,2.9-6.27,2.6A6.25,6.25,0,0,1,662.58,348.55Z"/><path class="cls-8" d="M614.87,395.21s2-6.21,8.17-6.38,6.38,7.49,5.37,11.69S622.93,415,617,415c-4.59,0-3.36-6-1.85-6s2,1.48,2.63,1.39,5.77-5.81,6.72-10c1-4.36.28-7.21-1.91-7.44s-5.78,3.6-5.61,5.23-1.77,3.84-3.34,1.37S614.87,395.21,614.87,395.21Z"/><path class="cls-19" d="M626.13,389.62c1,2.39,2.36,6.28,1.48,9.33-3,10.21-5.1,11.07-6.78,12.42s-3.33,1.3-3.91.29a4,4,0,0,0-2.86-1.46c-.65,1.74-.35,4.81,2.94,4.81,5.93,0,10.4-10.3,11.41-14.49C629.21,397.19,629.23,391.67,626.13,389.62Z"/><path class="cls-8" d="M615.39,384.51l-35.45-.05V424h0c0,1.61,7.81,2.92,17.73,2.92s17.72-1.31,17.72-2.92Z"/><path class="cls-19" d="M608.55,394.87c-.11,3.58.13,22.43,0,25.56a38.46,38.46,0,0,0,0,5.88c4.18-.53,6.83-1.37,6.83-2.31V384.51h-7.64A98.46,98.46,0,0,1,608.55,394.87Z"/><ellipse class="cls-20" cx="597.67" cy="384.46" rx="17.73" ry="2.93"/><path class="cls-8" d="M597.67,381.53c-9.79,0-17.73,1.31-17.73,2.93s7.94,2.92,17.73,2.92,17.72-1.31,17.72-2.92S607.45,381.53,597.67,381.53Zm11.57,4.13a93.4,93.4,0,0,1-23.15,0,16.9,16.9,0,0,1-4.84-1.2,16.18,16.18,0,0,1,4.84-1.2,93.4,93.4,0,0,1,23.15,0,16.18,16.18,0,0,1,4.84,1.2A16.9,16.9,0,0,1,609.24,385.66Z"/><path class="cls-19" d="M597.67,382.54a83.31,83.31,0,0,0-11.58.72,16.18,16.18,0,0,0-4.84,1.2,16.9,16.9,0,0,0,4.84,1.2,93.4,93.4,0,0,0,23.15,0,16.9,16.9,0,0,0,4.84-1.2,16.18,16.18,0,0,0-4.84-1.2A83.26,83.26,0,0,0,597.67,382.54Z"/><path class="cls-21" d="M597.67,384.46a83.31,83.31,0,0,0-11.58.72c-.54.07-1,.16-1.46.24l1.46.24a93.4,93.4,0,0,0,23.15,0l1.46-.24c-.44-.08-.92-.17-1.46-.24A83.26,83.26,0,0,0,597.67,384.46Z"/><path class="cls-22" d="M581.25,386.65s-.73,30.93,0,31,8.06-26.34,5.77-28A30.08,30.08,0,0,0,581.25,386.65Z"/><path class="cls-23" d="M584.63,385.42s1.12-7.78,4.36-8.82,4,1.45,6.36.18-2-5.25-.49-7,8.5.33,7.6-2.63-6.21-1.29-5.44-3.91,3.73-3.78,3.85-3.09-1.23,2.95.64,3.09,9.66-.16,8.56,3.91-6.54,1.95-7.61,2.38,5.36,2.06,4.77,6.58-2.41,4.43-1.56,5.41,5.35,2.31,5,3.89A84.48,84.48,0,0,1,584.63,385.42Z"/><path class="cls-24" d="M709.29,382.87c-14.18,1.3-15.46,27.69-16,52.71-.49,23.1-.74,45-.74,45S636,404.75,615.47,417.54,664.15,537.14,699.7,533C750.18,527.13,748.25,379.32,709.29,382.87Z"/><path class="cls-12" d="M621.24,413.16s-3-6.93-4-9.54c-1-2.84-1.23-10.12-4.13-5.88s2,8.63-1.82,8.73-9.61-5.56-12.86-7.74c-4.74-3.18-7.34.9-4.59,8.93s11.32,17.88,21.55,15.16S621.24,413.16,621.24,413.16Z"/><path class="cls-10" d="M577.45,397.81c-1.06-1.29.25-6.17-1.73-8.53s-3.28.58-2.68,3.89a19.73,19.73,0,0,1-.38,7,9.53,9.53,0,0,0-.2,1.19,35.17,35.17,0,0,0,1,12.78c1.93,6.66,9.17,9.34,12.37,8.71s5.62-9.42,4.35-11.7-6.15-3-4.93-3.62,4.39,1.64,7.17-.38S578.52,399.1,577.45,397.81Z"/><path class="cls-9" d="M665.81,329.24a31.92,31.92,0,0,0,4.24,6c2.4,2.52,8.2,4.45,8.2,4.45l-1-3.59a18.29,18.29,0,0,1,2.58,5.29c.43,2.21,1.78,6.57,1.78,6.57s4.25-7.13,3.94-11.74-6.83-14.27-12.18-13.53S664.15,324,665.81,329.24Z"/><path class="cls-9" d="M666.93,329.34s-4.35,1.85-6.52,5.29a35.09,35.09,0,0,0-2.57,5.25s-4.36-4.88-.06-13.67C660.4,320.83,669.76,320.57,666.93,329.34Z"/><path class="cls-4" d="M691.37,367.12s10.35,29.33,13.25,50.57a174.61,174.61,0,0,1-2.13,59.72C698,498.56,684,554.66,684,554.66s42.76,35.59,94.2,39.56c0,0-32.2-93-33.92-120.26s-3.45-71.64-21.16-91.15A47.19,47.19,0,0,0,691.37,367.12Z"/><path class="cls-4" d="M582.35,340.63s-15.1,3.1-21.82,24.43-54,18.46-66.95,36.29-21.12,50.1-21.12,50.1-23.13-36.37-27.56-46,11-18.38,23.62-29.69c12.23-11,66.08-34.73,103.94-36a33.91,33.91,0,0,1,6.67.44Z"/><path class="cls-12" d="M485.72,410.18v-1.67s3.8-8.65,8.12-10.41,4.68-3.89,5.87-3.25.16,4.63-1.2,6.17S485.72,410.18,485.72,410.18Z"/><path class="cls-8" d="M511.37,399.42s-2-6.21-8.16-6.37-6.38,7.49-5.37,11.69,5.48,14.49,11.41,14.49c4.59,0,3.35-6,1.84-6s-2,1.48-2.63,1.38-5.76-5.81-6.71-9.94c-1-4.36-.28-7.21,1.9-7.44s5.78,3.6,5.61,5.22,1.78,3.84,3.34,1.38S511.37,399.42,511.37,399.42Z"/><path class="cls-19" d="M500.11,393.84c-1,2.39-2.35,6.28-1.47,9.33,2.95,10.21,5.09,11.07,6.78,12.42,1.53,1.22,3.32,1.3,3.91.29a4,4,0,0,1,2.86-1.47c.64,1.75.34,4.81-2.94,4.82-5.93,0-10.41-10.3-11.41-14.49C497,401.41,497,395.89,500.11,393.84Z"/><path class="cls-8" d="M510.86,388.73l35.45-.06v39.54h0c0,1.62-7.81,2.93-17.73,2.93s-17.72-1.31-17.72-2.93Z"/><path class="cls-19" d="M517.69,399.09c.12,3.58-.12,22.43,0,25.56a38.46,38.46,0,0,1,0,5.88c-4.18-.54-6.83-1.37-6.83-2.32V388.73h7.64A98.57,98.57,0,0,0,517.69,399.09Z"/><path class="cls-20" d="M510.86,388.67c0,1.62,7.93,2.93,17.72,2.93s17.73-1.31,17.73-2.93-7.94-2.92-17.73-2.92S510.86,387.06,510.86,388.67Z"/><path class="cls-8" d="M510.86,388.67c0,1.62,7.93,2.93,17.72,2.93s17.73-1.31,17.73-2.93-7.94-2.92-17.73-2.92S510.86,387.06,510.86,388.67Zm1.31,0a16.9,16.9,0,0,1,4.84-1.2,93.32,93.32,0,0,1,23.14,0,17,17,0,0,1,4.85,1.2,16.3,16.3,0,0,1-4.85,1.2,93.32,93.32,0,0,1-23.14,0A16.18,16.18,0,0,1,512.17,388.67Z"/><path class="cls-19" d="M528.58,386.75a84.84,84.84,0,0,1,11.57.72,17,17,0,0,1,4.85,1.2,16.3,16.3,0,0,1-4.85,1.2,93.32,93.32,0,0,1-23.14,0,16.18,16.18,0,0,1-4.84-1.2,16.9,16.9,0,0,1,4.84-1.2A84.84,84.84,0,0,1,528.58,386.75Z"/><path class="cls-21" d="M528.58,388.67a84.84,84.84,0,0,1,11.57.72l1.47.24-1.47.24a93.32,93.32,0,0,1-23.14,0l-1.46-.24,1.46-.24A84.84,84.84,0,0,1,528.58,388.67Z"/><path class="cls-25" d="M545,390.86s.73,30.94,0,31.05-8.06-26.35-5.77-28A30.42,30.42,0,0,1,545,390.86Z"/><path class="cls-26" d="M541.62,389.63s-1.12-7.77-4.36-8.82-4,1.46-6.36.19,2-5.25.49-7-8.5.33-7.6-2.63,6.2-1.29,5.44-3.91-3.73-3.78-3.86-3.09,1.23,2.95-.63,3.09-9.66-.16-8.56,3.91,6.54,1.95,7.61,2.37-5.37,2.07-4.77,6.59,2.4,4.43,1.56,5.41-5.35,2.31-5,3.88A84.11,84.11,0,0,0,541.62,389.63Z"/><path class="cls-12" d="M495.38,400.34s8.39-2.77,9.91-2.15,0,5.35,0,5.35a63.82,63.82,0,0,1,1.85,7.21c.05,1.34.18,3.74-5.88,5.52s-17.94,4.92-17.94-.8S488.55,403.85,495.38,400.34Z"/><path class="cls-24" d="M690.1,567.94l53.1-.74c36-.49,32.76,13.93,32.76,13.93s9.66-4.33,14.67-2.86-5.32,12.8-5.32,12.8,5.15,11.49-11.08,19.15-90.28,1-90.28,1-71.28,1.12-87.3.68-23.3-22.66-23.3-22.66-10.48-16.4,0-19.11a29.33,29.33,0,0,1,16.54,1,14,14,0,0,0,7.84.38C610.58,568.42,644.34,534.34,690.1,567.94Z"/></g></g></svg>