<svg id="Layer_1" data-name="Layer 1" xmlns="http://www.w3.org/2000/svg" xmlns:xlink="http://www.w3.org/1999/xlink" viewBox="0 0 1100 700"><defs><style>.cls-1{fill:none;}.cls-2{clip-path:url(#clip-path);}.cls-3{fill:#d5e7ea;}.cls-4{fill:#2e88bf;}.cls-5{fill:#f9b233;}.cls-6{fill:#e94e1b;}.cls-7{fill:#0e2050;}.cls-8{fill:#f4af76;}.cls-9{fill:#efefef;}.cls-10{fill:#9d9d9c;}.cls-11{fill:#2c8796;}.cls-12{fill:#36a9e1;}.cls-13{fill:#95c3ca;}.cls-14{fill:#e6007e;}.cls-15{fill:#614cd4;}.cls-16{fill:#311e69;}.cls-17{fill:#ff6161;}.cls-18{fill:#fff;}.cls-19{fill:#1e1240;}.cls-20{fill:#d60b52;}.cls-21{fill:#ad263d;}.cls-22{fill:#851d43;}.cls-23{fill:#c6c6c6;}</style><clipPath id="clip-path"><rect class="cls-1" x="202.22" y="19.14" width="695.56" height="651.41"/></clipPath></defs><title>2789 Website–Key Features–V1B</title><g id="Group_9645" data-name="Group 9645"><g class="cls-2"><g id="Group_9427" data-name="Group 9427"><path id="Path_38821" data-name="Path 38821" class="cls-3" d="M766.5,494.71c-72.75,78.86-287.4,146.46-408.73,5.19S272.15,107.69,590.39,107.69c240.32,0,248.85,308.15,176.11,387"/><path id="Path_38822" data-name="Path 38822" class="cls-4" d="M347.65,140.85c7.14-6.71,26.14-5.49,44.16,17.8s33.9,51.76,39.6,52.53c10.92,1.47,82.43-69.28,94.49-60.07,17.15,13.08-19.34,94.7-74.73,113.37-61.08,20.58-127.84-100.8-103.52-123.63"/><rect id="Rectangle_3552" data-name="Rectangle 3552" class="cls-5" x="419.85" y="19.14" width="318.84" height="175.41"/><path id="Path_38823" data-name="Path 38823" class="cls-6" d="M518.82,174.52s12.9-1.12,23.46-5.23,32.45.37,51.9,4.86,25.8-3,38.89-6.4,26.56,5.28,49.75,13.13,19.44-2.62,33.66-6.36c8.49-2.23,16.85,2.6,22.21,6.84v13.19H510.85Z"/><rect id="Rectangle_3553" data-name="Rectangle 3553" class="cls-6" x="419.85" y="19.14" width="106.47" height="175.41"/><rect id="Rectangle_3554" data-name="Rectangle 3554" class="cls-7" x="468.28" y="19.14" width="9.6" height="175.41"/><rect id="Rectangle_3555" data-name="Rectangle 3555" class="cls-7" x="631.35" y="19.14" width="9.6" height="175.41"/><rect id="Rectangle_3556" data-name="Rectangle 3556" class="cls-8" x="536.47" y="38.4" width="61.68" height="43.46"/><rect id="Rectangle_3557" data-name="Rectangle 3557" class="cls-9" x="537.51" y="37.36" width="61.68" height="43.46"/><rect id="Rectangle_3558" data-name="Rectangle 3558" class="cls-10" x="546.69" y="50.89" width="43.33" height="2.08"/><rect id="Rectangle_3559" data-name="Rectangle 3559" class="cls-10" x="546.69" y="58.05" width="43.33" height="2.08"/><rect id="Rectangle_3560" data-name="Rectangle 3560" class="cls-10" x="546.69" y="65.21" width="43.33" height="2.08"/><path id="Path_38824" data-name="Path 38824" class="cls-11" d="M677.89,151.18V143.8s-78.39,39.14-92.73,115.48,62.5,105,62.5,105Z"/><path id="Path_38825" data-name="Path 38825" class="cls-7" d="M645.12,652c-3.67-5.62-4.62-11.76-5-16.8l-18.61-.3s1.16,6.4-2.06,11.34c-1.4,2.16-5.42,3.71-11,5.94-8.79,4.33-19.64,9.93-20.06,12.9-.7,4.95,50.64,5.64,59.25,1,4.51-2.44,1.47-7.9-2.55-14"/><path id="Path_38826" data-name="Path 38826" class="cls-7" d="M813.2,653.35c-3.67-5.61-4.62-11.75-5-16.79l-18.61-.3s1.16,6.4-2.06,11.34c-1.4,2.15-5.42,3.71-11,5.94-8.79,4.33-19.64,9.92-20.06,12.9-.7,4.95,50.64,5.63,59.25,1,4.51-2.45,1.48-7.9-2.55-14.06"/><path id="Path_38827" data-name="Path 38827" class="cls-12" d="M789.31,356.74c-2.74-17.19-4.82-59.28-6.13-71.77-.14-1.44-.23-2.87-.27-4.28-49.36,5.65-97.81-6.84-109.37-10.12a67,67,0,0,1-11.3,26.23c-21.57,30.11-56,327-43.07,342.64,6.24,7.53,27.32,12.61,35.57,4.1C684.14,613.22,712.5,384,712.5,384c2,8.1,25.55,156.42,61.11,260.53,2.95,8.63,37.06,6.91,38.25-4.26,5.23-49-15.88-241.47-22.55-283.49"/><path id="Path_38828" data-name="Path 38828" class="cls-7" d="M733.91,364.31c11.27-1.37,6.49,12.64,10.93,27.22s10.24,38.36,21.86,84.81,2,55.68,13.32,93.82,7.86,42.81,18.44,58.26a32.34,32.34,0,0,1,6.06,19c-10.51,4.18-28.79,3.33-30.91-2.88C738.05,540.39,714.49,392.06,712.5,384c0,0-.48,3.8-1.36,10.48-.42-5.91-.71-10.11-.8-12-.68-14,12.3-16.74,23.57-18.11"/><path id="Path_38829" data-name="Path 38829" class="cls-7" d="M654.74,643.54c-8.25,8.51-29.34,3.43-35.57-4.1-9.52-11.49,6.47-174,24.17-271.88l54,57.05s-28.2,32.44-27.69,61.86c.35,20.33,11.47,40.76,18.31,51.45-9.72,48.83-21.4,93.39-33.26,105.62"/><path id="Path_38830" data-name="Path 38830" class="cls-13" d="M632.7,411.06c-14.44-155.66,9.82-205,18.41-228.33,11.09-30.08,23.2-59.35,97.23-39.81C771.48,149,808.09,168,805,191.72c-1.88,14.67-16.32,66.33-17,89-.77,26.34,12.78,89.52,15.61,104.25,5.13,26.75-56.79,30.93-90.22,37.74-35.77,7.27-80.23-6.24-80.73-11.62"/><path id="Path_38831" data-name="Path 38831" class="cls-14" d="M651.1,182.73c1.41-3.82,2.84-7.64,4.41-11.34,78-8.5,126.39,23.26,145.64,39.55-3.91,17.25-9.55,40.65-12,57.79-36.52-15.93-130.41-27.54-154.44-30.31,5.27-29,12.44-45.07,16.35-55.69"/><path id="Path_38832" data-name="Path 38832" class="cls-15" d="M723,103.92s1-2.65,7.72-4.67a39,39,0,0,1,14.89-1c4.72.87,17.46,5.76,13.45,14.41-.77,1.66-3.5,4.43-6.83,2.61,0,0-1.3,16.57-12.72,16s-16.65-24-16.51-27.32"/><path id="Path_38833" data-name="Path 38833" class="cls-16" d="M730.73,99.25a40.75,40.75,0,0,1,11-1.34c-2.77.81-7.31,2.37-8.68,4.28-2,2.79-5.69,15.37-5.69,15.37l-.2,1.64c-2.9-6.52-4.27-13.59-4.19-15.28,0,0,1-2.66,7.72-4.67"/><path id="Path_38834" data-name="Path 38834" class="cls-16" d="M719.37,110.35s-1.16-3.07-.08-5.13,3.14-4.33,5.8-3.37,7.67,3.63,10.17,6.89,8.79,12.25,9.15,16.57-5.82,9.63-11.62,6.88c-7.17-3.41-12.19-18.21-13.42-21.84"/><path id="Path_38835" data-name="Path 38835" class="cls-17" d="M739.65,122l5.51,27.33c-.45,3.69-21.6,11.37-26.82,5.95-1.53-1.58-.6-5,1.49-8.68L732.06,127Z"/><path id="Path_38836" data-name="Path 38836" class="cls-16" d="M729.61,131c4.15-.2,9.84-.54,9.84-.54A17.74,17.74,0,0,1,732,141a16.94,16.94,0,0,1-10.35,2.78Z"/><path id="Path_38837" data-name="Path 38837" class="cls-17" d="M735.5,112.72l3.87,15A9.45,9.45,0,0,1,732,138.6c-4,.81-6.56.66-11.56-.28-4.16-.77-6.06-4.94-5.71-10.44a51.35,51.35,0,0,1,4.41-16.95c3.43-7.7,13.16-7.8,16.4,1.79"/><path id="Path_38838" data-name="Path 38838" class="cls-16" d="M739.37,127.71l-3.25-15.86c-.39-1.18-1.51-1.33-2.08-2.21,0,3-.35,9.31-1.22,10.33-2.23,2.62-1.9.1-6.82-.36-3.14-.3-7.55.87-10.35,1.77a44.49,44.49,0,0,0-1,6.5c-.35,5.5,1.55,9.67,5.71,10.45,5,.93,7.55,1.09,11.56.28a9.45,9.45,0,0,0,7.41-10.9"/><path id="Path_38839" data-name="Path 38839" class="cls-18" d="M726,122.85a25.48,25.48,0,0,1-8.4-.28s-.34,3.19,1.53,4.42,5.46-.4,6.87-4.14"/><path id="Path_38840" data-name="Path 38840" class="cls-19" d="M719.45,132.78c4.75-.64,7.87,6.7,16.65.49,1.63-1.15,2.65-4.12,3.18-5.89l.09.33A9.44,9.44,0,0,1,732,138.6c-4,.81-6.56.66-11.56-.28a6.57,6.57,0,0,1-5.09-4.74c.83.19,2.68-.6,4.14-.8"/><path id="Path_38841" data-name="Path 38841" class="cls-17" d="M734.72,118.63a13,13,0,0,0,.44-2.83c.12-1.82.72-4.5,3.33-3,3.8,2.19,3.29,11-1.25,11.48-3.38.34-3.18-3.33-2.52-5.65"/><path id="Path_38842" data-name="Path 38842" class="cls-13" d="M786.69,160.83c37.91,17.42,106.9,43.63,111,129.62C901,358.87,821.14,410.36,790.4,398.06c-9.71-3.88-15.24-19.35-6.2-31.19,19.59-25.63,56.87-58.88,53.54-82.32-3.6-25.36-66.14-52.93-77.9-77.53s14.93-51.67,26.85-46.19"/><path id="Path_38843" data-name="Path 38843" class="cls-7" d="M795.85,234.24c-3.15,14.18-6.16,28.89-7.33,39.84-15.48-18-27.63-64.49-27.63-64.49Z"/><path id="Path_38844" data-name="Path 38844" class="cls-7" d="M640.73,212.5l-19.88,63-13.32-13.33,8.8,18.5-13.58-3.81s9.27,15.71,17.42,24.93a44.49,44.49,0,0,0,17.42,12.3s14.14-62.14,3.14-101.6"/><path id="Path_38845" data-name="Path 38845" class="cls-11" d="M759.84,207c-4.69-9.8-3.26-20,.9-28.36,2.26,10.39,10.14,25.49,33.45,36.55,57.21,27.16,73.78,108.1,35.35,129.62a152.41,152.41,0,0,0-48.34,43.44,21.6,21.6,0,0,1,3-21.4c19.6-25.64,56.88-58.89,53.54-82.33-3.6-25.36-66.14-52.93-77.9-77.52"/><path id="Path_38846" data-name="Path 38846" class="cls-17" d="M787.36,385S776,370.79,773.68,370.23s-12.55.9-14.9,1.79-1,4.37-.67,4.48a17.13,17.13,0,0,1,2.57,1.83c.12.19,1.24,9.27,3.59,11.4s13.45,5.27,16.47,3.47,6.62-8.18,6.62-8.18"/><path id="Path_38847" data-name="Path 38847" class="cls-11" d="M679.27,142.42c-3.66,14-8.1,34.16-6.42,44.34,2.72,16.51-14.94,36.66-21.09,59.72s-8.2,26.64,1.54,47.13-4.1,29.21-3.59,63.53,6.15,23.57,23.57,48.67c6.16,8.89,8,14.75,7.71,18.63-25.66-1.73-47.94-9.58-48.29-13.38-14.44-155.66,9.81-205,18.4-228.33,2.16-5.85,6-20.1,8.73-25.53l7.81-5.89a42,42,0,0,1,11.63-8.89"/><path id="Path_38848" data-name="Path 38848" class="cls-20" d="M653.6,176.15c.47-1.21,1-2.42,1.46-3.63l.47-1.13q9.22-1,17.89-1.28c-.91,6.49-1.27,12.43-.57,16.65,2.49,15.12-12.11,33.3-19.3,54-8-1-14.51-1.81-18.8-2.3.15-.83.31-1.65.46-2.46,0-.1,0-.2,0-.29.15-.76.29-1.5.44-2.23l.09-.47c.14-.71.29-1.41.43-2.1l.11-.49c.14-.69.28-1.36.43-2,0-.16.07-.31.1-.47l.45-2,.09-.39c.16-.68.31-1.36.47-2l0-.2c1.25-5.23,2.53-9.93,3.81-14.17l.06-.19c.16-.54.33-1.07.49-1.6l.09-.27c.16-.51.31-1,.47-1.51l.09-.29c.16-.49.32-1,.47-1.45a2.47,2.47,0,0,0,.1-.29c.16-.48.31-1,.47-1.41,0-.07,0-.14.07-.21.16-.49.33-1,.49-1.45,0,0,0,0,0,0,1.07-3.11,2.11-5.93,3.08-8.49a.42.42,0,0,1,0-.1l.44-1.18,0-.11.45-1.16a.14.14,0,0,1,0-.06c.38-1,.75-2,1.11-2.89,0-.09.07-.19.11-.28.1-.25.19-.5.28-.74l.18-.48.27-.71.15-.39c.13-.36.27-.72.4-1.07.61-1.67,1.24-3.33,1.87-5,.2-.53.41-1.06.62-1.58"/><path id="Path_38849" data-name="Path 38849" class="cls-16" d="M308.58,120s-3.52-.65-2-5.93S310,94.76,319.32,93.73s13.9,2,15.18,5.94-3.38,6.86-5.4,7.77S308.58,120,308.58,120"/><path id="Path_38850" data-name="Path 38850" class="cls-11" d="M458,453c-6.54-83-45.95-143.12-59.16-169.68-5.61-14.94-122.74,25.37-124.83,31.2-20.6,57.59,6.61,133.53-.09,167.11-2.8,14.08-64.85,114-60,140.63,1.56,8.55,12.09,7.18,20.08,2.89,56-30.07,90.7-91.44,97.19-109.7,15-42,14-159.69,30.84-128.37,2.94,5.45,30.3,80.64,30.3,88.13,0,24.23-19.67,173.88.18,173.88,34,0,67.94-165.17,65.5-196.1"/><path id="Path_38851" data-name="Path 38851" class="cls-7" d="M458,453c-5.23-66.45-31.53-118.21-48.59-149.86,6.11,43.4,15,103.81,20.27,126.3,8.57,36.69-21.51,161.19-26.88,183.64-2.93,12.27-2.51,23,.58,30.68C433.37,615.25,460.2,480.65,458,453"/><path id="Path_38852" data-name="Path 38852" class="cls-7" d="M331.21,515.49c11.16-31.38,13.46-104.85,20.91-127.11-9.26,10.17-33.69,40.2-33.71,74.15,0,41.91-40.8,91.4-55.62,110.27s-37.54,46.56-34.51,54.77a31.29,31.29,0,0,0,5.74-2.38c56-30.07,90.7-91.44,97.19-109.7"/><path id="Path_38853" data-name="Path 38853" class="cls-12" d="M248.91,171.26c15.22-42.09,85.17-43.5,107.12-36.89,15,4.52,26.26,43.2,28.39,72.15,3.48,47.23,48.4,102.62,43.58,122.74-9.7,40.48-107.88,79.76-161.3,54.2C242.81,372,244,184.71,248.91,171.26"/><path id="Path_38854" data-name="Path 38854" class="cls-7" d="M419.34,263.61c-7.11-25.47-44.23-102.14-44.23-102.14-6.41,14.74-5.41,40.84-2.51,64.58,13.14,17,29.48,31.4,46.74,37.56"/><path id="Path_38855" data-name="Path 38855" class="cls-4" d="M384.42,206.52c-2.13-29-13.39-67.63-28.4-72.15-6.87-2.07-18.47-3.35-31.62-2.84,4.6,10.38,17.68,41.07,21.93,63.07,5.17,26.86,15,99.75,35,121.93,9.95,11,20.16,26.51,27.93,39.31,9.73-8.31,16.5-17.41,18.7-26.58,4.82-20.12-40.1-75.51-43.58-122.74"/><path id="Path_38856" data-name="Path 38856" class="cls-7" d="M392,239l-86.15,2.91s23.13,31.49,67.62,32c15.15.15,25.82-.31,33.32-1A337.79,337.79,0,0,1,392,239"/><path id="Path_38857" data-name="Path 38857" class="cls-12" d="M249.7,171.72c2.23,37.17,58.76,83.33,116.17,94,66.39,12.29,124.42-86.94,95.29-111.17-12.46-10.36-62.3,66-89.16,66.66-11.25.3-55.64-38.21-79.33-49.26s-43.64-11.38-43-.19"/><path id="Path_38858" data-name="Path 38858" class="cls-4" d="M250.33,176.6c14.16,6.37,34.73,16.75,41.1,25.77,10,14.2-.8,20.48,27.94,29.14s46.4,18,62,18.76,46.4-28.76,55.86-41.82c8.67-12,13.53-44.78,23.23-54.41a3.8,3.8,0,0,1,.71.47c29.13,24.23-28.89,123.46-95.29,111.17-54.92-10.17-109-52.86-115.54-89.08"/><path id="Path_38859" data-name="Path 38859" class="cls-17" d="M454.32,153.16s4.52-7.67,4.84-10.13-3.84-8-1.66-9.08,6.13,4.73,7,7.62,17.69-11,19.93-8.82,0,8.61.74,11.54.1,8.05-9.06,16-29,9.64-21.78-7.11"/><path id="Path_38860" data-name="Path 38860" class="cls-17" d="M310.15,113l-9.59,27.11c-.1,4,21,15.29,27.34,10.39,1.85-1.43,1.4-5.23-.25-9.37l-9.87-22.55Z"/><path id="Path_38861" data-name="Path 38861" class="cls-16" d="M319.77,123.07c-4.35-.85-10.28-2.08-10.28-2.08a18.82,18.82,0,0,0,6.25,12.28,18,18,0,0,0,10.47,4.52Z"/><path id="Path_38862" data-name="Path 38862" class="cls-17" d="M316.36,103,310,118.14a10.06,10.06,0,0,0,6.13,12.62c4.09,1.47,6.81,1.69,12.21,1.48,4.51-.18,7.15-4.28,7.62-10.13a55,55,0,0,0-2-18.53c-2.43-8.63-12.66-10.23-17.54-.63"/><path id="Path_38863" data-name="Path 38863" class="cls-17" d="M315.92,110.72a14.14,14.14,0,0,1,0-3c.15-1.94-.06-4.85-3.05-3.67-4.33,1.72-4.6,12.08.12,13.24,3.5.87,3.3-4,3-6.52"/><path id="Path_38864" data-name="Path 38864" class="cls-18" d="M325.61,115.12a26.93,26.93,0,0,0,8.88,1,3.47,3.47,0,0,1-2.21,2.8c-2.16,1-5.77.37-6.67-3.79"/><path id="Path_38865" data-name="Path 38865" class="cls-21" d="M330.19,126.54c-4.91-1.4-9.32,5.85-17.61-2-1.55-1.47-2.16-4.76-2.45-6.7l-.14.33a10.05,10.05,0,0,0,6.13,12.61c4.09,1.47,6.81,1.7,12.21,1.48a7,7,0,0,0,6.09-4.21c-.9.07-2.73-1.05-4.23-1.48"/><path id="Path_38866" data-name="Path 38866" class="cls-7" d="M381.75,646.54c3.07-4.12,2.61-7.66,2.49-11.33A4.24,4.24,0,0,1,387.8,631c7.7-1.33,25.86-4,27.13.25.27.89-7.32,10.25-6.83,11.1,1.28,2.27,5.26,4.1,10.73,6.7,8.63,4.93,19.27,11.27,19.52,14.31.4,5.06-51.64,2.56-60.07-2.71-4.41-2.75-1-8.08,3.46-14.06"/><path id="Path_38867" data-name="Path 38867" class="cls-7" d="M207.64,634.37c3-4,4.34-12.29,4.23-15.9a4.16,4.16,0,0,1,3.49-4.17c7.57-1.31,24.69,2.15,25.94,6.31.27.88-8.27,8.76-7.79,9.6,1.26,2.23,5.17,4,10.54,6.58,8.48,4.84,18.93,11.07,19.17,14.05.39,5-50.7,2.51-59-2.66-4.32-2.7-1-7.94,3.41-13.81"/><path id="Path_38868" data-name="Path 38868" class="cls-21" d="M305.49,115.59a1.26,1.26,0,0,0,1.54-.07c2.73-2.19,10.43-11,18.86-11.79a13.05,13.05,0,0,1,7.47,1.6,1.4,1.4,0,0,0,1.82-.75.82.82,0,0,0,.06-.19c.78-2.87,1.78-8.65-1.7-11.36,0,0-3-10.41-13.58-12.89C312.8,78.46,300,85,301.28,89.05a16.66,16.66,0,0,0,2.89,5.86s-6,15,1.31,20.69"/><path id="Path_38869" data-name="Path 38869" class="cls-22" d="M333.55,93s-3-10.4-13.58-12.88c-3.28-.77-7.73.19-11.48,1.85,3.79,2.59,14,9.86,13.46,12.47,0,0,6.87,2.38,5.67,9.29a14.4,14.4,0,0,1,5.74,1.58,1.39,1.39,0,0,0,1.82-.75,1.46,1.46,0,0,0,.07-.19c.78-2.87,1.77-8.64-1.7-11.36"/><path id="Path_38870" data-name="Path 38870" class="cls-12" d="M304.13,130s9.68,7,20.53,4.27c0,0,7.65,5.84,7,11.78s-4.68,10.36-11.25,9.15S298,145.12,298.48,141s.2-13.9,5.65-11"/><path id="Path_38871" data-name="Path 38871" class="cls-7" d="M345.55,386.65l-79.31-15c.13,7,.55,14,1.12,20.88,12,3,52.4,11.31,78.19-5.88"/><path id="Path_38872" data-name="Path 38872" class="cls-23" d="M392.11,347.54c-22.39,18.51-76.33,29.94-99.42,27.66a115.09,115.09,0,0,1-35.77-9.89c2.66,9.71,5.88,16.28,9.78,18.15C320.12,409,418.3,369.74,428,329.26c1.2-5-.69-12.22-4.25-20.94-7.05,11.7-18.36,28.24-31.63,39.22"/></g></g></g></svg>