<svg id="Layer_1" data-name="Layer 1" xmlns="http://www.w3.org/2000/svg" xmlns:xlink="http://www.w3.org/1999/xlink" viewBox="0 0 1100 700"><defs><style>.cls-1{fill:#fef3e0;}.cls-2{fill:#855f28;}.cls-3{fill:#662482;}.cls-4{fill:url(#linear-gradient);}.cls-5{fill:#ff6687;}.cls-6{fill:#3f63d8;}.cls-7{fill:#2d2d2d;}.cls-8{fill:#e0e0e0;}.cls-9{fill:url(#linear-gradient-2);}.cls-10{fill:#fff;}.cls-11{fill:url(#linear-gradient-3);}.cls-12{fill:url(#linear-gradient-4);}.cls-13{fill:url(#linear-gradient-5);}.cls-14{fill:#9c742f;}.cls-15{fill:url(#linear-gradient-6);}.cls-16{fill:url(#linear-gradient-7);}.cls-17{fill:#0e2050;}.cls-18{fill:#311e69;}.cls-19{fill:#614cd4;}.cls-20{fill:#ad263d;}.cls-21{fill:#ff6161;}.cls-22{fill:#d60b51;}.cls-23{fill:#298696;}.cls-24{fill:#ffc82c;}.cls-25{fill:#36a9e1;}.cls-26{fill:url(#linear-gradient-8);}.cls-27{fill:#662483;}.cls-28{fill:url(#linear-gradient-9);}.cls-29{fill:url(#linear-gradient-10);}.cls-30{fill:url(#linear-gradient-11);}.cls-31{fill:url(#linear-gradient-12);}.cls-32{fill:url(#linear-gradient-13);}.cls-33{fill:url(#linear-gradient-14);}.cls-34{fill:url(#linear-gradient-15);}.cls-35{fill:#33186b;}.cls-36{fill:#f7de61;}.cls-37{fill:#f9b233;}.cls-38{fill:#ffe159;}</style><linearGradient id="linear-gradient" x1="-5098.15" y1="4856.43" x2="-5098.15" y2="4855.2" gradientTransform="matrix(20.27, 0, 0, -20.58, 103604.73, 99962.71)" gradientUnits="userSpaceOnUse"><stop offset="0" stop-color="#c7b299"/><stop offset="0.16" stop-color="#a79683"/><stop offset="0.43" stop-color="#776e63"/><stop offset="0.67" stop-color="#54504b"/><stop offset="0.87" stop-color="#3f3e3d"/><stop offset="1" stop-color="#383838"/></linearGradient><linearGradient id="linear-gradient-2" x1="-5197.97" y1="4708.03" x2="-5195.17" y2="4708.03" gradientTransform="matrix(37.51, 0, 0, -64.47, 195189.85, 303776.64)" gradientUnits="userSpaceOnUse"><stop offset="0" stop-color="#fff"/><stop offset="0.08" stop-color="#f7f7f7"/><stop offset="0.47" stop-color="#d4d4d4"/><stop offset="0.79" stop-color="#bfbfbf"/><stop offset="1" stop-color="#b8b8b8"/></linearGradient><linearGradient id="linear-gradient-3" x1="-5106.47" y1="4696.16" x2="-5103.67" y2="4696.16" gradientTransform="matrix(21.06, 0, 0, -75.64, 107827.53, 355706.89)" gradientUnits="userSpaceOnUse"><stop offset="0" stop-color="#fff"/><stop offset="0.09" stop-color="#f1eef5"/><stop offset="0.39" stop-color="#cbbedb"/><stop offset="0.65" stop-color="#af9bc8"/><stop offset="0.86" stop-color="#9e86bc"/><stop offset="1" stop-color="#987fb8"/></linearGradient><linearGradient id="linear-gradient-4" x1="-5103.86" y1="4704.55" x2="-5101.06" y2="4704.55" gradientTransform="matrix(20.47, 0, 0, -65.37, 104654.55, 308021.46)" xlink:href="#linear-gradient-3"/><linearGradient id="linear-gradient-5" x1="-5215.97" y1="4727.11" x2="-5215.99" y2="4725.09" gradientTransform="matrix(45.12, 0, 0, -50.64, 235641.42, 239540.81)" xlink:href="#linear-gradient-2"/><linearGradient id="linear-gradient-6" x1="-4788.36" y1="5709.9" x2="-4788.65" y2="5704.88" gradientTransform="matrix(8.29, 0, 0, -4.1, 39977.66, 23446.14)" xlink:href="#linear-gradient-3"/><linearGradient id="linear-gradient-7" x1="-4458.74" y1="5516.42" x2="-4458.74" y2="5511.41" gradientTransform="matrix(5.1, 0, 0, -5.05, 22995.28, 27861.73)" xlink:href="#linear-gradient"/><linearGradient id="linear-gradient-8" x1="-5082.08" y1="4678.14" x2="-5082.08" y2="4676.29" gradientTransform="matrix(20.32, 0, 0, -118.02, 104049.47, 552370.25)" gradientUnits="userSpaceOnUse"><stop offset="0" stop-color="#fff"/><stop offset="0.02" stop-color="#fdfdfe"/><stop offset="0.43" stop-color="#dadef1"/><stop offset="0.78" stop-color="#c5cae8"/><stop offset="1" stop-color="#bec4e6"/></linearGradient><linearGradient id="linear-gradient-9" x1="-4786.84" y1="5004.37" x2="-4786.65" y2="5007.76" gradientTransform="matrix(8.86, 0, 0, -11.89, 43124.68, 59630.99)" xlink:href="#linear-gradient-3"/><linearGradient id="linear-gradient-10" x1="-5112.56" y1="4710.91" x2="-5111.28" y2="4712.53" gradientTransform="matrix(22.87, 0, 0, -58.51, 117541.12, 276151.49)" xlink:href="#linear-gradient-8"/><linearGradient id="linear-gradient-11" x1="-4707.69" y1="5621.96" x2="-4704.8" y2="5621.96" gradientTransform="matrix(7.74, 0, 0, -4.42, 37217.54, 24960.23)" xlink:href="#linear-gradient-3"/><linearGradient id="linear-gradient-12" x1="-2871.97" y1="6643.43" x2="-2868.62" y2="6641.12" gradientTransform="matrix(1.91, 0, 0, -2.17, 6217.95, 14522.39)" gradientUnits="userSpaceOnUse"><stop offset="0" stop-color="#fff"/><stop offset="0.09" stop-color="#efefef"/><stop offset="0.38" stop-color="#bfbfbf"/><stop offset="0.65" stop-color="#9c9c9c"/><stop offset="0.86" stop-color="#878787"/><stop offset="1" stop-color="gray"/></linearGradient><linearGradient id="linear-gradient-13" x1="-2500.43" y1="6846.26" x2="-2496.46" y2="6843.63" gradientTransform="matrix(1.66, 0, 0, -1.97, 4897.46, 13595.87)" xlink:href="#linear-gradient-12"/><linearGradient id="linear-gradient-14" x1="-5234.69" y1="4722.73" x2="-5233.92" y2="4721.43" gradientTransform="matrix(60.79, 0, 0, -52.36, 319066.95, 247566.7)" xlink:href="#linear-gradient-3"/><linearGradient id="linear-gradient-15" x1="-5181.6" y1="4686" x2="-5182.79" y2="4684.2" gradientTransform="matrix(35.32, 0, 0, -97.98, 183681.95, 459341.72)" xlink:href="#linear-gradient-3"/></defs><title>2789 Website–Key Features–V1B</title><path class="cls-1" d="M346.67,73.2C246.37,165.71,160.4,438.69,340.07,593s498.79,108.9,498.79-295.83C838.86-8.46,447-19.31,346.67,73.2Z"/><g id="Component_77_4" data-name="Component 77 4"><g id="Group_7365" data-name="Group 7365"><g id="Group_7364" data-name="Group 7364"><path id="Path_37887" data-name="Path 37887" class="cls-2" d="M353.53,220.89l-28.48-60.32,15.43-5.1L381,211Z"/><path id="Path_37888" data-name="Path 37888" class="cls-3" d="M350.72,166c-23.67-59-81.22-82.51-81.22-82.51l-4.08,52.1s33.11,20.59,36.41,34.83A124.67,124.67,0,0,0,350.72,166Z"/><path id="Path_37889" data-name="Path 37889" class="cls-4" d="M239.23,40.74c3.11-7.64,12.67-21.54,32.07-18s18.59,48.64,18.59,48.64a47.29,47.29,0,0,1-28.38,8.4C240.27,79.51,233.12,69,233.12,69S236.15,48.31,239.23,40.74Z"/><path id="Path_37890" data-name="Path 37890" class="cls-5" d="M226.44,98.35C202.23,129.72,192.13,145.9,159.66,241c-31.22,91.43,33.44,340.12,33.44,340.12h19s12.31-300.42,30.27-316c0,0,88,21.17,87,2.3-3.26-65.49-51.82-77.79-57.45-101.34s25.26-65.69,5.76-75.9C260.21,81,243,77,226.44,98.35Z"/><path id="Path_37891" data-name="Path 37891" class="cls-6" d="M180.16,109.9c-5.84,18.1-12.49,40.21-20.5,68C128.44,286.33,193.1,581.13,193.1,581.13h19s12.27-355,30.19-374.51l1.78-80.74C221.23,123.58,198.37,118.84,180.16,109.9Z"/><path id="Path_37892" data-name="Path 37892" class="cls-6" d="M329.39,209.25c-1.73-41.2-16.21-64.63-30.27-81.73A429.14,429.14,0,0,1,244,125.88l-1.79,80.75.09-.1s57,340.66,65.51,374.6h19.58S330.34,231.63,329.39,209.25Z"/><path id="Path_37893" data-name="Path 37893" class="cls-7" d="M231.1,312.89c1.4-12.53,2.85-23.52,4.35-32.42l-66.69,12.29Z"/><path id="Path_37894" data-name="Path 37894" class="cls-7" d="M261.5,302.38s43,8,68.07,5.13c0-12.56,0-23.25,0-31.37Z"/><path id="Path_37895" data-name="Path 37895" class="cls-3" d="M329.4,301.67C326.14,224,277.58,209.46,272,181.55s28.29-79.76,8.79-91.87c-17.5-10.87-37.77-13.8-54.3,11.56-24.21,37.19-34.31,56.37-66.78,169.12a244.05,244.05,0,0,0-8.4,61.29,559.26,559.26,0,0,0,79.5,11.4c7.28.49,14.76.84,22.35.95,25.88.42,52.88-1.65,76.46-8.61C329.62,318.31,329.58,306,329.4,301.67Z"/><g id="Group_7356" data-name="Group 7356"><path id="Path_37896" data-name="Path 37896" class="cls-8" d="M253.93,276.21c-8.08-.12-16.06-.46-23.83-.95a638,638,0,0,1-77.17-9.88c-.92,8.43-1.48,17.09-1.68,25.91a557.8,557.8,0,0,0,79.5,11.39c7.29.49,14.77.84,22.35.95C279,304.06,306,302,329.57,295c0-10.82,0-19.72,0-25.9A307.52,307.52,0,0,1,253.93,276.21Z"/></g><g id="Group_7357" data-name="Group 7357"><path id="Path_37897" data-name="Path 37897" class="cls-9" d="M329.58,292.05v-5.8c0-4.81-.07-8.33-.16-10.25-3.26-77.63-51.81-92.21-57.45-120.12S253.32,139,242.28,142.17c-13.6,3.88-17.83-3.92-17.75,12.71s35.69,93.36,45,125.2a258.7,258.7,0,0,1,7.79,37.86,227.85,227.85,0,0,0,52.21-8.21V298.25Q329.6,295,329.58,292.05Z"/></g><path id="Path_37898" data-name="Path 37898" class="cls-7" d="M289.9,196.08l-60.44-36.32a59.35,59.35,0,0,0,20.94,51.58c17.45,14.82,48.06,16.69,67.65,14.47a119.23,119.23,0,0,0-10.43-18.66Z"/><path id="Path_37899" data-name="Path 37899" class="cls-7" d="M183.91,169.42c-4.49,13.39-9.44,29.2-15.15,48.35C192,216.22,217.9,191.05,223.64,178c9.49-21.55,1.76-34.88,1.76-34.88Z"/><path id="Path_37900" data-name="Path 37900" class="cls-3" d="M256.33,81.69S145.08,93,120.74,168c-20.56,63.35,61.9,95,101.67,19,4.12-7.87,4.71-28.77-1.06-35.52-9.63-11.27-57.49,21.17-57.11,14.84s65.21-54,65.21-54Z"/><path id="Path_37901" data-name="Path 37901" class="cls-8" d="M256.59,85.55s-7.21,4.6-8.76,11.35,6.08,10,13.69,7.62,9-10.67,9.63-14.8S261.25,83.57,256.59,85.55Z"/><path id="Path_37902" data-name="Path 37902" class="cls-5" d="M269.27,65.24l.28,23.27c0,3.83-9.41,13.68-15.45,8.82-1.77-1.42.56-6.68,2.22-10.66l4.57-20Z"/><path id="Path_37903" data-name="Path 37903" class="cls-7" d="M258.19,78.55c5-1.53,10-9,10-9h-7.95Z"/><path id="Path_37904" data-name="Path 37904" class="cls-5" d="M269.27,50.32l1.4,8.94A13.36,13.36,0,0,1,260.19,74.6a11.47,11.47,0,0,1-13.55-8.91,12.57,12.57,0,0,1-.23-1.92c-.85-7.32,4.35-13.63,6.23-16.94C256.93,39.3,266.91,40.15,269.27,50.32Z"/><path id="Path_37905" data-name="Path 37905" class="cls-5" d="M269,58.91a11.43,11.43,0,0,0,.59-2.3c.25-1.49.95-3.64,3-2.2,3,2.11,1.22,10-2.56,10C267.22,64.4,268.28,60.77,269,58.91Z"/><path id="Path_37906" data-name="Path 37906" class="cls-5" d="M250.25,56.17a10.53,10.53,0,0,1-.06-2.38c.1-1.51-.09-3.77-2.41-2.82-3.36,1.38-3.46,9.44.22,10.3C250.74,61.91,250.53,58.13,250.25,56.17Z"/><path id="Path_37907" data-name="Path 37907" class="cls-10" d="M260.62,62.88A26,26,0,0,1,252,61.76,10.47,10.47,0,0,0,254.49,67C256.28,68.44,258.81,66.59,260.62,62.88Z"/><g id="Group_7358" data-name="Group 7358"><path id="Path_37908" data-name="Path 37908" class="cls-5" d="M193.1,581.12s2.14,10.44,1.33,12.07c-.33.66-8.1,3.19-14.21,6.33-2.73,2.38-5.39,5.45-2.44,6.4,5.06,1.64,34.75,1.65,37.53-3.26a13.08,13.08,0,0,1,3.44-4,39,39,0,0,1-6.68-17.58Z"/><path id="Path_37909" data-name="Path 37909" class="cls-6" d="M215.31,602.67c-2.8,4.92-32.49,4.9-37.54,3.27-3-1-.28-4,2.44-6.41-9.17,4.71-20.49,10.78-20.88,13.91-.65,5.23,53.37,5.07,62.35,0,4.69-2.64,1.4-8.33-2.93-14.73A13.2,13.2,0,0,0,215.31,602.67Z"/></g><g id="Group_7359" data-name="Group 7359"><path id="Path_37910" data-name="Path 37910" class="cls-5" d="M327.44,581.12a18.47,18.47,0,0,0,2,12c1.44,2.3,5.64,4,11.43,6.45,2.74,2.39,5.4,5.45,2.44,6.41-5,1.63-34.75,1.65-37.53-3.27a12.91,12.91,0,0,0-3.43-4,36.38,36.38,0,0,0,5.55-17.58Z"/><path id="Path_37911" data-name="Path 37911" class="cls-6" d="M305.74,602.67c2.8,4.92,32.49,4.9,37.53,3.27,3-1,.28-4-2.44-6.41,9.18,4.71,20.5,10.78,20.89,13.91.65,5.23-53.37,5.07-62.35,0-4.69-2.64-1.4-8.33,2.93-14.73A13.2,13.2,0,0,1,305.74,602.67Z"/></g><g id="Group_7360" data-name="Group 7360"><path id="Path_37912" data-name="Path 37912" class="cls-11" d="M292.68,397.92c-8.16-6-15.78-19.14-22.79-28.66,15.87,92.81,33.53,194.15,38,211.87h19.58s.82-98.85,1.45-194.78C318.05,403.14,310.46,411,292.68,397.92Z"/></g><path id="Path_37913" data-name="Path 37913" class="cls-12" d="M220.64,398c-4.45,9.24-11.63,22-18.53,25.31-7.85,3.71-26-3.67-38.81-13.14,12.39,91.53,29.8,170.92,29.8,170.92h19S215.22,490.32,220.64,398Z"/><path id="Path_37914" data-name="Path 37914" class="cls-2" d="M295.54,167l28.06,62-24.77,8.2s-17.3-40.59-19.23-65.66Z"/><path id="Path_37915" data-name="Path 37915" class="cls-2" d="M277.24,87.17s-4.48,58.7-1,83.89,5.15,21.26,5.15,21.26l14.12.22S280,95.91,281,89.21A8.58,8.58,0,0,0,277.24,87.17Z"/><path id="Path_37916" data-name="Path 37916" class="cls-3" d="M350.73,145.73a124.66,124.66,0,0,1-48.89,4.4,7.65,7.65,0,0,1-3.66,8.8c-11,7.18-45.51-32.66-57.81-24.37-7.37,5-12.39,25.26-10.52,33.95,18,83.89,151.57,57.67,121.75-20.56C351.31,147.2,351,146.46,350.73,145.73Z"/><path id="Path_37917" data-name="Path 37917" class="cls-5" d="M246.93,145c1.61-4.33-1.44-16.36-4.93-17.82s-8,13.16-5.19,19S246,147.43,246.93,145Z"/><rect id="Rectangle_1471" data-name="Rectangle 1471" class="cls-10" x="220.38" y="122.19" width="29.54" height="16.18" rx="2.73" transform="matrix(0.17, -0.98, 0.98, 0.17, 66.12, 339.32)"/><path id="Path_37918" data-name="Path 37918" class="cls-5" d="M223.09,144.22a15.27,15.27,0,0,1,5-5.46s-1,7.21.28,8S235,145.36,238,143c5.06-3.93,4.7,1.69,2.42,6.1S226.75,160.34,222,159,221.16,147.52,223.09,144.22Z"/><g id="Group_7361" data-name="Group 7361"><path id="Path_37919" data-name="Path 37919" class="cls-13" d="M351.6,168.17c-.28-.75-.58-1.48-.88-2.22a150.52,150.52,0,0,0-46-60.65c-4.71-3.8-8.81-6.65-8.81-6.65s18.71,32.32,27.64,45C348,178.62,332,202,304.59,209c-21.15,5.47-53.77.79-73.18-37.81a42,42,0,0,0-1.56,17.52C247.83,272.62,381.41,246.4,351.6,168.17Z"/></g><g id="Group_7362" data-name="Group 7362"><path id="Path_37920" data-name="Path 37920" class="cls-2" d="M298.82,230.07,381,201.59l14.63,51.1a14.4,14.4,0,0,1-9.55,17.7L329.15,288.2a14.41,14.41,0,0,1-18-9.45c-.08-.26-.15-.52-.22-.78Z"/><path id="Path_37921" data-name="Path 37921" class="cls-14" d="M298.82,230.07a87.47,87.47,0,0,0,33.87,11.77c19.57,2.39,42.64-8,48.3-40.23Z"/></g><g id="Group_7363" data-name="Group 7363"><path id="Path_37922" data-name="Path 37922" class="cls-15" d="M259.39,71.71A17.5,17.5,0,0,1,250,69.1a17.84,17.84,0,0,1-3.61-5.72,2.55,2.55,0,0,0,0,.4,11.47,11.47,0,0,0,11.86,11.07,12.57,12.57,0,0,0,1.92-.23,12.85,12.85,0,0,0,9.43-7.56A16.57,16.57,0,0,1,259.39,71.71Z"/></g><path id="Path_37923" data-name="Path 37923" class="cls-16" d="M256.82,41S259.71,53.9,270,55.11a16.24,16.24,0,0,0,.81-8.81C269.66,42.71,256.82,41,256.82,41Z"/></g></g><g id="Group_7372" data-name="Group 7372"><g id="Group_7366" data-name="Group 7366"><path id="Path_37924" data-name="Path 37924" class="cls-17" d="M326.74,383h5.1l.24-75.06c0-1,2.13-2.52,5.33-2.51l36.09.12c3.2,0,5.32,1.54,5.31,2.54l-.24,75.06,5.09,0,.25-75.06c0-4.28-4.55-7.64-10.39-7.66l-36.1-.11c-5.84,0-10.42,3.31-10.43,7.58Z"/></g><g id="Group_7371" data-name="Group 7371"><g id="Group_7368" data-name="Group 7368"><path id="Path_37925" data-name="Path 37925" class="cls-18" d="M322.84,601.08l.11-35-9.3,0-.13,41S324.2,610.66,322.84,601.08Z"/><g id="Group_7367" data-name="Group 7367"><path id="Path_37926" data-name="Path 37926" class="cls-18" d="M318.23,607a18.83,18.83,0,0,1,1.65-7.86l0-5.15,6.31,0c4.39,0,7.93,5.86,7.91,13s-3.6,13-8,13l-6.31,0v-5.14A18.91,18.91,0,0,1,318.23,607Z"/><path id="Path_37927" data-name="Path 37927" class="cls-19" d="M311.91,607c0,7.19,3.52,13,7.91,13s8-5.8,8-13-3.51-13-7.9-13S311.94,599.83,311.91,607Z"/></g></g><g id="Group_7370" data-name="Group 7370"><path id="Path_37928" data-name="Path 37928" class="cls-18" d="M411.17,598.76l.11-35-9.3,0-.14,41S412.52,608.34,411.17,598.76Z"/><g id="Group_7369" data-name="Group 7369"><path id="Path_37929" data-name="Path 37929" class="cls-18" d="M406.55,604.71a19,19,0,0,1,1.66-7.86l0-5.15,6.31,0c4.39,0,7.92,5.86,7.9,13s-3.59,13-8,13l-6.32,0,0-5.15A19.07,19.07,0,0,1,406.55,604.71Z"/><path id="Path_37930" data-name="Path 37930" class="cls-19" d="M400.24,604.69c0,7.19,3.51,13,7.9,13s8-5.8,8-13-3.51-13-7.9-13S400.26,597.5,400.24,604.69Z"/></g></g><path id="Path_37931" data-name="Path 37931" class="cls-20" d="M295.07,375.61a19.47,19.47,0,0,1,12.54-4.51l103,.33a32.3,32.3,0,0,1,26.93,14.64l-97.88-.32a25,25,0,0,0-22.05,13.13h0a24.91,24.91,0,0,0-3,11.73L314,594.17l-13.28-9.93a32.89,32.89,0,0,1-13.21-26.47l.54-167.25A19.45,19.45,0,0,1,295.07,375.61Z"/><path id="Path_37932" data-name="Path 37932" class="cls-21" d="M317.57,398.88h0a25,25,0,0,1,22.05-13.13l97.88.32a31.54,31.54,0,0,1,2.76,5.2l1.45,3.49a91.62,91.62,0,0,1,7.1,35.68l-.49,154a19.13,19.13,0,0,1-19.19,19.06h0l-92.25-.3a32.9,32.9,0,0,1-19.6-6.55L314,594.17l.6-183.55A24.92,24.92,0,0,1,317.57,398.88Z"/><path id="Path_37933" data-name="Path 37933" class="cls-17" d="M375.08,441.05c0,3.67,7.23,6.66,16.18,6.68s16.22-2.91,16.25-6.57-7.24-6.66-16.19-6.68S375.09,437.39,375.08,441.05Z"/><path id="Path_37934" data-name="Path 37934" class="cls-20" d="M428.24,470s-41.28,12.3-76.08-4.73C352.16,465.24,394.44,503.09,428.24,470Z"/><path id="Path_37935" data-name="Path 37935" class="cls-20" d="M423.2,497.23s-31.22,11.2-58.7-.43C364.5,496.8,398.61,524.12,423.2,497.23Z"/><path id="Path_37936" data-name="Path 37936" class="cls-20" d="M419.65,522.83s-25.14,9-47.27-.34C372.38,522.49,399.84,544.49,419.65,522.83Z"/><path id="Path_37937" data-name="Path 37937" class="cls-20" d="M440.26,391.27a31.54,31.54,0,0,0-2.76-5.2l-9.26-4-7,3.93c.21,3.26,1.77,8.25,7,15.45,10.93,15.1,11.31,31.37,10.93,52.65S444,525,439.26,542s-29.53,16.07-29.13,38.73c.14,8.31-.23,15.94-.28,22.65l19.3.06a19.12,19.12,0,0,0,19.19-19.05h0l.49-154a91.62,91.62,0,0,0-7.1-35.68Z"/></g></g><g id="Group_7386" data-name="Group 7386"><path id="Path_37938" data-name="Path 37938" class="cls-7" d="M678.32,441.13l125.4-4.76-49-162.12Z"/><path id="Path_37939" data-name="Path 37939" class="cls-22" d="M739.11,135.65a135.21,135.21,0,0,1,15.62,4.64c4.23,1.9-1.31,16.85-1.31,16.85S736,147.33,739.11,135.65Z"/><path id="Path_37940" data-name="Path 37940" class="cls-23" d="M741.74,97.79a38.85,38.85,0,0,0-10.87-.54c-3.26.81-6.79-3.72-10-2.27s-2.18,6.44.81,8.06,1.19,18,9.88,20.59S748.54,103.5,741.74,97.79Z"/><path id="Path_37941" data-name="Path 37941" class="cls-24" d="M752.25,112.56s4.62-6.8,3.27-12.14-8.71-10.15-12.29-9.6-1.83,3.33-2.21,5.07c-2.07,9.44-11.5,14.52-11.59,21.85s9.42,9.68,12.41,7.78S752.25,112.56,752.25,112.56Z"/><path id="Path_37942" data-name="Path 37942" class="cls-22" d="M768.41,547.13v-7.75l21.17,1.42-2,6.33Z"/><g id="Group_7375" data-name="Group 7375"><path id="Path_37943" data-name="Path 37943" class="cls-22" d="M643.88,547.13s-6,3.5-7.38,6.91,4.41,5.55,13.22,2.71a27,27,0,0,0,13.3-9.62Z"/><g id="Group_7374" data-name="Group 7374"><path id="Path_37944" data-name="Path 37944" class="cls-7" d="M663,547.13s18.15,20.5,9.81,24.29-57.59,5.57-65.17,2.15,36.22-26.44,36.22-26.44-5.19,6-3.79,7.6C644,559.29,663,547.13,663,547.13Z"/><g id="Group_7373" data-name="Group 7373"><path id="Path_37945" data-name="Path 37945" class="cls-25" d="M612.22,566.29c10.68-.79,23.5,7.08,40.75,5a73.83,73.83,0,0,0,21.87-5.09c.48,2.38,0,4.31-2,5.24-8.35,3.79-57.58,5.56-65.16,2.15C605.37,572.54,607.77,569.72,612.22,566.29Z"/></g></g></g><g id="Group_7378" data-name="Group 7378"><path id="Path_37946" data-name="Path 37946" class="cls-22" d="M787.54,547.13s8.35,5.89,10.24,11.76-14,4.17-20.29-.95a37,37,0,0,1-9.1-10.82Z"/><g id="Group_7377" data-name="Group 7377"><path id="Path_37947" data-name="Path 37947" class="cls-7" d="M768.41,547.13s-18.15,20.5-9.81,24.29,57.58,5.57,65.16,2.15-36.21-26.44-36.21-26.44,5.18,6,3.79,7.6C787.39,559.29,768.41,547.13,768.41,547.13Z"/><g id="Group_7376" data-name="Group 7376"><path id="Path_37948" data-name="Path 37948" class="cls-25" d="M819.2,566.29c-10.68-.79-23.49,7.08-40.75,5a73.69,73.69,0,0,1-21.86-5.09c-.48,2.38,0,4.31,2,5.24,8.35,3.79,57.58,5.56,65.16,2.15C826.06,572.54,823.66,569.72,819.2,566.29Z"/></g></g></g><path id="Path_37949" data-name="Path 37949" class="cls-17" d="M795.4,214c-44,8.2-89,5.39-106.42,3.78-1.1,4.15-2.32,8.48-3.74,13.08C650.77,342.5,644,545.4,644,545.4s11,.44,19.15,0c0,0,52.57-166,66-208.67,6.41-20.35,12.3-27.56,18.33-50.35l18,258s11.45.37,24.79,0c0,0,35-242.47,20.17-290C806.32,241.05,800.8,227.07,795.4,214Z"/><path id="Path_37950" data-name="Path 37950" class="cls-7" d="M807.81,300.74c-3.51-11-5.77-16-10.2-26.9a203.75,203.75,0,0,0-25.56,3.42c-2.76,1.29-26.89,33.3-26.89,33.3S770.34,320,807.81,300.74Z"/><path id="Path_37951" data-name="Path 37951" class="cls-26" d="M810.49,254.41c-4.17-13.36-9.69-27.33-15.09-40.44-9.63,1.8-19.31,3.07-28.74,3.93,2.76,68.69,14,164.66,9.83,184.17-4,18.89-13.2,22.91-19.27,23.37l8.3,118.93s11.45.37,24.79,0C790.31,544.37,825.28,301.91,810.49,254.41Z"/><path id="Path_37952" data-name="Path 37952" class="cls-10" d="M803.1,325.7c.17-29,16.64-103.5,16.64-103.5s21.93-52.37,16.39-64c-35.3-13.6-124.86-37.09-168.07,14.62-10.47,12.52,19.51,43.54,23.49,66.77,0,0,4.94,37.49-9.24,91.22C701.85,343.12,756.75,366,803.1,325.7Z"/><path id="Path_37953" data-name="Path 37953" class="cls-27" d="M742.58,136.29s71.9,7.23,96.06,22.32c0,0-25.32,119.75-21.24,154.27s-1.09,206-1.09,206-5.71,14-24.46,17.23c0,0-17.37-340.47-18.31-352.94-1.2-15.76-30.94-39.9-30.94-39.9Z"/><path id="Path_37954" data-name="Path 37954" class="cls-5" d="M732.2,119.89l-7.89,23.6c0,3.43,18.41,12.91,23.81,8.57,1.58-1.27,1.14-4.55-.36-8.11l-8.88-19.35Z"/><path id="Path_37955" data-name="Path 37955" class="cls-28" d="M732.2,119.89l-7.89,23.6c0,3.43,18.41,12.91,23.81,8.57,1.58-1.27,1.14-4.55-.36-8.11l-8.88-19.35Z"/><path id="Path_37956" data-name="Path 37956" class="cls-7" d="M740.67,128.49c-3.77-.67-8.93-1.64-8.93-1.64a16.36,16.36,0,0,0,5.6,10.53,15.64,15.64,0,0,0,9.13,3.75Z"/><path id="Path_37957" data-name="Path 37957" class="cls-29" d="M656.78,381.73C646.61,467.54,644,545.41,644,545.41s11,.44,19.15,0c0,0,25-78.86,44.9-141.84Z"/><path id="Path_37958" data-name="Path 37958" class="cls-7" d="M663.17,449.89s14.32,16.39,29,24.35c1.68-5.32,3.39-10.71,5.1-16.1Z"/><path id="Path_37959" data-name="Path 37959" class="cls-5" d="M737.42,111.13l-5.29,13.24a8.7,8.7,0,0,0,5.5,10.82,23.93,23.93,0,0,0,10.59,1.1c3.9-.22,6.11-3.81,6.44-8.88a47.37,47.37,0,0,0-2-16C750.37,104,741.49,102.75,737.42,111.13Z"/><path id="Path_37960" data-name="Path 37960" class="cls-5" d="M737.15,117.86a12.94,12.94,0,0,1-.07-2.64c.1-1.68-.13-4.2-2.69-3.12-3.73,1.55-3.8,10.51.3,11.45C737.74,124.25,737.48,120.06,737.15,117.86Z"/><path id="Path_37961" data-name="Path 37961" class="cls-10" d="M745.6,121.53a23.85,23.85,0,0,0,7.71.72,3,3,0,0,1-1.88,2.45,4.11,4.11,0,0,1-5.47-2A4.23,4.23,0,0,1,745.6,121.53Z"/><g id="Group_7379" data-name="Group 7379"><path id="Path_37962" data-name="Path 37962" class="cls-30" d="M749.74,131.34c-4.27-1.14-8,5.2-15.27-1.5a11.06,11.06,0,0,1-2.22-5.75l-.12.28a8.71,8.71,0,0,0,5.5,10.82,24.1,24.1,0,0,0,10.59,1.09,6.05,6.05,0,0,0,5.21-3.74A20.66,20.66,0,0,1,749.74,131.34Z"/></g><path id="Rectangle_1472" data-name="Rectangle 1472" class="cls-6" d="M756.2,191.16l4-22.9a2.64,2.64,0,0,1,3-2.14h0l10.21,1.79a2.64,2.64,0,0,1,2.14,3.06l-4,22.9a2.64,2.64,0,0,1-3.05,2.14h0l-10.19-1.79A2.63,2.63,0,0,1,756.2,191.16Z"/><path id="Path_37963" data-name="Path 37963" class="cls-22" d="M643.88,547.13l.14-1.73h19.15l-.15,1.73Z"/><path id="Path_37964" data-name="Path 37964" class="cls-27" d="M726.93,135.65s7.54,30.19,12.18,48.94S729.6,495.83,725,535.78a139.2,139.2,0,0,1-92.15-28l37.28-338.25A91.47,91.47,0,0,1,726.93,135.65Z"/><path id="Path_37965" data-name="Path 37965" class="cls-5" d="M771.37,195.68a86.9,86.9,0,0,1-7.1-11.44c-4.41-10.77,8.67-.28,8.67-.28l.56-3.15s3.25,4.09,7.24,9.14Z"/><path id="Path_37966" data-name="Path 37966" class="cls-27" d="M823.35,151.81c48.41,15.66,135.9,66.43,120.14,124.13-23.92,87.52-166.36,23.47-172.5-62.53l9.75-6s76.52,58.17,76.52,41.31c0-6-47-16.63-52.09-36.75C798.58,186.12,811.12,147.85,823.35,151.81Z"/><path id="Path_37967" data-name="Path 37967" class="cls-27" d="M670.11,169.53s-27.73,26.33-48.17,82.06,0,209.33,0,209.33h13S708.57,273.26,715.1,232.4,670.11,169.53,670.11,169.53Z"/><g id="Group_7380" data-name="Group 7380"><path id="Path_37968" data-name="Path 37968" class="cls-7" d="M613,269.32C611.55,334.37,622,412.58,622,412.58h13s27.3-69.56,50.12-133.2C650.17,289.56,626,278.62,613,269.32Z"/></g><g id="Group_7381" data-name="Group 7381"><path id="Path_37969" data-name="Path 37969" class="cls-7" d="M855.82,228.42c-10.43,5.16-75.1-44-75.1-44l-9.75,6c3.58,50.13,53.47,92.78,99.2,102.33A80.36,80.36,0,0,0,855.82,228.42Z"/></g><g id="Group_7382" data-name="Group 7382"><path id="Path_37970" data-name="Path 37970" class="cls-7" d="M750.47,115.18a3.17,3.17,0,0,1,2.87-3.27c2.45-.2,5.75-.06,6.94,1.94,2,3.33-.48,7.16-5.32,7.3C751.23,121.27,750.57,118.39,750.47,115.18Z"/><path id="Path_37971" data-name="Path 37971" class="cls-7" d="M748.44,115.18a3.17,3.17,0,0,0-2.87-3.27c-2.45-.2-5.75-.06-6.94,1.94-2,3.33.48,7.16,5.32,7.3C747.68,121.27,748.34,118.39,748.44,115.18Z"/></g><path id="Path_37972" data-name="Path 37972" class="cls-31" d="M742.1,112.56s-2.56.59-3,2.54.1,3,.92,3.39S743,113.65,744,113,743.51,112.33,742.1,112.56Z"/><path id="Path_37973" data-name="Path 37973" class="cls-32" d="M754.07,112.44a2.76,2.76,0,0,0-2.48,2.07c-.44,2,.11,3,.92,3.39s2.21-3.08,3.21-3.71S755.47,112.21,754.07,112.44Z"/><g id="Group_7383" data-name="Group 7383"><path id="Path_37974" data-name="Path 37974" class="cls-7" d="M747.76,115l-.5-1a4.27,4.27,0,0,1,4.13,0l-.65.88C749.6,114.12,747.79,115,747.76,115Z"/></g><path id="Path_37975" data-name="Path 37975" class="cls-7" d="M713.35,187.13s-12.83,82.68-28.29,116.41c0,0,19.47-26.79,27.94-76.63A148.43,148.43,0,0,0,713.35,187.13Z"/><g id="Group_7384" data-name="Group 7384"><path id="Path_37976" data-name="Path 37976" class="cls-33" d="M867.31,171.07c16.41,17.48,48.91,55.9,46,83.65-3.8,37-36.41,44-62.51,34.25-21.6-8.1-57.1-34.42-75.74-55,24.56,74.87,146.42,122.3,168.38,41.93C955.08,233.49,910.81,194.8,867.31,171.07Z"/></g><g id="Group_7385" data-name="Group 7385"><path id="Path_37977" data-name="Path 37977" class="cls-34" d="M696,157.25a488.23,488.23,0,0,1-17.68,89.44C664.54,291.42,642.1,363,616.78,382.61c2.46,28.65,5.18,49.08,5.18,49.08h13S708.59,244,715.12,203.17C718.3,183.27,707.71,167.84,696,157.25Z"/></g><path id="Path_37978" data-name="Path 37978" class="cls-5" d="M622,398.19s-3.82,19.71,1.55,30c5,9.55,6.3-2.27,7.22-10.94s2.24-12.35,2.8-7.95c.62,5-.71,10.26.84,10.22,5-.1,5-12.38.62-21.36S622,398.19,622,398.19Z"/></g><g id="Group_7389" data-name="Group 7389"><g id="Group_7387" data-name="Group 7387"><path id="Path_37979" data-name="Path 37979" class="cls-17" d="M670.14,444.16a2.49,2.49,0,0,1-2.83-2.09,2.44,2.44,0,0,1,.27-1.55l21.33-40a7.66,7.66,0,0,0-3.15-10.35,8.71,8.71,0,0,0-.94-.42L667,383.16a7.66,7.66,0,0,0-9.35,3.5l-22.26,40.61a2.49,2.49,0,0,1-4.36-2.39h0l22.25-40.62a12.7,12.7,0,0,1,15.45-5.77l17.86,6.61A12.64,12.64,0,0,1,694,401.32a12.21,12.21,0,0,1-.71,1.56l-21.33,40A2.5,2.5,0,0,1,670.14,444.16Z"/></g><g id="Group_7388" data-name="Group 7388"><path id="Path_37980" data-name="Path 37980" class="cls-35" d="M603.35,615.76s-1.1,6.66.23,8.56c0,0-.49,5.74,2,6.08a10,10,0,0,0,9.14-4.39s9.6-10.26,9-14.45S603.35,615.76,603.35,615.76Z"/><path id="Path_37981" data-name="Path 37981" class="cls-35" d="M527.28,584.11s-1.1,6.66.23,8.56c0,0-.48,5.74,2,6.09a10,10,0,0,0,9.14-4.39s9.6-10.26,9-14.46S527.28,584.11,527.28,584.11Z"/><path id="Path_37982" data-name="Path 37982" class="cls-36" d="M672.29,434.85,629,419.31a29.69,29.69,0,0,0-17.67-.78h0l-.89.25-23.44,6.54L588.64,442,543.2,548a30,30,0,0,0,15.44,39.2l47.08,20.76,1,10,23-6.58h0A29.89,29.89,0,0,0,650.53,592l40.05-119.39A30,30,0,0,0,672.29,434.85Z"/><path id="Path_37983" data-name="Path 37983" class="cls-37" d="M604.43,426.32l43.32,15.54A30,30,0,0,1,666,479.57L626,599a30,30,0,0,1-37.91,18.87c-.87-.29-1.72-.63-2.56-1l-51.42-22.68A29.94,29.94,0,0,1,518.66,555L566.79,442.7A29.94,29.94,0,0,1,604.43,426.32Z"/><path id="Path_37984" data-name="Path 37984" class="cls-38" d="M557.33,502.48s31,23.58,65.92,20.27C623.25,522.75,575.38,541.3,557.33,502.48Z"/><path id="Path_37985" data-name="Path 37985" class="cls-38" d="M552.9,527.16s22.86,19.45,49.83,18.37C602.74,545.53,565.14,557.77,552.9,527.16Z"/><path id="Path_37986" data-name="Path 37986" class="cls-38" d="M547.74,550s18.4,15.66,40.13,14.79C587.87,564.76,557.6,574.62,547.74,550Z"/><path id="Path_37987" data-name="Path 37987" class="cls-10" d="M619.14,477.13c-1.25,3.84-7.41,5.29-13.78,3.23s-10.52-6.84-9.28-10.69,7.41-5.29,13.78-3.23S620.39,473.27,619.14,477.13Z"/></g></g><path id="Path_37988" data-name="Path 37988" class="cls-5" d="M675.79,400.33c-4.34-9-13,0-13,0s-3.82,19.71,1.55,30c5,9.56,6.3-2.27,7.23-10.94s2.24-12.34,2.8-7.94"/></g></svg>